  0
SECTION
  2
HEADER
  9
$ACADVER
  1
AC1032
  9
$ACADMAINTVER
 90
       73
  9
$DWGCODEPAGE
  3
ANSI_1251
  9
$LASTSAVEDBY
  1
nohri
  9
$REQUIREDVERSIONS
160
                 0
  9
$INSBASE
 10
0.0
 20
0.0
 30
0.0
  9
$EXTMIN
 10
-161.2132382599591
 20
172.319128002834
 30
0.0
  9
$EXTMAX
 10
1792.786761740041
 20
321.9952731888943
 30
0.0
  9
$LIMMIN
 10
0.0
 20
0.0
  9
$LIMMAX
 10
420.0
 20
297.0
  9
$ORTHOMODE
 70
     0
  9
$REGENMODE
 70
     1
  9
$FILLMODE
 70
     1
  9
$QTEXTMODE
 70
     0
  9
$MIRRTEXT
 70
     1
  9
$LTSCALE
 40
1.0
  9
$ATTMODE
 70
     1
  9
$TEXTSIZE
 40
2.5
  9
$TRACEWID
 40
1.0
  9
$TEXTSTYLE
  7
Standard
  9
$CLAYER
  8
0
  9
$CELTYPE
  6
ByLayer
  9
$CECOLOR
 62
   256
  9
$CELTSCALE
 40
1.0
  9
$DISPSILH
 70
     0
  9
$DIMSCALE
 40
1.0
  9
$DIMASZ
 40
2.5
  9
$DIMEXO
 40
0.625
  9
$DIMDLI
 40
3.75
  9
$DIMRND
 40
0.0
  9
$DIMDLE
 40
0.0
  9
$DIMEXE
 40
1.25
  9
$DIMTP
 40
0.0
  9
$DIMTM
 40
0.0
  9
$DIMTXT
 40
2.5
  9
$DIMCEN
 40
2.5
  9
$DIMTSZ
 40
0.0
  9
$DIMTOL
 70
     0
  9
$DIMLIM
 70
     0
  9
$DIMTIH
 70
     0
  9
$DIMTOH
 70
     0
  9
$DIMSE1
 70
     0
  9
$DIMSE2
 70
     0
  9
$DIMTAD
 70
     1
  9
$DIMZIN
 70
     8
  9
$DIMBLK
  1

  9
$DIMASO
 70
     1
  9
$DIMSHO
 70
     1
  9
$DIMPOST
  1

  9
$DIMAPOST
  1

  9
$DIMALT
 70
     0
  9
$DIMALTD
 70
     3
  9
$DIMALTF
 40
0.03937007874016
  9
$DIMLFAC
 40
1.0
  9
$DIMTOFL
 70
     1
  9
$DIMTVP
 40
0.0
  9
$DIMTIX
 70
     0
  9
$DIMSOXD
 70
     0
  9
$DIMSAH
 70
     0
  9
$DIMBLK1
  1

  9
$DIMBLK2
  1

  9
$DIMSTYLE
  2
ISO-25
  9
$DIMCLRD
 70
     0
  9
$DIMCLRE
 70
     0
  9
$DIMCLRT
 70
     0
  9
$DIMTFAC
 40
1.0
  9
$DIMGAP
 40
0.625
  9
$DIMJUST
 70
     0
  9
$DIMSD1
 70
     0
  9
$DIMSD2
 70
     0
  9
$DIMTOLJ
 70
     0
  9
$DIMTZIN
 70
     8
  9
$DIMALTZ
 70
     0
  9
$DIMALTTZ
 70
     0
  9
$DIMUPT
 70
     0
  9
$DIMDEC
 70
     2
  9
$DIMTDEC
 70
     2
  9
$DIMALTU
 70
     2
  9
$DIMALTTD
 70
     3
  9
$DIMTXSTY
  7
Standard
  9
$DIMAUNIT
 70
     0
  9
$DIMADEC
 70
     0
  9
$DIMALTRND
 40
0.0
  9
$DIMAZIN
 70
     0
  9
$DIMDSEP
 70
    44
  9
$DIMATFIT
 70
     3
  9
$DIMFRAC
 70
     0
  9
$DIMLDRBLK
  1

  9
$DIMLUNIT
 70
     6
  9
$DIMLWD
 70
    -2
  9
$DIMLWE
 70
    -2
  9
$DIMTMOVE
 70
     0
  9
$DIMFXL
 40
1.0
  9
$DIMFXLON
 70
     0
  9
$DIMJOGANG
 40
0.7853981633974483
  9
$DIMTFILL
 70
     0
  9
$DIMTFILLCLR
 70
     0
  9
$DIMARCSYM
 70
     0
  9
$DIMLTYPE
  6

  9
$DIMLTEX1
  6

  9
$DIMLTEX2
  6

  9
$DIMTXTDIRECTION
 70
     0
  9
$LUNITS
 70
     2
  9
$LUPREC
 70
     4
  9
$SKETCHINC
 40
1.0
  9
$FILLETRAD
 40
10.0
  9
$AUNITS
 70
     0
  9
$AUPREC
 70
     0
  9
$MENU
  1
.
  9
$ELEVATION
 40
0.0
  9
$PELEVATION
 40
0.0
  9
$THICKNESS
 40
0.0
  9
$LIMCHECK
 70
     0
  9
$CHAMFERA
 40
0.0
  9
$CHAMFERB
 40
0.0
  9
$CHAMFERC
 40
0.0
  9
$CHAMFERD
 40
0.0
  9
$SKPOLY
 70
     0
  9
$TDCREATE
 40
2459539.106331019
  9
$TDUCREATE
 40
2459538.898008901
  9
$TDUPDATE
 40
2459539.190543981
  9
$TDUUPDATE
 40
2459538.982210649
  9
$TDINDWG
 40
0.0296990856
  9
$TDUSRTIMER
 40
0.0296990856
  9
$USRTIMER
 70
     1
  9
$ANGBASE
 50
0.0
  9
$ANGDIR
 70
     0
  9
$PDMODE
 70
     0
  9
$PDSIZE
 40
0.0
  9
$PLINEWID
 40
0.0
  9
$SPLFRAME
 70
     0
  9
$SPLINETYPE
 70
     6
  9
$SPLINESEGS
 70
     8
  9
$HANDSEED
  5
239
  9
$SURFTAB1
 70
     6
  9
$SURFTAB2
 70
     6
  9
$SURFTYPE
 70
     6
  9
$SURFU
 70
     6
  9
$SURFV
 70
     6
  9
$UCSBASE
  2

  9
$UCSNAME
  2

  9
$UCSORG
 10
0.0
 20
0.0
 30
0.0
  9
$UCSXDIR
 10
1.0
 20
0.0
 30
0.0
  9
$UCSYDIR
 10
0.0
 20
1.0
 30
0.0
  9
$UCSORTHOREF
  2

  9
$UCSORTHOVIEW
 70
     0
  9
$UCSORGTOP
 10
0.0
 20
0.0
 30
0.0
  9
$UCSORGBOTTOM
 10
0.0
 20
0.0
 30
0.0
  9
$UCSORGLEFT
 10
0.0
 20
0.0
 30
0.0
  9
$UCSORGRIGHT
 10
0.0
 20
0.0
 30
0.0
  9
$UCSORGFRONT
 10
0.0
 20
0.0
 30
0.0
  9
$UCSORGBACK
 10
0.0
 20
0.0
 30
0.0
  9
$PUCSBASE
  2

  9
$PUCSNAME
  2

  9
$PUCSORG
 10
0.0
 20
0.0
 30
0.0
  9
$PUCSXDIR
 10
1.0
 20
0.0
 30
0.0
  9
$PUCSYDIR
 10
0.0
 20
1.0
 30
0.0
  9
$PUCSORTHOREF
  2

  9
$PUCSORTHOVIEW
 70
     0
  9
$PUCSORGTOP
 10
0.0
 20
0.0
 30
0.0
  9
$PUCSORGBOTTOM
 10
0.0
 20
0.0
 30
0.0
  9
$PUCSORGLEFT
 10
0.0
 20
0.0
 30
0.0
  9
$PUCSORGRIGHT
 10
0.0
 20
0.0
 30
0.0
  9
$PUCSORGFRONT
 10
0.0
 20
0.0
 30
0.0
  9
$PUCSORGBACK
 10
0.0
 20
0.0
 30
0.0
  9
$USERI1
 70
     0
  9
$USERI2
 70
     0
  9
$USERI3
 70
     0
  9
$USERI4
 70
     0
  9
$USERI5
 70
     0
  9
$USERR1
 40
0.0
  9
$USERR2
 40
0.0
  9
$USERR3
 40
0.0
  9
$USERR4
 40
0.0
  9
$USERR5
 40
0.0
  9
$WORLDVIEW
 70
     1
  9
$SHADEDGE
 70
     3
  9
$SHADEDIF
 70
    70
  9
$TILEMODE
 70
     1
  9
$MAXACTVP
 70
    64
  9
$PINSBASE
 10
0.0
 20
0.0
 30
0.0
  9
$PLIMCHECK
 70
     0
  9
$PEXTMIN
 10
1.000000000000000E+20
 20
1.000000000000000E+20
 30
1.000000000000000E+20
  9
$PEXTMAX
 10
-1.000000000000000E+20
 20
-1.000000000000000E+20
 30
-1.000000000000000E+20
  9
$PLIMMIN
 10
0.0
 20
0.0
  9
$PLIMMAX
 10
420.0
 20
297.0
  9
$UNITMODE
 70
     0
  9
$VISRETAIN
 70
     1
  9
$PLINEGEN
 70
     0
  9
$PSLTSCALE
 70
     1
  9
$TREEDEPTH
 70
  3020
  9
$CMLSTYLE
  2
Standard
  9
$CMLJUST
 70
     0
  9
$CMLSCALE
 40
20.0
  9
$PROXYGRAPHICS
 70
     1
  9
$MEASUREMENT
 70
     1
  9
$CELWEIGHT
370
    -1
  9
$ENDCAPS
280
     0
  9
$JOINSTYLE
280
     0
  9
$LWDISPLAY
290
     0
  9
$INSUNITS
 70
     4
  9
$HYPERLINKBASE
  1

  9
$STYLESHEET
  1

  9
$XEDIT
290
     1
  9
$CEPSNTYPE
380
     0
  9
$PSTYLEMODE
290
     1
  9
$FINGERPRINTGUID
  2
{F5E2D8DE-4BFD-48E6-AC72-F842A27607F0}
  9
$VERSIONGUID
  2
{C11A24AB-DDDA-7F4E-AE44-1A032DB4864A}
  9
$EXTNAMES
290
     1
  9
$PSVPSCALE
 40
0.0
  9
$OLESTARTUP
290
     0
  9
$SORTENTS
280
   127
  9
$INDEXCTL
280
     0
  9
$HIDETEXT
280
     1
  9
$XCLIPFRAME
280
     2
  9
$HALOGAP
280
     0
  9
$OBSCOLOR
 70
   257
  9
$OBSLTYPE
280
     0
  9
$INTERSECTIONDISPLAY
280
     0
  9
$INTERSECTIONCOLOR
 70
   257
  9
$DIMASSOC
280
     2
  9
$PROJECTNAME
  1

  9
$CAMERADISPLAY
290
     0
  9
$LENSLENGTH
 40
50.0
  9
$CAMERAHEIGHT
 40
0.0
  9
$STEPSPERSEC
 40
2.0
  9
$STEPSIZE
 40
6.0
  9
$3DDWFPREC
 40
2.0
  9
$PSOLWIDTH
 40
5.0
  9
$PSOLHEIGHT
 40
80.0
  9
$LOFTANG1
 40
1.570796326794897
  9
$LOFTANG2
 40
1.570796326794897
  9
$LOFTMAG1
 40
0.0
  9
$LOFTMAG2
 40
0.0
  9
$LOFTPARAM
 70
     7
  9
$LOFTNORMALS
280
     1
  9
$LATITUDE
 40
37.795
  9
$LONGITUDE
 40
-122.394
  9
$NORTHDIRECTION
 40
0.0
  9
$TIMEZONE
 70
 -8000
  9
$LIGHTGLYPHDISPLAY
280
     1
  9
$TILEMODELIGHTSYNCH
280
     1
  9
$CMATERIAL
347
44
  9
$SOLIDHIST
280
     0
  9
$SHOWHIST
280
     1
  9
$DWFFRAME
280
     2
  9
$DGNFRAME
280
     2
  9
$REALWORLDSCALE
290
     1
  9
$INTERFERECOLOR
 62
   256
  9
$INTERFEREOBJVS
345
33
  9
$INTERFEREVPVS
346
30
  9
$CSHADOW
280
     0
  9
$SHADOWPLANELOCATION
 40
0.0
  0
ENDSEC
  0
SECTION
  2
CLASSES
  0
CLASS
  1
ACDBDICTIONARYWDFLT
  2
AcDbDictionaryWithDefault
  3
ObjectDBX Classes
 90
        0
 91
        1
280
     0
281
     0
  0
CLASS
  1
VISUALSTYLE
  2
AcDbVisualStyle
  3
ObjectDBX Classes
 90
     4095
 91
       24
280
     0
281
     0
  0
CLASS
  1
MATERIAL
  2
AcDbMaterial
  3
ObjectDBX Classes
 90
     1153
 91
        3
280
     0
281
     0
  0
CLASS
  1
SCALE
  2
AcDbScale
  3
ObjectDBX Classes
 90
     1153
 91
       33
280
     0
281
     0
  0
CLASS
  1
TABLESTYLE
  2
AcDbTableStyle
  3
ObjectDBX Classes
 90
     4095
 91
        1
280
     0
281
     0
  0
CLASS
  1
MLEADERSTYLE
  2
AcDbMLeaderStyle
  3
ACDB_MLEADERSTYLE_CLASS
 90
     4095
 91
        1
280
     0
281
     0
  0
CLASS
  1
SUN
  2
AcDbSun
  3
SCENEOE
 90
     1153
 91
        1
280
     0
281
     0
  0
CLASS
  1
WIPEOUTVARIABLES
  2
AcDbWipeoutVariables
  3
"WipeOut|Product Desc:     WipeOut Dbx Application|Company:          Autodesk, Inc.|WEB Address:      www.autodesk.com"
 90
        0
 91
        1
280
     0
281
     0
  0
CLASS
  1
WIPEOUT
  2
AcDbWipeout
  3
WipeOut|Product Desc: Object Enabler for WipeOut entity | Company: Autodesk, Inc. | WEB Address: www.autodesk.com
 90
     2175
 91
        8
280
     0
281
     1
  0
CLASS
  1
DICTIONARYVAR
  2
AcDbDictionaryVar
  3
ObjectDBX Classes
 90
        0
 91
       12
280
     0
281
     0
  0
CLASS
  1
CELLSTYLEMAP
  2
AcDbCellStyleMap
  3
ObjectDBX Classes
 90
     1152
 91
        2
280
     0
281
     0
  0
CLASS
  1
ACDBSECTIONVIEWSTYLE
  2
AcDbSectionViewStyle
  3
ObjectDBX Classes
 90
     1025
 91
        1
280
     0
281
     0
  0
CLASS
  1
ACDBDETAILVIEWSTYLE
  2
AcDbDetailViewStyle
  3
ObjectDBX Classes
 90
     1025
 91
        1
280
     0
281
     0
  0
CLASS
  1
SOLID_BACKGROUND
  2
AcDbSolidBackground
  3
SCENEOE
 90
     4095
 91
        1
280
     0
281
     0
  0
CLASS
  1
NPOCOLLECTION
  2
AcDbImpNonPersistentObjectsCollection
  3
ObjectDBX Classes
 90
     1153
 91
        1
280
     0
281
     0
  0
ENDSEC
  0
SECTION
  2
TABLES
  0
TABLE
  2
VPORT
  5
8
330
0
100
AcDbSymbolTable
 70
     1
  0
VPORT
  5
29
330
8
100
AcDbSymbolTableRecord
100
AcDbViewportTableRecord
  2
*Active
 70
     0
 10
0.0
 20
0.0
 11
1.0
 21
1.0
 12
0.0
 22
0.0
 13
0.0
 23
0.0
 14
10.0
 24
10.0
 15
10.0
 25
10.0
 16
0.0
 26
0.0
 36
1561.246962449125
 17
291.0881305941012
 27
264.6800415539316
 37
0.0
 40
605.3691465028638
 41
2.362175525339925
 42
50.0
 43
0.0
 44
0.0
 50
0.0
 51
0.0
 71
     0
 72
   100
 73
     1
 74
     3
 75
     0
 76
     0
 77
     0
 78
     0
281
     2
 65
     1
110
0.0
120
0.0
130
0.0
111
1.0
121
0.0
131
0.0
112
0.0
122
1.0
132
0.0
 79
     0
146
0.0
348
31
 60
     3
 61
     5
292
     1
282
     1
141
0.0
142
0.0
 63
   250
361
6D
1001
ACAD_NAV_VCDISPLAY
1070
     3
  0
ENDTAB
  0
TABLE
  2
LTYPE
  5
5
330
0
100
AcDbSymbolTable
 70
     4
  0
LTYPE
  5
14
330
5
100
AcDbSymbolTableRecord
100
AcDbLinetypeTableRecord
  2
ByBlock
 70
     0
  3

 72
    65
 73
     0
 40
0.0
  0
LTYPE
  5
15
330
5
100
AcDbSymbolTableRecord
100
AcDbLinetypeTableRecord
  2
ByLayer
 70
     0
  3

 72
    65
 73
     0
 40
0.0
  0
LTYPE
  5
16
330
5
100
AcDbSymbolTableRecord
100
AcDbLinetypeTableRecord
  2
Continuous
 70
     0
  3
Solid line
 72
    65
 73
     0
 40
0.0
  0
LTYPE
  5
73
330
5
100
AcDbSymbolTableRecord
100
AcDbLinetypeTableRecord
  2
K5LT_BASIC
 70
     0
  3

 72
    65
 73
     0
 40
0.0
  0
LTYPE
  5
84
330
5
100
AcDbSymbolTableRecord
100
AcDbLinetypeTableRecord
  2
K5LT32777
 70
     0
  3

 72
    65
 73
     0
 40
0.0
  0
LTYPE
  5
8A
330
5
100
AcDbSymbolTableRecord
100
AcDbLinetypeTableRecord
  2
K5LT_THIN
 70
     0
  3

 72
    65
 73
     0
 40
0.0
  0
ENDTAB
  0
TABLE
  2
LAYER
  5
2
330
0
100
AcDbSymbolTable
 70
     5
  0
LAYER
  5
10
330
2
100
AcDbSymbolTableRecord
100
AcDbLayerTableRecord
  2
0
 70
     0
 62
     7
  6
Continuous
370
    -3
390
F
347
46
348
0
  0
LAYER
  5
6F
330
2
100
AcDbSymbolTableRecord
100
AcDbLayerTableRecord
  2
0 (1)
 70
     0
 62
     7
  6
Continuous
370
    -3
390
F
347
46
348
0
  0
LAYER
  5
70
330
2
100
AcDbSymbolTableRecord
100
AcDbLayerTableRecord
  2
0 (1) (1)
 70
     0
 62
     7
  6
Continuous
370
    -3
390
F
347
46
348
0
  0
LAYER
  5
71
330
2
100
AcDbSymbolTableRecord
100
AcDbLayerTableRecord
  2
0 (1) (1) (1)
 70
     0
 62
     7
  6
Continuous
370
    -3
390
F
347
46
348
0
  0
LAYER
  5
72
330
2
100
AcDbSymbolTableRecord
100
AcDbLayerTableRecord
  2
Системный слой
 70
     0
 62
     7
  6
Continuous
370
    -3
390
F
347
46
348
0
  0
ENDTAB
  0
TABLE
  2
STYLE
  5
3
330
0
100
AcDbSymbolTable
 70
     3
  0
STYLE
  5
11
330
3
100
AcDbSymbolTableRecord
100
AcDbTextStyleTableRecord
  2
Standard
 70
     0
 40
0.0
 41
1.0
 50
0.0
 71
     0
 42
2.5
  3
txt
  4

  0
STYLE
  5
FB
330
3
100
AcDbSymbolTableRecord
100
AcDbTextStyleTableRecord
  2
KDIMTEXTSTYLE
 70
     0
 40
5.0
 41
0.9599999999999999
 50
15.0
 71
     0
 42
2.5
  3
GOST_AU.SHX
  4

  0
STYLE
  5
103
330
3
100
AcDbSymbolTableRecord
100
AcDbTextStyleTableRecord
  2
KTEXTSTYLE
 70
     0
 40
5.0
 41
0.9599999999999999
 50
0.0
 71
     0
 42
2.5
  3
GOST_AU.SHX
  4

  0
ENDTAB
  0
TABLE
  2
VIEW
  5
6
330
0
100
AcDbSymbolTable
 70
     0
  0
ENDTAB
  0
TABLE
  2
UCS
  5
7
330
0
100
AcDbSymbolTable
 70
     0
  0
ENDTAB
  0
TABLE
  2
APPID
  5
9
330
0
100
AcDbSymbolTable
 70
     3
  0
APPID
  5
12
330
9
100
AcDbSymbolTableRecord
100
AcDbRegAppTableRecord
  2
ACAD
 70
     0
  0
APPID
  5
6E
330
9
100
AcDbSymbolTableRecord
100
AcDbRegAppTableRecord
  2
KOMPAS
 70
     0
  0
APPID
  5
230
330
9
100
AcDbSymbolTableRecord
100
AcDbRegAppTableRecord
  2
ACAD_NAV_VCDISPLAY
 70
     0
  0
ENDTAB
  0
TABLE
  2
DIMSTYLE
  5
A
330
0
100
AcDbSymbolTable
 70
     2
100
AcDbDimStyleTable
 71
     0
  0
DIMSTYLE
105
27
330
A
100
AcDbSymbolTableRecord
100
AcDbDimStyleTableRecord
  2
ISO-25
 70
     0
 41
2.5
 42
0.625
 43
3.75
 44
1.25
 73
     0
 74
     0
 77
     1
 78
     8
140
2.5
141
2.5
143
0.03937007874016
147
0.625
171
     3
172
     1
271
     2
272
     2
274
     3
278
    44
283
     0
284
     8
340
11
  0
DIMSTYLE
105
FC
102
{ACAD_REACTORS
330
10A
330
130
330
156
330
17C
330
1A2
330
1C8
330
1EF
330
215
102
}
330
A
100
AcDbSymbolTableRecord
100
AcDbDimStyleTableRecord
  2
KDIMSTYLE (1.00)
 70
     0
 41
1.0
 42
0.0
 43
2.0
 44
2.0
 46
1.0
 73
     0
 74
     0
 77
     1
 78
     8
140
5.0
141
0.0
143
0.0394
145
1.0
146
0.667
147
1.0
172
     1
173
     1
271
     2
272
     2
273
     8
274
     4
278
    44
340
FB
  0
ENDTAB
  0
TABLE
  2
BLOCK_RECORD
  5
1
330
0
100
AcDbSymbolTable
 70
    47
  0
BLOCK_RECORD
  5
1F
330
1
100
AcDbSymbolTableRecord
100
AcDbBlockTableRecord
  2
*Model_Space
340
22
 70
     0
280
     1
281
     0
  0
BLOCK_RECORD
  5
1B
330
1
100
AcDbSymbolTableRecord
100
AcDbBlockTableRecord
  2
*Paper_Space
340
1E
 70
     0
280
     1
281
     0
  0
BLOCK_RECORD
  5
23
330
1
100
AcDbSymbolTableRecord
100
AcDbBlockTableRecord
  2
*Paper_Space0
340
26
 70
     0
280
     1
281
     0
  0
BLOCK_RECORD
  5
7F
330
1
100
AcDbSymbolTableRecord
100
AcDbBlockTableRecord
  2
U0
340
0
 70
     0
280
     1
281
     0
  0
BLOCK_RECORD
  5
81
330
1
100
AcDbSymbolTableRecord
100
AcDbBlockTableRecord
  2
U1
340
0
102
{BLKREFS
331
82
102
}
 70
     0
280
     1
281
     0
  0
BLOCK_RECORD
  5
8E
330
1
100
AcDbSymbolTableRecord
100
AcDbBlockTableRecord
  2
U2
340
0
102
{BLKREFS
331
8F
102
}
 70
     0
280
     1
281
     0
  0
BLOCK_RECORD
  5
99
330
1
100
AcDbSymbolTableRecord
100
AcDbBlockTableRecord
  2
KDIMARROW_00
340
0
 70
     0
280
     1
281
     0
  0
BLOCK_RECORD
  5
9D
330
1
100
AcDbSymbolTableRecord
100
AcDbBlockTableRecord
  2
KDIMARROW_01
340
0
 70
     0
280
     1
281
     0
  0
BLOCK_RECORD
  5
A6
330
1
100
AcDbSymbolTableRecord
100
AcDbBlockTableRecord
  2
KDIMARROW_02
340
0
 70
     0
280
     1
281
     0
  0
BLOCK_RECORD
  5
B0
330
1
100
AcDbSymbolTableRecord
100
AcDbBlockTableRecord
  2
KDIMARROW_03
340
0
 70
     0
280
     1
281
     0
  0
BLOCK_RECORD
  5
B6
330
1
100
AcDbSymbolTableRecord
100
AcDbBlockTableRecord
  2
KDIMARROW_04
340
0
 70
     0
280
     1
281
     0
  0
BLOCK_RECORD
  5
BC
330
1
100
AcDbSymbolTableRecord
100
AcDbBlockTableRecord
  2
KDIMARROW_05
340
0
 70
     0
280
     1
281
     0
  0
BLOCK_RECORD
  5
C5
330
1
100
AcDbSymbolTableRecord
100
AcDbBlockTableRecord
  2
KDIMARROW_06
340
0
 70
     0
280
     1
281
     0
  0
BLOCK_RECORD
  5
CF
330
1
100
AcDbSymbolTableRecord
100
AcDbBlockTableRecord
  2
KDIMARROW_07
340
0
 70
     0
280
     1
281
     0
  0
BLOCK_RECORD
  5
D5
330
1
100
AcDbSymbolTableRecord
100
AcDbBlockTableRecord
  2
KDIMARROW_08
340
0
 70
     0
280
     1
281
     0
  0
BLOCK_RECORD
  5
DC
330
1
100
AcDbSymbolTableRecord
100
AcDbBlockTableRecord
  2
KDIMARROW_09
340
0
 70
     0
280
     1
281
     0
  0
BLOCK_RECORD
  5
E2
330
1
100
AcDbSymbolTableRecord
100
AcDbBlockTableRecord
  2
KDIMARROW_10
340
0
 70
     0
280
     1
281
     0
  0
BLOCK_RECORD
  5
E9
330
1
100
AcDbSymbolTableRecord
100
AcDbBlockTableRecord
  2
KDIMARROW_11
340
0
 70
     0
280
     1
281
     0
  0
BLOCK_RECORD
  5
EF
330
1
100
AcDbSymbolTableRecord
100
AcDbBlockTableRecord
  2
KDIMARROW_12
340
0
 70
     0
280
     1
281
     0
  0
BLOCK_RECORD
  5
F5
330
1
100
AcDbSymbolTableRecord
100
AcDbBlockTableRecord
  2
KDIMARROW_13
340
0
 70
     0
280
     1
281
     0
  0
BLOCK_RECORD
  5
FD
330
1
100
AcDbSymbolTableRecord
100
AcDbBlockTableRecord
  2
D0
340
0
 70
     0
280
     1
281
     0
  0
BLOCK_RECORD
  5
10D
330
1
100
AcDbSymbolTableRecord
100
AcDbBlockTableRecord
  2
U3
340
0
102
{BLKREFS
331
10E
102
}
 70
     0
280
     1
281
     0
  0
BLOCK_RECORD
  5
10F
330
1
100
AcDbSymbolTableRecord
100
AcDbBlockTableRecord
  2
U4
340
0
102
{BLKREFS
331
110
102
}
 70
     0
280
     1
281
     0
  0
BLOCK_RECORD
  5
11A
330
1
100
AcDbSymbolTableRecord
100
AcDbBlockTableRecord
  2
U5
340
0
102
{BLKREFS
331
11B
102
}
 70
     0
280
     1
281
     0
  0
BLOCK_RECORD
  5
125
330
1
100
AcDbSymbolTableRecord
100
AcDbBlockTableRecord
  2
D1
340
0
 70
     0
280
     1
281
     0
  0
BLOCK_RECORD
  5
133
330
1
100
AcDbSymbolTableRecord
100
AcDbBlockTableRecord
  2
U6
340
0
102
{BLKREFS
331
134
102
}
 70
     0
280
     1
281
     0
  0
BLOCK_RECORD
  5
135
330
1
100
AcDbSymbolTableRecord
100
AcDbBlockTableRecord
  2
U7
340
0
102
{BLKREFS
331
136
102
}
 70
     0
280
     1
281
     0
  0
BLOCK_RECORD
  5
140
330
1
100
AcDbSymbolTableRecord
100
AcDbBlockTableRecord
  2
U8
340
0
102
{BLKREFS
331
141
102
}
 70
     0
280
     1
281
     0
  0
BLOCK_RECORD
  5
14B
330
1
100
AcDbSymbolTableRecord
100
AcDbBlockTableRecord
  2
D2
340
0
 70
     0
280
     1
281
     0
  0
BLOCK_RECORD
  5
159
330
1
100
AcDbSymbolTableRecord
100
AcDbBlockTableRecord
  2
U9
340
0
102
{BLKREFS
331
15A
102
}
 70
     0
280
     1
281
     0
  0
BLOCK_RECORD
  5
15B
330
1
100
AcDbSymbolTableRecord
100
AcDbBlockTableRecord
  2
U10
340
0
102
{BLKREFS
331
15C
102
}
 70
     0
280
     1
281
     0
  0
BLOCK_RECORD
  5
166
330
1
100
AcDbSymbolTableRecord
100
AcDbBlockTableRecord
  2
U11
340
0
102
{BLKREFS
331
167
102
}
 70
     0
280
     1
281
     0
  0
BLOCK_RECORD
  5
171
330
1
100
AcDbSymbolTableRecord
100
AcDbBlockTableRecord
  2
D3
340
0
 70
     0
280
     1
281
     0
  0
BLOCK_RECORD
  5
17F
330
1
100
AcDbSymbolTableRecord
100
AcDbBlockTableRecord
  2
U12
340
0
102
{BLKREFS
331
180
102
}
 70
     0
280
     1
281
     0
  0
BLOCK_RECORD
  5
181
330
1
100
AcDbSymbolTableRecord
100
AcDbBlockTableRecord
  2
U13
340
0
102
{BLKREFS
331
182
102
}
 70
     0
280
     1
281
     0
  0
BLOCK_RECORD
  5
18C
330
1
100
AcDbSymbolTableRecord
100
AcDbBlockTableRecord
  2
U14
340
0
102
{BLKREFS
331
18D
102
}
 70
     0
280
     1
281
     0
  0
BLOCK_RECORD
  5
197
330
1
100
AcDbSymbolTableRecord
100
AcDbBlockTableRecord
  2
D4
340
0
 70
     0
280
     1
281
     0
  0
BLOCK_RECORD
  5
1A5
330
1
100
AcDbSymbolTableRecord
100
AcDbBlockTableRecord
  2
U15
340
0
102
{BLKREFS
331
1A6
102
}
 70
     0
280
     1
281
     0
  0
BLOCK_RECORD
  5
1A7
330
1
100
AcDbSymbolTableRecord
100
AcDbBlockTableRecord
  2
U16
340
0
102
{BLKREFS
331
1A8
102
}
 70
     0
280
     1
281
     0
  0
BLOCK_RECORD
  5
1B2
330
1
100
AcDbSymbolTableRecord
100
AcDbBlockTableRecord
  2
U17
340
0
102
{BLKREFS
331
1B3
102
}
 70
     0
280
     1
281
     0
  0
BLOCK_RECORD
  5
1BD
330
1
100
AcDbSymbolTableRecord
100
AcDbBlockTableRecord
  2
D5
340
0
 70
     0
280
     1
281
     0
  0
BLOCK_RECORD
  5
1CB
330
1
100
AcDbSymbolTableRecord
100
AcDbBlockTableRecord
  2
U18
340
0
 70
     0
280
     1
281
     0
  0
BLOCK_RECORD
  5
1CD
330
1
100
AcDbSymbolTableRecord
100
AcDbBlockTableRecord
  2
U19
340
0
102
{BLKREFS
331
1CE
102
}
 70
     0
280
     1
281
     0
  0
BLOCK_RECORD
  5
1D8
330
1
100
AcDbSymbolTableRecord
100
AcDbBlockTableRecord
  2
U20
340
0
102
{BLKREFS
331
1D9
102
}
 70
     0
280
     1
281
     0
  0
BLOCK_RECORD
  5
1E3
330
1
100
AcDbSymbolTableRecord
100
AcDbBlockTableRecord
  2
D6
340
0
 70
     0
280
     1
281
     0
  0
BLOCK_RECORD
  5
1F2
330
1
100
AcDbSymbolTableRecord
100
AcDbBlockTableRecord
  2
U21
340
0
102
{BLKREFS
331
1F3
102
}
 70
     0
280
     1
281
     0
  0
BLOCK_RECORD
  5
1F4
330
1
100
AcDbSymbolTableRecord
100
AcDbBlockTableRecord
  2
U22
340
0
102
{BLKREFS
331
1F5
102
}
 70
     0
280
     1
281
     0
  0
BLOCK_RECORD
  5
1FF
330
1
100
AcDbSymbolTableRecord
100
AcDbBlockTableRecord
  2
U23
340
0
102
{BLKREFS
331
200
102
}
 70
     0
280
     1
281
     0
  0
BLOCK_RECORD
  5
20A
330
1
100
AcDbSymbolTableRecord
100
AcDbBlockTableRecord
  2
D7
340
0
 70
     0
280
     1
281
     0
  0
ENDTAB
  0
ENDSEC
  0
SECTION
  2
BLOCKS
  0
BLOCK
  5
20
330
1F
100
AcDbEntity
  8
0
100
AcDbBlockBegin
  2
*Model_Space
 70
     0
 10
0.0
 20
0.0
 30
0.0
  3
*Model_Space
  1

  0
ENDBLK
  5
21
330
1F
100
AcDbEntity
  8
0
100
AcDbBlockEnd
  0
BLOCK
  5
1C
330
1B
100
AcDbEntity
 67
     1
  8
0
100
AcDbBlockBegin
  2
*Paper_Space
 70
     0
 10
0.0
 20
0.0
 30
0.0
  3
*Paper_Space
  1

  0
ENDBLK
  5
1D
330
1B
100
AcDbEntity
 67
     1
  8
0
100
AcDbBlockEnd
  0
BLOCK
  5
24
330
23
100
AcDbEntity
 67
     1
  8
0
100
AcDbBlockBegin
  2
*Paper_Space0
 70
     0
 10
0.0
 20
0.0
 30
0.0
  3
*Paper_Space0
  1

  0
ENDBLK
  5
25
330
23
100
AcDbEntity
 67
     1
  8
0
100
AcDbBlockEnd
  0
BLOCK
  5
10B
330
7F
100
AcDbEntity
  8
0
100
AcDbBlockBegin
  2
U0
 70
     0
 10
0.0
 20
0.0
 30
0.0
  3
U0
  1

  0
INSERT
  5
82
330
7F
100
AcDbEntity
  8
Системный слой
100
AcDbBlockReference
  2
U1
 10
0.0
 20
0.0
 30
0.0
  0
INSERT
  5
8F
330
7F
100
AcDbEntity
  8
Системный слой
100
AcDbBlockReference
  2
U2
 10
0.0
 20
0.0
 30
0.0
  0
DIMENSION
  5
10A
330
7F
100
AcDbEntity
  8
Системный слой
 62
     7
100
AcDbDimension
280
     0
  2
D0
 10
-161.2132382599591
 20
316.0340906405541
 30
0.0
 11
1621.786761740041
 21
316.0340906405541
 31
0.0
 70
   160
  1
\H2.5;\W0.925;\Q0;\H2.5;\W0.925;\Q0;\Q15;\W0.891;1954\A1;{\H2.5;\W0.925;\Q0;\Q0;\W0.887;\H1.67;\S1,85^ 1,85;\Q15;\H2.50;\Q15;\H1.63; \Q15;\H2.50;}
 71
     5
 42
-1.0
 73
     0
 74
     0
 75
     0
  3
KDIMSTYLE (1.00)
100
AcDbAlignedDimension
 13
1792.786761740041
 23
234.3638487929616
 33
0.0
 14
-161.2132382599591
 24
234.3638487929616
 34
0.0
100
AcDbRotatedDimension
1001
ACAD
1000
DSTYLE
1002
{
1070
   178
1070
     7
1070
   344
1005
99
1070
   343
1005
99
1070
    42
1040
0.0
1070
    76
1070
     0
1070
    75
1070
     0
1070
   283
1070
     1
1002
}
  0
ENDBLK
  5
10C
330
7F
100
AcDbEntity
  8
0
100
AcDbBlockEnd
  0
BLOCK
  5
8C
330
81
100
AcDbEntity
  8
0
100
AcDbBlockBegin
  2
U1
 70
     0
 10
0.0
 20
0.0
 30
0.0
  3
U1
  1

  0
HATCH
  5
83
330
81
100
AcDbEntity
  8
Системный слой
 62
     7
100
AcDbHatch
 10
0.0
 20
0.0
 30
0.0
210
0.0
220
0.0
230
1.0
  2
SOLID
 70
     1
 71
     0
 91
        1
 92
        1
 93
        4
 72
     1
 10
1787.786761740041
 20
315.3758281493279
 11
1792.786761740041
 21
316.0340906405541
 72
     1
 10
1792.786761740041
 20
316.0340906405541
 11
1787.786761740041
 21
316.6923531317803
 72
     1
 10
1787.786761740041
 20
316.6923531317803
 11
1788.286761740041
 21
316.0340906405541
 72
     1
 10
1788.286761740041
 20
316.0340906405541
 11
1787.786761740041
 21
315.3758281493279
 97
        0
 75
     0
 76
     1
 98
        0
450
        0
451
        0
460
0.0
461
0.0
452
        0
462
0.0
453
        0
470

  0
LINE
  5
85
330
81
100
AcDbEntity
  8
Системный слой
  6
K5LT32777
 62
     7
370
    18
100
AcDbLine
 10
1792.786761740041
 20
316.0340906405541
 30
0.0
 11
1787.786761740041
 21
315.3758281493279
 31
0.0
  0
LINE
  5
86
330
81
100
AcDbEntity
  8
Системный слой
  6
K5LT32777
 62
     7
370
    18
100
AcDbLine
 10
1787.786761740041
 20
315.3758281493279
 30
0.0
 11
1788.286761740041
 21
316.0340906405541
 31
0.0
  0
LINE
  5
87
330
81
100
AcDbEntity
  8
Системный слой
  6
K5LT32777
 62
     7
370
    18
100
AcDbLine
 10
1788.286761740041
 20
316.0340906405541
 30
0.0
 11
1787.786761740041
 21
316.6923531317803
 31
0.0
  0
LINE
  5
88
330
81
100
AcDbEntity
  8
Системный слой
  6
K5LT32777
 62
     7
370
    18
100
AcDbLine
 10
1787.786761740041
 20
316.6923531317803
 30
0.0
 11
1792.786761740041
 21
316.0340906405541
 31
0.0
  0
LINE
  5
89
330
81
100
AcDbEntity
  8
Системный слой
  6
K5LT32777
 62
     7
370
    18
100
AcDbLine
 10
1792.786761740041
 20
316.0340906405541
 30
0.0
 11
1791.786761740041
 21
316.0340906405541
 31
0.0
  0
LINE
  5
8B
330
81
100
AcDbEntity
  8
Системный слой
  6
K5LT_THIN
 62
     7
370
    18
100
AcDbLine
 10
1792.786761740041
 20
316.0340906405541
 30
0.0
 11
1790.786761740041
 21
316.0340906405541
 31
0.0
  0
ENDBLK
  5
8D
330
81
100
AcDbEntity
  8
0
100
AcDbBlockEnd
  0
BLOCK
  5
97
330
8E
100
AcDbEntity
  8
0
100
AcDbBlockBegin
  2
U2
 70
     0
 10
0.0
 20
0.0
 30
0.0
  3
U2
  1

  0
HATCH
  5
90
330
8E
100
AcDbEntity
  8
Системный слой
 62
     7
100
AcDbHatch
 10
0.0
 20
0.0
 30
0.0
210
0.0
220
0.0
230
1.0
  2
SOLID
 70
     1
 71
     0
 91
        1
 92
        1
 93
        4
 72
     1
 10
-156.2132382599591
 20
316.6923531317803
 11
-161.2132382599591
 21
316.0340906405541
 72
     1
 10
-161.2132382599591
 20
316.0340906405541
 11
-156.2132382599591
 21
315.3758281493279
 72
     1
 10
-156.2132382599591
 20
315.3758281493279
 11
-156.7132382599591
 21
316.0340906405541
 72
     1
 10
-156.7132382599591
 20
316.0340906405541
 11
-156.2132382599591
 21
316.6923531317803
 97
        0
 75
     0
 76
     1
 98
        0
450
        0
451
        0
460
0.0
461
0.0
452
        0
462
0.0
453
        0
470

  0
LINE
  5
91
330
8E
100
AcDbEntity
  8
Системный слой
  6
K5LT32777
 62
     7
370
    18
100
AcDbLine
 10
-161.2132382599591
 20
316.0340906405541
 30
0.0
 11
-156.2132382599591
 21
316.6923531317803
 31
0.0
  0
LINE
  5
92
330
8E
100
AcDbEntity
  8
Системный слой
  6
K5LT32777
 62
     7
370
    18
100
AcDbLine
 10
-156.2132382599591
 20
316.6923531317803
 30
0.0
 11
-156.7132382599591
 21
316.0340906405541
 31
0.0
  0
LINE
  5
93
330
8E
100
AcDbEntity
  8
Системный слой
  6
K5LT32777
 62
     7
370
    18
100
AcDbLine
 10
-156.7132382599591
 20
316.0340906405541
 30
0.0
 11
-156.2132382599591
 21
315.3758281493279
 31
0.0
  0
LINE
  5
94
330
8E
100
AcDbEntity
  8
Системный слой
  6
K5LT32777
 62
     7
370
    18
100
AcDbLine
 10
-156.2132382599591
 20
315.3758281493279
 30
0.0
 11
-161.2132382599591
 21
316.0340906405541
 31
0.0
  0
LINE
  5
95
330
8E
100
AcDbEntity
  8
Системный слой
  6
K5LT32777
 62
     7
370
    18
100
AcDbLine
 10
-161.2132382599591
 20
316.0340906405541
 30
0.0
 11
-160.2132382599591
 21
316.0340906405541
 31
0.0
  0
LINE
  5
96
330
8E
100
AcDbEntity
  8
Системный слой
  6
K5LT_THIN
 62
     7
370
    18
100
AcDbLine
 10
-161.2132382599591
 20
316.0340906405541
 30
0.0
 11
-159.2132382599591
 21
316.0340906405541
 31
0.0
  0
ENDBLK
  5
98
330
8E
100
AcDbEntity
  8
0
100
AcDbBlockEnd
  0
BLOCK
  5
9B
330
99
100
AcDbEntity
  8
0
100
AcDbBlockBegin
  2
KDIMARROW_00
 70
     0
 10
0.0
 20
0.0
 30
0.0
  3
KDIMARROW_00
  1

  0
LINE
  5
9A
330
99
100
AcDbEntity
  8
Системный слой
  6
K5LT_THIN
 62
     0
370
    18
100
AcDbLine
 10
0.0
 20
0.0
 30
0.0
 11
-1.0
 21
0.0
 31
0.0
  0
ENDBLK
  5
9C
330
99
100
AcDbEntity
  8
0
100
AcDbBlockEnd
  0
BLOCK
  5
A4
330
9D
100
AcDbEntity
  8
0
100
AcDbBlockBegin
  2
KDIMARROW_01
 70
     0
 10
0.0
 20
0.0
 30
0.0
  3
KDIMARROW_01
  1

  0
LINE
  5
9E
330
9D
100
AcDbEntity
  8
0
  6
K5LT_THIN
 62
     0
370
    18
100
AcDbLine
 10
0.0
 20
0.0
 30
0.0
 11
-5.0
 21
-0.6582624912261956
 31
0.0
  0
LINE
  5
9F
330
9D
100
AcDbEntity
  8
0
  6
K5LT_THIN
 62
     0
370
    18
100
AcDbLine
 10
-5.0
 20
-0.6582624912261956
 30
0.0
 11
-4.5
 21
0.0000000000000006
 31
0.0
  0
LINE
  5
A0
330
9D
100
AcDbEntity
  8
0
  6
K5LT_THIN
 62
     0
370
    18
100
AcDbLine
 10
-4.5
 20
0.0000000000000006
 30
0.0
 11
-5.0
 21
0.6582624912261971
 31
0.0
  0
LINE
  5
A1
330
9D
100
AcDbEntity
  8
0
  6
K5LT_THIN
 62
     0
370
    18
100
AcDbLine
 10
-5.0
 20
0.6582624912261971
 30
0.0
 11
0.0
 21
0.0
 31
0.0
  0
HATCH
  5
A2
330
9D
100
AcDbEntity
  8
0
 62
     0
100
AcDbHatch
 10
0.0
 20
0.0
 30
0.0
210
0.0
220
0.0
230
1.0
  2
SOLID
 70
     1
 71
     0
 91
        1
 92
        1
 93
        4
 72
     1
 10
0.0
 20
0.0
 11
-5.0
 21
0.6582624912261971
 72
     1
 10
-5.0
 20
0.6582624912261971
 11
-4.5
 21
0.0000000000000006
 72
     1
 10
-4.5
 20
0.0000000000000006
 11
-5.0
 21
-0.6582624912261956
 72
     1
 10
-5.0
 20
-0.6582624912261956
 11
0.0
 21
0.0
 97
        0
 75
     0
 76
     1
 98
        0
450
        0
451
        0
460
0.0
461
0.0
452
        0
462
0.0
453
        0
470

  0
LINE
  5
A3
330
9D
100
AcDbEntity
  8
Системный слой
  6
K5LT_THIN
 62
     0
370
    18
100
AcDbLine
 10
0.0
 20
0.0
 30
0.0
 11
-1.0
 21
0.0
 31
0.0
  0
ENDBLK
  5
A5
330
9D
100
AcDbEntity
  8
0
100
AcDbBlockEnd
  0
BLOCK
  5
AE
330
A6
100
AcDbEntity
  8
0
100
AcDbBlockBegin
  2
KDIMARROW_02
 70
     0
 10
0.0
 20
0.0
 30
0.0
  3
KDIMARROW_02
  1

  0
LINE
  5
A7
330
A6
100
AcDbEntity
  8
0
  6
K5LT_THIN
 62
     0
370
    18
100
AcDbLine
 10
0.0
 20
0.0
 30
0.0
 11
5.0
 21
-0.6582624912261971
 31
0.0
  0
LINE
  5
A8
330
A6
100
AcDbEntity
  8
0
  6
K5LT_THIN
 62
     0
370
    18
100
AcDbLine
 10
5.0
 20
-0.6582624912261971
 30
0.0
 11
4.5
 21
-0.0000000000000006
 31
0.0
  0
LINE
  5
A9
330
A6
100
AcDbEntity
  8
0
  6
K5LT_THIN
 62
     0
370
    18
100
AcDbLine
 10
4.5
 20
-0.0000000000000006
 30
0.0
 11
5.0
 21
0.6582624912261956
 31
0.0
  0
LINE
  5
AA
330
A6
100
AcDbEntity
  8
0
  6
K5LT_THIN
 62
     0
370
    18
100
AcDbLine
 10
5.0
 20
0.6582624912261956
 30
0.0
 11
0.0
 21
0.0
 31
0.0
  0
LINE
  5
AB
330
A6
100
AcDbEntity
  8
0
  6
K5LT_THIN
 62
     0
370
    18
100
AcDbLine
 10
0.0
 20
0.0
 30
0.0
 11
7.0
 21
-0.0000000000000009
 31
0.0
  0
HATCH
  5
AC
330
A6
100
AcDbEntity
  8
0
 62
     0
100
AcDbHatch
 10
0.0
 20
0.0
 30
0.0
210
0.0
220
0.0
230
1.0
  2
SOLID
 70
     1
 71
     0
 91
        1
 92
        1
 93
        4
 72
     1
 10
4.5
 20
-0.0000000000000006
 11
5.0
 21
0.6582624912261956
 72
     1
 10
5.0
 20
0.6582624912261956
 11
0.0
 21
0.0
 72
     1
 10
0.0
 20
0.0
 11
5.0
 21
-0.6582624912261971
 72
     1
 10
5.0
 20
-0.6582624912261971
 11
4.5
 21
-0.0000000000000006
 97
        0
 75
     0
 76
     1
 98
        0
450
        0
451
        0
460
0.0
461
0.0
452
        0
462
0.0
453
        0
470

  0
LINE
  5
AD
330
A6
100
AcDbEntity
  8
Системный слой
  6
K5LT_THIN
 62
     0
370
    18
100
AcDbLine
 10
0.0
 20
0.0
 30
0.0
 11
-1.0
 21
0.0
 31
0.0
  0
ENDBLK
  5
AF
330
A6
100
AcDbEntity
  8
0
100
AcDbBlockEnd
  0
BLOCK
  5
B4
330
B0
100
AcDbEntity
  8
0
100
AcDbBlockBegin
  2
KDIMARROW_03
 70
     0
 10
0.0
 20
0.0
 30
0.0
  3
KDIMARROW_03
  1

  0
LINE
  5
B1
330
B0
100
AcDbEntity
  8
0
  6
K5LT_THIN
 62
     0
370
    18
100
AcDbLine
 10
-1.060500025749206
 20
-1.060500025749205
 30
0.0
 11
1.060500025749206
 21
1.060500025749205
 31
0.0
  0
LINE
  5
B2
330
B0
100
AcDbEntity
  8
0
  6
K5LT_THIN
 62
     0
370
    18
100
AcDbLine
 10
0.0
 20
0.0
 30
0.0
 11
2.0
 21
-0.0000000000000002
 31
0.0
  0
LINE
  5
B3
330
B0
100
AcDbEntity
  8
Системный слой
  6
K5LT_THIN
 62
     0
370
    18
100
AcDbLine
 10
0.0
 20
0.0
 30
0.0
 11
-1.0
 21
0.0
 31
0.0
  0
ENDBLK
  5
B5
330
B0
100
AcDbEntity
  8
0
100
AcDbBlockEnd
  0
BLOCK
  5
BA
330
B6
100
AcDbEntity
  8
0
100
AcDbBlockBegin
  2
KDIMARROW_04
 70
     0
 10
0.0
 20
0.0
 30
0.0
  3
KDIMARROW_04
  1

  0
LWPOLYLINE
  5
B7
330
B6
100
AcDbEntity
  8
0
  6
K5LT_THIN
 62
     7
100
AcDbPolyline
 90
       15
 70
     0
 43
0.18
 10
-0.25
 20
0.0
 10
0.0
 20
-0.25
 10
0.25
 20
0.0
 10
0.0
 20
0.25
 10
-0.25
 20
0.0
 10
-0.5
 20
0.0000000000000001
 10
-0.0000000000000001
 20
-0.5
 10
0.5
 20
-0.0000000000000001
 10
0.0000000000000001
 20
0.5
 10
-0.5
 20
0.0000000000000001
 10
-0.75
 20
0.0000000000000001
 10
-0.0000000000000001
 20
-0.75
 10
0.75
 20
-0.0000000000000001
 10
0.0000000000000001
 20
0.75
 10
-0.75
 20
0.0000000000000001
  0
LWPOLYLINE
  5
B8
330
B6
100
AcDbEntity
  8
0
  6
K5LT_THIN
 62
     7
100
AcDbPolyline
 90
       15
 70
     0
 43
0.18
 10
-0.25
 20
0.0
 10
0.0
 20
-0.25
 10
0.25
 20
0.0
 10
0.0
 20
0.25
 10
-0.25
 20
0.0
 10
-0.5
 20
0.0000000000000001
 10
-0.0000000000000001
 20
-0.5
 10
0.5
 20
-0.0000000000000001
 10
0.0000000000000001
 20
0.5
 10
-0.5
 20
0.0000000000000001
 10
-0.75
 20
0.0000000000000001
 10
-0.0000000000000001
 20
-0.75
 10
0.75
 20
-0.0000000000000001
 10
0.0000000000000001
 20
0.75
 10
-0.75
 20
0.0000000000000001
  0
LINE
  5
B9
330
B6
100
AcDbEntity
  8
Системный слой
  6
K5LT_THIN
 62
     0
370
    18
100
AcDbLine
 10
0.0
 20
0.0
 30
0.0
 11
-1.0
 21
0.0
 31
0.0
  0
ENDBLK
  5
BB
330
B6
100
AcDbEntity
  8
0
100
AcDbBlockEnd
  0
BLOCK
  5
C3
330
BC
100
AcDbEntity
  8
0
100
AcDbBlockBegin
  2
KDIMARROW_05
 70
     0
 10
0.0
 20
0.0
 30
0.0
  3
KDIMARROW_05
  1

  0
LINE
  5
BD
330
BC
100
AcDbEntity
  8
0
  6
K5LT_THIN
 62
     0
370
    18
100
AcDbLine
 10
0.0
 20
0.0
 30
0.0
 11
-5.0
 21
-0.6582624912261956
 31
0.0
  0
LINE
  5
BE
330
BC
100
AcDbEntity
  8
0
  6
K5LT_THIN
 62
     0
370
    18
100
AcDbLine
 10
-5.0
 20
-0.6582624912261956
 30
0.0
 11
-5.0
 21
0.0000000000000006
 31
0.0
  0
LINE
  5
BF
330
BC
100
AcDbEntity
  8
0
  6
K5LT_THIN
 62
     0
370
    18
100
AcDbLine
 10
-5.0
 20
0.0000000000000006
 30
0.0
 11
-5.0
 21
0.6582624912261971
 31
0.0
  0
LINE
  5
C0
330
BC
100
AcDbEntity
  8
0
  6
K5LT_THIN
 62
     0
370
    18
100
AcDbLine
 10
-5.0
 20
0.6582624912261971
 30
0.0
 11
0.0
 21
0.0
 31
0.0
  0
HATCH
  5
C1
330
BC
100
AcDbEntity
  8
0
 62
     0
100
AcDbHatch
 10
0.0
 20
0.0
 30
0.0
210
0.0
220
0.0
230
1.0
  2
SOLID
 70
     1
 71
     0
 91
        1
 92
        1
 93
        4
 72
     1
 10
-5.0
 20
-0.6582624912261956
 11
0.0
 21
0.0
 72
     1
 10
0.0
 20
0.0
 11
-5.0
 21
0.6582624912261971
 72
     1
 10
-5.0
 20
0.6582624912261971
 11
-5.0
 21
0.0000000000000007
 72
     1
 10
-5.0
 20
0.0000000000000006
 11
-5.0
 21
-0.6582624912261956
 97
        0
 75
     0
 76
     1
 98
        0
450
        0
451
        0
460
0.0
461
0.0
452
        0
462
0.0
453
        0
470

  0
LINE
  5
C2
330
BC
100
AcDbEntity
  8
Системный слой
  6
K5LT_THIN
 62
     0
370
    18
100
AcDbLine
 10
0.0
 20
0.0
 30
0.0
 11
-1.0
 21
0.0
 31
0.0
  0
ENDBLK
  5
C4
330
BC
100
AcDbEntity
  8
0
100
AcDbBlockEnd
  0
BLOCK
  5
CD
330
C5
100
AcDbEntity
  8
0
100
AcDbBlockBegin
  2
KDIMARROW_06
 70
     0
 10
0.0
 20
0.0
 30
0.0
  3
KDIMARROW_06
  1

  0
LINE
  5
C6
330
C5
100
AcDbEntity
  8
0
  6
K5LT_THIN
 62
     0
370
    18
100
AcDbLine
 10
0.0
 20
0.0
 30
0.0
 11
5.0
 21
-0.6582624912261971
 31
0.0
  0
LINE
  5
C7
330
C5
100
AcDbEntity
  8
0
  6
K5LT_THIN
 62
     0
370
    18
100
AcDbLine
 10
5.0
 20
-0.6582624912261971
 30
0.0
 11
5.0
 21
-0.0000000000000006
 31
0.0
  0
LINE
  5
C8
330
C5
100
AcDbEntity
  8
0
  6
K5LT_THIN
 62
     0
370
    18
100
AcDbLine
 10
5.0
 20
-0.0000000000000006
 30
0.0
 11
5.0
 21
0.6582624912261956
 31
0.0
  0
LINE
  5
C9
330
C5
100
AcDbEntity
  8
0
  6
K5LT_THIN
 62
     0
370
    18
100
AcDbLine
 10
5.0
 20
0.6582624912261956
 30
0.0
 11
0.0
 21
0.0
 31
0.0
  0
LINE
  5
CA
330
C5
100
AcDbEntity
  8
0
  6
K5LT_THIN
 62
     0
370
    18
100
AcDbLine
 10
0.0
 20
0.0
 30
0.0
 11
7.0
 21
-0.0000000000000009
 31
0.0
  0
HATCH
  5
CB
330
C5
100
AcDbEntity
  8
0
 62
     0
100
AcDbHatch
 10
0.0
 20
0.0
 30
0.0
210
0.0
220
0.0
230
1.0
  2
SOLID
 70
     1
 71
     0
 91
        1
 92
        1
 93
        4
 72
     1
 10
5.0
 20
-0.0000000000000006
 11
5.0
 21
0.6582624912261956
 72
     1
 10
5.0
 20
0.6582624912261956
 11
0.0
 21
0.0
 72
     1
 10
0.0
 20
0.0
 11
5.0
 21
-0.6582624912261971
 72
     1
 10
5.0
 20
-0.6582624912261971
 11
5.0
 21
-0.0000000000000007
 97
        0
 75
     0
 76
     1
 98
        0
450
        0
451
        0
460
0.0
461
0.0
452
        0
462
0.0
453
        0
470

  0
LINE
  5
CC
330
C5
100
AcDbEntity
  8
Системный слой
  6
K5LT_THIN
 62
     0
370
    18
100
AcDbLine
 10
0.0
 20
0.0
 30
0.0
 11
-1.0
 21
0.0
 31
0.0
  0
ENDBLK
  5
CE
330
C5
100
AcDbEntity
  8
0
100
AcDbBlockEnd
  0
BLOCK
  5
D3
330
CF
100
AcDbEntity
  8
0
100
AcDbBlockBegin
  2
KDIMARROW_07
 70
     0
 10
0.0
 20
0.0
 30
0.0
  3
KDIMARROW_07
  1

  0
LINE
  5
D0
330
CF
100
AcDbEntity
  8
0
  6
K5LT_THIN
 62
     0
370
    18
100
AcDbLine
 10
0.0
 20
0.0
 30
0.0
 11
-5.0
 21
-0.6582624912261956
 31
0.0
  0
LINE
  5
D1
330
CF
100
AcDbEntity
  8
0
  6
K5LT_THIN
 62
     0
370
    18
100
AcDbLine
 10
0.0
 20
0.0
 30
0.0
 11
-5.0
 21
0.6582624912261971
 31
0.0
  0
LINE
  5
D2
330
CF
100
AcDbEntity
  8
Системный слой
  6
K5LT_THIN
 62
     0
370
    18
100
AcDbLine
 10
0.0
 20
0.0
 30
0.0
 11
-1.0
 21
0.0
 31
0.0
  0
ENDBLK
  5
D4
330
CF
100
AcDbEntity
  8
0
100
AcDbBlockEnd
  0
BLOCK
  5
DA
330
D5
100
AcDbEntity
  8
0
100
AcDbBlockBegin
  2
KDIMARROW_08
 70
     0
 10
0.0
 20
0.0
 30
0.0
  3
KDIMARROW_08
  1

  0
LINE
  5
D6
330
D5
100
AcDbEntity
  8
0
  6
K5LT_THIN
 62
     0
370
    18
100
AcDbLine
 10
0.0
 20
0.0
 30
0.0
 11
5.0
 21
-0.6582624912261971
 31
0.0
  0
LINE
  5
D7
330
D5
100
AcDbEntity
  8
0
  6
K5LT_THIN
 62
     0
370
    18
100
AcDbLine
 10
0.0
 20
0.0
 30
0.0
 11
5.0
 21
0.6582624912261956
 31
0.0
  0
LINE
  5
D8
330
D5
100
AcDbEntity
  8
0
  6
K5LT_THIN
 62
     0
370
    18
100
AcDbLine
 10
0.0
 20
0.0
 30
0.0
 11
7.0
 21
-0.0000000000000009
 31
0.0
  0
LINE
  5
D9
330
D5
100
AcDbEntity
  8
Системный слой
  6
K5LT_THIN
 62
     0
370
    18
100
AcDbLine
 10
0.0
 20
0.0
 30
0.0
 11
-1.0
 21
0.0
 31
0.0
  0
ENDBLK
  5
DB
330
D5
100
AcDbEntity
  8
0
100
AcDbBlockEnd
  0
BLOCK
  5
E0
330
DC
100
AcDbEntity
  8
0
100
AcDbBlockBegin
  2
KDIMARROW_09
 70
     0
 10
0.0
 20
0.0
 30
0.0
  3
KDIMARROW_09
  1

  0
LINE
  5
DD
330
DC
100
AcDbEntity
  8
0
  6
K5LT_THIN
 62
     0
370
    18
100
AcDbLine
 10
0.0
 20
0.0
 30
0.0
 11
-2.0
 21
-2.0
 31
0.0
  0
LINE
  5
DE
330
DC
100
AcDbEntity
  8
0
  6
K5LT_THIN
 62
     0
370
    18
100
AcDbLine
 10
0.0
 20
0.0
 30
0.0
 11
-2.0
 21
2.0
 31
0.0
  0
LINE
  5
DF
330
DC
100
AcDbEntity
  8
Системный слой
  6
K5LT_THIN
 62
     0
370
    18
100
AcDbLine
 10
0.0
 20
0.0
 30
0.0
 11
-1.0
 21
0.0
 31
0.0
  0
ENDBLK
  5
E1
330
DC
100
AcDbEntity
  8
0
100
AcDbBlockEnd
  0
BLOCK
  5
E7
330
E2
100
AcDbEntity
  8
0
100
AcDbBlockBegin
  2
KDIMARROW_10
 70
     0
 10
0.0
 20
0.0
 30
0.0
  3
KDIMARROW_10
  1

  0
LINE
  5
E3
330
E2
100
AcDbEntity
  8
0
  6
K5LT_THIN
 62
     0
370
    18
100
AcDbLine
 10
0.0
 20
0.0
 30
0.0
 11
2.0
 21
-2.0
 31
0.0
  0
LINE
  5
E4
330
E2
100
AcDbEntity
  8
0
  6
K5LT_THIN
 62
     0
370
    18
100
AcDbLine
 10
0.0
 20
0.0
 30
0.0
 11
2.0
 21
2.0
 31
0.0
  0
LINE
  5
E5
330
E2
100
AcDbEntity
  8
0
  6
K5LT_THIN
 62
     0
370
    18
100
AcDbLine
 10
0.0
 20
0.0
 30
0.0
 11
4.0
 21
-0.0000000000000005
 31
0.0
  0
LINE
  5
E6
330
E2
100
AcDbEntity
  8
Системный слой
  6
K5LT_THIN
 62
     0
370
    18
100
AcDbLine
 10
0.0
 20
0.0
 30
0.0
 11
-1.0
 21
0.0
 31
0.0
  0
ENDBLK
  5
E8
330
E2
100
AcDbEntity
  8
0
100
AcDbBlockEnd
  0
BLOCK
  5
ED
330
E9
100
AcDbEntity
  8
0
100
AcDbBlockBegin
  2
KDIMARROW_11
 70
     0
 10
0.0
 20
0.0
 30
0.0
  3
KDIMARROW_11
  1

  0
CIRCLE
  5
EA
330
E9
100
AcDbEntity
  8
0
  6
K5LT_THIN
 62
     0
370
    18
100
AcDbCircle
 10
0.0
 20
0.0
 30
0.0
 40
2.5
  0
HATCH
  5
EB
330
E9
100
AcDbEntity
  8
0
 62
     0
100
AcDbHatch
 10
0.0
 20
0.0
 30
0.0
210
0.0
220
0.0
230
1.0
  2
SOLID
 70
     1
 71
     0
 91
        1
 92
        1
 93
        8
 72
     1
 10
-2.5
 20
0.0000000000000003
 11
-1.767766952966369
 21
-1.767766952966369
 72
     1
 10
-1.767766952966369
 20
-1.767766952966369
 11
-0.0000000000000004
 21
-2.5
 72
     1
 10
-0.0000000000000005
 20
-2.5
 11
1.767766952966368
 21
-1.767766952966369
 72
     1
 10
1.767766952966368
 20
-1.767766952966369
 11
2.5
 21
-0.0000000000000007
 72
     1
 10
2.5
 20
-0.0000000000000006
 11
1.767766952966369
 21
1.767766952966368
 72
     1
 10
1.767766952966369
 20
1.767766952966368
 11
0.0000000000000007
 21
2.5
 72
     1
 10
0.0000000000000008
 20
2.5
 11
-1.767766952966368
 21
1.767766952966369
 72
     1
 10
-1.767766952966368
 20
1.767766952966369
 11
-2.5
 21
0.0000000000000009
 97
        0
 75
     0
 76
     1
 98
        0
450
        0
451
        0
460
0.0
461
0.0
452
        0
462
0.0
453
        0
470

  0
LINE
  5
EC
330
E9
100
AcDbEntity
  8
Системный слой
  6
K5LT_THIN
 62
     0
370
    18
100
AcDbLine
 10
0.0
 20
0.0
 30
0.0
 11
-1.0
 21
0.0
 31
0.0
  0
ENDBLK
  5
EE
330
E9
100
AcDbEntity
  8
0
100
AcDbBlockEnd
  0
BLOCK
  5
F3
330
EF
100
AcDbEntity
  8
0
100
AcDbBlockBegin
  2
KDIMARROW_12
 70
     0
 10
0.0
 20
0.0
 30
0.0
  3
KDIMARROW_12
  1

  0
CIRCLE
  5
F0
330
EF
100
AcDbEntity
  8
0
  6
K5LT_THIN
 62
     0
370
    18
100
AcDbCircle
 10
0.0
 20
0.0
 30
0.0
 40
1.5
  0
HATCH
  5
F1
330
EF
100
AcDbEntity
  8
0
 62
     0
100
AcDbHatch
 10
0.0
 20
0.0
 30
0.0
210
0.0
220
0.0
230
1.0
  2
SOLID
 70
     1
 71
     0
 91
        1
 92
        1
 93
        8
 72
     1
 10
-1.5
 20
0.0000000000000002
 11
-1.060660171779821
 21
-1.06066017177982
 72
     1
 10
-1.060660171779821
 20
-1.06066017177982
 11
-0.0000000000000002
 21
-1.5
 72
     1
 10
-0.0000000000000003
 20
-1.5
 11
1.06066017177982
 21
-1.060660171779821
 72
     1
 10
1.06066017177982
 20
-1.060660171779821
 11
1.5
 21
-0.0000000000000004
 72
     1
 10
1.5
 20
-0.0000000000000004
 11
1.060660171779821
 21
1.06066017177982
 72
     1
 10
1.060660171779821
 20
1.06066017177982
 11
0.0000000000000004
 21
1.5
 72
     1
 10
0.0000000000000005
 20
1.5
 11
-1.06066017177982
 21
1.060660171779821
 72
     1
 10
-1.06066017177982
 20
1.060660171779821
 11
-1.5
 21
0.0000000000000004
 97
        0
 75
     0
 76
     1
 98
        0
450
        0
451
        0
460
0.0
461
0.0
452
        0
462
0.0
453
        0
470

  0
LINE
  5
F2
330
EF
100
AcDbEntity
  8
Системный слой
  6
K5LT_THIN
 62
     0
370
    18
100
AcDbLine
 10
0.0
 20
0.0
 30
0.0
 11
-1.0
 21
0.0
 31
0.0
  0
ENDBLK
  5
F4
330
EF
100
AcDbEntity
  8
0
100
AcDbBlockEnd
  0
BLOCK
  5
F9
330
F5
100
AcDbEntity
  8
0
100
AcDbBlockBegin
  2
KDIMARROW_13
 70
     0
 10
0.0
 20
0.0
 30
0.0
  3
KDIMARROW_13
  1

  0
LINE
  5
F6
330
F5
100
AcDbEntity
  8
0
  6
K5LT_THIN
 62
     0
370
    18
100
AcDbLine
 10
-1.060500025749205
 20
1.060500025749206
 30
0.0
 11
1.060500025749205
 21
-1.060500025749206
 31
0.0
  0
LINE
  5
F7
330
F5
100
AcDbEntity
  8
0
  6
K5LT_THIN
 62
     0
370
    18
100
AcDbLine
 10
0.0
 20
0.0
 30
0.0
 11
2.0
 21
-0.0000000000000002
 31
0.0
  0
LINE
  5
F8
330
F5
100
AcDbEntity
  8
Системный слой
  6
K5LT_THIN
 62
     0
370
    18
100
AcDbLine
 10
0.0
 20
0.0
 30
0.0
 11
-1.0
 21
0.0
 31
0.0
  0
ENDBLK
  5
FA
330
F5
100
AcDbEntity
  8
0
100
AcDbBlockEnd
  0
BLOCK
  5
108
330
FD
100
AcDbEntity
  8
0
100
AcDbBlockBegin
  2
D0
 70
     0
 10
0.0
 20
0.0
 30
0.0
  3
D0
  1

  0
WIPEOUT
  5
FF
330
FD
100
AcDbEntity
  8
Системный слой
440
 16777216
160
               140
310
8C00000001000000840000000600000005000000E19C7EB2CC44994078A4A0A28BD073400000000000000000E19C7EB2CC44994079A420FF3D1774400000000000000000F54AC6D50668994079A420FF3D1774400000000000000000F54AC6D50668994078A4A0A28BD073400000000000000000E19C7EB2CC44994078A4A0
310
A28BD073400000000000000000
100
AcDbWipeout
 90
        0
 10
1617.199899652791
 20
317.0340906405541
 30
0.0
 11
8.806775207519422
 21
0.0
 31
0.0
 12
0.0
 22
8.806775207519422
 32
0.0
 13
1.0
 23
1.0
340
0
 70
     7
280
     1
281
    50
282
    50
283
     0
290
     0
360
0
 71
     2
 91
        5
 14
-0.5
 24
0.5000000000000071
 14
-0.5
 24
-0.0017211342412367
 14
0.5
 24
-0.0017211342412367
 14
0.5
 24
0.5000000000000071
 14
-0.5
 24
0.5000000000000071
  0
LINE
  5
100
330
FD
100
AcDbEntity
  8
Системный слой
  6
K5LT_THIN
 62
     7
440
 16777216
370
    18
100
AcDbLine
 10
-161.2132382599591
 20
316.0340906405541
 30
0.0
 11
1792.786761740041
 21
316.0340906405541
 31
0.0
  0
LINE
  5
101
330
FD
100
AcDbEntity
  8
Системный слой
  6
K5LT_THIN
 62
     7
440
 16777216
370
    18
100
AcDbLine
 10
-161.2132382599591
 20
234.3638487929616
 30
0.0
 11
-161.2132382599591
 21
318.0340906405541
 31
0.0
  0
LINE
  5
102
330
FD
100
AcDbEntity
  8
Системный слой
  6
K5LT_THIN
 62
     7
440
 16777216
370
    18
100
AcDbLine
 10
1792.786761740041
 20
234.3638487929616
 30
0.0
 11
1792.786761740041
 21
318.0340906405541
 31
0.0
  0
MTEXT
  5
104
330
FD
100
AcDbEntity
  8
0
 62
     7
440
 16777216
100
AcDbMText
 10
1617.199899652791
 20
320.4933632636162
 30
0.0
 40
2.5
 41
0.0
 46
0.0
 71
     1
 72
     1
  1
\H3.5;\W0.965;\Q15;\Q15;\W0.930;\H2.50;1954
  7
KTEXTSTYLE
 73
     1
 44
1.0
  0
MTEXT
  5
105
330
FD
100
AcDbEntity
  8
0
 62
     7
440
 16777216
100
AcDbMText
 10
1622.724378565145
 20
321.5397120738122
 30
0.0
 40
2.5
 41
0.0
 46
0.0
 71
     1
 72
     1
  1
\H3.5;\W0.965;\Q15;\Q15;\W0.930;\H1.63;1,85
  7
KTEXTSTYLE
 73
     1
 44
1.0
  0
MTEXT
  5
106
330
FD
100
AcDbEntity
  8
0
 62
     7
440
 16777216
100
AcDbMText
 10
1622.724378565145
 20
319.0804395699593
 30
0.0
 40
2.5
 41
0.0
 46
0.0
 71
     1
 72
     1
  1
\H3.5;\W0.965;\Q15;\Q15;\W0.930;\H1.63;1,85
  7
KTEXTSTYLE
 73
     1
 44
1.0
  0
MTEXT
  5
107
330
FD
100
AcDbEntity
  8
0
 62
     7
440
 16777216
100
AcDbMText
 10
1625.728701570821
 20
320.4933632636162
 30
0.0
 40
2.5
 41
0.0
 46
0.0
 71
     1
 72
     1
  1
\H3.5;\W0.965;\Q15;\Q0;\W0.930;\H2.50; 
  7
KTEXTSTYLE
 73
     1
 44
1.0
  0
ENDBLK
  5
109
330
FD
100
AcDbEntity
  8
0
100
AcDbBlockEnd
  0
BLOCK
  5
131
330
10D
100
AcDbEntity
  8
0
100
AcDbBlockBegin
  2
U3
 70
     0
 10
0.0
 20
0.0
 30
0.0
  3
U3
  1

  0
INSERT
  5
110
330
10D
100
AcDbEntity
  8
Системный слой
100
AcDbBlockReference
  2
U4
 10
0.0
 20
0.0
 30
0.0
  0
INSERT
  5
11B
330
10D
100
AcDbEntity
  8
Системный слой
100
AcDbBlockReference
  2
U5
 10
0.0
 20
0.0
 30
0.0
  0
DIMENSION
  5
130
330
10D
100
AcDbEntity
  8
Системный слой
 62
     7
100
AcDbDimension
280
     0
  2
D1
 10
-161.2132382599591
 20
174.319128002834
 30
0.0
 11
314.7867617400409
 21
174.319128002834
 31
0.0
 70
   160
  1
\H2.5;\W0.925;\Q0;\H2.5;\W0.925;\Q0;\Q15;\W0.891;979\A1;{\H2.5;\W0.925;\Q0;\Q0;\W0.887;\H1.67;\S1,15^ 1,15;\Q15;\H2.50;\Q15;\H1.63; \Q15;\H2.50;}
 71
     5
 42
-1.0
 73
     0
 74
     0
 75
     0
  3
KDIMSTYLE (1.00)
100
AcDbAlignedDimension
 13
817.7867617400412
 23
224.3638487929616
 33
0.0
 14
-161.2132382599591
 24
199.3638487929615
 34
0.0
100
AcDbRotatedDimension
1001
ACAD
1000
DSTYLE
1002
{
1070
   178
1070
     7
1070
   344
1005
99
1070
   343
1005
99
1070
    42
1040
0.0
1070
    76
1070
     0
1070
    75
1070
     0
1070
   283
1070
     1
1002
}
  0
ENDBLK
  5
132
330
10D
100
AcDbEntity
  8
0
100
AcDbBlockEnd
  0
BLOCK
  5
118
330
10F
100
AcDbEntity
  8
0
100
AcDbBlockBegin
  2
U4
 70
     0
 10
0.0
 20
0.0
 30
0.0
  3
U4
  1

  0
HATCH
  5
111
330
10F
100
AcDbEntity
  8
Системный слой
 62
     7
100
AcDbHatch
 10
0.0
 20
0.0
 30
0.0
210
0.0
220
0.0
230
1.0
  2
SOLID
 70
     1
 71
     0
 91
        1
 92
        1
 93
        4
 72
     1
 10
812.7867617400411
 20
173.6608655116078
 11
817.7867617400412
 21
174.319128002834
 72
     1
 10
817.7867617400412
 20
174.319128002834
 11
812.7867617400411
 21
174.9773904940601
 72
     1
 10
812.7867617400411
 20
174.9773904940601
 11
813.2867617400412
 21
174.319128002834
 72
     1
 10
813.2867617400412
 20
174.319128002834
 11
812.7867617400411
 21
173.6608655116078
 97
        0
 75
     0
 76
     1
 98
        0
450
        0
451
        0
460
0.0
461
0.0
452
        0
462
0.0
453
        0
470

  0
LINE
  5
112
330
10F
100
AcDbEntity
  8
Системный слой
  6
K5LT32777
 62
     7
370
    18
100
AcDbLine
 10
817.7867617400412
 20
174.319128002834
 30
0.0
 11
812.7867617400411
 21
173.6608655116078
 31
0.0
  0
LINE
  5
113
330
10F
100
AcDbEntity
  8
Системный слой
  6
K5LT32777
 62
     7
370
    18
100
AcDbLine
 10
812.7867617400411
 20
173.6608655116078
 30
0.0
 11
813.2867617400412
 21
174.319128002834
 31
0.0
  0
LINE
  5
114
330
10F
100
AcDbEntity
  8
Системный слой
  6
K5LT32777
 62
     7
370
    18
100
AcDbLine
 10
813.2867617400412
 20
174.319128002834
 30
0.0
 11
812.7867617400411
 21
174.9773904940601
 31
0.0
  0
LINE
  5
115
330
10F
100
AcDbEntity
  8
Системный слой
  6
K5LT32777
 62
     7
370
    18
100
AcDbLine
 10
812.7867617400411
 20
174.9773904940601
 30
0.0
 11
817.7867617400412
 21
174.319128002834
 31
0.0
  0
LINE
  5
116
330
10F
100
AcDbEntity
  8
Системный слой
  6
K5LT32777
 62
     7
370
    18
100
AcDbLine
 10
817.7867617400412
 20
174.319128002834
 30
0.0
 11
816.7867617400412
 21
174.319128002834
 31
0.0
  0
LINE
  5
117
330
10F
100
AcDbEntity
  8
Системный слой
  6
K5LT_THIN
 62
     7
370
    18
100
AcDbLine
 10
817.7867617400412
 20
174.319128002834
 30
0.0
 11
815.7867617400412
 21
174.319128002834
 31
0.0
  0
ENDBLK
  5
119
330
10F
100
AcDbEntity
  8
0
100
AcDbBlockEnd
  0
BLOCK
  5
123
330
11A
100
AcDbEntity
  8
0
100
AcDbBlockBegin
  2
U5
 70
     0
 10
0.0
 20
0.0
 30
0.0
  3
U5
  1

  0
HATCH
  5
11C
330
11A
100
AcDbEntity
  8
Системный слой
 62
     7
100
AcDbHatch
 10
0.0
 20
0.0
 30
0.0
210
0.0
220
0.0
230
1.0
  2
SOLID
 70
     1
 71
     0
 91
        1
 92
        1
 93
        4
 72
     1
 10
-156.2132382599591
 20
174.9773904940601
 11
-161.2132382599591
 21
174.319128002834
 72
     1
 10
-161.2132382599591
 20
174.319128002834
 11
-156.2132382599591
 21
173.6608655116078
 72
     1
 10
-156.2132382599591
 20
173.6608655116078
 11
-156.7132382599591
 21
174.319128002834
 72
     1
 10
-156.7132382599591
 20
174.319128002834
 11
-156.2132382599591
 21
174.9773904940601
 97
        0
 75
     0
 76
     1
 98
        0
450
        0
451
        0
460
0.0
461
0.0
452
        0
462
0.0
453
        0
470

  0
LINE
  5
11D
330
11A
100
AcDbEntity
  8
Системный слой
  6
K5LT32777
 62
     7
370
    18
100
AcDbLine
 10
-161.2132382599591
 20
174.319128002834
 30
0.0
 11
-156.2132382599591
 21
174.9773904940601
 31
0.0
  0
LINE
  5
11E
330
11A
100
AcDbEntity
  8
Системный слой
  6
K5LT32777
 62
     7
370
    18
100
AcDbLine
 10
-156.2132382599591
 20
174.9773904940601
 30
0.0
 11
-156.7132382599591
 21
174.319128002834
 31
0.0
  0
LINE
  5
11F
330
11A
100
AcDbEntity
  8
Системный слой
  6
K5LT32777
 62
     7
370
    18
100
AcDbLine
 10
-156.7132382599591
 20
174.319128002834
 30
0.0
 11
-156.2132382599591
 21
173.6608655116078
 31
0.0
  0
LINE
  5
120
330
11A
100
AcDbEntity
  8
Системный слой
  6
K5LT32777
 62
     7
370
    18
100
AcDbLine
 10
-156.2132382599591
 20
173.6608655116078
 30
0.0
 11
-161.2132382599591
 21
174.319128002834
 31
0.0
  0
LINE
  5
121
330
11A
100
AcDbEntity
  8
Системный слой
  6
K5LT32777
 62
     7
370
    18
100
AcDbLine
 10
-161.2132382599591
 20
174.319128002834
 30
0.0
 11
-160.2132382599591
 21
174.319128002834
 31
0.0
  0
LINE
  5
122
330
11A
100
AcDbEntity
  8
Системный слой
  6
K5LT_THIN
 62
     7
370
    18
100
AcDbLine
 10
-161.2132382599591
 20
174.319128002834
 30
0.0
 11
-159.2132382599591
 21
174.319128002834
 31
0.0
  0
ENDBLK
  5
124
330
11A
100
AcDbEntity
  8
0
100
AcDbBlockEnd
  0
BLOCK
  5
12E
330
125
100
AcDbEntity
  8
0
100
AcDbBlockBegin
  2
D1
 70
     0
 10
0.0
 20
0.0
 30
0.0
  3
D1
  1

  0
WIPEOUT
  5
126
330
125
100
AcDbEntity
  8
Системный слой
440
 16777216
160
               140
310
8C000000010000008400000006000000050000008573FAD04C6C73401DEDED4B36EA654000000000000000008573FAD04C6C73401DEDED049B776640000000000000000065EE0EB7BBE773401DEDED049B776640000000000000000065EE0EB7BBE773401DEDED4B36EA654000000000000000008573FAD04C6C73401DEDED
310
4B36EA65400000000000000000
100
AcDbWipeout
 90
        0
 10
310.7687539847614
 20
175.319128002834
 30
0.0
 11
7.714574890136701
 21
0.0
 31
0.0
 12
0.0
 22
7.714574890136701
 32
0.0
 13
1.0
 23
1.0
340
0
 70
     7
280
     1
281
    50
282
    50
283
     0
290
     0
360
0
 71
     2
 91
        5
 14
-0.5
 24
0.5000000000000036
 14
-0.5
 24
-0.0727529136794658
 14
0.5
 24
-0.0727529136794658
 14
0.5
 24
0.5000000000000036
 14
-0.5
 24
0.5000000000000036
  0
LINE
  5
127
330
125
100
AcDbEntity
  8
Системный слой
  6
K5LT_THIN
 62
     7
440
 16777216
370
    18
100
AcDbLine
 10
-161.2132382599591
 20
174.319128002834
 30
0.0
 11
817.7867617400412
 21
174.319128002834
 31
0.0
  0
LINE
  5
128
330
125
100
AcDbEntity
  8
Системный слой
  6
K5LT_THIN
 62
     7
440
 16777216
370
    18
100
AcDbLine
 10
-161.2132382599591
 20
199.3638487929615
 30
0.0
 11
-161.2132382599591
 21
172.319128002834
 31
0.0
  0
LINE
  5
129
330
125
100
AcDbEntity
  8
Системный слой
  6
K5LT_THIN
 62
     7
440
 16777216
370
    18
100
AcDbLine
 10
817.7867617400412
 20
224.3638487929616
 30
0.0
 11
817.7867617400412
 21
172.319128002834
 31
0.0
  0
MTEXT
  5
12A
330
125
100
AcDbEntity
  8
0
 62
     7
440
 16777216
100
AcDbMText
 10
310.7687539847614
 20
178.7784006258961
 30
0.0
 40
2.5
 41
0.0
 46
0.0
 71
     1
 72
     1
  1
\H3.5;\W0.965;\Q15;\Q15;\W0.930;\H2.50;979
  7
KTEXTSTYLE
 73
     1
 44
1.0
  0
MTEXT
  5
12B
330
125
100
AcDbEntity
  8
0
 62
     7
440
 16777216
100
AcDbMText
 10
315.4994826110126
 20
179.824749436092
 30
0.0
 40
2.5
 41
0.0
 46
0.0
 71
     1
 72
     1
  1
\H3.5;\W0.965;\Q15;\Q15;\W0.930;\H1.63;1,15
  7
KTEXTSTYLE
 73
     1
 44
1.0
  0
MTEXT
  5
12C
330
125
100
AcDbEntity
  8
0
 62
     7
440
 16777216
100
AcDbMText
 10
315.4994826110126
 20
177.3654769322392
 30
0.0
 40
2.5
 41
0.0
 46
0.0
 71
     1
 72
     1
  1
\H3.5;\W0.965;\Q15;\Q15;\W0.930;\H1.63;1,15
  7
KTEXTSTYLE
 73
     1
 44
1.0
  0
MTEXT
  5
12D
330
125
100
AcDbEntity
  8
0
 62
     7
440
 16777216
100
AcDbMText
 10
318.1598472388507
 20
178.7784006258961
 30
0.0
 40
2.5
 41
0.0
 46
0.0
 71
     1
 72
     1
  1
\H3.5;\W0.965;\Q15;\Q0;\W0.930;\H2.50; 
  7
KTEXTSTYLE
 73
     1
 44
1.0
  0
ENDBLK
  5
12F
330
125
100
AcDbEntity
  8
0
100
AcDbBlockEnd
  0
BLOCK
  5
157
330
133
100
AcDbEntity
  8
0
100
AcDbBlockBegin
  2
U6
 70
     0
 10
0.0
 20
0.0
 30
0.0
  3
U6
  1

  0
INSERT
  5
136
330
133
100
AcDbEntity
  8
Системный слой
100
AcDbBlockReference
  2
U7
 10
0.0
 20
0.0
 30
0.0
  0
INSERT
  5
141
330
133
100
AcDbEntity
  8
Системный слой
100
AcDbBlockReference
  2
U8
 10
0.0
 20
0.0
 30
0.0
  0
DIMENSION
  5
156
330
133
100
AcDbEntity
  8
Системный слой
 62
     7
100
AcDbDimension
280
     0
  2
D2
 10
-161.2132382599591
 20
243.893116510568
 30
0.0
 11
-121.2132382599591
 21
243.893116510568
 31
0.0
 70
   160
  1
\H2.5;\W0.925;\Q0;\H2.5;\W0.925;\Q0;\Q15;\W0.891;50\A1;{\H2.5;\W0.925;\Q0;\Q0;\W0.887;\H1.67;\S0,31^ 0,31;\Q15;\H2.50;\Q15;\H1.63; \Q15;\H2.50;}
 71
     5
 42
-1.0
 73
     0
 74
     0
 75
     0
  3
KDIMSTYLE (1.00)
100
AcDbAlignedDimension
 13
-111.2132382599589
 23
229.3638487929616
 33
0.0
 14
-161.2132382599591
 24
269.3638487929616
 34
0.0
100
AcDbRotatedDimension
1001
ACAD
1000
DSTYLE
1002
{
1070
   178
1070
     7
1070
   344
1005
99
1070
   343
1005
99
1070
    42
1040
0.0
1070
    76
1070
     0
1070
    75
1070
     0
1070
   283
1070
     1
1002
}
  0
ENDBLK
  5
158
330
133
100
AcDbEntity
  8
0
100
AcDbBlockEnd
  0
BLOCK
  5
13E
330
135
100
AcDbEntity
  8
0
100
AcDbBlockBegin
  2
U7
 70
     0
 10
0.0
 20
0.0
 30
0.0
  3
U7
  1

  0
HATCH
  5
137
330
135
100
AcDbEntity
  8
Системный слой
 62
     7
100
AcDbHatch
 10
0.0
 20
0.0
 30
0.0
210
0.0
220
0.0
230
1.0
  2
SOLID
 70
     1
 71
     0
 91
        1
 92
        1
 93
        4
 72
     1
 10
-116.2132382599589
 20
243.2348540193418
 11
-111.2132382599589
 21
243.893116510568
 72
     1
 10
-111.2132382599589
 20
243.893116510568
 11
-116.2132382599589
 21
244.5513790017942
 72
     1
 10
-116.2132382599589
 20
244.5513790017942
 11
-115.7132382599589
 21
243.893116510568
 72
     1
 10
-115.7132382599589
 20
243.893116510568
 11
-116.2132382599589
 21
243.2348540193418
 97
        0
 75
     0
 76
     1
 98
        0
450
        0
451
        0
460
0.0
461
0.0
452
        0
462
0.0
453
        0
470

  0
LINE
  5
138
330
135
100
AcDbEntity
  8
Системный слой
  6
K5LT32777
 62
     7
370
    18
100
AcDbLine
 10
-111.2132382599589
 20
243.893116510568
 30
0.0
 11
-116.2132382599589
 21
243.2348540193418
 31
0.0
  0
LINE
  5
139
330
135
100
AcDbEntity
  8
Системный слой
  6
K5LT32777
 62
     7
370
    18
100
AcDbLine
 10
-116.2132382599589
 20
243.2348540193418
 30
0.0
 11
-115.7132382599589
 21
243.893116510568
 31
0.0
  0
LINE
  5
13A
330
135
100
AcDbEntity
  8
Системный слой
  6
K5LT32777
 62
     7
370
    18
100
AcDbLine
 10
-115.7132382599589
 20
243.893116510568
 30
0.0
 11
-116.2132382599589
 21
244.5513790017942
 31
0.0
  0
LINE
  5
13B
330
135
100
AcDbEntity
  8
Системный слой
  6
K5LT32777
 62
     7
370
    18
100
AcDbLine
 10
-116.2132382599589
 20
244.5513790017942
 30
0.0
 11
-111.2132382599589
 21
243.893116510568
 31
0.0
  0
LINE
  5
13C
330
135
100
AcDbEntity
  8
Системный слой
  6
K5LT32777
 62
     7
370
    18
100
AcDbLine
 10
-111.2132382599589
 20
243.893116510568
 30
0.0
 11
-112.2132382599589
 21
243.893116510568
 31
0.0
  0
LINE
  5
13D
330
135
100
AcDbEntity
  8
Системный слой
  6
K5LT_THIN
 62
     7
370
    18
100
AcDbLine
 10
-111.2132382599589
 20
243.893116510568
 30
0.0
 11
-113.2132382599589
 21
243.893116510568
 31
0.0
  0
ENDBLK
  5
13F
330
135
100
AcDbEntity
  8
0
100
AcDbBlockEnd
  0
BLOCK
  5
149
330
140
100
AcDbEntity
  8
0
100
AcDbBlockBegin
  2
U8
 70
     0
 10
0.0
 20
0.0
 30
0.0
  3
U8
  1

  0
HATCH
  5
142
330
140
100
AcDbEntity
  8
Системный слой
 62
     7
100
AcDbHatch
 10
0.0
 20
0.0
 30
0.0
210
0.0
220
0.0
230
1.0
  2
SOLID
 70
     1
 71
     0
 91
        1
 92
        1
 93
        4
 72
     1
 10
-156.2132382599591
 20
244.5513790017942
 11
-161.2132382599591
 21
243.893116510568
 72
     1
 10
-161.2132382599591
 20
243.893116510568
 11
-156.2132382599591
 21
243.2348540193418
 72
     1
 10
-156.2132382599591
 20
243.2348540193418
 11
-156.7132382599591
 21
243.893116510568
 72
     1
 10
-156.7132382599591
 20
243.893116510568
 11
-156.2132382599591
 21
244.5513790017942
 97
        0
 75
     0
 76
     1
 98
        0
450
        0
451
        0
460
0.0
461
0.0
452
        0
462
0.0
453
        0
470

  0
LINE
  5
143
330
140
100
AcDbEntity
  8
Системный слой
  6
K5LT32777
 62
     7
370
    18
100
AcDbLine
 10
-161.2132382599591
 20
243.893116510568
 30
0.0
 11
-156.2132382599591
 21
244.5513790017942
 31
0.0
  0
LINE
  5
144
330
140
100
AcDbEntity
  8
Системный слой
  6
K5LT32777
 62
     7
370
    18
100
AcDbLine
 10
-156.2132382599591
 20
244.5513790017942
 30
0.0
 11
-156.7132382599591
 21
243.893116510568
 31
0.0
  0
LINE
  5
145
330
140
100
AcDbEntity
  8
Системный слой
  6
K5LT32777
 62
     7
370
    18
100
AcDbLine
 10
-156.7132382599591
 20
243.893116510568
 30
0.0
 11
-156.2132382599591
 21
243.2348540193418
 31
0.0
  0
LINE
  5
146
330
140
100
AcDbEntity
  8
Системный слой
  6
K5LT32777
 62
     7
370
    18
100
AcDbLine
 10
-156.2132382599591
 20
243.2348540193418
 30
0.0
 11
-161.2132382599591
 21
243.893116510568
 31
0.0
  0
LINE
  5
147
330
140
100
AcDbEntity
  8
Системный слой
  6
K5LT32777
 62
     7
370
    18
100
AcDbLine
 10
-161.2132382599591
 20
243.893116510568
 30
0.0
 11
-160.2132382599591
 21
243.893116510568
 31
0.0
  0
LINE
  5
148
330
140
100
AcDbEntity
  8
Системный слой
  6
K5LT_THIN
 62
     7
370
    18
100
AcDbLine
 10
-161.2132382599591
 20
243.893116510568
 30
0.0
 11
-159.2132382599591
 21
243.893116510568
 31
0.0
  0
ENDBLK
  5
14A
330
140
100
AcDbEntity
  8
0
100
AcDbBlockEnd
  0
BLOCK
  5
154
330
14B
100
AcDbEntity
  8
0
100
AcDbBlockBegin
  2
D2
 70
     0
 10
0.0
 20
0.0
 30
0.0
  3
D2
  1

  0
WIPEOUT
  5
14C
330
14B
100
AcDbEntity
  8
Системный слой
440
 16777216
160
               140
310
8C00000001000000840000000600000005000000F33116E7C5225FC0078D1369949C6E400000000000000000F33116E7C5225FC0078D1322F9296F400000000000000000646F204E92895DC0078D1322F9296F400000000000000000646F204E92895DC0078D1369949C6E400000000000000000F33116E7C5225FC0078D13
310
69949C6E400000000000000000
100
AcDbWipeout
 90
        0
 10
-124.5433290211438
 20
244.893116510568
 30
0.0
 11
6.393774261474603
 21
0.0
 31
0.0
 12
0.0
 22
6.393774261474603
 32
0.0
 13
1.0
 23
1.0
340
0
 70
     7
280
     1
281
    50
282
    50
283
     0
290
     0
360
0
 71
     2
 91
        5
 14
-0.5000000000000036
 24
0.5
 14
-0.5000000000000036
 24
-0.1910699479567199
 14
0.4999999999999964
 24
-0.1910699479567199
 14
0.4999999999999964
 24
0.5
 14
-0.5000000000000036
 24
0.5
  0
LINE
  5
14D
330
14B
100
AcDbEntity
  8
Системный слой
  6
K5LT_THIN
 62
     7
440
 16777216
370
    18
100
AcDbLine
 10
-161.2132382599591
 20
243.893116510568
 30
0.0
 11
-111.2132382599589
 21
243.893116510568
 31
0.0
  0
LINE
  5
14E
330
14B
100
AcDbEntity
  8
Системный слой
  6
K5LT_THIN
 62
     7
440
 16777216
370
    18
100
AcDbLine
 10
-161.2132382599591
 20
269.3638487929616
 30
0.0
 11
-161.2132382599591
 21
241.893116510568
 31
0.0
  0
LINE
  5
14F
330
14B
100
AcDbEntity
  8
Системный слой
  6
K5LT_THIN
 62
     7
440
 16777216
370
    18
100
AcDbLine
 10
-111.2132382599589
 20
229.3638487929616
 30
0.0
 11
-111.2132382599589
 21
245.893116510568
 31
0.0
  0
MTEXT
  5
150
330
14B
100
AcDbEntity
  8
0
 62
     7
440
 16777216
100
AcDbMText
 10
-124.5433290211438
 20
248.3523891336301
 30
0.0
 40
2.5
 41
0.0
 46
0.0
 71
     1
 72
     1
  1
\H3.5;\W0.965;\Q15;\Q15;\W0.930;\H2.50;50
  7
KTEXTSTYLE
 73
     1
 44
1.0
  0
MTEXT
  5
151
330
14B
100
AcDbEntity
  8
0
 62
     7
440
 16777216
100
AcDbMText
 10
-121.5323915688275
 20
249.3987379438261
 30
0.0
 40
2.5
 41
0.0
 46
0.0
 71
     1
 72
     1
  1
\H3.5;\W0.965;\Q15;\Q15;\W0.930;\H1.63;0,31
  7
KTEXTSTYLE
 73
     1
 44
1.0
  0
MTEXT
  5
152
330
14B
100
AcDbEntity
  8
0
 62
     7
440
 16777216
100
AcDbMText
 10
-121.5323915688275
 20
246.9394654399732
 30
0.0
 40
2.5
 41
0.0
 46
0.0
 71
     1
 72
     1
  1
\H3.5;\W0.965;\Q15;\Q15;\W0.930;\H1.63;0,31
  7
KTEXTSTYLE
 73
     1
 44
1.0
  0
MTEXT
  5
153
330
14B
100
AcDbEntity
  8
0
 62
     7
440
 16777216
100
AcDbMText
 10
-118.528069278407
 20
248.3523891336301
 30
0.0
 40
2.5
 41
0.0
 46
0.0
 71
     1
 72
     1
  1
\H3.5;\W0.965;\Q15;\Q0;\W0.930;\H2.50; 
  7
KTEXTSTYLE
 73
     1
 44
1.0
  0
ENDBLK
  5
155
330
14B
100
AcDbEntity
  8
0
100
AcDbBlockEnd
  0
BLOCK
  5
17D
330
159
100
AcDbEntity
  8
0
100
AcDbBlockBegin
  2
U9
 70
     0
 10
0.0
 20
0.0
 30
0.0
  3
U9
  1

  0
INSERT
  5
15C
330
159
100
AcDbEntity
  8
Системный слой
100
AcDbBlockReference
  2
U10
 10
0.0
 20
0.0
 30
0.0
  0
INSERT
  5
167
330
159
100
AcDbEntity
  8
Системный слой
100
AcDbBlockReference
  2
U11
 10
0.0
 20
0.0
 30
0.0
  0
DIMENSION
  5
17C
330
159
100
AcDbEntity
  8
Системный слой
 62
     7
100
AcDbDimension
280
     0
  2
D3
 10
1792.786761740041
 20
234.3638487929616
 30
0.0
 11
1767.786761740041
 21
234.3638487929616
 31
0.0
 70
   160
  1
\H2.5;\W0.925;\Q0;\H2.5;\W0.925;\Q0;\Q15;\W0.891;50\A1;{\H2.5;\W0.925;\Q0;\Q0;\W0.887;\H1.67;\S0,31^ 0,31;\Q15;\H2.50;\Q15;\H1.63; \Q15;\H2.50;}
 71
     5
 42
-1.0
 73
     0
 74
     0
 75
     0
  3
KDIMSTYLE (1.00)
100
AcDbAlignedDimension
 13
1742.786761740041
 23
229.3638487929616
 33
0.0
 14
1792.786761740041
 24
269.3638487929616
 34
0.0
100
AcDbRotatedDimension
1001
ACAD
1000
DSTYLE
1002
{
1070
   178
1070
     7
1070
   344
1005
99
1070
   343
1005
99
1070
    42
1040
0.0
1070
    76
1070
     0
1070
    75
1070
     0
1070
   283
1070
     1
1002
}
  0
ENDBLK
  5
17E
330
159
100
AcDbEntity
  8
0
100
AcDbBlockEnd
  0
BLOCK
  5
164
330
15B
100
AcDbEntity
  8
0
100
AcDbBlockBegin
  2
U10
 70
     0
 10
0.0
 20
0.0
 30
0.0
  3
U10
  1

  0
HATCH
  5
15D
330
15B
100
AcDbEntity
  8
Системный слой
 62
     7
100
AcDbHatch
 10
0.0
 20
0.0
 30
0.0
210
0.0
220
0.0
230
1.0
  2
SOLID
 70
     1
 71
     0
 91
        1
 92
        1
 93
        4
 72
     1
 10
1747.786761740041
 20
235.0221112841878
 11
1742.786761740041
 21
234.3638487929616
 72
     1
 10
1742.786761740041
 20
234.3638487929616
 11
1747.786761740041
 21
233.7055863017354
 72
     1
 10
1747.786761740041
 20
233.7055863017354
 11
1747.286761740041
 21
234.3638487929616
 72
     1
 10
1747.286761740041
 20
234.3638487929616
 11
1747.786761740041
 21
235.0221112841878
 97
        0
 75
     0
 76
     1
 98
        0
450
        0
451
        0
460
0.0
461
0.0
452
        0
462
0.0
453
        0
470

  0
LINE
  5
15E
330
15B
100
AcDbEntity
  8
Системный слой
  6
K5LT32777
 62
     7
370
    18
100
AcDbLine
 10
1742.786761740041
 20
234.3638487929616
 30
0.0
 11
1747.786761740041
 21
235.0221112841878
 31
0.0
  0
LINE
  5
15F
330
15B
100
AcDbEntity
  8
Системный слой
  6
K5LT32777
 62
     7
370
    18
100
AcDbLine
 10
1747.786761740041
 20
235.0221112841878
 30
0.0
 11
1747.286761740041
 21
234.3638487929616
 31
0.0
  0
LINE
  5
160
330
15B
100
AcDbEntity
  8
Системный слой
  6
K5LT32777
 62
     7
370
    18
100
AcDbLine
 10
1747.286761740041
 20
234.3638487929616
 30
0.0
 11
1747.786761740041
 21
233.7055863017354
 31
0.0
  0
LINE
  5
161
330
15B
100
AcDbEntity
  8
Системный слой
  6
K5LT32777
 62
     7
370
    18
100
AcDbLine
 10
1747.786761740041
 20
233.7055863017354
 30
0.0
 11
1742.786761740041
 21
234.3638487929616
 31
0.0
  0
LINE
  5
162
330
15B
100
AcDbEntity
  8
Системный слой
  6
K5LT32777
 62
     7
370
    18
100
AcDbLine
 10
1742.786761740041
 20
234.3638487929616
 30
0.0
 11
1743.786761740041
 21
234.3638487929616
 31
0.0
  0
LINE
  5
163
330
15B
100
AcDbEntity
  8
Системный слой
  6
K5LT_THIN
 62
     7
370
    18
100
AcDbLine
 10
1742.786761740041
 20
234.3638487929616
 30
0.0
 11
1744.786761740041
 21
234.3638487929616
 31
0.0
  0
ENDBLK
  5
165
330
15B
100
AcDbEntity
  8
0
100
AcDbBlockEnd
  0
BLOCK
  5
16F
330
166
100
AcDbEntity
  8
0
100
AcDbBlockBegin
  2
U11
 70
     0
 10
0.0
 20
0.0
 30
0.0
  3
U11
  1

  0
HATCH
  5
168
330
166
100
AcDbEntity
  8
Системный слой
 62
     7
100
AcDbHatch
 10
0.0
 20
0.0
 30
0.0
210
0.0
220
0.0
230
1.0
  2
SOLID
 70
     1
 71
     0
 91
        1
 92
        1
 93
        4
 72
     1
 10
1787.786761740041
 20
233.7055863017354
 11
1792.786761740041
 21
234.3638487929616
 72
     1
 10
1792.786761740041
 20
234.3638487929616
 11
1787.786761740041
 21
235.0221112841878
 72
     1
 10
1787.786761740041
 20
235.0221112841878
 11
1788.286761740041
 21
234.3638487929616
 72
     1
 10
1788.286761740041
 20
234.3638487929616
 11
1787.786761740041
 21
233.7055863017354
 97
        0
 75
     0
 76
     1
 98
        0
450
        0
451
        0
460
0.0
461
0.0
452
        0
462
0.0
453
        0
470

  0
LINE
  5
169
330
166
100
AcDbEntity
  8
Системный слой
  6
K5LT32777
 62
     7
370
    18
100
AcDbLine
 10
1792.786761740041
 20
234.3638487929616
 30
0.0
 11
1787.786761740041
 21
233.7055863017354
 31
0.0
  0
LINE
  5
16A
330
166
100
AcDbEntity
  8
Системный слой
  6
K5LT32777
 62
     7
370
    18
100
AcDbLine
 10
1787.786761740041
 20
233.7055863017354
 30
0.0
 11
1788.286761740041
 21
234.3638487929616
 31
0.0
  0
LINE
  5
16B
330
166
100
AcDbEntity
  8
Системный слой
  6
K5LT32777
 62
     7
370
    18
100
AcDbLine
 10
1788.286761740041
 20
234.3638487929616
 30
0.0
 11
1787.786761740041
 21
235.0221112841878
 31
0.0
  0
LINE
  5
16C
330
166
100
AcDbEntity
  8
Системный слой
  6
K5LT32777
 62
     7
370
    18
100
AcDbLine
 10
1787.786761740041
 20
235.0221112841878
 30
0.0
 11
1792.786761740041
 21
234.3638487929616
 31
0.0
  0
LINE
  5
16D
330
166
100
AcDbEntity
  8
Системный слой
  6
K5LT32777
 62
     7
370
    18
100
AcDbLine
 10
1792.786761740041
 20
234.3638487929616
 30
0.0
 11
1791.786761740041
 21
234.3638487929616
 31
0.0
  0
LINE
  5
16E
330
166
100
AcDbEntity
  8
Системный слой
  6
K5LT_THIN
 62
     7
370
    18
100
AcDbLine
 10
1792.786761740041
 20
234.3638487929616
 30
0.0
 11
1790.786761740041
 21
234.3638487929616
 31
0.0
  0
ENDBLK
  5
170
330
166
100
AcDbEntity
  8
0
100
AcDbBlockEnd
  0
BLOCK
  5
17A
330
171
100
AcDbEntity
  8
0
100
AcDbBlockBegin
  2
D3
 70
     0
 10
0.0
 20
0.0
 30
0.0
  3
D3
  1

  0
WIPEOUT
  5
172
330
171
100
AcDbEntity
  8
Системный слой
440
 16777216
160
               140
310
8C00000001000000840000000600000005000000DE9C8EA1D3919B40B14E39A6A46B6D400000000000000000DE9C8EA1D3919B40B14E395F09F96D40000000000000000007F91DDB66AB9B40B14E395F09F96D40000000000000000007F91DDB66AB9B40B14E39A6A46B6D400000000000000000DE9C8EA1D3919B40B14E39
310
A6A46B6D400000000000000000
100
AcDbWipeout
 90
        0
 10
1764.456670978856
 20
235.3638487929616
 30
0.0
 11
6.393774261474617
 21
0.0
 31
0.0
 12
0.0
 22
6.393774261474617
 32
0.0
 13
1.0
 23
1.0
340
0
 70
     7
280
     1
281
    50
282
    50
283
     0
290
     0
360
0
 71
     2
 91
        5
 14
-0.5000000000000569
 24
0.5
 14
-0.5000000000000569
 24
-0.1910699479567199
 14
0.4999999999999433
 24
-0.1910699479567199
 14
0.4999999999999433
 24
0.5
 14
-0.5000000000000569
 24
0.5
  0
LINE
  5
173
330
171
100
AcDbEntity
  8
Системный слой
  6
K5LT_THIN
 62
     7
440
 16777216
370
    18
100
AcDbLine
 10
1792.786761740041
 20
234.3638487929616
 30
0.0
 11
1742.786761740041
 21
234.3638487929616
 31
0.0
  0
LINE
  5
174
330
171
100
AcDbEntity
  8
Системный слой
  6
K5LT_THIN
 62
     7
440
 16777216
370
    18
100
AcDbLine
 10
1792.786761740041
 20
269.3638487929616
 30
0.0
 11
1792.786761740041
 21
232.3638487929616
 31
0.0
  0
LINE
  5
175
330
171
100
AcDbEntity
  8
Системный слой
  6
K5LT_THIN
 62
     7
440
 16777216
370
    18
100
AcDbLine
 10
1742.786761740041
 20
229.3638487929616
 30
0.0
 11
1742.786761740041
 21
236.3638487929616
 31
0.0
  0
MTEXT
  5
176
330
171
100
AcDbEntity
  8
0
 62
     7
440
 16777216
100
AcDbMText
 10
1764.456670978856
 20
238.8231214160237
 30
0.0
 40
2.5
 41
0.0
 46
0.0
 71
     1
 72
     1
  1
\H3.5;\W0.965;\Q15;\Q15;\W0.930;\H2.50;50
  7
KTEXTSTYLE
 73
     1
 44
1.0
  0
MTEXT
  5
177
330
171
100
AcDbEntity
  8
0
 62
     7
440
 16777216
100
AcDbMText
 10
1767.467608431172
 20
239.8694702262196
 30
0.0
 40
2.5
 41
0.0
 46
0.0
 71
     1
 72
     1
  1
\H3.5;\W0.965;\Q15;\Q15;\W0.930;\H1.63;0,31
  7
KTEXTSTYLE
 73
     1
 44
1.0
  0
MTEXT
  5
178
330
171
100
AcDbEntity
  8
0
 62
     7
440
 16777216
100
AcDbMText
 10
1767.467608431172
 20
237.4101977223668
 30
0.0
 40
2.5
 41
0.0
 46
0.0
 71
     1
 72
     1
  1
\H3.5;\W0.965;\Q15;\Q15;\W0.930;\H1.63;0,31
  7
KTEXTSTYLE
 73
     1
 44
1.0
  0
MTEXT
  5
179
330
171
100
AcDbEntity
  8
0
 62
     7
440
 16777216
100
AcDbMText
 10
1770.471930721593
 20
238.8231214160237
 30
0.0
 40
2.5
 41
0.0
 46
0.0
 71
     1
 72
     1
  1
\H3.5;\W0.965;\Q15;\Q0;\W0.930;\H2.50; 
  7
KTEXTSTYLE
 73
     1
 44
1.0
  0
ENDBLK
  5
17B
330
171
100
AcDbEntity
  8
0
100
AcDbBlockEnd
  0
BLOCK
  5
1A3
330
17F
100
AcDbEntity
  8
0
100
AcDbBlockBegin
  2
U12
 70
     0
 10
0.0
 20
0.0
 30
0.0
  3
U12
  1

  0
INSERT
  5
182
330
17F
100
AcDbEntity
  8
Системный слой
100
AcDbBlockReference
  2
U13
 10
0.0
 20
0.0
 30
0.0
  0
INSERT
  5
18D
330
17F
100
AcDbEntity
  8
Системный слой
100
AcDbBlockReference
  2
U14
 10
0.0
 20
0.0
 30
0.0
  0
DIMENSION
  5
1A2
330
17F
100
AcDbEntity
  8
Системный слой
 62
     7
100
AcDbDimension
280
     0
  2
D4
 10
1731.29601366144
 20
199.3638487929615
 30
0.0
 11
1731.29601366144
 21
214.3638487929616
 31
0.0
 70
   160
  1
\H2.5;\W0.925;\Q0;\H2.5;\W0.925;\Q0;\Q15;\W0.891;30\A1;{\H2.5;\W0.925;\Q0;\Q0;\W0.887;\H1.67;\S0,26^ 0,26;\Q15;\H2.50;\Q15;\H1.63; \Q15;\H2.50;}
 71
     5
 42
-1.0
 73
     0
 74
     0
 75
     0
  3
KDIMSTYLE (1.00)
100
AcDbAlignedDimension
 13
1742.786761740041
 23
229.3638487929616
 33
0.0
 14
1792.786761740041
 24
199.3638487929615
 34
0.0
 50
90.0
100
AcDbRotatedDimension
1001
ACAD
1000
DSTYLE
1002
{
1070
   178
1070
     7
1070
   344
1005
99
1070
   343
1005
99
1070
    42
1040
0.0
1070
    76
1070
     0
1070
    75
1070
     0
1070
   283
1070
     1
1002
}
  0
ENDBLK
  5
1A4
330
17F
100
AcDbEntity
  8
0
100
AcDbBlockEnd
  0
BLOCK
  5
18A
330
181
100
AcDbEntity
  8
0
100
AcDbBlockBegin
  2
U13
 70
     0
 10
0.0
 20
0.0
 30
0.0
  3
U13
  1

  0
HATCH
  5
183
330
181
100
AcDbEntity
  8
Системный слой
 62
     7
100
AcDbHatch
 10
0.0
 20
0.0
 30
0.0
210
0.0
220
0.0
230
1.0
  2
SOLID
 70
     1
 71
     0
 91
        1
 92
        1
 93
        4
 72
     1
 10
1731.954276152666
 20
224.3638487929616
 11
1731.29601366144
 21
229.3638487929616
 72
     1
 10
1731.29601366144
 20
229.3638487929616
 11
1730.637751170214
 21
224.3638487929616
 72
     1
 10
1730.637751170214
 20
224.3638487929616
 11
1731.29601366144
 21
224.8638487929616
 72
     1
 10
1731.29601366144
 20
224.8638487929616
 11
1731.954276152666
 21
224.3638487929616
 97
        0
 75
     0
 76
     1
 98
        0
450
        0
451
        0
460
0.0
461
0.0
452
        0
462
0.0
453
        0
470

  0
LINE
  5
184
330
181
100
AcDbEntity
  8
Системный слой
  6
K5LT32777
 62
     7
370
    18
100
AcDbLine
 10
1731.29601366144
 20
229.3638487929616
 30
0.0
 11
1731.954276152666
 21
224.3638487929616
 31
0.0
  0
LINE
  5
185
330
181
100
AcDbEntity
  8
Системный слой
  6
K5LT32777
 62
     7
370
    18
100
AcDbLine
 10
1731.954276152666
 20
224.3638487929616
 30
0.0
 11
1731.29601366144
 21
224.8638487929616
 31
0.0
  0
LINE
  5
186
330
181
100
AcDbEntity
  8
Системный слой
  6
K5LT32777
 62
     7
370
    18
100
AcDbLine
 10
1731.29601366144
 20
224.8638487929616
 30
0.0
 11
1730.637751170214
 21
224.3638487929616
 31
0.0
  0
LINE
  5
187
330
181
100
AcDbEntity
  8
Системный слой
  6
K5LT32777
 62
     7
370
    18
100
AcDbLine
 10
1730.637751170214
 20
224.3638487929616
 30
0.0
 11
1731.29601366144
 21
229.3638487929616
 31
0.0
  0
LINE
  5
188
330
181
100
AcDbEntity
  8
Системный слой
  6
K5LT32777
 62
     7
370
    18
100
AcDbLine
 10
1731.29601366144
 20
229.3638487929616
 30
0.0
 11
1731.29601366144
 21
228.3638487929616
 31
0.0
  0
LINE
  5
189
330
181
100
AcDbEntity
  8
Системный слой
  6
K5LT_THIN
 62
     7
370
    18
100
AcDbLine
 10
1731.29601366144
 20
229.3638487929616
 30
0.0
 11
1731.29601366144
 21
227.3638487929616
 31
0.0
  0
ENDBLK
  5
18B
330
181
100
AcDbEntity
  8
0
100
AcDbBlockEnd
  0
BLOCK
  5
195
330
18C
100
AcDbEntity
  8
0
100
AcDbBlockBegin
  2
U14
 70
     0
 10
0.0
 20
0.0
 30
0.0
  3
U14
  1

  0
HATCH
  5
18E
330
18C
100
AcDbEntity
  8
Системный слой
 62
     7
100
AcDbHatch
 10
0.0
 20
0.0
 30
0.0
210
0.0
220
0.0
230
1.0
  2
SOLID
 70
     1
 71
     0
 91
        1
 92
        1
 93
        4
 72
     1
 10
1730.637751170214
 20
204.3638487929616
 11
1731.29601366144
 21
199.3638487929615
 72
     1
 10
1731.29601366144
 20
199.3638487929615
 11
1731.954276152666
 21
204.3638487929616
 72
     1
 10
1731.954276152666
 20
204.3638487929616
 11
1731.29601366144
 21
203.8638487929616
 72
     1
 10
1731.29601366144
 20
203.8638487929616
 11
1730.637751170214
 21
204.3638487929616
 97
        0
 75
     0
 76
     1
 98
        0
450
        0
451
        0
460
0.0
461
0.0
452
        0
462
0.0
453
        0
470

  0
LINE
  5
18F
330
18C
100
AcDbEntity
  8
Системный слой
  6
K5LT32777
 62
     7
370
    18
100
AcDbLine
 10
1731.29601366144
 20
199.3638487929615
 30
0.0
 11
1730.637751170214
 21
204.3638487929616
 31
0.0
  0
LINE
  5
190
330
18C
100
AcDbEntity
  8
Системный слой
  6
K5LT32777
 62
     7
370
    18
100
AcDbLine
 10
1730.637751170214
 20
204.3638487929616
 30
0.0
 11
1731.29601366144
 21
203.8638487929616
 31
0.0
  0
LINE
  5
191
330
18C
100
AcDbEntity
  8
Системный слой
  6
K5LT32777
 62
     7
370
    18
100
AcDbLine
 10
1731.29601366144
 20
203.8638487929616
 30
0.0
 11
1731.954276152666
 21
204.3638487929616
 31
0.0
  0
LINE
  5
192
330
18C
100
AcDbEntity
  8
Системный слой
  6
K5LT32777
 62
     7
370
    18
100
AcDbLine
 10
1731.954276152666
 20
204.3638487929616
 30
0.0
 11
1731.29601366144
 21
199.3638487929615
 31
0.0
  0
LINE
  5
193
330
18C
100
AcDbEntity
  8
Системный слой
  6
K5LT32777
 62
     7
370
    18
100
AcDbLine
 10
1731.29601366144
 20
199.3638487929615
 30
0.0
 11
1731.29601366144
 21
200.3638487929616
 31
0.0
  0
LINE
  5
194
330
18C
100
AcDbEntity
  8
Системный слой
  6
K5LT_THIN
 62
     7
370
    18
100
AcDbLine
 10
1731.29601366144
 20
199.3638487929615
 30
0.0
 11
1731.29601366144
 21
201.3638487929616
 31
0.0
  0
ENDBLK
  5
196
330
18C
100
AcDbEntity
  8
0
100
AcDbBlockEnd
  0
BLOCK
  5
1A0
330
197
100
AcDbEntity
  8
0
100
AcDbBlockBegin
  2
D4
 70
     0
 10
0.0
 20
0.0
 30
0.0
  3
D4
  1

  0
WIPEOUT
  5
198
330
197
100
AcDbEntity
  8
Системный слой
440
 16777216
160
               140
310
8C00000001000000840000000600000005000000388C341E2F099B40B44E395F83596A400000000000000000388C148782F79A40B44E395F83596A400000000000000000388C148782F79A407744628BA4346B400000000000000000388C341E2F099B407744628BA4346B400000000000000000388C341E2F099B40B44E39
310
5F83596A400000000000000000
100
AcDbWipeout
 90
        0
 10
1725.877468415316
 20
210.7972866172109
 30
0.0
 11
6.847799377441419
 21
0.0
 31
0.0
 12
0.0
 22
6.847799377441419
 32
0.0
 13
1.0
 23
1.0
340
0
 70
     7
280
     1
281
    50
282
    50
283
     0
290
     0
360
0
 71
     2
 91
        5
 14
0.1452503939704002
 24
0.4999999999999929
 14
-0.5
 24
0.4999999999999929
 14
-0.5
 24
-0.5000000000000071
 14
0.1452503939704002
 24
-0.5000000000000071
 14
0.1452503939704002
 24
0.4999999999999929
  0
LINE
  5
199
330
197
100
AcDbEntity
  8
Системный слой
  6
K5LT_THIN
 62
     7
440
 16777216
370
    18
100
AcDbLine
 10
1731.29601366144
 20
199.3638487929615
 30
0.0
 11
1731.29601366144
 21
229.3638487929616
 31
0.0
  0
LINE
  5
19A
330
197
100
AcDbEntity
  8
Системный слой
  6
K5LT_THIN
 62
     7
440
 16777216
370
    18
100
AcDbLine
 10
1792.786761740041
 20
199.3638487929615
 30
0.0
 11
1729.29601366144
 21
199.3638487929615
 31
0.0
  0
LINE
  5
19B
330
197
100
AcDbEntity
  8
Системный слой
  6
K5LT_THIN
 62
     7
440
 16777216
370
    18
100
AcDbLine
 10
1742.786761740041
 20
229.3638487929616
 30
0.0
 11
1729.29601366144
 21
229.3638487929616
 31
0.0
  0
MTEXT
  5
19C
330
197
100
AcDbEntity
  8
0
 62
     7
440
 16777216
100
AcDbMText
 10
1726.836741038378
 20
210.7972866172109
 30
0.0
 40
2.5
 41
0.0
 46
0.0
 71
     1
 72
     1
  1
\H3.5;\W0.965;\Q15;\Q15;\W0.930;\H2.50;30
  7
KTEXTSTYLE
 11
0.0000000000000001
 21
1.0
 31
0.0
 73
     1
 44
1.0
  0
MTEXT
  5
19D
330
197
100
AcDbEntity
  8
0
 62
     7
440
 16777216
100
AcDbMText
 10
1725.790392228182
 20
213.8082240695271
 30
0.0
 40
2.5
 41
0.0
 46
0.0
 71
     1
 72
     1
  1
\H3.5;\W0.965;\Q15;\Q15;\W0.930;\H1.63;0,26
  7
KTEXTSTYLE
 11
0.0000000000000001
 21
1.0
 31
0.0
 73
     1
 44
1.0
  0
MTEXT
  5
19E
330
197
100
AcDbEntity
  8
0
 62
     7
440
 16777216
100
AcDbMText
 10
1728.249664732035
 20
213.8082240695271
 30
0.0
 40
2.5
 41
0.0
 46
0.0
 71
     1
 72
     1
  1
\H3.5;\W0.965;\Q15;\Q15;\W0.930;\H1.63;0,26
  7
KTEXTSTYLE
 11
0.0000000000000001
 21
1.0
 31
0.0
 73
     1
 44
1.0
  0
MTEXT
  5
19F
330
197
100
AcDbEntity
  8
0
 62
     7
440
 16777216
100
AcDbMText
 10
1726.836741038378
 20
217.2854891890798
 30
0.0
 40
2.5
 41
0.0
 46
0.0
 71
     1
 72
     1
  1
\H3.5;\W0.965;\Q15;\Q0;\W0.930;\H2.50; 
  7
KTEXTSTYLE
 11
0.0000000000000001
 21
1.0
 31
0.0
 73
     1
 44
1.0
  0
ENDBLK
  5
1A1
330
197
100
AcDbEntity
  8
0
100
AcDbBlockEnd
  0
BLOCK
  5
1C9
330
1A5
100
AcDbEntity
  8
0
100
AcDbBlockBegin
  2
U15
 70
     0
 10
0.0
 20
0.0
 30
0.0
  3
U15
  1

  0
INSERT
  5
1A8
330
1A5
100
AcDbEntity
  8
Системный слой
100
AcDbBlockReference
  2
U16
 10
0.0
 20
0.0
 30
0.0
  0
INSERT
  5
1B3
330
1A5
100
AcDbEntity
  8
Системный слой
100
AcDbBlockReference
  2
U17
 10
0.0
 20
0.0
 30
0.0
  0
DIMENSION
  5
1C8
330
1A5
100
AcDbEntity
  8
Системный слой
 62
     7
100
AcDbDimension
280
     0
  2
D5
 10
1558.566880690153
 20
199.3638487929615
 30
0.0
 11
1558.566880690153
 21
212.3638487929616
 31
0.0
 70
   160
  1
\H2.5;\W0.925;\Q0;\H2.5;\W0.925;\Q0;\Q15;\W0.891;25\A1;{\H2.5;\W0.925;\Q0;\Q0;\W0.887;\H1.67;\S0,26^ 0,26;\Q15;\H2.50;\Q15;\H1.63; \Q15;\H2.50;}
 71
     5
 42
-1.0
 73
     0
 74
     0
 75
     0
  3
KDIMSTYLE (1.00)
100
AcDbAlignedDimension
 13
1542.786761740041
 23
224.3638487929616
 33
0.0
 14
1792.786761740041
 24
199.3638487929615
 34
0.0
 50
90.0
100
AcDbRotatedDimension
1001
ACAD
1000
DSTYLE
1002
{
1070
   178
1070
     7
1070
   344
1005
99
1070
   343
1005
99
1070
    42
1040
0.0
1070
    76
1070
     0
1070
    75
1070
     0
1070
   283
1070
     1
1002
}
  0
ENDBLK
  5
1CA
330
1A5
100
AcDbEntity
  8
0
100
AcDbBlockEnd
  0
BLOCK
  5
1B0
330
1A7
100
AcDbEntity
  8
0
100
AcDbBlockBegin
  2
U16
 70
     0
 10
0.0
 20
0.0
 30
0.0
  3
U16
  1

  0
HATCH
  5
1A9
330
1A7
100
AcDbEntity
  8
Системный слой
 62
     7
100
AcDbHatch
 10
0.0
 20
0.0
 30
0.0
210
0.0
220
0.0
230
1.0
  2
SOLID
 70
     1
 71
     0
 91
        1
 92
        1
 93
        4
 72
     1
 10
1559.225143181379
 20
219.3638487929616
 11
1558.566880690153
 21
224.3638487929616
 72
     1
 10
1558.566880690153
 20
224.3638487929616
 11
1557.908618198927
 21
219.3638487929616
 72
     1
 10
1557.908618198927
 20
219.3638487929616
 11
1558.566880690153
 21
219.8638487929616
 72
     1
 10
1558.566880690153
 20
219.8638487929616
 11
1559.225143181379
 21
219.3638487929616
 97
        0
 75
     0
 76
     1
 98
        0
450
        0
451
        0
460
0.0
461
0.0
452
        0
462
0.0
453
        0
470

  0
LINE
  5
1AA
330
1A7
100
AcDbEntity
  8
Системный слой
  6
K5LT32777
 62
     7
370
    18
100
AcDbLine
 10
1558.566880690153
 20
224.3638487929616
 30
0.0
 11
1559.225143181379
 21
219.3638487929616
 31
0.0
  0
LINE
  5
1AB
330
1A7
100
AcDbEntity
  8
Системный слой
  6
K5LT32777
 62
     7
370
    18
100
AcDbLine
 10
1559.225143181379
 20
219.3638487929616
 30
0.0
 11
1558.566880690153
 21
219.8638487929616
 31
0.0
  0
LINE
  5
1AC
330
1A7
100
AcDbEntity
  8
Системный слой
  6
K5LT32777
 62
     7
370
    18
100
AcDbLine
 10
1558.566880690153
 20
219.8638487929616
 30
0.0
 11
1557.908618198927
 21
219.3638487929616
 31
0.0
  0
LINE
  5
1AD
330
1A7
100
AcDbEntity
  8
Системный слой
  6
K5LT32777
 62
     7
370
    18
100
AcDbLine
 10
1557.908618198927
 20
219.3638487929616
 30
0.0
 11
1558.566880690153
 21
224.3638487929616
 31
0.0
  0
LINE
  5
1AE
330
1A7
100
AcDbEntity
  8
Системный слой
  6
K5LT32777
 62
     7
370
    18
100
AcDbLine
 10
1558.566880690153
 20
224.3638487929616
 30
0.0
 11
1558.566880690153
 21
223.3638487929616
 31
0.0
  0
LINE
  5
1AF
330
1A7
100
AcDbEntity
  8
Системный слой
  6
K5LT_THIN
 62
     7
370
    18
100
AcDbLine
 10
1558.566880690153
 20
224.3638487929616
 30
0.0
 11
1558.566880690153
 21
222.3638487929616
 31
0.0
  0
ENDBLK
  5
1B1
330
1A7
100
AcDbEntity
  8
0
100
AcDbBlockEnd
  0
BLOCK
  5
1BB
330
1B2
100
AcDbEntity
  8
0
100
AcDbBlockBegin
  2
U17
 70
     0
 10
0.0
 20
0.0
 30
0.0
  3
U17
  1

  0
HATCH
  5
1B4
330
1B2
100
AcDbEntity
  8
Системный слой
 62
     7
100
AcDbHatch
 10
0.0
 20
0.0
 30
0.0
210
0.0
220
0.0
230
1.0
  2
SOLID
 70
     1
 71
     0
 91
        1
 92
        1
 93
        4
 72
     1
 10
1557.908618198927
 20
204.3638487929616
 11
1558.566880690153
 21
199.3638487929615
 72
     1
 10
1558.566880690153
 20
199.3638487929615
 11
1559.225143181379
 21
204.3638487929616
 72
     1
 10
1559.225143181379
 20
204.3638487929616
 11
1558.566880690153
 21
203.8638487929616
 72
     1
 10
1558.566880690153
 20
203.8638487929616
 11
1557.908618198927
 21
204.3638487929616
 97
        0
 75
     0
 76
     1
 98
        0
450
        0
451
        0
460
0.0
461
0.0
452
        0
462
0.0
453
        0
470

  0
LINE
  5
1B5
330
1B2
100
AcDbEntity
  8
Системный слой
  6
K5LT32777
 62
     7
370
    18
100
AcDbLine
 10
1558.566880690153
 20
199.3638487929615
 30
0.0
 11
1557.908618198927
 21
204.3638487929616
 31
0.0
  0
LINE
  5
1B6
330
1B2
100
AcDbEntity
  8
Системный слой
  6
K5LT32777
 62
     7
370
    18
100
AcDbLine
 10
1557.908618198927
 20
204.3638487929616
 30
0.0
 11
1558.566880690153
 21
203.8638487929616
 31
0.0
  0
LINE
  5
1B7
330
1B2
100
AcDbEntity
  8
Системный слой
  6
K5LT32777
 62
     7
370
    18
100
AcDbLine
 10
1558.566880690153
 20
203.8638487929616
 30
0.0
 11
1559.225143181379
 21
204.3638487929616
 31
0.0
  0
LINE
  5
1B8
330
1B2
100
AcDbEntity
  8
Системный слой
  6
K5LT32777
 62
     7
370
    18
100
AcDbLine
 10
1559.225143181379
 20
204.3638487929616
 30
0.0
 11
1558.566880690153
 21
199.3638487929615
 31
0.0
  0
LINE
  5
1B9
330
1B2
100
AcDbEntity
  8
Системный слой
  6
K5LT32777
 62
     7
370
    18
100
AcDbLine
 10
1558.566880690153
 20
199.3638487929615
 30
0.0
 11
1558.566880690153
 21
200.3638487929616
 31
0.0
  0
LINE
  5
1BA
330
1B2
100
AcDbEntity
  8
Системный слой
  6
K5LT_THIN
 62
     7
370
    18
100
AcDbLine
 10
1558.566880690153
 20
199.3638487929615
 30
0.0
 11
1558.566880690153
 21
201.3638487929616
 31
0.0
  0
ENDBLK
  5
1BC
330
1B2
100
AcDbEntity
  8
0
100
AcDbBlockEnd
  0
BLOCK
  5
1C6
330
1BD
100
AcDbEntity
  8
0
100
AcDbBlockBegin
  2
D5
 70
     0
 10
0.0
 20
0.0
 30
0.0
  3
D5
  1

  0
WIPEOUT
  5
1BE
330
1BD
100
AcDbEntity
  8
Системный слой
440
 16777216
160
               140
310
8C00000001000000840000000600000005000000C6235F7C44569840B34E395F83196A400000000000000000C6233FE597449840B34E395F83196A400000000000000000C6233FE5974498407644628BA4F46A400000000000000000C6235F7C445698407644628BA4F46A400000000000000000C6235F7C44569840B34E39
310
5F83196A400000000000000000
100
AcDbWipeout
 90
        0
 10
1553.148335444029
 20
208.7972866172109
 30
0.0
 11
6.847799377441419
 21
0.0
 31
0.0
 12
0.0
 22
6.847799377441419
 32
0.0
 13
1.0
 23
1.0
340
0
 70
     7
280
     1
281
    50
282
    50
283
     0
290
     0
360
0
 71
     2
 91
        5
 14
0.1452503939704286
 24
0.4999999999999964
 14
-0.4999999999999716
 24
0.4999999999999964
 14
-0.4999999999999716
 24
-0.5000000000000036
 14
0.1452503939704286
 24
-0.5000000000000036
 14
0.1452503939704286
 24
0.4999999999999964
  0
LINE
  5
1BF
330
1BD
100
AcDbEntity
  8
Системный слой
  6
K5LT_THIN
 62
     7
440
 16777216
370
    18
100
AcDbLine
 10
1558.566880690153
 20
199.3638487929615
 30
0.0
 11
1558.566880690153
 21
224.3638487929616
 31
0.0
  0
LINE
  5
1C0
330
1BD
100
AcDbEntity
  8
Системный слой
  6
K5LT_THIN
 62
     7
440
 16777216
370
    18
100
AcDbLine
 10
1792.786761740041
 20
199.3638487929615
 30
0.0
 11
1556.566880690153
 21
199.3638487929615
 31
0.0
  0
LINE
  5
1C1
330
1BD
100
AcDbEntity
  8
Системный слой
  6
K5LT_THIN
 62
     7
440
 16777216
370
    18
100
AcDbLine
 10
1542.786761740041
 20
224.3638487929616
 30
0.0
 11
1560.566880690153
 21
224.3638487929616
 31
0.0
  0
MTEXT
  5
1C2
330
1BD
100
AcDbEntity
  8
0
 62
     7
440
 16777216
100
AcDbMText
 10
1554.107608067091
 20
208.7972866172109
 30
0.0
 40
2.5
 41
0.0
 46
0.0
 71
     1
 72
     1
  1
\H3.5;\W0.965;\Q15;\Q15;\W0.930;\H2.50;25
  7
KTEXTSTYLE
 11
0.0000000000000001
 21
1.0
 31
0.0
 73
     1
 44
1.0
  0
MTEXT
  5
1C3
330
1BD
100
AcDbEntity
  8
0
 62
     7
440
 16777216
100
AcDbMText
 10
1553.061259256895
 20
211.8082240695272
 30
0.0
 40
2.5
 41
0.0
 46
0.0
 71
     1
 72
     1
  1
\H3.5;\W0.965;\Q15;\Q15;\W0.930;\H1.63;0,26
  7
KTEXTSTYLE
 11
0.0000000000000001
 21
1.0
 31
0.0
 73
     1
 44
1.0
  0
MTEXT
  5
1C4
330
1BD
100
AcDbEntity
  8
0
 62
     7
440
 16777216
100
AcDbMText
 10
1555.520531760748
 20
211.8082240695272
 30
0.0
 40
2.5
 41
0.0
 46
0.0
 71
     1
 72
     1
  1
\H3.5;\W0.965;\Q15;\Q15;\W0.930;\H1.63;0,26
  7
KTEXTSTYLE
 11
0.0000000000000001
 21
1.0
 31
0.0
 73
     1
 44
1.0
  0
MTEXT
  5
1C5
330
1BD
100
AcDbEntity
  8
0
 62
     7
440
 16777216
100
AcDbMText
 10
1554.107608067091
 20
215.2854891890798
 30
0.0
 40
2.5
 41
0.0
 46
0.0
 71
     1
 72
     1
  1
\H3.5;\W0.965;\Q15;\Q0;\W0.930;\H2.50; 
  7
KTEXTSTYLE
 11
0.0000000000000001
 21
1.0
 31
0.0
 73
     1
 44
1.0
  0
ENDBLK
  5
1C7
330
1BD
100
AcDbEntity
  8
0
100
AcDbBlockEnd
  0
BLOCK
  5
1F0
330
1CB
100
AcDbEntity
  8
0
100
AcDbBlockBegin
  2
U18
 70
     0
 10
0.0
 20
0.0
 30
0.0
  3
U18
  1

  0
INSERT
  5
1CE
330
1CB
100
AcDbEntity
  8
Системный слой
100
AcDbBlockReference
  2
U19
 10
0.0
 20
0.0
 30
0.0
  0
INSERT
  5
1D9
330
1CB
100
AcDbEntity
  8
Системный слой
100
AcDbBlockReference
  2
U20
 10
0.0
 20
0.0
 30
0.0
  0
DIMENSION
  5
1EF
330
1CB
100
AcDbEntity
  8
Системный слой
 62
     7
100
AcDbDimension
280
     0
  2
D6
 10
1792.786761740041
 20
217.1474939460072
 30
0.0
 11
1512.094066122365
 21
217.1474939460072
 31
0.0
 70
   160
  1
\H2.5;\W0.925;\Q0;\H2.5;\W0.925;\Q0;\Q15;\W0.891;250\A1;{\H2.5;\W0.925;\Q0;\Q0;\W0.887;\H1.67;\S0,575^ 0,575;\Q15;\H2.50;\Q15;\H1.63; \Q15;\H2.50;}
 71
     5
 42
-1.0
 73
     0
 74
     0
 75
     0
  3
KDIMSTYLE (1.00)
100
AcDbAlignedDimension
 13
1542.786761740041
 23
224.3638487929616
 33
0.0
 14
1792.786761740041
 24
199.3638487929615
 34
0.0
100
AcDbRotatedDimension
1001
ACAD
1000
DSTYLE
1002
{
1070
   178
1070
     7
1070
   344
1005
99
1070
   343
1005
99
1070
    42
1040
0.0
1070
    76
1070
     0
1070
    75
1070
     0
1070
   283
1070
     1
1002
}
  0
ENDBLK
  5
1F1
330
1CB
100
AcDbEntity
  8
0
100
AcDbBlockEnd
  0
BLOCK
  5
1D6
330
1CD
100
AcDbEntity
  8
0
100
AcDbBlockBegin
  2
U19
 70
     0
 10
0.0
 20
0.0
 30
0.0
  3
U19
  1

  0
HATCH
  5
1CF
330
1CD
100
AcDbEntity
  8
Системный слой
 62
     7
100
AcDbHatch
 10
0.0
 20
0.0
 30
0.0
210
0.0
220
0.0
230
1.0
  2
SOLID
 70
     1
 71
     0
 91
        1
 92
        1
 93
        4
 72
     1
 10
1547.786761740041
 20
217.8057564372334
 11
1542.786761740041
 21
217.1474939460072
 72
     1
 10
1542.786761740041
 20
217.1474939460072
 11
1547.786761740041
 21
216.489231454781
 72
     1
 10
1547.786761740041
 20
216.489231454781
 11
1547.286761740041
 21
217.1474939460072
 72
     1
 10
1547.286761740041
 20
217.1474939460072
 11
1547.786761740041
 21
217.8057564372334
 97
        0
 75
     0
 76
     1
 98
        0
450
        0
451
        0
460
0.0
461
0.0
452
        0
462
0.0
453
        0
470

  0
LINE
  5
1D0
330
1CD
100
AcDbEntity
  8
Системный слой
  6
K5LT32777
 62
     7
370
    18
100
AcDbLine
 10
1542.786761740041
 20
217.1474939460072
 30
0.0
 11
1547.786761740041
 21
217.8057564372334
 31
0.0
  0
LINE
  5
1D1
330
1CD
100
AcDbEntity
  8
Системный слой
  6
K5LT32777
 62
     7
370
    18
100
AcDbLine
 10
1547.786761740041
 20
217.8057564372334
 30
0.0
 11
1547.286761740041
 21
217.1474939460072
 31
0.0
  0
LINE
  5
1D2
330
1CD
100
AcDbEntity
  8
Системный слой
  6
K5LT32777
 62
     7
370
    18
100
AcDbLine
 10
1547.286761740041
 20
217.1474939460072
 30
0.0
 11
1547.786761740041
 21
216.489231454781
 31
0.0
  0
LINE
  5
1D3
330
1CD
100
AcDbEntity
  8
Системный слой
  6
K5LT32777
 62
     7
370
    18
100
AcDbLine
 10
1547.786761740041
 20
216.489231454781
 30
0.0
 11
1542.786761740041
 21
217.1474939460072
 31
0.0
  0
LINE
  5
1D4
330
1CD
100
AcDbEntity
  8
Системный слой
  6
K5LT32777
 62
     7
370
    18
100
AcDbLine
 10
1542.786761740041
 20
217.1474939460072
 30
0.0
 11
1543.786761740041
 21
217.1474939460072
 31
0.0
  0
LINE
  5
1D5
330
1CD
100
AcDbEntity
  8
Системный слой
  6
K5LT_THIN
 62
     7
370
    18
100
AcDbLine
 10
1542.786761740041
 20
217.1474939460072
 30
0.0
 11
1544.786761740041
 21
217.1474939460072
 31
0.0
  0
ENDBLK
  5
1D7
330
1CD
100
AcDbEntity
  8
0
100
AcDbBlockEnd
  0
BLOCK
  5
1E1
330
1D8
100
AcDbEntity
  8
0
100
AcDbBlockBegin
  2
U20
 70
     0
 10
0.0
 20
0.0
 30
0.0
  3
U20
  1

  0
HATCH
  5
1DA
330
1D8
100
AcDbEntity
  8
Системный слой
 62
     7
100
AcDbHatch
 10
0.0
 20
0.0
 30
0.0
210
0.0
220
0.0
230
1.0
  2
SOLID
 70
     1
 71
     0
 91
        1
 92
        1
 93
        4
 72
     1
 10
1787.786761740041
 20
216.489231454781
 11
1792.786761740041
 21
217.1474939460072
 72
     1
 10
1792.786761740041
 20
217.1474939460072
 11
1787.786761740041
 21
217.8057564372334
 72
     1
 10
1787.786761740041
 20
217.8057564372334
 11
1788.286761740041
 21
217.1474939460072
 72
     1
 10
1788.286761740041
 20
217.1474939460072
 11
1787.786761740041
 21
216.489231454781
 97
        0
 75
     0
 76
     1
 98
        0
450
        0
451
        0
460
0.0
461
0.0
452
        0
462
0.0
453
        0
470

  0
LINE
  5
1DB
330
1D8
100
AcDbEntity
  8
Системный слой
  6
K5LT32777
 62
     7
370
    18
100
AcDbLine
 10
1792.786761740041
 20
217.1474939460072
 30
0.0
 11
1787.786761740041
 21
216.489231454781
 31
0.0
  0
LINE
  5
1DC
330
1D8
100
AcDbEntity
  8
Системный слой
  6
K5LT32777
 62
     7
370
    18
100
AcDbLine
 10
1787.786761740041
 20
216.489231454781
 30
0.0
 11
1788.286761740041
 21
217.1474939460072
 31
0.0
  0
LINE
  5
1DD
330
1D8
100
AcDbEntity
  8
Системный слой
  6
K5LT32777
 62
     7
370
    18
100
AcDbLine
 10
1788.286761740041
 20
217.1474939460072
 30
0.0
 11
1787.786761740041
 21
217.8057564372334
 31
0.0
  0
LINE
  5
1DE
330
1D8
100
AcDbEntity
  8
Системный слой
  6
K5LT32777
 62
     7
370
    18
100
AcDbLine
 10
1787.786761740041
 20
217.8057564372334
 30
0.0
 11
1792.786761740041
 21
217.1474939460072
 31
0.0
  0
LINE
  5
1DF
330
1D8
100
AcDbEntity
  8
Системный слой
  6
K5LT32777
 62
     7
370
    18
100
AcDbLine
 10
1792.786761740041
 20
217.1474939460072
 30
0.0
 11
1791.786761740041
 21
217.1474939460072
 31
0.0
  0
LINE
  5
1E0
330
1D8
100
AcDbEntity
  8
Системный слой
  6
K5LT_THIN
 62
     7
370
    18
100
AcDbLine
 10
1792.786761740041
 20
217.1474939460072
 30
0.0
 11
1790.786761740041
 21
217.1474939460072
 31
0.0
  0
ENDBLK
  5
1E2
330
1D8
100
AcDbEntity
  8
0
100
AcDbBlockEnd
  0
BLOCK
  5
1ED
330
1E3
100
AcDbEntity
  8
0
100
AcDbBlockBegin
  2
D6
 70
     0
 10
0.0
 20
0.0
 30
0.0
  3
D6
  1

  0
WIPEOUT
  5
1E4
330
1E3
100
AcDbEntity
  8
Системный слой
440
 16777216
160
               140
310
8C00000001000000840000000600000005000000DE9CDE009B8D9740AE4E3945B8446B400000000000000000DE9CDE009B8D9740AE4E39FE1CD26B4000000000000000004FDAE837A5B19740AE4E39FE1CD26B4000000000000000004FDAE837A5B19740AE4E3945B8446B400000000000000000DE9CDE009B8D9740AE4E39
310
45B8446B400000000000000000
100
AcDbWipeout
 90
        0
 10
1507.401370504689
 20
218.1474939460072
 30
0.0
 11
9.009975585937581
 21
0.0
 31
0.0
 12
0.0
 22
9.009975585937581
 32
0.0
 13
1.0
 23
1.0
340
0
 70
     7
280
     1
281
    50
282
    50
283
     0
290
     0
360
0
 71
     2
 91
        5
 14
-0.5000000000000285
 24
0.5000000000000036
 14
-0.5000000000000285
 24
0.0095940933490937
 14
0.4999999999999716
 24
0.0095940933490937
 14
0.4999999999999716
 24
0.5000000000000036
 14
-0.5000000000000285
 24
0.5000000000000036
  0
LINE
  5
1E5
330
1E3
100
AcDbEntity
  8
Системный слой
  6
K5LT_THIN
 62
     7
440
 16777216
370
    18
100
AcDbLine
 10
1792.786761740041
 20
217.1474939460072
 30
0.0
 11
1542.786761740041
 21
217.1474939460072
 31
0.0
  0
LINE
  5
1E6
330
1E3
100
AcDbEntity
  8
Системный слой
  6
K5LT_THIN
 62
     7
440
 16777216
370
    18
100
AcDbLine
 10
1542.786761740041
 20
217.1474939460072
 30
0.0
 11
1505.401370504689
 21
217.1474939460072
 31
0.0
  0
LINE
  5
1E7
330
1E3
100
AcDbEntity
  8
Системный слой
  6
K5LT_THIN
 62
     7
440
 16777216
370
    18
100
AcDbLine
 10
1792.786761740041
 20
199.3638487929615
 30
0.0
 11
1792.786761740041
 21
219.1474939460072
 31
0.0
  0
LINE
  5
1E8
330
1E3
100
AcDbEntity
  8
Системный слой
  6
K5LT_THIN
 62
     7
440
 16777216
370
    18
100
AcDbLine
 10
1542.786761740041
 20
224.3638487929616
 30
0.0
 11
1542.786761740041
 21
215.1474939460072
 31
0.0
  0
MTEXT
  5
1E9
330
1E3
100
AcDbEntity
  8
0
 62
     7
440
 16777216
100
AcDbMText
 10
1507.401370504689
 20
221.6067665690694
 30
0.0
 40
2.5
 41
0.0
 46
0.0
 71
     1
 72
     1
  1
\H3.5;\W0.965;\Q15;\Q15;\W0.930;\H2.50;250
  7
KTEXTSTYLE
 73
     1
 44
1.0
  0
MTEXT
  5
1EA
330
1E3
100
AcDbEntity
  8
0
 62
     7
440
 16777216
100
AcDbMText
 10
1511.933661917043
 20
222.6531153792653
 30
0.0
 40
2.5
 41
0.0
 46
0.0
 71
     1
 72
     1
  1
\H3.5;\W0.965;\Q15;\Q15;\W0.930;\H1.63;0,575
  7
KTEXTSTYLE
 73
     1
 44
1.0
  0
MTEXT
  5
1EB
330
1E3
100
AcDbEntity
  8
0
 62
     7
440
 16777216
100
AcDbMText
 10
1511.933661917043
 20
220.1938428754124
 30
0.0
 40
2.5
 41
0.0
 46
0.0
 71
     1
 72
     1
  1
\H3.5;\W0.965;\Q15;\Q15;\W0.930;\H1.63;0,575
  7
KTEXTSTYLE
 73
     1
 44
1.0
  0
MTEXT
  5
1EC
330
1E3
100
AcDbEntity
  8
0
 62
     7
440
 16777216
100
AcDbMText
 10
1516.141839483571
 20
221.6067665690694
 30
0.0
 40
2.5
 41
0.0
 46
0.0
 71
     1
 72
     1
  1
\H3.5;\W0.965;\Q15;\Q0;\W0.930;\H2.50; 
  7
KTEXTSTYLE
 73
     1
 44
1.0
  0
ENDBLK
  5
1EE
330
1E3
100
AcDbEntity
  8
0
100
AcDbBlockEnd
  0
BLOCK
  5
216
330
1F2
100
AcDbEntity
  8
0
100
AcDbBlockBegin
  2
U21
 70
     0
 10
0.0
 20
0.0
 30
0.0
  3
U21
  1

  0
INSERT
  5
1F5
330
1F2
100
AcDbEntity
  8
Системный слой
100
AcDbBlockReference
  2
U22
 10
0.0
 20
0.0
 30
0.0
  0
INSERT
  5
200
330
1F2
100
AcDbEntity
  8
Системный слой
100
AcDbBlockReference
  2
U23
 10
0.0
 20
0.0
 30
0.0
  0
DIMENSION
  5
215
330
1F2
100
AcDbEntity
  8
Системный слой
 62
     7
100
AcDbDimension
280
     0
  2
D7
 10
-161.2132382599591
 20
250.3638487929616
 30
0.0
 11
79.7867617400409
 21
250.3638487929616
 31
0.0
 70
   160
  1
\H2.5;\W0.925;\Q0;\H2.5;\W0.925;\Q0;\Q15;\W0.891;250\A1;{\H2.5;\W0.925;\Q0;\Q0;\W0.887;\H1.67;\S0,575^ 0,575;\Q15;\H2.50;\Q15;\H1.63; \Q15;\H2.50;}
 71
     5
 42
-1.0
 73
     0
 74
     0
 75
     0
  3
KDIMSTYLE (1.00)
100
AcDbAlignedDimension
 13
88.78676174004112
 23
224.3638487929616
 33
0.0
 14
-161.2132382599591
 24
234.3638487929616
 34
0.0
100
AcDbRotatedDimension
1001
ACAD
1000
DSTYLE
1002
{
1070
   178
1070
     7
1070
   344
1005
99
1070
   343
1005
99
1070
    42
1040
0.0
1070
    76
1070
     0
1070
    75
1070
     0
1070
   283
1070
     1
1002
}
  0
ENDBLK
  5
217
330
1F2
100
AcDbEntity
  8
0
100
AcDbBlockEnd
  0
BLOCK
  5
1FD
330
1F4
100
AcDbEntity
  8
0
100
AcDbBlockBegin
  2
U22
 70
     0
 10
0.0
 20
0.0
 30
0.0
  3
U22
  1

  0
HATCH
  5
1F6
330
1F4
100
AcDbEntity
  8
Системный слой
 62
     7
100
AcDbHatch
 10
0.0
 20
0.0
 30
0.0
210
0.0
220
0.0
230
1.0
  2
SOLID
 70
     1
 71
     0
 91
        1
 92
        1
 93
        4
 72
     1
 10
83.78676174004112
 20
249.7055863017354
 11
88.78676174004112
 21
250.3638487929616
 72
     1
 10
88.78676174004112
 20
250.3638487929616
 11
83.78676174004112
 21
251.0221112841878
 72
     1
 10
83.78676174004112
 20
251.0221112841878
 11
84.28676174004113
 21
250.3638487929616
 72
     1
 10
84.28676174004113
 20
250.3638487929616
 11
83.78676174004112
 21
249.7055863017354
 97
        0
 75
     0
 76
     1
 98
        0
450
        0
451
        0
460
0.0
461
0.0
452
        0
462
0.0
453
        0
470

  0
LINE
  5
1F7
330
1F4
100
AcDbEntity
  8
Системный слой
  6
K5LT32777
 62
     7
370
    18
100
AcDbLine
 10
88.78676174004112
 20
250.3638487929616
 30
0.0
 11
83.78676174004112
 21
249.7055863017354
 31
0.0
  0
LINE
  5
1F8
330
1F4
100
AcDbEntity
  8
Системный слой
  6
K5LT32777
 62
     7
370
    18
100
AcDbLine
 10
83.78676174004112
 20
249.7055863017354
 30
0.0
 11
84.28676174004113
 21
250.3638487929616
 31
0.0
  0
LINE
  5
1F9
330
1F4
100
AcDbEntity
  8
Системный слой
  6
K5LT32777
 62
     7
370
    18
100
AcDbLine
 10
84.28676174004113
 20
250.3638487929616
 30
0.0
 11
83.78676174004112
 21
251.0221112841878
 31
0.0
  0
LINE
  5
1FA
330
1F4
100
AcDbEntity
  8
Системный слой
  6
K5LT32777
 62
     7
370
    18
100
AcDbLine
 10
83.78676174004112
 20
251.0221112841878
 30
0.0
 11
88.78676174004112
 21
250.3638487929616
 31
0.0
  0
LINE
  5
1FB
330
1F4
100
AcDbEntity
  8
Системный слой
  6
K5LT32777
 62
     7
370
    18
100
AcDbLine
 10
88.78676174004112
 20
250.3638487929616
 30
0.0
 11
87.78676174004113
 21
250.3638487929616
 31
0.0
  0
LINE
  5
1FC
330
1F4
100
AcDbEntity
  8
Системный слой
  6
K5LT_THIN
 62
     7
370
    18
100
AcDbLine
 10
88.78676174004112
 20
250.3638487929616
 30
0.0
 11
86.78676174004113
 21
250.3638487929616
 31
0.0
  0
ENDBLK
  5
1FE
330
1F4
100
AcDbEntity
  8
0
100
AcDbBlockEnd
  0
BLOCK
  5
208
330
1FF
100
AcDbEntity
  8
0
100
AcDbBlockBegin
  2
U23
 70
     0
 10
0.0
 20
0.0
 30
0.0
  3
U23
  1

  0
HATCH
  5
201
330
1FF
100
AcDbEntity
  8
Системный слой
 62
     7
100
AcDbHatch
 10
0.0
 20
0.0
 30
0.0
210
0.0
220
0.0
230
1.0
  2
SOLID
 70
     1
 71
     0
 91
        1
 92
        1
 93
        4
 72
     1
 10
-156.2132382599591
 20
251.0221112841878
 11
-161.2132382599591
 21
250.3638487929616
 72
     1
 10
-161.2132382599591
 20
250.3638487929616
 11
-156.2132382599591
 21
249.7055863017354
 72
     1
 10
-156.2132382599591
 20
249.7055863017354
 11
-156.7132382599591
 21
250.3638487929616
 72
     1
 10
-156.7132382599591
 20
250.3638487929616
 11
-156.2132382599591
 21
251.0221112841878
 97
        0
 75
     0
 76
     1
 98
        0
450
        0
451
        0
460
0.0
461
0.0
452
        0
462
0.0
453
        0
470

  0
LINE
  5
202
330
1FF
100
AcDbEntity
  8
Системный слой
  6
K5LT32777
 62
     7
370
    18
100
AcDbLine
 10
-161.2132382599591
 20
250.3638487929616
 30
0.0
 11
-156.2132382599591
 21
251.0221112841878
 31
0.0
  0
LINE
  5
203
330
1FF
100
AcDbEntity
  8
Системный слой
  6
K5LT32777
 62
     7
370
    18
100
AcDbLine
 10
-156.2132382599591
 20
251.0221112841878
 30
0.0
 11
-156.7132382599591
 21
250.3638487929616
 31
0.0
  0
LINE
  5
204
330
1FF
100
AcDbEntity
  8
Системный слой
  6
K5LT32777
 62
     7
370
    18
100
AcDbLine
 10
-156.7132382599591
 20
250.3638487929616
 30
0.0
 11
-156.2132382599591
 21
249.7055863017354
 31
0.0
  0
LINE
  5
205
330
1FF
100
AcDbEntity
  8
Системный слой
  6
K5LT32777
 62
     7
370
    18
100
AcDbLine
 10
-156.2132382599591
 20
249.7055863017354
 30
0.0
 11
-161.2132382599591
 21
250.3638487929616
 31
0.0
  0
LINE
  5
206
330
1FF
100
AcDbEntity
  8
Системный слой
  6
K5LT32777
 62
     7
370
    18
100
AcDbLine
 10
-161.2132382599591
 20
250.3638487929616
 30
0.0
 11
-160.2132382599591
 21
250.3638487929616
 31
0.0
  0
LINE
  5
207
330
1FF
100
AcDbEntity
  8
Системный слой
  6
K5LT_THIN
 62
     7
370
    18
100
AcDbLine
 10
-161.2132382599591
 20
250.3638487929616
 30
0.0
 11
-159.2132382599591
 21
250.3638487929616
 31
0.0
  0
ENDBLK
  5
209
330
1FF
100
AcDbEntity
  8
0
100
AcDbBlockEnd
  0
BLOCK
  5
213
330
20A
100
AcDbEntity
  8
0
100
AcDbBlockBegin
  2
D7
 70
     0
 10
0.0
 20
0.0
 30
0.0
  3
D7
  1

  0
WIPEOUT
  5
20B
330
20A
100
AcDbEntity
  8
Системный слой
440
 16777216
160
               140
310
8C000000010000008400000006000000050000000FCEE92D05C65240B24E39A6A46B6F4000000000000000000FCEE92D05C65240B24E395F09F96F40000000000000000019A58D9EA8065540B24E395F09F96F40000000000000000019A58D9EA8065540B24E39A6A46B6F4000000000000000000FCEE92D05C65240B24E39
310
A6A46B6F400000000000000000
100
AcDbWipeout
 90
        0
 10
75.09406612236512
 20
251.3638487929616
 30
0.0
 11
9.009975585937496
 21
0.0
 31
0.0
 12
0.0
 22
9.009975585937496
 32
0.0
 13
1.0
 23
1.0
340
0
 70
     7
280
     1
281
    50
282
    50
283
     0
290
     0
360
0
 71
     2
 91
        5
 14
-0.5000000000000018
 24
0.5
 14
-0.5000000000000018
 24
0.0095940933490866
 14
0.4999999999999983
 24
0.0095940933490866
 14
0.4999999999999983
 24
0.5
 14
-0.5000000000000018
 24
0.5
  0
LINE
  5
20C
330
20A
100
AcDbEntity
  8
Системный слой
  6
K5LT_THIN
 62
     7
440
 16777216
370
    18
100
AcDbLine
 10
-161.2132382599591
 20
250.3638487929616
 30
0.0
 11
88.78676174004112
 21
250.3638487929616
 31
0.0
  0
LINE
  5
20D
330
20A
100
AcDbEntity
  8
Системный слой
  6
K5LT_THIN
 62
     7
440
 16777216
370
    18
100
AcDbLine
 10
-161.2132382599591
 20
234.3638487929616
 30
0.0
 11
-161.2132382599591
 21
252.3638487929616
 31
0.0
  0
LINE
  5
20E
330
20A
100
AcDbEntity
  8
Системный слой
  6
K5LT_THIN
 62
     7
440
 16777216
370
    18
100
AcDbLine
 10
88.78676174004112
 20
224.3638487929616
 30
0.0
 11
88.78676174004112
 21
252.3638487929616
 31
0.0
  0
MTEXT
  5
20F
330
20A
100
AcDbEntity
  8
0
 62
     7
440
 16777216
100
AcDbMText
 10
75.09406612236512
 20
254.8231214160237
 30
0.0
 40
2.5
 41
0.0
 46
0.0
 71
     1
 72
     1
  1
\H3.5;\W0.965;\Q15;\Q15;\W0.930;\H2.50;250
  7
KTEXTSTYLE
 73
     1
 44
1.0
  0
MTEXT
  5
210
330
20A
100
AcDbEntity
  8
0
 62
     7
440
 16777216
100
AcDbMText
 10
79.62635753471864
 20
255.8694702262196
 30
0.0
 40
2.5
 41
0.0
 46
0.0
 71
     1
 72
     1
  1
\H3.5;\W0.965;\Q15;\Q15;\W0.930;\H1.63;0,575
  7
KTEXTSTYLE
 73
     1
 44
1.0
  0
MTEXT
  5
211
330
20A
100
AcDbEntity
  8
0
 62
     7
440
 16777216
100
AcDbMText
 10
79.62635753471864
 20
253.4101977223668
 30
0.0
 40
2.5
 41
0.0
 46
0.0
 71
     1
 72
     1
  1
\H3.5;\W0.965;\Q15;\Q15;\W0.930;\H1.63;0,575
  7
KTEXTSTYLE
 73
     1
 44
1.0
  0
MTEXT
  5
212
330
20A
100
AcDbEntity
  8
0
 62
     7
440
 16777216
100
AcDbMText
 10
83.83453510124695
 20
254.8231214160237
 30
0.0
 40
2.5
 41
0.0
 46
0.0
 71
     1
 72
     1
  1
\H3.5;\W0.965;\Q15;\Q0;\W0.930;\H2.50; 
  7
KTEXTSTYLE
 73
     1
 44
1.0
  0
ENDBLK
  5
214
330
20A
100
AcDbEntity
  8
0
100
AcDbBlockEnd
  0
ENDSEC
  0
SECTION
  2
ENTITIES
  0
LINE
  5
74
330
1F
100
AcDbEntity
  8
Системный слой
  6
K5LT_BASIC
 62
   250
370
    60
100
AcDbLine
 10
-161.2132382599591
 20
199.3638487929615
 30
0.0
 11
-161.2132382599591
 21
269.3638487929616
 31
0.0
  0
LINE
  5
75
330
1F
100
AcDbEntity
  8
Системный слой
  6
K5LT_BASIC
 62
     3
370
    60
100
AcDbLine
 10
-161.2132382599591
 20
269.3638487929616
 30
0.0
 11
1792.786761740041
 21
269.3638487929616
 31
0.0
  0
LINE
  5
76
330
1F
100
AcDbEntity
  8
Системный слой
  6
K5LT_BASIC
 62
     3
370
    60
100
AcDbLine
 10
-161.2132382599591
 20
199.3638487929615
 30
0.0
 11
1792.786761740041
 21
199.3638487929615
 31
0.0
  0
LINE
  5
77
330
1F
100
AcDbEntity
  8
Системный слой
  6
K5LT_BASIC
 62
     5
370
    60
100
AcDbLine
 10
1792.786761740041
 20
199.3638487929615
 30
0.0
 11
1792.786761740041
 21
269.3638487929616
 31
0.0
  0
CIRCLE
  5
78
330
1F
100
AcDbEntity
  8
Системный слой
  6
K5LT_BASIC
 62
   250
370
    60
100
AcDbCircle
 10
-111.2132382599589
 20
229.3638487929616
 30
0.0
 40
1.75
  0
CIRCLE
  5
79
330
1F
100
AcDbEntity
  8
Системный слой
  6
K5LT_BASIC
 62
   250
370
    60
100
AcDbCircle
 10
88.78676174004112
 20
224.3638487929616
 30
0.0
 40
6.0
  0
CIRCLE
  5
7A
330
1F
100
AcDbEntity
  8
Системный слой
  6
K5LT_BASIC
 62
   250
370
    60
100
AcDbCircle
 10
189.7867617400411
 20
250.3638487929616
 30
0.0
 40
1.75
  0
CIRCLE
  5
7B
330
1F
100
AcDbEntity
  8
Системный слой
  6
K5LT_BASIC
 62
   250
370
    60
100
AcDbCircle
 10
817.7867617400412
 20
224.3638487929616
 30
0.0
 40
1.749999999999972
  0
CIRCLE
  5
7C
330
1F
100
AcDbEntity
  8
Системный слой
  6
K5LT_BASIC
 62
     5
370
    60
100
AcDbCircle
 10
1441.786761740041
 20
250.3638487929616
 30
0.0
 40
1.75
  0
CIRCLE
  5
7D
330
1F
100
AcDbEntity
  8
Системный слой
  6
K5LT_BASIC
 62
     5
370
    60
100
AcDbCircle
 10
1542.786761740041
 20
224.3638487929616
 30
0.0
 40
6.0
  0
CIRCLE
  5
7E
330
1F
100
AcDbEntity
  8
Системный слой
  6
K5LT_BASIC
 62
     5
370
    60
100
AcDbCircle
 10
1742.786761740041
 20
229.3638487929616
 30
0.0
 40
1.75
  0
INSERT
  5
10E
330
1F
100
AcDbEntity
  8
Системный слой
100
AcDbBlockReference
  2
U3
 10
0.0
 20
0.0
 30
0.0
  0
INSERT
  5
134
330
1F
100
AcDbEntity
  8
Системный слой
100
AcDbBlockReference
  2
U6
 10
0.0
 20
0.0
 30
0.0
  0
INSERT
  5
15A
330
1F
100
AcDbEntity
  8
Системный слой
100
AcDbBlockReference
  2
U9
 10
0.0
 20
0.0
 30
0.0
  0
INSERT
  5
180
330
1F
100
AcDbEntity
  8
Системный слой
100
AcDbBlockReference
  2
U12
 10
0.0
 20
0.0
 30
0.0
  0
INSERT
  5
1A6
330
1F
100
AcDbEntity
  8
Системный слой
100
AcDbBlockReference
  2
U15
 10
0.0
 20
0.0
 30
0.0
  0
INSERT
  5
1F3
330
1F
100
AcDbEntity
  8
Системный слой
100
AcDbBlockReference
  2
U21
 10
0.0
 20
0.0
 30
0.0
  0
ENDSEC
  0
SECTION
  2
OBJECTS
  0
DICTIONARY
  5
C
330
0
100
AcDbDictionary
281
     1
  3
ACAD_BACKGROUND
350
22D
  3
ACAD_CIP_PREVIOUS_PRODUCT_INFO
350
22C
  3
ACAD_COLOR
350
226
  3
ACAD_DETAILVIEWSTYLE
350
21F
  3
ACAD_GROUP
350
D
  3
ACAD_LAYOUT
350
1A
  3
ACAD_MATERIAL
350
43
  3
ACAD_MLEADERSTYLE
350
6B
  3
ACAD_MLINESTYLE
350
17
  3
ACAD_PLOTSETTINGS
350
19
  3
ACAD_PLOTSTYLENAME
350
E
  3
ACAD_SCALELIST
350
47
  3
ACAD_SECTIONVIEWSTYLE
350
220
  3
ACAD_TABLESTYLE
350
69
  3
ACAD_VISUALSTYLE
350
2A
  3
ACAD_WIPEOUT_VARS
350
FE
  3
ACDB_RECOMPOSE_DATA
350
238
  3
AcDbVariableDictionary
350
218
  0
SUN
  5
6D
330
29
100
AcDbSun
 90
        1
290
     1
 63
     7
421
 16777215
 40
1.0
291
     1
 91
  2455826
 92
 54000000
292
     0
 70
     0
 71
   256
280
     1
  0
DICTIONARY
  5
22D
102
{ACAD_REACTORS
330
C
102
}
330
C
100
AcDbDictionary
281
     1
  0
XRECORD
  5
22C
102
{ACAD_REACTORS
330
C
102
}
330
C
100
AcDbXrecord
280
     1
300
ACD
300
2019
300

  0
DICTIONARY
  5
226
102
{ACAD_REACTORS
330
C
102
}
330
C
100
AcDbDictionary
281
     1
  0
DICTIONARY
  5
21F
102
{ACAD_REACTORS
330
C
102
}
330
C
100
AcDbDictionary
281
     1
  3
Metric50
350
228
  0
DICTIONARY
  5
D
102
{ACAD_REACTORS
330
C
102
}
330
C
100
AcDbDictionary
281
     1
  0
DICTIONARY
  5
1A
102
{ACAD_REACTORS
330
C
102
}
330
C
100
AcDbDictionary
281
     1
  3
Layout1
350
1E
  3
Layout2
350
26
  3
Model
350
22
  0
DICTIONARY
  5
43
102
{ACAD_REACTORS
330
C
102
}
330
C
100
AcDbDictionary
281
     1
  3
ByBlock
350
45
  3
ByLayer
350
44
  3
Global
350
46
  0
DICTIONARY
  5
6B
102
{ACAD_REACTORS
330
C
102
}
330
C
100
AcDbDictionary
281
     1
  3
Standard
350
6C
  0
DICTIONARY
  5
17
102
{ACAD_REACTORS
330
C
102
}
330
C
100
AcDbDictionary
281
     1
  3
Standard
350
18
  0
DICTIONARY
  5
19
102
{ACAD_REACTORS
330
C
102
}
330
C
100
AcDbDictionary
281
     1
  0
ACDBDICTIONARYWDFLT
  5
E
102
{ACAD_REACTORS
330
C
102
}
330
C
100
AcDbDictionary
281
     1
  3
Normal
350
F
100
AcDbDictionaryWithDefault
340
F
  0
DICTIONARY
  5
47
102
{ACAD_REACTORS
330
C
102
}
330
C
100
AcDbDictionary
281
     1
  3
A0
350
48
  3
A1
350
49
  3
A2
350
4A
  3
A3
350
4B
  3
A4
350
4C
  3
A5
350
4D
  3
A6
350
4E
  3
A7
350
4F
  3
A8
350
50
  3
A9
350
51
  3
B0
350
52
  3
B1
350
53
  3
B2
350
54
  3
B3
350
55
  3
B4
350
56
  3
B5
350
57
  3
B6
350
58
  3
B7
350
59
  3
B8
350
5A
  3
B9
350
5B
  3
C0
350
5C
  3
C1
350
5D
  3
C2
350
5E
  3
C3
350
5F
  3
C4
350
60
  3
C5
350
61
  3
C6
350
62
  3
C7
350
63
  3
C8
350
64
  3
C9
350
65
  3
D0
350
66
  3
D1
350
67
  3
D2
350
68
  0
DICTIONARY
  5
220
102
{ACAD_REACTORS
330
C
102
}
330
C
100
AcDbDictionary
281
     1
  3
Metric50
350
227
  0
DICTIONARY
  5
69
102
{ACAD_REACTORS
330
C
102
}
330
C
100
AcDbDictionary
281
     1
  3
Standard
350
6A
  0
DICTIONARY
  5
2A
102
{ACAD_REACTORS
330
C
102
}
330
C
100
AcDbDictionary
281
     1
  3
2dWireframe
350
2F
  3
Basic
350
32
  3
Brighten
350
36
  3
ColorChange
350
3A
  3
Conceptual
350
34
  3
Dim
350
35
  3
EdgeColorOff
350
3D
  3
Facepattern
350
39
  3
Flat
350
2B
  3
FlatWithEdges
350
2C
  3
Gouraud
350
2D
  3
GouraudWithEdges
350
2E
  3
Hidden
350
31
  3
JitterOff
350
3B
  3
Linepattern
350
38
  3
OverhangOff
350
3C
  3
Realistic
350
33
  3
Shaded
350
42
  3
Shaded with edges
350
41
  3
Shades of Gray
350
3E
  3
Sketchy
350
3F
  3
Thicken
350
37
  3
Wireframe
350
30
  3
X-Ray
350
40
  0
WIPEOUTVARIABLES
  5
FE
102
{ACAD_REACTORS
330
C
102
}
330
C
100
AcDbWipeoutVariables
 70
     0
  0
XRECORD
  5
238
102
{ACAD_REACTORS
330
C
102
}
330
C
100
AcDbXrecord
280
     1
 90
        1
330
6A
  0
DICTIONARY
  5
218
102
{ACAD_REACTORS
330
C
102
}
330
C
100
AcDbDictionary
281
     1
  3
CANNOSCALE
350
219
  3
CENTEREXE
350
222
  3
CENTERLTYPEFILE
350
223
  3
CMLEADERSTYLE
350
21E
  3
CTABLESTYLE
350
21D
  3
CVIEWDETAILSTYLE
350
235
  3
CVIEWSECTIONSTYLE
350
236
  3
WIPEOUTFRAME
350
221
  0
ACDBDETAILVIEWSTYLE
  5
228
102
{ACAD_REACTORS
330
21F
102
}
330
21F
100
AcDbModelDocViewStyle
 70
     0
  3
Metric50
290
     0
300
Metric50
 90
        0
100
AcDbDetailViewStyle
 70
     0
 71
     0
 90
        3
 71
     1
340
11
 62
   256
 40
5.0
340
0
 62
   256
 40
5.0
300

 40
0.0
280
     1
 71
     2
340
16
 90
       25
 62
   256
 71
     3
340
11
 62
   256
 40
5.0
 90
        0
 40
15.0
 90
        1
300
%<\AcVar ViewDetailId>% (%<\AcVar ViewScale \f "%sn">%)
 71
     4
340
16
 90
       25
 62
   256
340
16
 90
       25
 62
   256
280
     0
  0
LAYOUT
  5
1E
102
{ACAD_REACTORS
330
1A
102
}
330
1A
100
AcDbPlotSettings
  1

  2
none_device
  4

  6

 40
0.0
 41
0.0
 42
0.0
 43
0.0
 44
0.0
 45
0.0
 46
0.0
 47
0.0
 48
0.0
 49
0.0
140
0.0
141
0.0
142
1.0
143
1.0
 70
   688
 72
     1
 73
     0
 74
     5
  7

 75
    16
147
1.0
 76
     0
 77
     2
 78
   300
148
0.0
149
0.0
100
AcDbLayout
  1
Layout1
 70
     1
 71
     1
 10
0.0
 20
0.0
 11
420.0
 21
297.0
 12
0.0
 22
0.0
 32
0.0
 14
1.000000000000000E+20
 24
1.000000000000000E+20
 34
1.000000000000000E+20
 15
-1.000000000000000E+20
 25
-1.000000000000000E+20
 35
-1.000000000000000E+20
146
0.0
 13
0.0
 23
0.0
 33
0.0
 16
1.0
 26
0.0
 36
0.0
 17
0.0
 27
1.0
 37
0.0
 76
     0
330
1B
  0
LAYOUT
  5
26
102
{ACAD_REACTORS
330
1A
102
}
330
1A
100
AcDbPlotSettings
  1

  2
none_device
  4

  6

 40
0.0
 41
0.0
 42
0.0
 43
0.0
 44
0.0
 45
0.0
 46
0.0
 47
0.0
 48
0.0
 49
0.0
140
0.0
141
0.0
142
1.0
143
1.0
 70
   688
 72
     1
 73
     0
 74
     5
  7

 75
    16
147
1.0
 76
     0
 77
     2
 78
   300
148
0.0
149
0.0
100
AcDbLayout
  1
Layout2
 70
     1
 71
     2
 10
0.0
 20
0.0
 11
0.0
 21
0.0
 12
0.0
 22
0.0
 32
0.0
 14
0.0
 24
0.0
 34
0.0
 15
0.0
 25
0.0
 35
0.0
146
0.0
 13
0.0
 23
0.0
 33
0.0
 16
1.0
 26
0.0
 36
0.0
 17
0.0
 27
1.0
 37
0.0
 76
     0
330
23
  0
LAYOUT
  5
22
102
{ACAD_REACTORS
330
1A
102
}
330
1A
100
AcDbPlotSettings
  1

  2
none_device
  4
Letter_(8.50_x_11.00_Inches)
  6

 40
6.349999999999999
 41
6.349999999999999
 42
6.350005079999999
 43
6.350005079999999
 44
215.9
 45
279.4
 46
0.0
 47
0.0
 48
0.0
 49
0.0
140
0.0
141
0.0
142
1.0
143
1.0
 70
  1712
 72
     1
 73
     0
 74
     0
  7

 75
     0
147
1.0
 76
     0
 77
     2
 78
   300
148
0.0
149
0.0
100
AcDbLayout
  1
Model
 70
     1
 71
     0
 10
0.0
 20
0.0
 11
420.0
 21
297.0
 12
0.0
 22
0.0
 32
0.0
 14
-161.2132382599591
 24
172.319128002834
 34
0.0
 15
1792.786761740041
 25
321.5397120738122
 35
0.0
146
0.0
 13
0.0
 23
0.0
 33
0.0
 16
1.0
 26
0.0
 36
0.0
 17
0.0
 27
1.0
 37
0.0
 76
     0
330
1F
331
29
  0
MATERIAL
  5
45
102
{ACAD_REACTORS
330
43
102
}
330
43
100
AcDbMaterial
  1
ByBlock
  0
MATERIAL
  5
44
102
{ACAD_REACTORS
330
43
102
}
330
43
100
AcDbMaterial
  1
ByLayer
  0
MATERIAL
  5
46
102
{ACAD_REACTORS
330
43
102
}
330
43
100
AcDbMaterial
  1
Global
  0
MLEADERSTYLE
  5
6C
102
{ACAD_REACTORS
330
6B
102
}
330
6B
100
AcDbMLeaderStyle
179
     2
170
     2
171
     1
172
     0
 90
        2
 40
0.0
 41
0.0
173
     1
 91
-1056964608
340
14
 92
       -2
290
     1
 42
2.0
291
     1
 43
8.0
  3
Standard
 44
4.0
300

342
11
174
     1
178
     6
175
     1
176
     0
 93
-1056964608
 45
4.0
292
     0
297
     0
 46
4.0
 94
-1056964608
 47
1.0
 49
1.0
140
1.0
293
     1
141
0.0
294
     1
177
     0
142
1.0
295
     0
296
     0
143
3.75
271
     0
272
     9
273
     9
298
     0
  0
MLINESTYLE
  5
18
102
{ACAD_REACTORS
330
17
102
}
330
17
100
AcDbMlineStyle
  2
STANDARD
 70
     0
  3

 62
   256
 51
90.0
 52
90.0
 71
     2
 49
0.5
 62
   256
  6
BYLAYER
 49
-0.5
 62
   256
  6
BYLAYER
  0
ACDBPLACEHOLDER
  5
F
102
{ACAD_REACTORS
330
E
102
}
330
E
  0
SCALE
  5
48
102
{ACAD_REACTORS
330
47
102
}
330
47
100
AcDbScale
 70
     0
300
1:1
140
1.0
141
1.0
290
     1
  0
SCALE
  5
49
102
{ACAD_REACTORS
330
47
102
}
330
47
100
AcDbScale
 70
     0
300
1:2
140
1.0
141
2.0
290
     0
  0
SCALE
  5
4A
102
{ACAD_REACTORS
330
47
102
}
330
47
100
AcDbScale
 70
     0
300
1:4
140
1.0
141
4.0
290
     0
  0
SCALE
  5
4B
102
{ACAD_REACTORS
330
47
102
}
330
47
100
AcDbScale
 70
     0
300
1:5
140
1.0
141
5.0
290
     0
  0
SCALE
  5
4C
102
{ACAD_REACTORS
330
47
102
}
330
47
100
AcDbScale
 70
     0
300
1:8
140
1.0
141
8.0
290
     0
  0
SCALE
  5
4D
102
{ACAD_REACTORS
330
47
102
}
330
47
100
AcDbScale
 70
     0
300
1:10
140
1.0
141
10.0
290
     0
  0
SCALE
  5
4E
102
{ACAD_REACTORS
330
47
102
}
330
47
100
AcDbScale
 70
     0
300
1:16
140
1.0
141
16.0
290
     0
  0
SCALE
  5
4F
102
{ACAD_REACTORS
330
47
102
}
330
47
100
AcDbScale
 70
     0
300
1:20
140
1.0
141
20.0
290
     0
  0
SCALE
  5
50
102
{ACAD_REACTORS
330
47
102
}
330
47
100
AcDbScale
 70
     0
300
1:30
140
1.0
141
30.0
290
     0
  0
SCALE
  5
51
102
{ACAD_REACTORS
330
47
102
}
330
47
100
AcDbScale
 70
     0
300
1:40
140
1.0
141
40.0
290
     0
  0
SCALE
  5
52
102
{ACAD_REACTORS
330
47
102
}
330
47
100
AcDbScale
 70
     0
300
1:50
140
1.0
141
50.0
290
     0
  0
SCALE
  5
53
102
{ACAD_REACTORS
330
47
102
}
330
47
100
AcDbScale
 70
     0
300
1:100
140
1.0
141
100.0
290
     0
  0
SCALE
  5
54
102
{ACAD_REACTORS
330
47
102
}
330
47
100
AcDbScale
 70
     0
300
2:1
140
2.0
141
1.0
290
     0
  0
SCALE
  5
55
102
{ACAD_REACTORS
330
47
102
}
330
47
100
AcDbScale
 70
     0
300
4:1
140
4.0
141
1.0
290
     0
  0
SCALE
  5
56
102
{ACAD_REACTORS
330
47
102
}
330
47
100
AcDbScale
 70
     0
300
8:1
140
8.0
141
1.0
290
     0
  0
SCALE
  5
57
102
{ACAD_REACTORS
330
47
102
}
330
47
100
AcDbScale
 70
     0
300
10:1
140
10.0
141
1.0
290
     0
  0
SCALE
  5
58
102
{ACAD_REACTORS
330
47
102
}
330
47
100
AcDbScale
 70
     0
300
100:1
140
100.0
141
1.0
290
     0
  0
SCALE
  5
59
102
{ACAD_REACTORS
330
47
102
}
330
47
100
AcDbScale
 70
     0
300
1/128" = 1'-0"
140
0.0078125
141
12.0
290
     0
  0
SCALE
  5
5A
102
{ACAD_REACTORS
330
47
102
}
330
47
100
AcDbScale
 70
     0
300
1/64" = 1'-0"
140
0.015625
141
12.0
290
     0
  0
SCALE
  5
5B
102
{ACAD_REACTORS
330
47
102
}
330
47
100
AcDbScale
 70
     0
300
1/32" = 1'-0"
140
0.03125
141
12.0
290
     0
  0
SCALE
  5
5C
102
{ACAD_REACTORS
330
47
102
}
330
47
100
AcDbScale
 70
     0
300
1/16" = 1'-0"
140
0.0625
141
12.0
290
     0
  0
SCALE
  5
5D
102
{ACAD_REACTORS
330
47
102
}
330
47
100
AcDbScale
 70
     0
300
3/32" = 1'-0"
140
0.09375
141
12.0
290
     0
  0
SCALE
  5
5E
102
{ACAD_REACTORS
330
47
102
}
330
47
100
AcDbScale
 70
     0
300
1/8" = 1'-0"
140
0.125
141
12.0
290
     0
  0
SCALE
  5
5F
102
{ACAD_REACTORS
330
47
102
}
330
47
100
AcDbScale
 70
     0
300
3/16" = 1'-0"
140
0.1875
141
12.0
290
     0
  0
SCALE
  5
60
102
{ACAD_REACTORS
330
47
102
}
330
47
100
AcDbScale
 70
     0
300
1/4" = 1'-0"
140
0.25
141
12.0
290
     0
  0
SCALE
  5
61
102
{ACAD_REACTORS
330
47
102
}
330
47
100
AcDbScale
 70
     0
300
3/8" = 1'-0"
140
0.375
141
12.0
290
     0
  0
SCALE
  5
62
102
{ACAD_REACTORS
330
47
102
}
330
47
100
AcDbScale
 70
     0
300
1/2" = 1'-0"
140
0.5
141
12.0
290
     0
  0
SCALE
  5
63
102
{ACAD_REACTORS
330
47
102
}
330
47
100
AcDbScale
 70
     0
300
3/4" = 1'-0"
140
0.75
141
12.0
290
     0
  0
SCALE
  5
64
102
{ACAD_REACTORS
330
47
102
}
330
47
100
AcDbScale
 70
     0
300
1" = 1'-0"
140
1.0
141
12.0
290
     0
  0
SCALE
  5
65
102
{ACAD_REACTORS
330
47
102
}
330
47
100
AcDbScale
 70
     0
300
1-1/2" = 1'-0"
140
1.5
141
12.0
290
     0
  0
SCALE
  5
66
102
{ACAD_REACTORS
330
47
102
}
330
47
100
AcDbScale
 70
     0
300
3" = 1'-0"
140
3.0
141
12.0
290
     0
  0
SCALE
  5
67
102
{ACAD_REACTORS
330
47
102
}
330
47
100
AcDbScale
 70
     0
300
6" = 1'-0"
140
6.0
141
12.0
290
     0
  0
SCALE
  5
68
102
{ACAD_REACTORS
330
47
102
}
330
47
100
AcDbScale
 70
     0
300
1'-0" = 1'-0"
140
12.0
141
12.0
290
     0
  0
ACDBSECTIONVIEWSTYLE
  5
227
102
{ACAD_REACTORS
330
220
102
}
330
220
100
AcDbModelDocViewStyle
 70
     0
  3
Metric50
290
     0
300
Metric50
 90
        0
100
AcDbSectionViewStyle
 70
     0
 71
     0
 90
      102
 71
     1
340
11
 62
   256
 40
5.0
340
0
340
0
 62
   256
 40
5.0
300
I, O, Q, S, X, Z
 40
10.0
 90
        0
 40
2.5
 90
        0
 71
     2
340
16
 90
       25
 62
   256
340
16
 90
       50
 62
   256
 40
5.0
 40
2.5
 40
5.0
 71
     3
340
11
 62
   256
 40
5.0
 90
        0
 40
15.0
 90
        1
300
%<\AcVar ViewSectionStartId>%-%<\AcVar ViewSectionEndId>% (%<\AcVar ViewScale \f "%sn">%)
 71
     4
 62
   256
 62
   257
300
ANSI31
 40
1.0
 90
        0
290
     0
290
     0
 90
        6
 40
0.0
 40
1.570796326794896
 40
0.2617993877991494
 40
1.308996938995747
 40
-0.2617993877991494
 40
1.832595714594046
  0
TABLESTYLE
  5
6A
102
{ACAD_XDICTIONARY
360
21A
102
}
102
{ACAD_REACTORS
330
69
102
}
330
69
100
AcDbTableStyle
280
     0
  3
Standard
 70
     0
 71
     0
 40
1.5
 41
1.5
280
     0
281
     0
  7
Standard
140
4.5
170
     2
 62
     0
 63
     7
283
     0
 90
        4
 91
        0
  1

274
    -2
284
     1
 64
     0
275
    -2
285
     1
 65
     0
276
    -2
286
     1
 66
     0
277
    -2
287
     1
 67
     0
278
    -2
288
     1
 68
     0
279
    -2
289
     1
 69
     0
  7
Standard
140
6.0
170
     5
 62
     0
 63
     7
283
     0
 90
        4
 91
        0
  1

274
    -2
284
     1
 64
     0
275
    -2
285
     1
 65
     0
276
    -2
286
     1
 66
     0
277
    -2
287
     1
 67
     0
278
    -2
288
     1
 68
     0
279
    -2
289
     1
 69
     0
  7
Standard
140
4.5
170
     5
 62
     0
 63
     7
283
     0
 90
        4
 91
        0
  1

274
    -2
284
     1
 64
     0
275
    -2
285
     1
 65
     0
276
    -2
286
     1
 66
     0
277
    -2
287
     1
 67
     0
278
    -2
288
     1
 68
     0
279
    -2
289
     1
 69
     0
  0
VISUALSTYLE
  5
2F
102
{ACAD_REACTORS
330
2A
102
}
330
2A
100
AcDbVisualStyle
  2
2dWireframe
 70
     4
177
     3
291
     0
 70
    58
 90
        0
176
     1
 90
        2
176
     1
 90
        0
176
     1
 90
        0
176
     1
 40
0.6
176
     1
 40
30.0
176
     1
 62
     7
420
 16777215
176
     1
 90
        1
176
     1
 90
        4
176
     1
 62
     7
176
     1
 62
   257
176
     1
 90
        1
176
     1
 90
        1
176
     1
 40
1.0
176
     1
 90
        0
176
     1
 62
   257
176
     1
 40
1.0
176
     1
 90
        1
176
     1
 90
        6
176
     1
 90
        2
176
     1
 62
     7
176
     1
 90
        5
176
     1
 90
        0
176
     1
 90
        0
176
     1
290
     0
176
     1
 90
        1
176
     1
 40
0.0
176
     1
 90
        0
176
     1
290
     1
176
     1
290
     1
176
     1
290
     0
176
     1
290
     0
176
     1
290
     0
176
     1
290
     0
176
     1
290
     0
176
     1
290
     0
176
     1
290
     0
176
     1
 90
       50
176
     1
 40
0.0
176
     1
 40
1.0
176
     1
 90
        0
176
     1
 62
    18
176
     1
 90
       50
176
     1
 90
        3
176
     1
 62
     5
420
      255
176
     1
290
     0
176
     1
 90
       50
176
     1
 90
       50
176
     1
 90
       50
176
     1
290
     0
176
     1
 90
       50
176
     1
 62
   256
176
     0
 40
1.0
176
     0
 90
        2
176
     1
  1
strokes_ogs.tif
176
     1
290
     0
176
     1
 40
1.0
176
     1
 40
1.0
176
     1
  0
VISUALSTYLE
  5
32
102
{ACAD_REACTORS
330
2A
102
}
330
2A
100
AcDbVisualStyle
  2
Basic
 70
     7
177
     3
291
     1
 70
    58
 90
        1
176
     1
 90
        0
176
     1
 90
        1
176
     1
 90
        0
176
     1
 40
0.6
176
     1
 40
30.0
176
     1
 62
     7
420
 16777215
176
     1
 90
        0
176
     1
 90
        4
176
     1
 62
     7
176
     1
 62
   257
176
     1
 90
        1
176
     1
 90
        1
176
     1
 40
1.0
176
     1
 90
        8
176
     1
 62
     7
176
     1
 40
1.0
176
     1
 90
        1
176
     1
 90
        6
176
     1
 90
        2
176
     1
 62
     7
176
     1
 90
        5
176
     1
 90
        0
176
     1
 90
        0
176
     1
290
     0
176
     1
 90
        1
176
     1
 40
0.0
176
     1
 90
        0
176
     1
290
     0
176
     1
290
     1
176
     1
290
     1
176
     1
290
     0
176
     1
290
     0
176
     1
290
     0
176
     1
290
     0
176
     1
290
     0
176
     1
290
     0
176
     1
 90
       50
176
     1
 40
0.0
176
     1
 40
1.0
176
     1
 90
        0
176
     1
 62
    18
176
     1
 90
       50
176
     1
 90
        3
176
     1
 62
     5
420
      255
176
     1
290
     0
176
     1
 90
       50
176
     1
 90
       50
176
     1
 90
       50
176
     1
290
     0
176
     1
 90
       50
176
     1
 62
   256
176
     0
 40
1.0
176
     0
 90
        2
176
     1
  1
strokes_ogs.tif
176
     1
290
     0
176
     1
 40
1.0
176
     1
 40
1.0
176
     1
  0
VISUALSTYLE
  5
36
102
{ACAD_REACTORS
330
2A
102
}
330
2A
100
AcDbVisualStyle
  2
Brighten
 70
    12
177
     3
291
     1
 70
    58
 90
        2
176
     1
 90
        2
176
     1
 90
        0
176
     1
 90
        0
176
     1
 40
0.6
176
     1
 40
30.0
176
     1
 62
     7
420
 16777215
176
     1
 90
        1
176
     1
 90
        4
176
     1
 62
     7
176
     1
 62
   257
176
     1
 90
        1
176
     1
 90
        1
176
     1
 40
1.0
176
     1
 90
        8
176
     1
 62
     7
176
     1
 40
1.0
176
     1
 90
        1
176
     1
 90
        6
176
     1
 90
        2
176
     1
 62
     7
176
     1
 90
        5
176
     1
 90
        0
176
     1
 90
        0
176
     1
290
     0
176
     1
 90
        1
176
     1
 40
50.0
176
     1
 90
        0
176
     1
290
     0
176
     1
290
     1
176
     1
290
     1
176
     1
290
     0
176
     1
290
     0
176
     1
290
     0
176
     1
290
     0
176
     1
290
     0
176
     1
290
     0
176
     1
 90
       50
176
     1
 40
0.0
176
     1
 40
1.0
176
     1
 90
        0
176
     1
 62
    18
176
     1
 90
       50
176
     1
 90
        3
176
     1
 62
     5
420
      255
176
     1
290
     0
176
     1
 90
       50
176
     1
 90
       50
176
     1
 90
       50
176
     1
290
     0
176
     1
 90
       50
176
     1
 62
   256
176
     0
 40
1.0
176
     0
 90
        2
176
     1
  1
strokes_ogs.tif
176
     1
290
     0
176
     1
 40
1.0
176
     1
 40
1.0
176
     1
  0
VISUALSTYLE
  5
3A
102
{ACAD_REACTORS
330
2A
102
}
330
2A
100
AcDbVisualStyle
  2
ColorChange
 70
    16
177
     3
291
     1
 70
    58
 90
        2
176
     1
 90
        2
176
     1
 90
        3
176
     1
 90
        0
176
     1
 40
0.6
176
     1
 40
30.0
176
     1
 62
     8
420
  8421504
176
     1
 90
        1
176
     1
 90
        4
176
     1
 62
     7
176
     1
 62
   257
176
     1
 90
        1
176
     1
 90
        1
176
     1
 40
1.0
176
     1
 90
        8
176
     1
 62
     8
420
  8421504
176
     1
 40
1.0
176
     1
 90
        1
176
     1
 90
        6
176
     1
 90
        2
176
     1
 62
     7
176
     1
 90
        5
176
     1
 90
        0
176
     1
 90
        0
176
     1
290
     0
176
     1
 90
        1
176
     1
 40
0.0
176
     1
 90
        0
176
     1
290
     0
176
     1
290
     1
176
     1
290
     1
176
     1
290
     0
176
     1
290
     0
176
     1
290
     0
176
     1
290
     0
176
     1
290
     0
176
     1
290
     0
176
     1
 90
       50
176
     1
 40
0.0
176
     1
 40
1.0
176
     1
 90
        0
176
     1
 62
    18
176
     1
 90
       50
176
     1
 90
        3
176
     1
 62
     5
420
      255
176
     1
290
     0
176
     1
 90
       50
176
     1
 90
       50
176
     1
 90
       50
176
     1
290
     0
176
     1
 90
       50
176
     1
 62
   256
176
     0
 40
1.0
176
     0
 90
        2
176
     1
  1
strokes_ogs.tif
176
     1
290
     0
176
     1
 40
1.0
176
     1
 40
1.0
176
     1
  0
VISUALSTYLE
  5
34
102
{ACAD_REACTORS
330
2A
102
}
330
2A
100
AcDbVisualStyle
  2
Conceptual
 70
     9
177
     3
291
     0
 70
    58
 90
        3
176
     1
 90
        2
176
     1
 90
        0
176
     1
 90
        0
176
     1
 40
0.6
176
     1
 40
30.0
176
     1
 62
     7
420
 16777215
176
     1
 90
        2
176
     1
 90
        2
176
     1
 62
     7
176
     1
 62
   257
176
     1
 90
        1
176
     1
 90
        1
176
     1
 40
179.0
176
     1
 90
        8
176
     1
 62
     7
176
     1
 40
1.0
176
     1
 90
        1
176
     1
 90
        6
176
     1
 90
        2
176
     1
 62
     7
176
     1
 90
        3
176
     1
 90
        0
176
     1
 90
        0
176
     1
290
     0
176
     1
 90
        1
176
     1
 40
0.0
176
     1
 90
        0
176
     1
290
     0
176
     1
290
     1
176
     1
290
     1
176
     1
290
     0
176
     1
290
     0
176
     1
290
     0
176
     1
290
     0
176
     1
290
     0
176
     1
290
     0
176
     1
 90
       50
176
     1
 40
0.0
176
     1
 40
1.0
176
     1
 90
        0
176
     1
 62
    18
176
     1
 90
       50
176
     1
 90
        3
176
     1
 62
     5
420
      255
176
     1
290
     0
176
     1
 90
       50
176
     1
 90
       50
176
     1
 90
       50
176
     1
290
     0
176
     1
 90
       50
176
     1
 62
   256
176
     0
 40
1.0
176
     0
 90
        2
176
     1
  1
strokes_ogs.tif
176
     1
290
     0
176
     1
 40
1.0
176
     1
 40
1.0
176
     1
  0
VISUALSTYLE
  5
35
102
{ACAD_REACTORS
330
2A
102
}
330
2A
100
AcDbVisualStyle
  2
Dim
 70
    11
177
     3
291
     1
 70
    58
 90
        2
176
     1
 90
        2
176
     1
 90
        0
176
     1
 90
        0
176
     1
 40
0.6
176
     1
 40
30.0
176
     1
 62
     7
420
 16777215
176
     1
 90
        1
176
     1
 90
        4
176
     1
 62
     7
176
     1
 62
   257
176
     1
 90
        1
176
     1
 90
        1
176
     1
 40
1.0
176
     1
 90
        8
176
     1
 62
     7
176
     1
 40
1.0
176
     1
 90
        1
176
     1
 90
        6
176
     1
 90
        2
176
     1
 62
     7
176
     1
 90
        5
176
     1
 90
        0
176
     1
 90
        0
176
     1
290
     0
176
     1
 90
        1
176
     1
 40
-50.0
176
     1
 90
        0
176
     1
290
     0
176
     1
290
     1
176
     1
290
     1
176
     1
290
     0
176
     1
290
     0
176
     1
290
     0
176
     1
290
     0
176
     1
290
     0
176
     1
290
     0
176
     1
 90
       50
176
     1
 40
0.0
176
     1
 40
1.0
176
     1
 90
        0
176
     1
 62
    18
176
     1
 90
       50
176
     1
 90
        3
176
     1
 62
     5
420
      255
176
     1
290
     0
176
     1
 90
       50
176
     1
 90
       50
176
     1
 90
       50
176
     1
290
     0
176
     1
 90
       50
176
     1
 62
   256
176
     0
 40
1.0
176
     0
 90
        2
176
     1
  1
strokes_ogs.tif
176
     1
290
     0
176
     1
 40
1.0
176
     1
 40
1.0
176
     1
  0
VISUALSTYLE
  5
3D
102
{ACAD_REACTORS
330
2A
102
}
330
2A
100
AcDbVisualStyle
  2
EdgeColorOff
 70
    22
177
     3
291
     1
 70
    58
 90
        2
176
     0
 90
        2
176
     0
 90
        0
176
     0
 90
        0
176
     0
 40
0.6
176
     0
 40
30.0
176
     0
 62
     7
420
 16777215
176
     0
 90
        1
176
     0
 90
        4
176
     0
 62
     7
176
     0
 62
   257
176
     0
 90
        1
176
     0
 90
        1
176
     0
 40
1.0
176
     0
 90
        8
176
     2
 62
     7
176
     0
 40
1.0
176
     0
 90
        1
176
     0
 90
        6
176
     0
 90
        2
176
     0
 62
     7
176
     0
 90
        5
176
     0
 90
        0
176
     0
 90
        0
176
     0
290
     0
176
     0
 90
        1
176
     0
 40
0.0
176
     0
 90
        0
176
     0
290
     0
176
     0
290
     1
176
     0
290
     1
176
     0
290
     0
176
     0
290
     0
176
     0
290
     0
176
     0
290
     0
176
     0
290
     0
176
     0
290
     0
176
     0
 90
       50
176
     0
 40
0.0
176
     0
 40
1.0
176
     0
 90
        0
176
     0
 62
    18
176
     0
 90
       50
176
     0
 90
        3
176
     0
 62
     5
420
      255
176
     0
290
     0
176
     0
 90
       50
176
     0
 90
       50
176
     0
 90
       50
176
     0
290
     0
176
     0
 90
       50
176
     0
 62
   256
176
     0
 40
1.0
176
     0
 90
        2
176
     0
  1
strokes_ogs.tif
176
     0
290
     0
176
     0
 40
1.0
176
     0
 40
1.0
176
     0
  0
VISUALSTYLE
  5
39
102
{ACAD_REACTORS
330
2A
102
}
330
2A
100
AcDbVisualStyle
  2
Facepattern
 70
    15
177
     3
291
     1
 70
    58
 90
        2
176
     1
 90
        2
176
     1
 90
        0
176
     1
 90
        0
176
     1
 40
0.6
176
     1
 40
30.0
176
     1
 62
     7
420
 16777215
176
     1
 90
        1
176
     1
 90
        4
176
     1
 62
     7
176
     1
 62
   257
176
     1
 90
        1
176
     1
 90
        1
176
     1
 40
1.0
176
     1
 90
        8
176
     1
 62
     7
176
     1
 40
1.0
176
     1
 90
        1
176
     1
 90
        6
176
     1
 90
        2
176
     1
 62
     7
176
     1
 90
        5
176
     1
 90
        0
176
     1
 90
        0
176
     1
290
     0
176
     1
 90
        1
176
     1
 40
0.0
176
     1
 90
        0
176
     1
290
     0
176
     1
290
     1
176
     1
290
     1
176
     1
290
     0
176
     1
290
     0
176
     1
290
     0
176
     1
290
     0
176
     1
290
     0
176
     1
290
     0
176
     1
 90
       50
176
     1
 40
0.0
176
     1
 40
1.0
176
     1
 90
        0
176
     1
 62
    18
176
     1
 90
       50
176
     1
 90
        3
176
     1
 62
     5
420
      255
176
     1
290
     0
176
     1
 90
       50
176
     1
 90
       50
176
     1
 90
       50
176
     1
290
     0
176
     1
 90
       50
176
     1
 62
   256
176
     0
 40
1.0
176
     0
 90
        2
176
     1
  1
strokes_ogs.tif
176
     1
290
     0
176
     1
 40
1.0
176
     1
 40
1.0
176
     1
  0
VISUALSTYLE
  5
2B
102
{ACAD_REACTORS
330
2A
102
}
330
2A
100
AcDbVisualStyle
  2
Flat
 70
     0
177
     3
291
     1
 70
    58
 90
        2
176
     1
 90
        1
176
     1
 90
        1
176
     1
 90
        2
176
     1
 40
0.6
176
     1
 40
30.0
176
     1
 62
     7
420
 16777215
176
     1
 90
        0
176
     1
 90
        0
176
     1
 62
     7
176
     1
 62
   257
176
     1
 90
        1
176
     1
 90
        1
176
     1
 40
1.0
176
     1
 90
        8
176
     1
 62
     7
176
     1
 40
1.0
176
     1
 90
        1
176
     1
 90
        6
176
     1
 90
        2
176
     1
 62
     7
176
     1
 90
        5
176
     1
 90
        0
176
     1
 90
        0
176
     1
290
     0
176
     1
 90
       13
176
     1
 40
0.0
176
     1
 90
        0
176
     1
290
     0
176
     1
290
     1
176
     1
290
     1
176
     1
290
     0
176
     1
290
     0
176
     1
290
     0
176
     1
290
     0
176
     1
290
     0
176
     1
290
     0
176
     1
 90
       50
176
     1
 40
0.0
176
     1
 40
1.0
176
     1
 90
        0
176
     1
 62
    18
176
     1
 90
       50
176
     1
 90
        3
176
     1
 62
     5
420
      255
176
     1
290
     0
176
     1
 90
       50
176
     1
 90
       50
176
     1
 90
       50
176
     1
290
     0
176
     1
 90
       50
176
     1
 62
   256
176
     0
 40
1.0
176
     0
 90
        2
176
     1
  1
strokes_ogs.tif
176
     1
290
     0
176
     1
 40
1.0
176
     1
 40
1.0
176
     1
  0
VISUALSTYLE
  5
2C
102
{ACAD_REACTORS
330
2A
102
}
330
2A
100
AcDbVisualStyle
  2
FlatWithEdges
 70
     1
177
     3
291
     1
 70
    58
 90
        2
176
     1
 90
        1
176
     1
 90
        1
176
     1
 90
        2
176
     1
 40
0.6
176
     1
 40
30.0
176
     1
 62
     7
420
 16777215
176
     1
 90
        1
176
     1
 90
        0
176
     1
 62
     7
176
     1
 62
   257
176
     1
 90
        1
176
     1
 90
        1
176
     1
 40
1.0
176
     1
 90
        0
176
     1
 62
   257
176
     1
 40
1.0
176
     1
 90
        1
176
     1
 90
        6
176
     1
 90
        2
176
     1
 62
     7
176
     1
 90
        5
176
     1
 90
        0
176
     1
 90
        0
176
     1
290
     0
176
     1
 90
       13
176
     1
 40
0.0
176
     1
 90
        0
176
     1
290
     0
176
     1
290
     1
176
     1
290
     1
176
     1
290
     0
176
     1
290
     0
176
     1
290
     0
176
     1
290
     0
176
     1
290
     0
176
     1
290
     0
176
     1
 90
       50
176
     1
 40
0.0
176
     1
 40
1.0
176
     1
 90
        0
176
     1
 62
    18
176
     1
 90
       50
176
     1
 90
        3
176
     1
 62
     5
420
      255
176
     1
290
     0
176
     1
 90
       50
176
     1
 90
       50
176
     1
 90
       50
176
     1
290
     0
176
     1
 90
       50
176
     1
 62
   256
176
     0
 40
1.0
176
     0
 90
        2
176
     1
  1
strokes_ogs.tif
176
     1
290
     0
176
     1
 40
1.0
176
     1
 40
1.0
176
     1
  0
VISUALSTYLE
  5
2D
102
{ACAD_REACTORS
330
2A
102
}
330
2A
100
AcDbVisualStyle
  2
Gouraud
 70
     2
177
     3
291
     1
 70
    58
 90
        2
176
     1
 90
        2
176
     1
 90
        1
176
     1
 90
        2
176
     1
 40
0.6
176
     1
 40
30.0
176
     1
 62
     7
420
 16777215
176
     1
 90
        0
176
     1
 90
        0
176
     1
 62
     7
176
     1
 62
   257
176
     1
 90
        1
176
     1
 90
        1
176
     1
 40
1.0
176
     1
 90
        0
176
     1
 62
     7
176
     1
 40
1.0
176
     1
 90
        1
176
     1
 90
        6
176
     1
 90
        2
176
     1
 62
     7
176
     1
 90
        5
176
     1
 90
        0
176
     1
 90
        0
176
     1
290
     0
176
     1
 90
       13
176
     1
 40
0.0
176
     1
 90
        0
176
     1
290
     0
176
     1
290
     1
176
     1
290
     1
176
     1
290
     0
176
     1
290
     0
176
     1
290
     0
176
     1
290
     0
176
     1
290
     0
176
     1
290
     0
176
     1
 90
       50
176
     1
 40
0.0
176
     1
 40
1.0
176
     1
 90
        0
176
     1
 62
    18
176
     1
 90
       50
176
     1
 90
        3
176
     1
 62
     5
420
      255
176
     1
290
     0
176
     1
 90
       50
176
     1
 90
       50
176
     1
 90
       50
176
     1
290
     0
176
     1
 90
       50
176
     1
 62
   256
176
     0
 40
1.0
176
     0
 90
        2
176
     1
  1
strokes_ogs.tif
176
     1
290
     0
176
     1
 40
1.0
176
     1
 40
1.0
176
     1
  0
VISUALSTYLE
  5
2E
102
{ACAD_REACTORS
330
2A
102
}
330
2A
100
AcDbVisualStyle
  2
GouraudWithEdges
 70
     3
177
     3
291
     1
 70
    58
 90
        2
176
     1
 90
        2
176
     1
 90
        1
176
     1
 90
        2
176
     1
 40
0.6
176
     1
 40
30.0
176
     1
 62
     7
420
 16777215
176
     1
 90
        1
176
     1
 90
        0
176
     1
 62
     7
176
     1
 62
   257
176
     1
 90
        1
176
     1
 90
        1
176
     1
 40
1.0
176
     1
 90
        0
176
     1
 62
   257
176
     1
 40
1.0
176
     1
 90
        1
176
     1
 90
        6
176
     1
 90
        2
176
     1
 62
     7
176
     1
 90
        5
176
     1
 90
        0
176
     1
 90
        0
176
     1
290
     0
176
     1
 90
       13
176
     1
 40
0.0
176
     1
 90
        0
176
     1
290
     0
176
     1
290
     1
176
     1
290
     1
176
     1
290
     0
176
     1
290
     0
176
     1
290
     0
176
     1
290
     0
176
     1
290
     0
176
     1
290
     0
176
     1
 90
       50
176
     1
 40
0.0
176
     1
 40
1.0
176
     1
 90
        0
176
     1
 62
    18
176
     1
 90
       50
176
     1
 90
        3
176
     1
 62
     5
420
      255
176
     1
290
     0
176
     1
 90
       50
176
     1
 90
       50
176
     1
 90
       50
176
     1
290
     0
176
     1
 90
       50
176
     1
 62
   256
176
     0
 40
1.0
176
     0
 90
        2
176
     1
  1
strokes_ogs.tif
176
     1
290
     0
176
     1
 40
1.0
176
     1
 40
1.0
176
     1
  0
VISUALSTYLE
  5
31
102
{ACAD_REACTORS
330
2A
102
}
330
2A
100
AcDbVisualStyle
  2
Hidden
 70
     6
177
     3
291
     0
 70
    58
 90
        1
176
     1
 90
        2
176
     1
 90
        2
176
     1
 90
        0
176
     1
 40
0.6
176
     1
 40
30.0
176
     1
 62
     7
420
 16777215
176
     1
 90
        2
176
     1
 90
        2
176
     1
 62
     7
176
     1
 62
   257
176
     1
 90
        2
176
     1
 90
        1
176
     1
 40
40.0
176
     1
 90
        0
176
     1
 62
   257
176
     1
 40
1.0
176
     1
 90
        1
176
     1
 90
        6
176
     1
 90
        2
176
     1
 62
     7
176
     1
 90
        3
176
     1
 90
        0
176
     1
 90
        0
176
     1
290
     0
176
     1
 90
        1
176
     1
 40
0.0
176
     1
 90
        0
176
     1
290
     0
176
     1
290
     1
176
     1
290
     1
176
     1
290
     0
176
     1
290
     0
176
     1
290
     0
176
     1
290
     0
176
     1
290
     0
176
     1
290
     0
176
     1
 90
       50
176
     1
 40
0.0
176
     1
 40
1.0
176
     1
 90
        0
176
     1
 62
    18
176
     1
 90
       50
176
     1
 90
        3
176
     1
 62
     5
420
      255
176
     1
290
     0
176
     1
 90
       50
176
     1
 90
       50
176
     1
 90
       50
176
     1
290
     0
176
     1
 90
       50
176
     1
 62
   256
176
     0
 40
1.0
176
     0
 90
        2
176
     1
  1
strokes_ogs.tif
176
     1
290
     0
176
     1
 40
1.0
176
     1
 40
1.0
176
     1
  0
VISUALSTYLE
  5
3B
102
{ACAD_REACTORS
330
2A
102
}
330
2A
100
AcDbVisualStyle
  2
JitterOff
 70
    20
177
     3
291
     1
 70
    58
 90
        2
176
     0
 90
        2
176
     0
 90
        0
176
     0
 90
        0
176
     0
 40
0.6
176
     0
 40
30.0
176
     0
 62
     7
420
 16777215
176
     0
 90
        1
176
     0
 90
        4
176
     0
 62
     7
176
     0
 62
   257
176
     0
 90
        1
176
     0
 90
        1
176
     0
 40
1.0
176
     0
 90
       10
176
     2
 62
     7
176
     0
 40
1.0
176
     0
 90
        1
176
     0
 90
        6
176
     0
 90
        2
176
     0
 62
     7
176
     0
 90
        5
176
     0
 90
        0
176
     0
 90
        0
176
     0
290
     0
176
     0
 90
        1
176
     0
 40
0.0
176
     0
 90
        0
176
     0
290
     0
176
     0
290
     1
176
     0
290
     1
176
     0
290
     0
176
     0
290
     0
176
     0
290
     0
176
     0
290
     0
176
     0
290
     0
176
     0
290
     0
176
     0
 90
       50
176
     0
 40
0.0
176
     0
 40
1.0
176
     0
 90
        0
176
     0
 62
    18
176
     0
 90
       50
176
     0
 90
        3
176
     0
 62
     5
420
      255
176
     0
290
     0
176
     0
 90
       50
176
     0
 90
       50
176
     0
 90
       50
176
     0
290
     0
176
     0
 90
       50
176
     0
 62
   256
176
     0
 40
1.0
176
     0
 90
        2
176
     0
  1
strokes_ogs.tif
176
     0
290
     0
176
     0
 40
1.0
176
     0
 40
1.0
176
     0
  0
VISUALSTYLE
  5
38
102
{ACAD_REACTORS
330
2A
102
}
330
2A
100
AcDbVisualStyle
  2
Linepattern
 70
    14
177
     3
291
     1
 70
    58
 90
        2
176
     1
 90
        2
176
     1
 90
        0
176
     1
 90
        0
176
     1
 40
0.6
176
     1
 40
30.0
176
     1
 62
     7
420
 16777215
176
     1
 90
        1
176
     1
 90
        4
176
     1
 62
     7
176
     1
 62
   257
176
     1
 90
        7
176
     1
 90
        7
176
     1
 40
1.0
176
     1
 90
        8
176
     1
 62
     7
176
     1
 40
1.0
176
     1
 90
        1
176
     1
 90
        6
176
     1
 90
        2
176
     1
 62
     7
176
     1
 90
        5
176
     1
 90
        0
176
     1
 90
        0
176
     1
290
     0
176
     1
 90
        1
176
     1
 40
0.0
176
     1
 90
        0
176
     1
290
     0
176
     1
290
     1
176
     1
290
     1
176
     1
290
     0
176
     1
290
     0
176
     1
290
     0
176
     1
290
     0
176
     1
290
     0
176
     1
290
     0
176
     1
 90
       50
176
     1
 40
0.0
176
     1
 40
1.0
176
     1
 90
        0
176
     1
 62
    18
176
     1
 90
       50
176
     1
 90
        3
176
     1
 62
     5
420
      255
176
     1
290
     0
176
     1
 90
       50
176
     1
 90
       50
176
     1
 90
       50
176
     1
290
     0
176
     1
 90
       50
176
     1
 62
   256
176
     0
 40
1.0
176
     0
 90
        2
176
     1
  1
strokes_ogs.tif
176
     1
290
     0
176
     1
 40
1.0
176
     1
 40
1.0
176
     1
  0
VISUALSTYLE
  5
3C
102
{ACAD_REACTORS
330
2A
102
}
330
2A
100
AcDbVisualStyle
  2
OverhangOff
 70
    21
177
     3
291
     1
 70
    58
 90
        2
176
     0
 90
        2
176
     0
 90
        0
176
     0
 90
        0
176
     0
 40
0.6
176
     0
 40
30.0
176
     0
 62
     7
420
 16777215
176
     0
 90
        1
176
     0
 90
        4
176
     0
 62
     7
176
     0
 62
   257
176
     0
 90
        1
176
     0
 90
        1
176
     0
 40
1.0
176
     0
 90
        9
176
     2
 62
     7
176
     0
 40
1.0
176
     0
 90
        1
176
     0
 90
        6
176
     0
 90
        2
176
     0
 62
     7
176
     0
 90
        5
176
     0
 90
        0
176
     0
 90
        0
176
     0
290
     0
176
     0
 90
        1
176
     0
 40
0.0
176
     0
 90
        0
176
     0
290
     0
176
     0
290
     1
176
     0
290
     1
176
     0
290
     0
176
     0
290
     0
176
     0
290
     0
176
     0
290
     0
176
     0
290
     0
176
     0
290
     0
176
     0
 90
       50
176
     0
 40
0.0
176
     0
 40
1.0
176
     0
 90
        0
176
     0
 62
    18
176
     0
 90
       50
176
     0
 90
        3
176
     0
 62
     5
420
      255
176
     0
290
     0
176
     0
 90
       50
176
     0
 90
       50
176
     0
 90
       50
176
     0
290
     0
176
     0
 90
       50
176
     0
 62
   256
176
     0
 40
1.0
176
     0
 90
        2
176
     0
  1
strokes_ogs.tif
176
     0
290
     0
176
     0
 40
1.0
176
     0
 40
1.0
176
     0
  0
VISUALSTYLE
  5
33
102
{ACAD_REACTORS
330
2A
102
}
330
2A
100
AcDbVisualStyle
  2
Realistic
 70
     8
177
     3
291
     0
 70
    58
 90
        2
176
     1
 90
        3
176
     1
 90
        0
176
     1
 90
        2
176
     1
 40
0.6
176
     1
 40
30.0
176
     1
 62
     7
420
 16777215
176
     1
 90
        0
176
     1
 90
        0
176
     1
 62
     7
176
     1
 62
   257
176
     1
 90
        1
176
     1
 90
        1
176
     1
 40
1.0
176
     1
 90
        8
176
     1
 62
   257
176
     1
 40
1.0
176
     1
 90
        1
176
     1
 90
        6
176
     1
 90
        2
176
     1
 62
     7
176
     1
 90
        3
176
     1
 90
        0
176
     1
 90
        0
176
     1
290
     0
176
     1
 90
       13
176
     1
 40
0.0
176
     1
 90
        0
176
     1
290
     0
176
     1
290
     1
176
     1
290
     1
176
     1
290
     0
176
     1
290
     0
176
     1
290
     0
176
     1
290
     0
176
     1
290
     0
176
     1
290
     0
176
     1
 90
       50
176
     1
 40
0.0
176
     1
 40
1.0
176
     1
 90
        0
176
     1
 62
    18
176
     1
 90
       50
176
     1
 90
        3
176
     1
 62
     5
420
      255
176
     1
290
     0
176
     1
 90
       50
176
     1
 90
       50
176
     1
 90
       50
176
     1
290
     0
176
     1
 90
       50
176
     1
 62
   256
176
     0
 40
1.0
176
     0
 90
        2
176
     1
  1
strokes_ogs.tif
176
     1
290
     0
176
     1
 40
1.0
176
     1
 40
1.0
176
     1
  0
VISUALSTYLE
  5
42
102
{ACAD_REACTORS
330
2A
102
}
330
2A
100
AcDbVisualStyle
  2
Shaded
 70
    27
177
     3
291
     0
 70
    58
 90
        2
176
     1
 90
        2
176
     1
 90
        1
176
     1
 90
        2
176
     1
 40
0.6
176
     1
 40
30.0
176
     1
 62
     7
420
 16777215
176
     1
 90
        0
176
     1
 90
        4
176
     1
 62
     7
176
     1
 62
   257
176
     1
 90
        1
176
     1
 90
        1
176
     1
 40
1.0
176
     1
 90
        8
176
     1
 62
   257
176
     1
 40
1.0
176
     1
 90
        1
176
     1
 90
        6
176
     1
 90
        2
176
     1
 62
     8
420
  7895160
176
     1
 90
        3
176
     1
 90
        0
176
     1
 90
        0
176
     1
290
     0
176
     1
 90
        5
176
     1
 40
0.0
176
     1
 90
        0
176
     1
290
     0
176
     1
290
     1
176
     1
290
     1
176
     1
290
     0
176
     1
290
     0
176
     1
290
     0
176
     1
290
     0
176
     1
290
     0
176
     1
290
     0
176
     1
 90
       50
176
     1
 40
0.0
176
     1
 40
1.0
176
     1
 90
        0
176
     1
 62
    18
176
     1
 90
       50
176
     1
 90
        3
176
     1
 62
     5
420
      255
176
     1
290
     0
176
     1
 90
       50
176
     1
 90
       50
176
     1
 90
       50
176
     1
290
     0
176
     1
 90
       50
176
     1
 62
   256
176
     0
 40
1.0
176
     0
 90
        2
176
     1
  1
strokes_ogs.tif
176
     1
290
     0
176
     1
 40
1.0
176
     1
 40
1.0
176
     1
  0
VISUALSTYLE
  5
41
102
{ACAD_REACTORS
330
2A
102
}
330
2A
100
AcDbVisualStyle
  2
Shaded with edges
 70
    26
177
     3
291
     0
 70
    58
 90
        2
176
     1
 90
        2
176
     1
 90
        1
176
     1
 90
        2
176
     1
 40
0.6
176
     1
 40
30.0
176
     1
 62
     7
420
 16777215
176
     1
 90
        1
176
     1
 90
       10
176
     1
 62
     7
176
     1
 62
   257
176
     1
 90
        2
176
     1
 90
        1
176
     1
 40
1.0
176
     1
 90
        8
176
     1
 62
   257
176
     1
 40
1.0
176
     1
 90
        1
176
     1
 90
        6
176
     1
 90
        2
176
     1
 62
     7
176
     1
 90
        3
176
     1
 90
        0
176
     1
 90
        0
176
     1
290
     0
176
     1
 90
        5
176
     1
 40
0.0
176
     1
 90
        0
176
     1
290
     0
176
     1
290
     1
176
     1
290
     1
176
     1
290
     0
176
     1
290
     0
176
     1
290
     0
176
     1
290
     0
176
     1
290
     0
176
     1
290
     0
176
     1
 90
       50
176
     1
 40
0.0
176
     1
 40
1.0
176
     1
 90
        0
176
     1
 62
    18
176
     1
 90
       50
176
     1
 90
        3
176
     1
 62
     5
420
      255
176
     1
290
     0
176
     1
 90
       50
176
     1
 90
       50
176
     1
 90
       50
176
     1
290
     0
176
     1
 90
       50
176
     1
 62
   256
176
     0
 40
1.0
176
     0
 90
        2
176
     1
  1
strokes_ogs.tif
176
     1
290
     0
176
     1
 40
1.0
176
     1
 40
1.0
176
     1
  0
VISUALSTYLE
  5
3E
102
{ACAD_REACTORS
330
2A
102
}
330
2A
100
AcDbVisualStyle
  2
Shades of Gray
 70
    23
177
     3
291
     0
 70
    58
 90
        2
176
     1
 90
        2
176
     1
 90
        3
176
     1
 90
        0
176
     1
 40
0.6
176
     1
 40
30.0
176
     1
 62
     7
420
 16777215
176
     1
 90
        2
176
     1
 90
        2
176
     1
 62
     7
176
     1
 62
     7
176
     1
 90
        1
176
     1
 90
        1
176
     1
 40
40.0
176
     1
 90
        8
176
     1
 62
     7
176
     1
 40
1.0
176
     1
 90
        1
176
     1
 90
        6
176
     1
 90
        2
176
     1
 62
     7
176
     1
 90
        3
176
     1
 90
        0
176
     1
 90
        0
176
     1
290
     0
176
     1
 90
        1
176
     1
 40
0.0
176
     1
 90
        0
176
     1
290
     0
176
     1
290
     1
176
     1
290
     1
176
     1
290
     0
176
     1
290
     0
176
     1
290
     0
176
     1
290
     0
176
     1
290
     0
176
     1
290
     0
176
     1
 90
       50
176
     1
 40
0.0
176
     1
 40
1.0
176
     1
 90
        0
176
     1
 62
    18
176
     1
 90
       50
176
     1
 90
        3
176
     1
 62
     5
420
      255
176
     1
290
     0
176
     1
 90
       50
176
     1
 90
       50
176
     1
 90
       50
176
     1
290
     0
176
     1
 90
       50
176
     1
 62
   256
176
     0
 40
1.0
176
     0
 90
        2
176
     1
  1
strokes_ogs.tif
176
     1
290
     0
176
     1
 40
1.0
176
     1
 40
1.0
176
     1
  0
VISUALSTYLE
  5
3F
102
{ACAD_REACTORS
330
2A
102
}
330
2A
100
AcDbVisualStyle
  2
Sketchy
 70
    24
177
     3
291
     0
 70
    58
 90
        1
176
     1
 90
        2
176
     1
 90
        2
176
     1
 90
        0
176
     1
 40
0.6
176
     1
 40
30.0
176
     1
 62
     7
420
 16777215
176
     1
 90
        2
176
     1
 90
        2
176
     1
 62
     7
176
     1
 62
     7
176
     1
 90
        1
176
     1
 90
        1
176
     1
 40
40.0
176
     1
 90
       11
176
     1
 62
     7
176
     1
 40
1.0
176
     1
 90
        1
176
     1
 90
        6
176
     1
 90
        2
176
     1
 62
     7
176
     1
 90
        6
176
     1
 90
        0
176
     1
 90
        0
176
     1
290
     0
176
     1
 90
        1
176
     1
 40
0.0
176
     1
 90
        0
176
     1
290
     0
176
     1
290
     1
176
     1
290
     1
176
     1
290
     0
176
     1
290
     0
176
     1
290
     0
176
     1
290
     0
176
     1
290
     0
176
     1
290
     0
176
     1
 90
       50
176
     1
 40
0.0
176
     1
 40
1.0
176
     1
 90
        0
176
     1
 62
    18
176
     1
 90
       50
176
     1
 90
        3
176
     1
 62
     5
420
      255
176
     1
290
     0
176
     1
 90
       50
176
     1
 90
       50
176
     1
 90
       50
176
     1
290
     0
176
     1
 90
       50
176
     1
 62
   256
176
     0
 40
1.0
176
     0
 90
        2
176
     1
  1
strokes_ogs.tif
176
     1
290
     0
176
     1
 40
1.0
176
     1
 40
1.0
176
     1
  0
VISUALSTYLE
  5
37
102
{ACAD_REACTORS
330
2A
102
}
330
2A
100
AcDbVisualStyle
  2
Thicken
 70
    13
177
     3
291
     1
 70
    58
 90
        2
176
     1
 90
        2
176
     1
 90
        0
176
     1
 90
        0
176
     1
 40
0.6
176
     1
 40
30.0
176
     1
 62
     7
420
 16777215
176
     1
 90
        1
176
     1
 90
        4
176
     1
 62
     7
176
     1
 62
   257
176
     1
 90
        1
176
     1
 90
        1
176
     1
 40
1.0
176
     1
 90
       12
176
     1
 62
     7
176
     1
 40
1.0
176
     1
 90
        1
176
     1
 90
        6
176
     1
 90
        2
176
     1
 62
     7
176
     1
 90
        5
176
     1
 90
        0
176
     1
 90
        0
176
     1
290
     0
176
     1
 90
        1
176
     1
 40
0.0
176
     1
 90
        0
176
     1
290
     0
176
     1
290
     1
176
     1
290
     1
176
     1
290
     0
176
     1
290
     0
176
     1
290
     0
176
     1
290
     0
176
     1
290
     0
176
     1
290
     0
176
     1
 90
       50
176
     1
 40
0.0
176
     1
 40
1.0
176
     1
 90
        0
176
     1
 62
    18
176
     1
 90
       50
176
     1
 90
        3
176
     1
 62
     5
420
      255
176
     1
290
     0
176
     1
 90
       50
176
     1
 90
       50
176
     1
 90
       50
176
     1
290
     0
176
     1
 90
       50
176
     1
 62
   256
176
     0
 40
1.0
176
     0
 90
        2
176
     1
  1
strokes_ogs.tif
176
     1
290
     0
176
     1
 40
1.0
176
     1
 40
1.0
176
     1
  0
VISUALSTYLE
  5
30
102
{ACAD_REACTORS
330
2A
102
}
330
2A
100
AcDbVisualStyle
  2
Wireframe
 70
     5
177
     3
291
     0
 70
    58
 90
        0
176
     1
 90
        2
176
     1
 90
        0
176
     1
 90
        0
176
     1
 40
0.6
176
     1
 40
30.0
176
     1
 62
     7
420
 16777215
176
     1
 90
        1
176
     1
 90
        4
176
     1
 62
     7
176
     1
 62
   257
176
     1
 90
        1
176
     1
 90
        1
176
     1
 40
1.0
176
     1
 90
        0
176
     1
 62
   257
176
     1
 40
1.0
176
     1
 90
        1
176
     1
 90
        6
176
     1
 90
        2
176
     1
 62
     7
176
     1
 90
        3
176
     1
 90
        0
176
     1
 90
        0
176
     1
290
     0
176
     1
 90
        1
176
     1
 40
0.0
176
     1
 90
        0
176
     1
290
     0
176
     1
290
     1
176
     1
290
     1
176
     1
290
     0
176
     1
290
     0
176
     1
290
     0
176
     1
290
     0
176
     1
290
     0
176
     1
290
     0
176
     1
 90
       50
176
     1
 40
0.0
176
     1
 40
1.0
176
     1
 90
        0
176
     1
 62
    18
176
     1
 90
       50
176
     1
 90
        3
176
     1
 62
     5
420
      255
176
     1
290
     0
176
     1
 90
       50
176
     1
 90
       50
176
     1
 90
       50
176
     1
290
     0
176
     1
 90
       50
176
     1
 62
   256
176
     0
 40
1.0
176
     0
 90
        2
176
     1
  1
strokes_ogs.tif
176
     1
290
     0
176
     1
 40
1.0
176
     1
 40
1.0
176
     1
  0
VISUALSTYLE
  5
40
102
{ACAD_REACTORS
330
2A
102
}
330
2A
100
AcDbVisualStyle
  2
X-Ray
 70
    25
177
     3
291
     0
 70
    58
 90
        2
176
     1
 90
        2
176
     1
 90
        1
176
     1
 90
        1
176
     1
 40
0.5
176
     1
 40
30.0
176
     1
 62
     7
420
 16777215
176
     1
 90
        1
176
     1
 90
        0
176
     1
 62
     7
176
     1
 62
   257
176
     1
 90
        1
176
     1
 90
        1
176
     1
 40
1.0
176
     1
 90
        8
176
     1
 62
     7
176
     1
 40
1.0
176
     1
 90
        1
176
     1
 90
        6
176
     1
 90
        2
176
     1
 62
     7
176
     1
 90
        3
176
     1
 90
        0
176
     1
 90
        0
176
     1
290
     0
176
     1
 90
       13
176
     1
 40
0.0
176
     1
 90
        0
176
     1
290
     0
176
     1
290
     1
176
     1
290
     1
176
     1
290
     0
176
     1
290
     0
176
     1
290
     0
176
     1
290
     0
176
     1
290
     0
176
     1
290
     0
176
     1
 90
       50
176
     1
 40
0.0
176
     1
 40
1.0
176
     1
 90
        0
176
     1
 62
    18
176
     1
 90
       50
176
     1
 90
        3
176
     1
 62
     5
420
      255
176
     1
290
     0
176
     1
 90
       50
176
     1
 90
       50
176
     1
 90
       50
176
     1
290
     0
176
     1
 90
       50
176
     1
 62
   256
176
     0
 40
1.0
176
     0
 90
        2
176
     1
  1
strokes_ogs.tif
176
     1
290
     0
176
     1
 40
1.0
176
     1
 40
1.0
176
     1
  0
DICTIONARYVAR
  5
219
102
{ACAD_REACTORS
330
218
102
}
330
218
100
DictionaryVariables
280
     0
  1
1:1
  0
DICTIONARYVAR
  5
222
102
{ACAD_REACTORS
330
218
102
}
330
218
100
DictionaryVariables
280
     0
  1
3.500000
  0
DICTIONARYVAR
  5
223
102
{ACAD_REACTORS
330
218
102
}
330
218
100
DictionaryVariables
280
     0
  1
acadiso.lin
  0
DICTIONARYVAR
  5
21E
102
{ACAD_REACTORS
330
218
102
}
330
218
100
DictionaryVariables
280
     0
  1
STANDARD
  0
DICTIONARYVAR
  5
21D
102
{ACAD_REACTORS
330
218
102
}
330
218
100
DictionaryVariables
280
     0
  1
STANDARD
  0
DICTIONARYVAR
  5
235
102
{ACAD_REACTORS
330
218
102
}
330
218
100
DictionaryVariables
280
     0
  1
Metric50
  0
DICTIONARYVAR
  5
236
102
{ACAD_REACTORS
330
218
102
}
330
218
100
DictionaryVariables
280
     0
  1
Metric50
  0
DICTIONARYVAR
  5
221
102
{ACAD_REACTORS
330
218
102
}
330
218
100
DictionaryVariables
280
     0
  1
0
  0
DICTIONARY
  5
21A
330
6A
100
AcDbDictionary
280
     1
281
     1
  3
ACAD_ROUNDTRIP_2008_TABLESTYLE_CELLSTYLEMAP
360
237
  0
CELLSTYLEMAP
  5
237
102
{ACAD_REACTORS
330
21A
102
}
330
21A
100
AcDbCellStyleMap
 90
        3
300
CELLSTYLE
  1
TABLEFORMAT_BEGIN
 90
        5
170
     1
 91
        0
 92
    32768
 62
   257
 93
        1
300
CONTENTFORMAT
  1
CONTENTFORMAT_BEGIN
 90
        0
 91
        0
 92
        4
 93
        0
300

 40
0.0
140
1.0
 94
        5
 62
     0
340
11
144
6.0
309
CONTENTFORMAT_END
171
     1
301
MARGIN
  1
CELLMARGIN_BEGIN
 40
1.5
 40
1.5
 40
1.5
 40
1.5
 40
0.18
 40
0.18
309
CELLMARGIN_END
 94
        6
 95
        1
302
GRIDFORMAT
  1
GRIDFORMAT_BEGIN
 90
        0
 91
        1
 62
     0
 92
       -2
340
14
 93
        0
 40
0.045
309
GRIDFORMAT_END
 95
        2
302
GRIDFORMAT
  1
GRIDFORMAT_BEGIN
 90
        0
 91
        1
 62
     0
 92
       -2
340
14
 93
        0
 40
0.045
309
GRIDFORMAT_END
 95
        4
302
GRIDFORMAT
  1
GRIDFORMAT_BEGIN
 90
        0
 91
        1
 62
     0
 92
       -2
340
14
 93
        0
 40
0.045
309
GRIDFORMAT_END
 95
        8
302
GRIDFORMAT
  1
GRIDFORMAT_BEGIN
 90
        0
 91
        1
 62
     0
 92
       -2
340
14
 93
        0
 40
0.045
309
GRIDFORMAT_END
 95
       16
302
GRIDFORMAT
  1
GRIDFORMAT_BEGIN
 90
        0
 91
        1
 62
     0
 92
       -2
340
14
 93
        0
 40
0.045
309
GRIDFORMAT_END
 95
       32
302
GRIDFORMAT
  1
GRIDFORMAT_BEGIN
 90
        0
 91
        1
 62
     0
 92
       -2
340
14
 93
        0
 40
0.045
309
GRIDFORMAT_END
309
TABLEFORMAT_END
  1
CELLSTYLE_BEGIN
 90
        1
 91
        1
300
_TITLE
309
CELLSTYLE_END
300
CELLSTYLE
  1
TABLEFORMAT_BEGIN
 90
        5
170
     1
 91
        0
 92
        0
 62
   257
 93
        1
300
CONTENTFORMAT
  1
CONTENTFORMAT_BEGIN
 90
        0
 91
        0
 92
        4
 93
        0
300

 40
0.0
140
1.0
 94
        5
 62
     0
340
11
144
4.5
309
CONTENTFORMAT_END
171
     1
301
MARGIN
  1
CELLMARGIN_BEGIN
 40
1.5
 40
1.5
 40
1.5
 40
1.5
 40
0.18
 40
0.18
309
CELLMARGIN_END
 94
        6
 95
        1
302
GRIDFORMAT
  1
GRIDFORMAT_BEGIN
 90
        0
 91
        1
 62
     0
 92
       -2
340
14
 93
        0
 40
0.045
309
GRIDFORMAT_END
 95
        2
302
GRIDFORMAT
  1
GRIDFORMAT_BEGIN
 90
        0
 91
        1
 62
     0
 92
       -2
340
14
 93
        0
 40
0.045
309
GRIDFORMAT_END
 95
        4
302
GRIDFORMAT
  1
GRIDFORMAT_BEGIN
 90
        0
 91
        1
 62
     0
 92
       -2
340
14
 93
        0
 40
0.045
309
GRIDFORMAT_END
 95
        8
302
GRIDFORMAT
  1
GRIDFORMAT_BEGIN
 90
        0
 91
        1
 62
     0
 92
       -2
340
14
 93
        0
 40
0.045
309
GRIDFORMAT_END
 95
       16
302
GRIDFORMAT
  1
GRIDFORMAT_BEGIN
 90
        0
 91
        1
 62
     0
 92
       -2
340
14
 93
        0
 40
0.045
309
GRIDFORMAT_END
 95
       32
302
GRIDFORMAT
  1
GRIDFORMAT_BEGIN
 90
        0
 91
        1
 62
     0
 92
       -2
340
14
 93
        0
 40
0.045
309
GRIDFORMAT_END
309
TABLEFORMAT_END
  1
CELLSTYLE_BEGIN
 90
        2
 91
        1
300
_HEADER
309
CELLSTYLE_END
300
CELLSTYLE
  1
TABLEFORMAT_BEGIN
 90
        5
170
     1
 91
        0
 92
        0
 62
   257
 93
        1
300
CONTENTFORMAT
  1
CONTENTFORMAT_BEGIN
 90
        0
 91
        0
 92
        4
 93
        0
300

 40
0.0
140
1.0
 94
        2
 62
     0
340
11
144
4.5
309
CONTENTFORMAT_END
171
     1
301
MARGIN
  1
CELLMARGIN_BEGIN
 40
1.5
 40
1.5
 40
1.5
 40
1.5
 40
0.18
 40
0.18
309
CELLMARGIN_END
 94
        6
 95
        1
302
GRIDFORMAT
  1
GRIDFORMAT_BEGIN
 90
        0
 91
        1
 62
     0
 92
       -2
340
14
 93
        0
 40
0.045
309
GRIDFORMAT_END
 95
        2
302
GRIDFORMAT
  1
GRIDFORMAT_BEGIN
 90
        0
 91
        1
 62
     0
 92
       -2
340
14
 93
        0
 40
0.045
309
GRIDFORMAT_END
 95
        4
302
GRIDFORMAT
  1
GRIDFORMAT_BEGIN
 90
        0
 91
        1
 62
     0
 92
       -2
340
14
 93
        0
 40
0.045
309
GRIDFORMAT_END
 95
        8
302
GRIDFORMAT
  1
GRIDFORMAT_BEGIN
 90
        0
 91
        1
 62
     0
 92
       -2
340
14
 93
        0
 40
0.045
309
GRIDFORMAT_END
 95
       16
302
GRIDFORMAT
  1
GRIDFORMAT_BEGIN
 90
        0
 91
        1
 62
     0
 92
       -2
340
14
 93
        0
 40
0.045
309
GRIDFORMAT_END
 95
       32
302
GRIDFORMAT
  1
GRIDFORMAT_BEGIN
 90
        0
 91
        1
 62
     0
 92
       -2
340
14
 93
        0
 40
0.045
309
GRIDFORMAT_END
309
TABLEFORMAT_END
  1
CELLSTYLE_BEGIN
 90
        3
 91
        2
300
_DATA
309
CELLSTYLE_END
  0
ENDSEC
  0
EOF
