  0
SECTION
  2
HEADER
  9
$ACADVER
  1
AC1032
  9
$ACADMAINTVER
 90
       73
  9
$DWGCODEPAGE
  3
ANSI_1251
  9
$LASTSAVEDBY
  1
nohri
  9
$REQUIREDVERSIONS
160
                 0
  9
$INSBASE
 10
0.0
 20
0.0
 30
0.0
  9
$EXTMIN
 10
-50.23947858827614
 20
-80.21338754855404
 30
0.0
  9
$EXTMAX
 10
886.1066853688008
 20
157.3547092864887
 30
0.0
  9
$LIMMIN
 10
0.0
 20
0.0
  9
$LIMMAX
 10
420.0
 20
297.0
  9
$ORTHOMODE
 70
     0
  9
$REGENMODE
 70
     1
  9
$FILLMODE
 70
     1
  9
$QTEXTMODE
 70
     0
  9
$MIRRTEXT
 70
     1
  9
$LTSCALE
 40
1.0
  9
$ATTMODE
 70
     1
  9
$TEXTSIZE
 40
2.5
  9
$TRACEWID
 40
1.0
  9
$TEXTSTYLE
  7
Standard
  9
$CLAYER
  8
0
  9
$CELTYPE
  6
ByLayer
  9
$CECOLOR
 62
   256
  9
$CELTSCALE
 40
1.0
  9
$DISPSILH
 70
     0
  9
$DIMSCALE
 40
1.0
  9
$DIMASZ
 40
2.5
  9
$DIMEXO
 40
0.625
  9
$DIMDLI
 40
3.75
  9
$DIMRND
 40
0.0
  9
$DIMDLE
 40
0.0
  9
$DIMEXE
 40
1.25
  9
$DIMTP
 40
0.0
  9
$DIMTM
 40
0.0
  9
$DIMTXT
 40
2.5
  9
$DIMCEN
 40
2.5
  9
$DIMTSZ
 40
0.0
  9
$DIMTOL
 70
     0
  9
$DIMLIM
 70
     0
  9
$DIMTIH
 70
     0
  9
$DIMTOH
 70
     0
  9
$DIMSE1
 70
     0
  9
$DIMSE2
 70
     0
  9
$DIMTAD
 70
     1
  9
$DIMZIN
 70
     8
  9
$DIMBLK
  1

  9
$DIMASO
 70
     1
  9
$DIMSHO
 70
     1
  9
$DIMPOST
  1

  9
$DIMAPOST
  1

  9
$DIMALT
 70
     0
  9
$DIMALTD
 70
     3
  9
$DIMALTF
 40
0.03937007874016
  9
$DIMLFAC
 40
1.0
  9
$DIMTOFL
 70
     1
  9
$DIMTVP
 40
0.0
  9
$DIMTIX
 70
     0
  9
$DIMSOXD
 70
     0
  9
$DIMSAH
 70
     0
  9
$DIMBLK1
  1

  9
$DIMBLK2
  1

  9
$DIMSTYLE
  2
ISO-25
  9
$DIMCLRD
 70
     0
  9
$DIMCLRE
 70
     0
  9
$DIMCLRT
 70
     0
  9
$DIMTFAC
 40
1.0
  9
$DIMGAP
 40
0.625
  9
$DIMJUST
 70
     0
  9
$DIMSD1
 70
     0
  9
$DIMSD2
 70
     0
  9
$DIMTOLJ
 70
     0
  9
$DIMTZIN
 70
     8
  9
$DIMALTZ
 70
     0
  9
$DIMALTTZ
 70
     0
  9
$DIMUPT
 70
     0
  9
$DIMDEC
 70
     2
  9
$DIMTDEC
 70
     2
  9
$DIMALTU
 70
     2
  9
$DIMALTTD
 70
     3
  9
$DIMTXSTY
  7
Standard
  9
$DIMAUNIT
 70
     0
  9
$DIMADEC
 70
     0
  9
$DIMALTRND
 40
0.0
  9
$DIMAZIN
 70
     0
  9
$DIMDSEP
 70
    44
  9
$DIMATFIT
 70
     3
  9
$DIMFRAC
 70
     0
  9
$DIMLDRBLK
  1

  9
$DIMLUNIT
 70
     6
  9
$DIMLWD
 70
    -2
  9
$DIMLWE
 70
    -2
  9
$DIMTMOVE
 70
     0
  9
$DIMFXL
 40
1.0
  9
$DIMFXLON
 70
     0
  9
$DIMJOGANG
 40
0.7853981633974483
  9
$DIMTFILL
 70
     0
  9
$DIMTFILLCLR
 70
     0
  9
$DIMARCSYM
 70
     0
  9
$DIMLTYPE
  6

  9
$DIMLTEX1
  6

  9
$DIMLTEX2
  6

  9
$DIMTXTDIRECTION
 70
     0
  9
$LUNITS
 70
     2
  9
$LUPREC
 70
     4
  9
$SKETCHINC
 40
1.0
  9
$FILLETRAD
 40
10.0
  9
$AUNITS
 70
     0
  9
$AUPREC
 70
     0
  9
$MENU
  1
.
  9
$ELEVATION
 40
0.0
  9
$PELEVATION
 40
0.0
  9
$THICKNESS
 40
0.0
  9
$LIMCHECK
 70
     0
  9
$CHAMFERA
 40
0.0
  9
$CHAMFERB
 40
0.0
  9
$CHAMFERC
 40
0.0
  9
$CHAMFERD
 40
0.0
  9
$SKPOLY
 70
     0
  9
$TDCREATE
 40
2459539.092627315
  9
$TDUCREATE
 40
2459538.884297350
  9
$TDUPDATE
 40
2459539.190960648
  9
$TDUUPDATE
 40
2459538.982627315
  9
$TDINDWG
 40
0.0287037153
  9
$TDUSRTIMER
 40
0.0287037153
  9
$USRTIMER
 70
     1
  9
$ANGBASE
 50
0.0
  9
$ANGDIR
 70
     0
  9
$PDMODE
 70
     0
  9
$PDSIZE
 40
0.0
  9
$PLINEWID
 40
0.0
  9
$SPLFRAME
 70
     0
  9
$SPLINETYPE
 70
     6
  9
$SPLINESEGS
 70
     8
  9
$HANDSEED
  5
1F1
  9
$SURFTAB1
 70
     6
  9
$SURFTAB2
 70
     6
  9
$SURFTYPE
 70
     6
  9
$SURFU
 70
     6
  9
$SURFV
 70
     6
  9
$UCSBASE
  2

  9
$UCSNAME
  2

  9
$UCSORG
 10
0.0
 20
0.0
 30
0.0
  9
$UCSXDIR
 10
1.0
 20
0.0
 30
0.0
  9
$UCSYDIR
 10
0.0
 20
1.0
 30
0.0
  9
$UCSORTHOREF
  2

  9
$UCSORTHOVIEW
 70
     0
  9
$UCSORGTOP
 10
0.0
 20
0.0
 30
0.0
  9
$UCSORGBOTTOM
 10
0.0
 20
0.0
 30
0.0
  9
$UCSORGLEFT
 10
0.0
 20
0.0
 30
0.0
  9
$UCSORGRIGHT
 10
0.0
 20
0.0
 30
0.0
  9
$UCSORGFRONT
 10
0.0
 20
0.0
 30
0.0
  9
$UCSORGBACK
 10
0.0
 20
0.0
 30
0.0
  9
$PUCSBASE
  2

  9
$PUCSNAME
  2

  9
$PUCSORG
 10
0.0
 20
0.0
 30
0.0
  9
$PUCSXDIR
 10
1.0
 20
0.0
 30
0.0
  9
$PUCSYDIR
 10
0.0
 20
1.0
 30
0.0
  9
$PUCSORTHOREF
  2

  9
$PUCSORTHOVIEW
 70
     0
  9
$PUCSORGTOP
 10
0.0
 20
0.0
 30
0.0
  9
$PUCSORGBOTTOM
 10
0.0
 20
0.0
 30
0.0
  9
$PUCSORGLEFT
 10
0.0
 20
0.0
 30
0.0
  9
$PUCSORGRIGHT
 10
0.0
 20
0.0
 30
0.0
  9
$PUCSORGFRONT
 10
0.0
 20
0.0
 30
0.0
  9
$PUCSORGBACK
 10
0.0
 20
0.0
 30
0.0
  9
$USERI1
 70
     0
  9
$USERI2
 70
     0
  9
$USERI3
 70
     0
  9
$USERI4
 70
     0
  9
$USERI5
 70
     0
  9
$USERR1
 40
0.0
  9
$USERR2
 40
0.0
  9
$USERR3
 40
0.0
  9
$USERR4
 40
0.0
  9
$USERR5
 40
0.0
  9
$WORLDVIEW
 70
     1
  9
$SHADEDGE
 70
     3
  9
$SHADEDIF
 70
    70
  9
$TILEMODE
 70
     1
  9
$MAXACTVP
 70
    64
  9
$PINSBASE
 10
0.0
 20
0.0
 30
0.0
  9
$PLIMCHECK
 70
     0
  9
$PEXTMIN
 10
1.000000000000000E+20
 20
1.000000000000000E+20
 30
1.000000000000000E+20
  9
$PEXTMAX
 10
-1.000000000000000E+20
 20
-1.000000000000000E+20
 30
-1.000000000000000E+20
  9
$PLIMMIN
 10
0.0
 20
0.0
  9
$PLIMMAX
 10
420.0
 20
297.0
  9
$UNITMODE
 70
     0
  9
$VISRETAIN
 70
     1
  9
$PLINEGEN
 70
     0
  9
$PSLTSCALE
 70
     1
  9
$TREEDEPTH
 70
  3020
  9
$CMLSTYLE
  2
Standard
  9
$CMLJUST
 70
     0
  9
$CMLSCALE
 40
20.0
  9
$PROXYGRAPHICS
 70
     1
  9
$MEASUREMENT
 70
     1
  9
$CELWEIGHT
370
    -1
  9
$ENDCAPS
280
     0
  9
$JOINSTYLE
280
     0
  9
$LWDISPLAY
290
     0
  9
$INSUNITS
 70
     4
  9
$HYPERLINKBASE
  1

  9
$STYLESHEET
  1

  9
$XEDIT
290
     1
  9
$CEPSNTYPE
380
     0
  9
$PSTYLEMODE
290
     1
  9
$FINGERPRINTGUID
  2
{EE907B56-4AA1-428A-AF36-8C0C890A050A}
  9
$VERSIONGUID
  2
{2595A1C0-5A73-D243-8E3A-6EAFE553403C}
  9
$EXTNAMES
290
     1
  9
$PSVPSCALE
 40
0.0
  9
$OLESTARTUP
290
     0
  9
$SORTENTS
280
   127
  9
$INDEXCTL
280
     0
  9
$HIDETEXT
280
     1
  9
$XCLIPFRAME
280
     2
  9
$HALOGAP
280
     0
  9
$OBSCOLOR
 70
   257
  9
$OBSLTYPE
280
     0
  9
$INTERSECTIONDISPLAY
280
     0
  9
$INTERSECTIONCOLOR
 70
   257
  9
$DIMASSOC
280
     2
  9
$PROJECTNAME
  1

  9
$CAMERADISPLAY
290
     0
  9
$LENSLENGTH
 40
50.0
  9
$CAMERAHEIGHT
 40
0.0
  9
$STEPSPERSEC
 40
2.0
  9
$STEPSIZE
 40
6.0
  9
$3DDWFPREC
 40
2.0
  9
$PSOLWIDTH
 40
5.0
  9
$PSOLHEIGHT
 40
80.0
  9
$LOFTANG1
 40
1.570796326794897
  9
$LOFTANG2
 40
1.570796326794897
  9
$LOFTMAG1
 40
0.0
  9
$LOFTMAG2
 40
0.0
  9
$LOFTPARAM
 70
     7
  9
$LOFTNORMALS
280
     1
  9
$LATITUDE
 40
37.795
  9
$LONGITUDE
 40
-122.394
  9
$NORTHDIRECTION
 40
0.0
  9
$TIMEZONE
 70
 -8000
  9
$LIGHTGLYPHDISPLAY
280
     1
  9
$TILEMODELIGHTSYNCH
280
     1
  9
$CMATERIAL
347
44
  9
$SOLIDHIST
280
     0
  9
$SHOWHIST
280
     1
  9
$DWFFRAME
280
     2
  9
$DGNFRAME
280
     2
  9
$REALWORLDSCALE
290
     1
  9
$INTERFERECOLOR
 62
   256
  9
$INTERFEREOBJVS
345
33
  9
$INTERFEREVPVS
346
30
  9
$CSHADOW
280
     0
  9
$SHADOWPLANELOCATION
 40
0.0
  0
ENDSEC
  0
SECTION
  2
CLASSES
  0
CLASS
  1
ACDBDICTIONARYWDFLT
  2
AcDbDictionaryWithDefault
  3
ObjectDBX Classes
 90
        0
 91
        1
280
     0
281
     0
  0
CLASS
  1
VISUALSTYLE
  2
AcDbVisualStyle
  3
ObjectDBX Classes
 90
     4095
 91
       24
280
     0
281
     0
  0
CLASS
  1
MATERIAL
  2
AcDbMaterial
  3
ObjectDBX Classes
 90
     1153
 91
        3
280
     0
281
     0
  0
CLASS
  1
SCALE
  2
AcDbScale
  3
ObjectDBX Classes
 90
     1153
 91
       33
280
     0
281
     0
  0
CLASS
  1
TABLESTYLE
  2
AcDbTableStyle
  3
ObjectDBX Classes
 90
     4095
 91
        1
280
     0
281
     0
  0
CLASS
  1
MLEADERSTYLE
  2
AcDbMLeaderStyle
  3
ACDB_MLEADERSTYLE_CLASS
 90
     4095
 91
        1
280
     0
281
     0
  0
CLASS
  1
SUN
  2
AcDbSun
  3
SCENEOE
 90
     1153
 91
        1
280
     0
281
     0
  0
CLASS
  1
WIPEOUTVARIABLES
  2
AcDbWipeoutVariables
  3
"WipeOut|Product Desc:     WipeOut Dbx Application|Company:          Autodesk, Inc.|WEB Address:      www.autodesk.com"
 90
        0
 91
        1
280
     0
281
     0
  0
CLASS
  1
WIPEOUT
  2
AcDbWipeout
  3
WipeOut|Product Desc: Object Enabler for WipeOut entity | Company: Autodesk, Inc. | WEB Address: www.autodesk.com
 90
     2175
 91
        4
280
     0
281
     1
  0
CLASS
  1
DICTIONARYVAR
  2
AcDbDictionaryVar
  3
ObjectDBX Classes
 90
        0
 91
       12
280
     0
281
     0
  0
CLASS
  1
CELLSTYLEMAP
  2
AcDbCellStyleMap
  3
ObjectDBX Classes
 90
     1152
 91
        2
280
     0
281
     0
  0
CLASS
  1
ACDBSECTIONVIEWSTYLE
  2
AcDbSectionViewStyle
  3
ObjectDBX Classes
 90
     1025
 91
        1
280
     0
281
     0
  0
CLASS
  1
ACDBDETAILVIEWSTYLE
  2
AcDbDetailViewStyle
  3
ObjectDBX Classes
 90
     1025
 91
        1
280
     0
281
     0
  0
ENDSEC
  0
SECTION
  2
TABLES
  0
TABLE
  2
VPORT
  5
8
330
0
100
AcDbSymbolTable
 70
     1
  0
VPORT
  5
29
330
8
100
AcDbSymbolTableRecord
100
AcDbViewportTableRecord
  2
*Active
 70
     0
 10
0.0
 20
0.0
 11
1.0
 21
1.0
 12
333.8254108746491
 22
99.84056776290533
 13
0.0
 23
0.0
 14
10.0
 24
10.0
 15
10.0
 25
10.0
 16
0.0
 26
0.0
 36
1.0
 17
0.0
 27
0.0
 37
0.0
 40
674.6338294810079
 41
2.362175525339925
 42
50.0
 43
0.0
 44
0.0
 50
0.0
 51
0.0
 71
     0
 72
   100
 73
     1
 74
     3
 75
     0
 76
     0
 77
     0
 78
     0
281
     0
 65
     1
110
0.0
120
0.0
130
0.0
111
1.0
121
0.0
131
0.0
112
0.0
122
1.0
132
0.0
 79
     0
146
0.0
348
2F
 60
     3
 61
     5
292
     1
282
     1
141
0.0
142
0.0
 63
   250
361
6D
1001
ACAD_NAV_VCDISPLAY
1070
     3
  0
ENDTAB
  0
TABLE
  2
LTYPE
  5
5
330
0
100
AcDbSymbolTable
 70
     9
  0
LTYPE
  5
14
330
5
100
AcDbSymbolTableRecord
100
AcDbLinetypeTableRecord
  2
ByBlock
 70
     0
  3

 72
    65
 73
     0
 40
0.0
  0
LTYPE
  5
15
330
5
100
AcDbSymbolTableRecord
100
AcDbLinetypeTableRecord
  2
ByLayer
 70
     0
  3

 72
    65
 73
     0
 40
0.0
  0
LTYPE
  5
16
330
5
100
AcDbSymbolTableRecord
100
AcDbLinetypeTableRecord
  2
Continuous
 70
     0
  3
Solid line
 72
    65
 73
     0
 40
0.0
  0
LTYPE
  5
72
330
5
100
AcDbSymbolTableRecord
100
AcDbLinetypeTableRecord
  2
K5LT32768
 70
     0
  3

 72
    65
 73
     0
 40
0.0
  0
LTYPE
  5
74
330
5
100
AcDbSymbolTableRecord
100
AcDbLinetypeTableRecord
  2
K5LT32770
 70
     0
  3

 72
    65
 73
     0
 40
0.0
  0
LTYPE
  5
79
330
5
100
AcDbSymbolTableRecord
100
AcDbLinetypeTableRecord
  2
K5LT32771
 70
     0
  3

 72
    65
 73
     0
 40
0.0
  0
LTYPE
  5
7B
330
5
100
AcDbSymbolTableRecord
100
AcDbLinetypeTableRecord
  2
K5LT32772
 70
     0
  3

 72
    65
 73
     0
 40
0.0
  0
LTYPE
  5
81
330
5
100
AcDbSymbolTableRecord
100
AcDbLinetypeTableRecord
  2
K5LT_BASIC
 70
     0
  3

 72
    65
 73
     0
 40
0.0
  0
LTYPE
  5
89
330
5
100
AcDbSymbolTableRecord
100
AcDbLinetypeTableRecord
  2
K5LT32776
 70
     0
  3

 72
    65
 73
     0
 40
0.0
  0
LTYPE
  5
8F
330
5
100
AcDbSymbolTableRecord
100
AcDbLinetypeTableRecord
  2
K5LT32777
 70
     0
  3

 72
    65
 73
     0
 40
0.0
  0
LTYPE
  5
A3
330
5
100
AcDbSymbolTableRecord
100
AcDbLinetypeTableRecord
  2
K5LT_THIN
 70
     0
  3

 72
    65
 73
     0
 40
0.0
  0
ENDTAB
  0
TABLE
  2
LAYER
  5
2
330
0
100
AcDbSymbolTable
 70
     4
  0
LAYER
  5
10
330
2
100
AcDbSymbolTableRecord
100
AcDbLayerTableRecord
  2
0
 70
     0
 62
     7
  6
Continuous
370
    -3
390
F
347
46
348
0
  0
LAYER
  5
6F
330
2
100
AcDbSymbolTableRecord
100
AcDbLayerTableRecord
  2
0 (1)
 70
     0
 62
     7
  6
Continuous
370
    -3
390
F
347
46
348
0
  0
LAYER
  5
70
330
2
100
AcDbSymbolTableRecord
100
AcDbLayerTableRecord
  2
0 (1) (1)
 70
     0
 62
     7
  6
Continuous
370
    -3
390
F
347
46
348
0
  0
LAYER
  5
71
330
2
100
AcDbSymbolTableRecord
100
AcDbLayerTableRecord
  2
Системный слой
 70
     0
 62
     7
  6
Continuous
370
    -3
390
F
347
46
348
0
  0
ENDTAB
  0
TABLE
  2
STYLE
  5
3
330
0
100
AcDbSymbolTable
 70
     3
  0
STYLE
  5
11
330
3
100
AcDbSymbolTableRecord
100
AcDbTextStyleTableRecord
  2
Standard
 70
     0
 40
0.0
 41
1.0
 50
0.0
 71
     0
 42
2.5
  3
txt
  4

  0
STYLE
  5
10F
330
3
100
AcDbSymbolTableRecord
100
AcDbTextStyleTableRecord
  2
KDIMTEXTSTYLE
 70
     0
 40
5.0
 41
0.9599999999999999
 50
15.0
 71
     0
 42
2.5
  3
GOST_AU.SHX
  4

  0
STYLE
  5
117
330
3
100
AcDbSymbolTableRecord
100
AcDbTextStyleTableRecord
  2
KTEXTSTYLE
 70
     0
 40
5.0
 41
0.9599999999999999
 50
0.0
 71
     0
 42
2.5
  3
GOST_AU.SHX
  4

  0
ENDTAB
  0
TABLE
  2
VIEW
  5
6
330
0
100
AcDbSymbolTable
 70
     0
  0
ENDTAB
  0
TABLE
  2
UCS
  5
7
330
0
100
AcDbSymbolTable
 70
     0
  0
ENDTAB
  0
TABLE
  2
APPID
  5
9
330
0
100
AcDbSymbolTable
 70
     3
  0
APPID
  5
12
330
9
100
AcDbSymbolTableRecord
100
AcDbRegAppTableRecord
  2
ACAD
 70
     0
  0
APPID
  5
6E
330
9
100
AcDbSymbolTableRecord
100
AcDbRegAppTableRecord
  2
KOMPAS
 70
     0
  0
APPID
  5
1E1
330
9
100
AcDbSymbolTableRecord
100
AcDbRegAppTableRecord
  2
ACAD_NAV_VCDISPLAY
 70
     0
  0
ENDTAB
  0
TABLE
  2
DIMSTYLE
  5
A
330
0
100
AcDbSymbolTable
 70
     2
100
AcDbDimStyleTable
 71
     0
  0
DIMSTYLE
105
27
330
A
100
AcDbSymbolTableRecord
100
AcDbDimStyleTableRecord
  2
ISO-25
 70
     0
 41
2.5
 42
0.625
 43
3.75
 44
1.25
 73
     0
 74
     0
 77
     1
 78
     8
140
2.5
141
2.5
143
0.03937007874016
147
0.625
171
     3
172
     1
271
     2
272
     2
274
     3
278
    44
283
     0
284
     8
340
11
  0
DIMSTYLE
105
110
102
{ACAD_REACTORS
330
11F
330
156
330
190
330
1C7
102
}
330
A
100
AcDbSymbolTableRecord
100
AcDbDimStyleTableRecord
  2
KDIMSTYLE (1.00)
 70
     0
 41
1.0
 42
0.0
 43
2.0
 44
2.0
 46
1.0
 73
     0
 74
     0
 77
     1
 78
     8
140
5.0
141
0.0
143
0.0394
145
1.0
146
0.667
147
1.0
172
     1
173
     1
271
     2
272
     2
273
     8
274
     4
278
    44
340
10F
  0
ENDTAB
  0
TABLE
  2
BLOCK_RECORD
  5
1
330
0
100
AcDbSymbolTable
 70
    43
  0
BLOCK_RECORD
  5
1F
330
1
100
AcDbSymbolTableRecord
100
AcDbBlockTableRecord
  2
*Model_Space
340
22
 70
     0
280
     1
281
     0
  0
BLOCK_RECORD
  5
1B
330
1
100
AcDbSymbolTableRecord
100
AcDbBlockTableRecord
  2
*Paper_Space
340
1E
 70
     0
280
     1
281
     0
  0
BLOCK_RECORD
  5
23
330
1
100
AcDbSymbolTableRecord
100
AcDbBlockTableRecord
  2
*Paper_Space0
340
26
 70
     0
280
     1
281
     0
  0
BLOCK_RECORD
  5
84
330
1
100
AcDbSymbolTableRecord
100
AcDbBlockTableRecord
  2
U0
340
0
102
{BLKREFS
331
85
102
}
 70
     0
280
     1
281
     0
  0
BLOCK_RECORD
  5
86
330
1
100
AcDbSymbolTableRecord
100
AcDbBlockTableRecord
  2
U1
340
0
102
{BLKREFS
331
87
102
}
 70
     0
280
     1
281
     0
  0
BLOCK_RECORD
  5
93
330
1
100
AcDbSymbolTableRecord
100
AcDbBlockTableRecord
  2
U2
340
0
102
{BLKREFS
331
94
102
}
 70
     0
280
     1
281
     0
  0
BLOCK_RECORD
  5
9E
330
1
100
AcDbSymbolTableRecord
100
AcDbBlockTableRecord
  2
U3
340
0
102
{BLKREFS
331
9F
102
}
 70
     0
280
     1
281
     0
  0
BLOCK_RECORD
  5
A0
330
1
100
AcDbSymbolTableRecord
100
AcDbBlockTableRecord
  2
U4
340
0
102
{BLKREFS
331
A1
102
}
 70
     0
280
     1
281
     0
  0
BLOCK_RECORD
  5
A7
330
1
100
AcDbSymbolTableRecord
100
AcDbBlockTableRecord
  2
U5
340
0
102
{BLKREFS
331
A8
102
}
 70
     0
280
     1
281
     0
  0
BLOCK_RECORD
  5
AD
330
1
100
AcDbSymbolTableRecord
100
AcDbBlockTableRecord
  2
KDIMARROW_00
340
0
 70
     0
280
     1
281
     0
  0
BLOCK_RECORD
  5
B1
330
1
100
AcDbSymbolTableRecord
100
AcDbBlockTableRecord
  2
KDIMARROW_01
340
0
 70
     0
280
     1
281
     0
  0
BLOCK_RECORD
  5
BA
330
1
100
AcDbSymbolTableRecord
100
AcDbBlockTableRecord
  2
KDIMARROW_02
340
0
 70
     0
280
     1
281
     0
  0
BLOCK_RECORD
  5
C4
330
1
100
AcDbSymbolTableRecord
100
AcDbBlockTableRecord
  2
KDIMARROW_03
340
0
 70
     0
280
     1
281
     0
  0
BLOCK_RECORD
  5
CA
330
1
100
AcDbSymbolTableRecord
100
AcDbBlockTableRecord
  2
KDIMARROW_04
340
0
 70
     0
280
     1
281
     0
  0
BLOCK_RECORD
  5
D0
330
1
100
AcDbSymbolTableRecord
100
AcDbBlockTableRecord
  2
KDIMARROW_05
340
0
 70
     0
280
     1
281
     0
  0
BLOCK_RECORD
  5
D9
330
1
100
AcDbSymbolTableRecord
100
AcDbBlockTableRecord
  2
KDIMARROW_06
340
0
 70
     0
280
     1
281
     0
  0
BLOCK_RECORD
  5
E3
330
1
100
AcDbSymbolTableRecord
100
AcDbBlockTableRecord
  2
KDIMARROW_07
340
0
 70
     0
280
     1
281
     0
  0
BLOCK_RECORD
  5
E9
330
1
100
AcDbSymbolTableRecord
100
AcDbBlockTableRecord
  2
KDIMARROW_08
340
0
 70
     0
280
     1
281
     0
  0
BLOCK_RECORD
  5
F0
330
1
100
AcDbSymbolTableRecord
100
AcDbBlockTableRecord
  2
KDIMARROW_09
340
0
 70
     0
280
     1
281
     0
  0
BLOCK_RECORD
  5
F6
330
1
100
AcDbSymbolTableRecord
100
AcDbBlockTableRecord
  2
KDIMARROW_10
340
0
 70
     0
280
     1
281
     0
  0
BLOCK_RECORD
  5
FD
330
1
100
AcDbSymbolTableRecord
100
AcDbBlockTableRecord
  2
KDIMARROW_11
340
0
 70
     0
280
     1
281
     0
  0
BLOCK_RECORD
  5
103
330
1
100
AcDbSymbolTableRecord
100
AcDbBlockTableRecord
  2
KDIMARROW_12
340
0
 70
     0
280
     1
281
     0
  0
BLOCK_RECORD
  5
109
330
1
100
AcDbSymbolTableRecord
100
AcDbBlockTableRecord
  2
KDIMARROW_13
340
0
 70
     0
280
     1
281
     0
  0
BLOCK_RECORD
  5
111
330
1
100
AcDbSymbolTableRecord
100
AcDbBlockTableRecord
  2
D0
340
0
 70
     0
280
     1
281
     0
  0
BLOCK_RECORD
  5
124
330
1
100
AcDbSymbolTableRecord
100
AcDbBlockTableRecord
  2
U6
340
0
102
{BLKREFS
331
125
102
}
 70
     0
280
     1
281
     0
  0
BLOCK_RECORD
  5
126
330
1
100
AcDbSymbolTableRecord
100
AcDbBlockTableRecord
  2
U7
340
0
102
{BLKREFS
331
127
102
}
 70
     0
280
     1
281
     0
  0
BLOCK_RECORD
  5
131
330
1
100
AcDbSymbolTableRecord
100
AcDbBlockTableRecord
  2
U8
340
0
102
{BLKREFS
331
132
102
}
 70
     0
280
     1
281
     0
  0
BLOCK_RECORD
  5
13C
330
1
100
AcDbSymbolTableRecord
100
AcDbBlockTableRecord
  2
U9
340
0
102
{BLKREFS
331
13D
102
}
 70
     0
280
     1
281
     0
  0
BLOCK_RECORD
  5
13E
330
1
100
AcDbSymbolTableRecord
100
AcDbBlockTableRecord
  2
U10
340
0
102
{BLKREFS
331
13F
102
}
 70
     0
280
     1
281
     0
  0
BLOCK_RECORD
  5
144
330
1
100
AcDbSymbolTableRecord
100
AcDbBlockTableRecord
  2
U11
340
0
102
{BLKREFS
331
145
102
}
 70
     0
280
     1
281
     0
  0
BLOCK_RECORD
  5
14A
330
1
100
AcDbSymbolTableRecord
100
AcDbBlockTableRecord
  2
D1
340
0
 70
     0
280
     1
281
     0
  0
BLOCK_RECORD
  5
15B
330
1
100
AcDbSymbolTableRecord
100
AcDbBlockTableRecord
  2
U12
340
0
102
{BLKREFS
331
15C
102
}
 70
     0
280
     1
281
     0
  0
BLOCK_RECORD
  5
15D
330
1
100
AcDbSymbolTableRecord
100
AcDbBlockTableRecord
  2
U13
340
0
102
{BLKREFS
331
15E
102
}
 70
     0
280
     1
281
     0
  0
BLOCK_RECORD
  5
169
330
1
100
AcDbSymbolTableRecord
100
AcDbBlockTableRecord
  2
U14
340
0
102
{BLKREFS
331
16A
102
}
 70
     0
280
     1
281
     0
  0
BLOCK_RECORD
  5
175
330
1
100
AcDbSymbolTableRecord
100
AcDbBlockTableRecord
  2
U15
340
0
102
{BLKREFS
331
176
102
}
 70
     0
280
     1
281
     0
  0
BLOCK_RECORD
  5
177
330
1
100
AcDbSymbolTableRecord
100
AcDbBlockTableRecord
  2
U16
340
0
102
{BLKREFS
331
178
102
}
 70
     0
280
     1
281
     0
  0
BLOCK_RECORD
  5
17D
330
1
100
AcDbSymbolTableRecord
100
AcDbBlockTableRecord
  2
U17
340
0
102
{BLKREFS
331
17E
102
}
 70
     0
280
     1
281
     0
  0
BLOCK_RECORD
  5
183
330
1
100
AcDbSymbolTableRecord
100
AcDbBlockTableRecord
  2
D2
340
0
 70
     0
280
     1
281
     0
  0
BLOCK_RECORD
  5
195
330
1
100
AcDbSymbolTableRecord
100
AcDbBlockTableRecord
  2
U18
340
0
102
{BLKREFS
331
196
102
}
 70
     0
280
     1
281
     0
  0
BLOCK_RECORD
  5
197
330
1
100
AcDbSymbolTableRecord
100
AcDbBlockTableRecord
  2
U19
340
0
102
{BLKREFS
331
198
102
}
 70
     0
280
     1
281
     0
  0
BLOCK_RECORD
  5
1A2
330
1
100
AcDbSymbolTableRecord
100
AcDbBlockTableRecord
  2
U20
340
0
102
{BLKREFS
331
1A3
102
}
 70
     0
280
     1
281
     0
  0
BLOCK_RECORD
  5
1AD
330
1
100
AcDbSymbolTableRecord
100
AcDbBlockTableRecord
  2
U21
340
0
102
{BLKREFS
331
1AE
102
}
 70
     0
280
     1
281
     0
  0
BLOCK_RECORD
  5
1AF
330
1
100
AcDbSymbolTableRecord
100
AcDbBlockTableRecord
  2
U22
340
0
102
{BLKREFS
331
1B0
102
}
 70
     0
280
     1
281
     0
  0
BLOCK_RECORD
  5
1B5
330
1
100
AcDbSymbolTableRecord
100
AcDbBlockTableRecord
  2
U23
340
0
102
{BLKREFS
331
1B6
102
}
 70
     0
280
     1
281
     0
  0
BLOCK_RECORD
  5
1BB
330
1
100
AcDbSymbolTableRecord
100
AcDbBlockTableRecord
  2
D3
340
0
 70
     0
280
     1
281
     0
  0
ENDTAB
  0
ENDSEC
  0
SECTION
  2
BLOCKS
  0
BLOCK
  5
20
330
1F
100
AcDbEntity
  8
0
100
AcDbBlockBegin
  2
*Model_Space
 70
     0
 10
0.0
 20
0.0
 30
0.0
  3
*Model_Space
  1

  0
ENDBLK
  5
21
330
1F
100
AcDbEntity
  8
0
100
AcDbBlockEnd
  0
BLOCK
  5
1C
330
1B
100
AcDbEntity
 67
     1
  8
0
100
AcDbBlockBegin
  2
*Paper_Space
 70
     0
 10
0.0
 20
0.0
 30
0.0
  3
*Paper_Space
  1

  0
ENDBLK
  5
1D
330
1B
100
AcDbEntity
 67
     1
  8
0
100
AcDbBlockEnd
  0
BLOCK
  5
24
330
23
100
AcDbEntity
 67
     1
  8
0
100
AcDbBlockBegin
  2
*Paper_Space0
 70
     0
 10
0.0
 20
0.0
 30
0.0
  3
*Paper_Space0
  1

  0
ENDBLK
  5
25
330
23
100
AcDbEntity
 67
     1
  8
0
100
AcDbBlockEnd
  0
BLOCK
  5
122
330
84
100
AcDbEntity
  8
0
100
AcDbBlockBegin
  2
U0
 70
     0
 10
0.0
 20
0.0
 30
0.0
  3
U0
  1

  0
INSERT
  5
87
330
84
100
AcDbEntity
  8
0
100
AcDbBlockReference
  2
U1
 10
0.0
 20
0.0
 30
0.0
  0
INSERT
  5
94
330
84
100
AcDbEntity
  8
0
100
AcDbBlockReference
  2
U2
 10
0.0
 20
0.0
 30
0.0
  0
INSERT
  5
9F
330
84
100
AcDbEntity
  8
0
100
AcDbBlockReference
  2
U3
 10
0.0
 20
0.0
 30
0.0
  0
ENDBLK
  5
123
330
84
100
AcDbEntity
  8
0
100
AcDbBlockEnd
  0
BLOCK
  5
91
330
86
100
AcDbEntity
  8
0
100
AcDbBlockBegin
  2
U1
 70
     0
 10
0.0
 20
0.0
 30
0.0
  3
U1
  1

  0
HATCH
  5
88
330
86
100
AcDbEntity
  8
0
 62
     7
100
AcDbHatch
 10
0.0
 20
0.0
 30
0.0
210
0.0
220
0.0
230
1.0
  2
SOLID
 70
     1
 71
     0
 91
        1
 92
        1
 93
        4
 72
     1
 10
817.7479166666667
 20
148.002561817558
 11
822.7479166666665
 21
148.660824308784
 72
     1
 10
822.7479166666665
 20
148.660824308784
 11
817.7479166666667
 21
149.3190868000104
 72
     1
 10
817.7479166666667
 20
149.3190868000104
 11
818.2479166666665
 21
148.660824308784
 72
     1
 10
818.2479166666665
 20
148.660824308784
 11
817.7479166666667
 21
148.002561817558
 97
        0
 75
     0
 76
     1
 98
        0
450
        0
451
        0
460
0.0
461
0.0
452
        0
462
0.0
453
        0
470

  0
LINE
  5
8A
330
86
100
AcDbEntity
  8
0
  6
K5LT32776
 62
     7
370
    18
100
AcDbLine
 10
822.7479166666665
 20
148.660824308784
 30
0.0
 11
817.7479166666667
 21
148.002561817558
 31
0.0
  0
LINE
  5
8B
330
86
100
AcDbEntity
  8
0
  6
K5LT32776
 62
     7
370
    18
100
AcDbLine
 10
817.7479166666667
 20
148.002561817558
 30
0.0
 11
818.2479166666665
 21
148.660824308784
 31
0.0
  0
LINE
  5
8C
330
86
100
AcDbEntity
  8
0
  6
K5LT32776
 62
     7
370
    18
100
AcDbLine
 10
818.2479166666665
 20
148.660824308784
 30
0.0
 11
817.7479166666667
 21
149.3190868000104
 31
0.0
  0
LINE
  5
8D
330
86
100
AcDbEntity
  8
0
  6
K5LT32776
 62
     7
370
    18
100
AcDbLine
 10
817.7479166666667
 20
149.3190868000104
 30
0.0
 11
822.7479166666665
 21
148.660824308784
 31
0.0
  0
LINE
  5
8E
330
86
100
AcDbEntity
  8
0
  6
K5LT32776
 62
     7
370
    18
100
AcDbLine
 10
822.7479166666665
 20
148.660824308784
 30
0.0
 11
821.7479166666667
 21
148.660824308784
 31
0.0
  0
LINE
  5
90
330
86
100
AcDbEntity
  8
0
  6
K5LT32777
 62
     7
370
    18
100
AcDbLine
 10
822.7479166666665
 20
148.660824308784
 30
0.0
 11
820.7479166666667
 21
148.660824308784
 31
0.0
  0
ENDBLK
  5
92
330
86
100
AcDbEntity
  8
0
100
AcDbBlockEnd
  0
BLOCK
  5
9C
330
93
100
AcDbEntity
  8
0
100
AcDbBlockBegin
  2
U2
 70
     0
 10
0.0
 20
0.0
 30
0.0
  3
U2
  1

  0
HATCH
  5
95
330
93
100
AcDbEntity
  8
0
 62
     7
100
AcDbHatch
 10
0.0
 20
0.0
 30
0.0
210
0.0
220
0.0
230
1.0
  2
SOLID
 70
     1
 71
     0
 91
        1
 92
        1
 93
        4
 72
     1
 10
-27.38279627780844
 20
149.3190868000104
 11
-32.38279627780844
 21
148.660824308784
 72
     1
 10
-32.38279627780844
 20
148.660824308784
 11
-27.38279627780844
 21
148.002561817558
 72
     1
 10
-27.38279627780844
 20
148.002561817558
 11
-27.88279627780844
 21
148.660824308784
 72
     1
 10
-27.88279627780844
 20
148.660824308784
 11
-27.38279627780844
 21
149.3190868000104
 97
        0
 75
     0
 76
     1
 98
        0
450
        0
451
        0
460
0.0
461
0.0
452
        0
462
0.0
453
        0
470

  0
LINE
  5
96
330
93
100
AcDbEntity
  8
0
  6
K5LT32776
 62
     7
370
    18
100
AcDbLine
 10
-32.38279627780844
 20
148.660824308784
 30
0.0
 11
-27.38279627780844
 21
149.3190868000104
 31
0.0
  0
LINE
  5
97
330
93
100
AcDbEntity
  8
0
  6
K5LT32776
 62
     7
370
    18
100
AcDbLine
 10
-27.38279627780844
 20
149.3190868000104
 30
0.0
 11
-27.88279627780844
 21
148.660824308784
 31
0.0
  0
LINE
  5
98
330
93
100
AcDbEntity
  8
0
  6
K5LT32776
 62
     7
370
    18
100
AcDbLine
 10
-27.88279627780844
 20
148.660824308784
 30
0.0
 11
-27.38279627780844
 21
148.002561817558
 31
0.0
  0
LINE
  5
99
330
93
100
AcDbEntity
  8
0
  6
K5LT32776
 62
     7
370
    18
100
AcDbLine
 10
-27.38279627780844
 20
148.002561817558
 30
0.0
 11
-32.38279627780844
 21
148.660824308784
 31
0.0
  0
LINE
  5
9A
330
93
100
AcDbEntity
  8
0
  6
K5LT32776
 62
     7
370
    18
100
AcDbLine
 10
-32.38279627780844
 20
148.660824308784
 30
0.0
 11
-31.38279627780844
 21
148.660824308784
 31
0.0
  0
LINE
  5
9B
330
93
100
AcDbEntity
  8
0
  6
K5LT32777
 62
     7
370
    18
100
AcDbLine
 10
-32.38279627780844
 20
148.660824308784
 30
0.0
 11
-30.38279627780844
 21
148.660824308784
 31
0.0
  0
ENDBLK
  5
9D
330
93
100
AcDbEntity
  8
0
100
AcDbBlockEnd
  0
BLOCK
  5
120
330
9E
100
AcDbEntity
  8
0
100
AcDbBlockBegin
  2
U3
 70
     0
 10
0.0
 20
0.0
 30
0.0
  3
U3
  1

  0
INSERT
  5
A1
330
9E
100
AcDbEntity
  8
0
100
AcDbBlockReference
  2
U4
 10
0.0
 20
0.0
 30
0.0
  0
INSERT
  5
A8
330
9E
100
AcDbEntity
  8
0
100
AcDbBlockReference
  2
U5
 10
0.0
 20
0.0
 30
0.0
  0
DIMENSION
  5
11F
330
9E
100
AcDbEntity
  8
0
 62
     7
100
AcDbDimension
280
     0
  2
D0
 10
-32.38279627780844
 20
148.660824308784
 30
0.0
 11
802.6172037221916
 21
148.660824308784
 31
0.0
 70
   160
  1
\H2.5;\W0.925;\Q0;\H2.5;\W0.925;\Q0;\Q15;\W0.820;\H5.00;855,13\A1;{\H2.5;\W0.925;\Q0;\Q0;\W0.887;\H1.67;\S1,15^ 1,15;\Q0;\H2.50;\Q0;\W0.817;\H1.67; \Q15;\H3.25; \Q0;\W0.887;\H2.50;}
 71
     5
 42
-1.0
 73
     0
 74
     0
 75
     0
  3
KDIMSTYLE (1.00)
100
AcDbAlignedDimension
 13
822.7479166666665
 23
100.2541666666667
 33
0.0
 14
-32.38279627780844
 24
100.2541666666667
 34
0.0
100
AcDbRotatedDimension
1001
ACAD
1000
DSTYLE
1002
{
1070
   178
1070
     7
1070
   344
1005
AD
1070
   343
1005
AD
1070
    42
1040
0.0
1070
    76
1070
     0
1070
    75
1070
     0
1070
   283
1070
     1
1002
}
  0
ENDBLK
  5
121
330
9E
100
AcDbEntity
  8
0
100
AcDbBlockEnd
  0
BLOCK
  5
A5
330
A0
100
AcDbEntity
  8
0
100
AcDbBlockBegin
  2
U4
 70
     0
 10
0.0
 20
0.0
 30
0.0
  3
U4
  1

  0
LINE
  5
A2
330
A0
100
AcDbEntity
  8
0
  6
K5LT32777
 62
     7
370
    18
100
AcDbLine
 10
822.7479166666665
 20
148.660824308784
 30
0.0
 11
821.7479166666665
 21
148.660824308784
 31
0.0
  0
LINE
  5
A4
330
A0
100
AcDbEntity
  8
0
  6
K5LT_THIN
 62
     7
370
    18
100
AcDbLine
 10
822.7479166666665
 20
148.660824308784
 30
0.0
 11
820.7479166666665
 21
148.660824308784
 31
0.0
  0
ENDBLK
  5
A6
330
A0
100
AcDbEntity
  8
0
100
AcDbBlockEnd
  0
BLOCK
  5
AB
330
A7
100
AcDbEntity
  8
0
100
AcDbBlockBegin
  2
U5
 70
     0
 10
0.0
 20
0.0
 30
0.0
  3
U5
  1

  0
LINE
  5
A9
330
A7
100
AcDbEntity
  8
0
  6
K5LT32777
 62
     7
370
    18
100
AcDbLine
 10
-32.38279627780844
 20
148.660824308784
 30
0.0
 11
-31.38279627780844
 21
148.660824308784
 31
0.0
  0
LINE
  5
AA
330
A7
100
AcDbEntity
  8
0
  6
K5LT_THIN
 62
     7
370
    18
100
AcDbLine
 10
-32.38279627780844
 20
148.660824308784
 30
0.0
 11
-30.38279627780844
 21
148.660824308784
 31
0.0
  0
ENDBLK
  5
AC
330
A7
100
AcDbEntity
  8
0
100
AcDbBlockEnd
  0
BLOCK
  5
AF
330
AD
100
AcDbEntity
  8
0
100
AcDbBlockBegin
  2
KDIMARROW_00
 70
     0
 10
0.0
 20
0.0
 30
0.0
  3
KDIMARROW_00
  1

  0
LINE
  5
AE
330
AD
100
AcDbEntity
  8
Системный слой
  6
K5LT_THIN
 62
     0
370
    18
100
AcDbLine
 10
0.0
 20
0.0
 30
0.0
 11
-1.0
 21
0.0
 31
0.0
  0
ENDBLK
  5
B0
330
AD
100
AcDbEntity
  8
0
100
AcDbBlockEnd
  0
BLOCK
  5
B8
330
B1
100
AcDbEntity
  8
0
100
AcDbBlockBegin
  2
KDIMARROW_01
 70
     0
 10
0.0
 20
0.0
 30
0.0
  3
KDIMARROW_01
  1

  0
LINE
  5
B2
330
B1
100
AcDbEntity
  8
0
  6
K5LT_THIN
 62
     0
370
    18
100
AcDbLine
 10
0.0
 20
0.0
 30
0.0
 11
-5.0
 21
-0.6582624912261956
 31
0.0
  0
LINE
  5
B3
330
B1
100
AcDbEntity
  8
0
  6
K5LT_THIN
 62
     0
370
    18
100
AcDbLine
 10
-5.0
 20
-0.6582624912261956
 30
0.0
 11
-4.5
 21
0.0000000000000006
 31
0.0
  0
LINE
  5
B4
330
B1
100
AcDbEntity
  8
0
  6
K5LT_THIN
 62
     0
370
    18
100
AcDbLine
 10
-4.5
 20
0.0000000000000006
 30
0.0
 11
-5.0
 21
0.6582624912261971
 31
0.0
  0
LINE
  5
B5
330
B1
100
AcDbEntity
  8
0
  6
K5LT_THIN
 62
     0
370
    18
100
AcDbLine
 10
-5.0
 20
0.6582624912261971
 30
0.0
 11
0.0
 21
0.0
 31
0.0
  0
HATCH
  5
B6
330
B1
100
AcDbEntity
  8
0
 62
     0
100
AcDbHatch
 10
0.0
 20
0.0
 30
0.0
210
0.0
220
0.0
230
1.0
  2
SOLID
 70
     1
 71
     0
 91
        1
 92
        1
 93
        4
 72
     1
 10
-5.0
 20
-0.6582624912261956
 11
0.0
 21
0.0
 72
     1
 10
0.0
 20
0.0
 11
-5.0
 21
0.6582624912261971
 72
     1
 10
-5.0
 20
0.6582624912261971
 11
-4.5
 21
0.0000000000000006
 72
     1
 10
-4.5
 20
0.0000000000000006
 11
-5.0
 21
-0.6582624912261956
 97
        0
 75
     0
 76
     1
 98
        0
450
        0
451
        0
460
0.0
461
0.0
452
        0
462
0.0
453
        0
470

  0
LINE
  5
B7
330
B1
100
AcDbEntity
  8
Системный слой
  6
K5LT_THIN
 62
     0
370
    18
100
AcDbLine
 10
0.0
 20
0.0
 30
0.0
 11
-1.0
 21
0.0
 31
0.0
  0
ENDBLK
  5
B9
330
B1
100
AcDbEntity
  8
0
100
AcDbBlockEnd
  0
BLOCK
  5
C2
330
BA
100
AcDbEntity
  8
0
100
AcDbBlockBegin
  2
KDIMARROW_02
 70
     0
 10
0.0
 20
0.0
 30
0.0
  3
KDIMARROW_02
  1

  0
LINE
  5
BB
330
BA
100
AcDbEntity
  8
0
  6
K5LT_THIN
 62
     0
370
    18
100
AcDbLine
 10
0.0
 20
0.0
 30
0.0
 11
5.0
 21
-0.6582624912261971
 31
0.0
  0
LINE
  5
BC
330
BA
100
AcDbEntity
  8
0
  6
K5LT_THIN
 62
     0
370
    18
100
AcDbLine
 10
5.0
 20
-0.6582624912261971
 30
0.0
 11
4.5
 21
-0.0000000000000006
 31
0.0
  0
LINE
  5
BD
330
BA
100
AcDbEntity
  8
0
  6
K5LT_THIN
 62
     0
370
    18
100
AcDbLine
 10
4.5
 20
-0.0000000000000006
 30
0.0
 11
5.0
 21
0.6582624912261956
 31
0.0
  0
LINE
  5
BE
330
BA
100
AcDbEntity
  8
0
  6
K5LT_THIN
 62
     0
370
    18
100
AcDbLine
 10
5.0
 20
0.6582624912261956
 30
0.0
 11
0.0
 21
0.0
 31
0.0
  0
LINE
  5
BF
330
BA
100
AcDbEntity
  8
0
  6
K5LT_THIN
 62
     0
370
    18
100
AcDbLine
 10
0.0
 20
0.0
 30
0.0
 11
7.0
 21
-0.0000000000000009
 31
0.0
  0
HATCH
  5
C0
330
BA
100
AcDbEntity
  8
0
 62
     0
100
AcDbHatch
 10
0.0
 20
0.0
 30
0.0
210
0.0
220
0.0
230
1.0
  2
SOLID
 70
     1
 71
     0
 91
        1
 92
        1
 93
        4
 72
     1
 10
4.5
 20
-0.0000000000000006
 11
5.0
 21
0.6582624912261956
 72
     1
 10
5.0
 20
0.6582624912261956
 11
0.0
 21
0.0
 72
     1
 10
0.0
 20
0.0
 11
5.0
 21
-0.6582624912261971
 72
     1
 10
5.0
 20
-0.6582624912261971
 11
4.5
 21
-0.0000000000000006
 97
        0
 75
     0
 76
     1
 98
        0
450
        0
451
        0
460
0.0
461
0.0
452
        0
462
0.0
453
        0
470

  0
LINE
  5
C1
330
BA
100
AcDbEntity
  8
Системный слой
  6
K5LT_THIN
 62
     0
370
    18
100
AcDbLine
 10
0.0
 20
0.0
 30
0.0
 11
-1.0
 21
0.0
 31
0.0
  0
ENDBLK
  5
C3
330
BA
100
AcDbEntity
  8
0
100
AcDbBlockEnd
  0
BLOCK
  5
C8
330
C4
100
AcDbEntity
  8
0
100
AcDbBlockBegin
  2
KDIMARROW_03
 70
     0
 10
0.0
 20
0.0
 30
0.0
  3
KDIMARROW_03
  1

  0
LINE
  5
C5
330
C4
100
AcDbEntity
  8
0
  6
K5LT_THIN
 62
     0
370
    18
100
AcDbLine
 10
-1.060500025749206
 20
-1.060500025749205
 30
0.0
 11
1.060500025749206
 21
1.060500025749205
 31
0.0
  0
LINE
  5
C6
330
C4
100
AcDbEntity
  8
0
  6
K5LT_THIN
 62
     0
370
    18
100
AcDbLine
 10
0.0
 20
0.0
 30
0.0
 11
2.0
 21
-0.0000000000000002
 31
0.0
  0
LINE
  5
C7
330
C4
100
AcDbEntity
  8
Системный слой
  6
K5LT_THIN
 62
     0
370
    18
100
AcDbLine
 10
0.0
 20
0.0
 30
0.0
 11
-1.0
 21
0.0
 31
0.0
  0
ENDBLK
  5
C9
330
C4
100
AcDbEntity
  8
0
100
AcDbBlockEnd
  0
BLOCK
  5
CE
330
CA
100
AcDbEntity
  8
0
100
AcDbBlockBegin
  2
KDIMARROW_04
 70
     0
 10
0.0
 20
0.0
 30
0.0
  3
KDIMARROW_04
  1

  0
LWPOLYLINE
  5
CB
330
CA
100
AcDbEntity
  8
0
  6
K5LT_THIN
 62
     7
100
AcDbPolyline
 90
       15
 70
     0
 43
0.18
 10
-0.25
 20
0.0
 10
0.0
 20
-0.25
 10
0.25
 20
0.0
 10
0.0
 20
0.25
 10
-0.25
 20
0.0
 10
-0.5
 20
0.0000000000000001
 10
-0.0000000000000001
 20
-0.5
 10
0.5
 20
-0.0000000000000001
 10
0.0000000000000001
 20
0.5
 10
-0.5
 20
0.0000000000000001
 10
-0.75
 20
0.0000000000000001
 10
-0.0000000000000001
 20
-0.75
 10
0.75
 20
-0.0000000000000001
 10
0.0000000000000001
 20
0.75
 10
-0.75
 20
0.0000000000000001
  0
LWPOLYLINE
  5
CC
330
CA
100
AcDbEntity
  8
0
  6
K5LT_THIN
 62
     7
100
AcDbPolyline
 90
       15
 70
     0
 43
0.18
 10
-0.25
 20
0.0
 10
0.0
 20
-0.25
 10
0.25
 20
0.0
 10
0.0
 20
0.25
 10
-0.25
 20
0.0
 10
-0.5
 20
0.0000000000000001
 10
-0.0000000000000001
 20
-0.5
 10
0.5
 20
-0.0000000000000001
 10
0.0000000000000001
 20
0.5
 10
-0.5
 20
0.0000000000000001
 10
-0.75
 20
0.0000000000000001
 10
-0.0000000000000001
 20
-0.75
 10
0.75
 20
-0.0000000000000001
 10
0.0000000000000001
 20
0.75
 10
-0.75
 20
0.0000000000000001
  0
LINE
  5
CD
330
CA
100
AcDbEntity
  8
Системный слой
  6
K5LT_THIN
 62
     0
370
    18
100
AcDbLine
 10
0.0
 20
0.0
 30
0.0
 11
-1.0
 21
0.0
 31
0.0
  0
ENDBLK
  5
CF
330
CA
100
AcDbEntity
  8
0
100
AcDbBlockEnd
  0
BLOCK
  5
D7
330
D0
100
AcDbEntity
  8
0
100
AcDbBlockBegin
  2
KDIMARROW_05
 70
     0
 10
0.0
 20
0.0
 30
0.0
  3
KDIMARROW_05
  1

  0
LINE
  5
D1
330
D0
100
AcDbEntity
  8
0
  6
K5LT_THIN
 62
     0
370
    18
100
AcDbLine
 10
0.0
 20
0.0
 30
0.0
 11
-5.0
 21
-0.6582624912261956
 31
0.0
  0
LINE
  5
D2
330
D0
100
AcDbEntity
  8
0
  6
K5LT_THIN
 62
     0
370
    18
100
AcDbLine
 10
-5.0
 20
-0.6582624912261956
 30
0.0
 11
-5.0
 21
0.0000000000000006
 31
0.0
  0
LINE
  5
D3
330
D0
100
AcDbEntity
  8
0
  6
K5LT_THIN
 62
     0
370
    18
100
AcDbLine
 10
-5.0
 20
0.0000000000000006
 30
0.0
 11
-5.0
 21
0.6582624912261971
 31
0.0
  0
LINE
  5
D4
330
D0
100
AcDbEntity
  8
0
  6
K5LT_THIN
 62
     0
370
    18
100
AcDbLine
 10
-5.0
 20
0.6582624912261971
 30
0.0
 11
0.0
 21
0.0
 31
0.0
  0
HATCH
  5
D5
330
D0
100
AcDbEntity
  8
0
 62
     0
100
AcDbHatch
 10
0.0
 20
0.0
 30
0.0
210
0.0
220
0.0
230
1.0
  2
SOLID
 70
     1
 71
     0
 91
        1
 92
        1
 93
        4
 72
     1
 10
0.0
 20
0.0
 11
-5.0
 21
0.6582624912261971
 72
     1
 10
-5.0
 20
0.6582624912261971
 11
-5.0
 21
0.0000000000000007
 72
     1
 10
-5.0
 20
0.0000000000000006
 11
-5.0
 21
-0.6582624912261956
 72
     1
 10
-5.0
 20
-0.6582624912261956
 11
0.0
 21
0.0
 97
        0
 75
     0
 76
     1
 98
        0
450
        0
451
        0
460
0.0
461
0.0
452
        0
462
0.0
453
        0
470

  0
LINE
  5
D6
330
D0
100
AcDbEntity
  8
Системный слой
  6
K5LT_THIN
 62
     0
370
    18
100
AcDbLine
 10
0.0
 20
0.0
 30
0.0
 11
-1.0
 21
0.0
 31
0.0
  0
ENDBLK
  5
D8
330
D0
100
AcDbEntity
  8
0
100
AcDbBlockEnd
  0
BLOCK
  5
E1
330
D9
100
AcDbEntity
  8
0
100
AcDbBlockBegin
  2
KDIMARROW_06
 70
     0
 10
0.0
 20
0.0
 30
0.0
  3
KDIMARROW_06
  1

  0
LINE
  5
DA
330
D9
100
AcDbEntity
  8
0
  6
K5LT_THIN
 62
     0
370
    18
100
AcDbLine
 10
0.0
 20
0.0
 30
0.0
 11
5.0
 21
-0.6582624912261971
 31
0.0
  0
LINE
  5
DB
330
D9
100
AcDbEntity
  8
0
  6
K5LT_THIN
 62
     0
370
    18
100
AcDbLine
 10
5.0
 20
-0.6582624912261971
 30
0.0
 11
5.0
 21
-0.0000000000000006
 31
0.0
  0
LINE
  5
DC
330
D9
100
AcDbEntity
  8
0
  6
K5LT_THIN
 62
     0
370
    18
100
AcDbLine
 10
5.0
 20
-0.0000000000000006
 30
0.0
 11
5.0
 21
0.6582624912261956
 31
0.0
  0
LINE
  5
DD
330
D9
100
AcDbEntity
  8
0
  6
K5LT_THIN
 62
     0
370
    18
100
AcDbLine
 10
5.0
 20
0.6582624912261956
 30
0.0
 11
0.0
 21
0.0
 31
0.0
  0
LINE
  5
DE
330
D9
100
AcDbEntity
  8
0
  6
K5LT_THIN
 62
     0
370
    18
100
AcDbLine
 10
0.0
 20
0.0
 30
0.0
 11
7.0
 21
-0.0000000000000009
 31
0.0
  0
HATCH
  5
DF
330
D9
100
AcDbEntity
  8
0
 62
     0
100
AcDbHatch
 10
0.0
 20
0.0
 30
0.0
210
0.0
220
0.0
230
1.0
  2
SOLID
 70
     1
 71
     0
 91
        1
 92
        1
 93
        4
 72
     1
 10
5.0
 20
-0.0000000000000006
 11
5.0
 21
0.6582624912261956
 72
     1
 10
5.0
 20
0.6582624912261956
 11
0.0
 21
0.0
 72
     1
 10
0.0
 20
0.0
 11
5.0
 21
-0.6582624912261971
 72
     1
 10
5.0
 20
-0.6582624912261971
 11
5.0
 21
-0.0000000000000007
 97
        0
 75
     0
 76
     1
 98
        0
450
        0
451
        0
460
0.0
461
0.0
452
        0
462
0.0
453
        0
470

  0
LINE
  5
E0
330
D9
100
AcDbEntity
  8
Системный слой
  6
K5LT_THIN
 62
     0
370
    18
100
AcDbLine
 10
0.0
 20
0.0
 30
0.0
 11
-1.0
 21
0.0
 31
0.0
  0
ENDBLK
  5
E2
330
D9
100
AcDbEntity
  8
0
100
AcDbBlockEnd
  0
BLOCK
  5
E7
330
E3
100
AcDbEntity
  8
0
100
AcDbBlockBegin
  2
KDIMARROW_07
 70
     0
 10
0.0
 20
0.0
 30
0.0
  3
KDIMARROW_07
  1

  0
LINE
  5
E4
330
E3
100
AcDbEntity
  8
0
  6
K5LT_THIN
 62
     0
370
    18
100
AcDbLine
 10
0.0
 20
0.0
 30
0.0
 11
-5.0
 21
-0.6582624912261956
 31
0.0
  0
LINE
  5
E5
330
E3
100
AcDbEntity
  8
0
  6
K5LT_THIN
 62
     0
370
    18
100
AcDbLine
 10
0.0
 20
0.0
 30
0.0
 11
-5.0
 21
0.6582624912261971
 31
0.0
  0
LINE
  5
E6
330
E3
100
AcDbEntity
  8
Системный слой
  6
K5LT_THIN
 62
     0
370
    18
100
AcDbLine
 10
0.0
 20
0.0
 30
0.0
 11
-1.0
 21
0.0
 31
0.0
  0
ENDBLK
  5
E8
330
E3
100
AcDbEntity
  8
0
100
AcDbBlockEnd
  0
BLOCK
  5
EE
330
E9
100
AcDbEntity
  8
0
100
AcDbBlockBegin
  2
KDIMARROW_08
 70
     0
 10
0.0
 20
0.0
 30
0.0
  3
KDIMARROW_08
  1

  0
LINE
  5
EA
330
E9
100
AcDbEntity
  8
0
  6
K5LT_THIN
 62
     0
370
    18
100
AcDbLine
 10
0.0
 20
0.0
 30
0.0
 11
5.0
 21
-0.6582624912261971
 31
0.0
  0
LINE
  5
EB
330
E9
100
AcDbEntity
  8
0
  6
K5LT_THIN
 62
     0
370
    18
100
AcDbLine
 10
0.0
 20
0.0
 30
0.0
 11
5.0
 21
0.6582624912261956
 31
0.0
  0
LINE
  5
EC
330
E9
100
AcDbEntity
  8
0
  6
K5LT_THIN
 62
     0
370
    18
100
AcDbLine
 10
0.0
 20
0.0
 30
0.0
 11
7.0
 21
-0.0000000000000009
 31
0.0
  0
LINE
  5
ED
330
E9
100
AcDbEntity
  8
Системный слой
  6
K5LT_THIN
 62
     0
370
    18
100
AcDbLine
 10
0.0
 20
0.0
 30
0.0
 11
-1.0
 21
0.0
 31
0.0
  0
ENDBLK
  5
EF
330
E9
100
AcDbEntity
  8
0
100
AcDbBlockEnd
  0
BLOCK
  5
F4
330
F0
100
AcDbEntity
  8
0
100
AcDbBlockBegin
  2
KDIMARROW_09
 70
     0
 10
0.0
 20
0.0
 30
0.0
  3
KDIMARROW_09
  1

  0
LINE
  5
F1
330
F0
100
AcDbEntity
  8
0
  6
K5LT_THIN
 62
     0
370
    18
100
AcDbLine
 10
0.0
 20
0.0
 30
0.0
 11
-2.0
 21
-2.0
 31
0.0
  0
LINE
  5
F2
330
F0
100
AcDbEntity
  8
0
  6
K5LT_THIN
 62
     0
370
    18
100
AcDbLine
 10
0.0
 20
0.0
 30
0.0
 11
-2.0
 21
2.0
 31
0.0
  0
LINE
  5
F3
330
F0
100
AcDbEntity
  8
Системный слой
  6
K5LT_THIN
 62
     0
370
    18
100
AcDbLine
 10
0.0
 20
0.0
 30
0.0
 11
-1.0
 21
0.0
 31
0.0
  0
ENDBLK
  5
F5
330
F0
100
AcDbEntity
  8
0
100
AcDbBlockEnd
  0
BLOCK
  5
FB
330
F6
100
AcDbEntity
  8
0
100
AcDbBlockBegin
  2
KDIMARROW_10
 70
     0
 10
0.0
 20
0.0
 30
0.0
  3
KDIMARROW_10
  1

  0
LINE
  5
F7
330
F6
100
AcDbEntity
  8
0
  6
K5LT_THIN
 62
     0
370
    18
100
AcDbLine
 10
0.0
 20
0.0
 30
0.0
 11
2.0
 21
-2.0
 31
0.0
  0
LINE
  5
F8
330
F6
100
AcDbEntity
  8
0
  6
K5LT_THIN
 62
     0
370
    18
100
AcDbLine
 10
0.0
 20
0.0
 30
0.0
 11
2.0
 21
2.0
 31
0.0
  0
LINE
  5
F9
330
F6
100
AcDbEntity
  8
0
  6
K5LT_THIN
 62
     0
370
    18
100
AcDbLine
 10
0.0
 20
0.0
 30
0.0
 11
4.0
 21
-0.0000000000000005
 31
0.0
  0
LINE
  5
FA
330
F6
100
AcDbEntity
  8
Системный слой
  6
K5LT_THIN
 62
     0
370
    18
100
AcDbLine
 10
0.0
 20
0.0
 30
0.0
 11
-1.0
 21
0.0
 31
0.0
  0
ENDBLK
  5
FC
330
F6
100
AcDbEntity
  8
0
100
AcDbBlockEnd
  0
BLOCK
  5
101
330
FD
100
AcDbEntity
  8
0
100
AcDbBlockBegin
  2
KDIMARROW_11
 70
     0
 10
0.0
 20
0.0
 30
0.0
  3
KDIMARROW_11
  1

  0
CIRCLE
  5
FE
330
FD
100
AcDbEntity
  8
0
  6
K5LT_THIN
 62
     0
370
    18
100
AcDbCircle
 10
0.0
 20
0.0
 30
0.0
 40
2.5
  0
HATCH
  5
FF
330
FD
100
AcDbEntity
  8
0
 62
     0
100
AcDbHatch
 10
0.0
 20
0.0
 30
0.0
210
0.0
220
0.0
230
1.0
  2
SOLID
 70
     1
 71
     0
 91
        1
 92
        1
 93
        8
 72
     1
 10
-2.5
 20
0.0000000000000003
 11
-1.767766952966369
 21
-1.767766952966369
 72
     1
 10
-1.767766952966369
 20
-1.767766952966369
 11
-0.0000000000000004
 21
-2.5
 72
     1
 10
-0.0000000000000005
 20
-2.5
 11
1.767766952966368
 21
-1.767766952966369
 72
     1
 10
1.767766952966368
 20
-1.767766952966369
 11
2.5
 21
-0.0000000000000007
 72
     1
 10
2.5
 20
-0.0000000000000006
 11
1.767766952966369
 21
1.767766952966368
 72
     1
 10
1.767766952966369
 20
1.767766952966368
 11
0.0000000000000007
 21
2.5
 72
     1
 10
0.0000000000000008
 20
2.5
 11
-1.767766952966368
 21
1.767766952966369
 72
     1
 10
-1.767766952966368
 20
1.767766952966369
 11
-2.5
 21
0.0000000000000009
 97
        0
 75
     0
 76
     1
 98
        0
450
        0
451
        0
460
0.0
461
0.0
452
        0
462
0.0
453
        0
470

  0
LINE
  5
100
330
FD
100
AcDbEntity
  8
Системный слой
  6
K5LT_THIN
 62
     0
370
    18
100
AcDbLine
 10
0.0
 20
0.0
 30
0.0
 11
-1.0
 21
0.0
 31
0.0
  0
ENDBLK
  5
102
330
FD
100
AcDbEntity
  8
0
100
AcDbBlockEnd
  0
BLOCK
  5
107
330
103
100
AcDbEntity
  8
0
100
AcDbBlockBegin
  2
KDIMARROW_12
 70
     0
 10
0.0
 20
0.0
 30
0.0
  3
KDIMARROW_12
  1

  0
CIRCLE
  5
104
330
103
100
AcDbEntity
  8
0
  6
K5LT_THIN
 62
     0
370
    18
100
AcDbCircle
 10
0.0
 20
0.0
 30
0.0
 40
1.5
  0
HATCH
  5
105
330
103
100
AcDbEntity
  8
0
 62
     0
100
AcDbHatch
 10
0.0
 20
0.0
 30
0.0
210
0.0
220
0.0
230
1.0
  2
SOLID
 70
     1
 71
     0
 91
        1
 92
        1
 93
        8
 72
     1
 10
-1.5
 20
0.0000000000000002
 11
-1.060660171779821
 21
-1.06066017177982
 72
     1
 10
-1.060660171779821
 20
-1.06066017177982
 11
-0.0000000000000002
 21
-1.5
 72
     1
 10
-0.0000000000000003
 20
-1.5
 11
1.06066017177982
 21
-1.060660171779821
 72
     1
 10
1.06066017177982
 20
-1.060660171779821
 11
1.5
 21
-0.0000000000000004
 72
     1
 10
1.5
 20
-0.0000000000000004
 11
1.060660171779821
 21
1.06066017177982
 72
     1
 10
1.060660171779821
 20
1.06066017177982
 11
0.0000000000000004
 21
1.5
 72
     1
 10
0.0000000000000005
 20
1.5
 11
-1.06066017177982
 21
1.060660171779821
 72
     1
 10
-1.06066017177982
 20
1.060660171779821
 11
-1.5
 21
0.0000000000000004
 97
        0
 75
     0
 76
     1
 98
        0
450
        0
451
        0
460
0.0
461
0.0
452
        0
462
0.0
453
        0
470

  0
LINE
  5
106
330
103
100
AcDbEntity
  8
Системный слой
  6
K5LT_THIN
 62
     0
370
    18
100
AcDbLine
 10
0.0
 20
0.0
 30
0.0
 11
-1.0
 21
0.0
 31
0.0
  0
ENDBLK
  5
108
330
103
100
AcDbEntity
  8
0
100
AcDbBlockEnd
  0
BLOCK
  5
10D
330
109
100
AcDbEntity
  8
0
100
AcDbBlockBegin
  2
KDIMARROW_13
 70
     0
 10
0.0
 20
0.0
 30
0.0
  3
KDIMARROW_13
  1

  0
LINE
  5
10A
330
109
100
AcDbEntity
  8
0
  6
K5LT_THIN
 62
     0
370
    18
100
AcDbLine
 10
-1.060500025749205
 20
1.060500025749206
 30
0.0
 11
1.060500025749205
 21
-1.060500025749206
 31
0.0
  0
LINE
  5
10B
330
109
100
AcDbEntity
  8
0
  6
K5LT_THIN
 62
     0
370
    18
100
AcDbLine
 10
0.0
 20
0.0
 30
0.0
 11
2.0
 21
-0.0000000000000002
 31
0.0
  0
LINE
  5
10C
330
109
100
AcDbEntity
  8
Системный слой
  6
K5LT_THIN
 62
     0
370
    18
100
AcDbLine
 10
0.0
 20
0.0
 30
0.0
 11
-1.0
 21
0.0
 31
0.0
  0
ENDBLK
  5
10E
330
109
100
AcDbEntity
  8
0
100
AcDbBlockEnd
  0
BLOCK
  5
11D
330
111
100
AcDbEntity
  8
0
100
AcDbBlockBegin
  2
D0
 70
     0
 10
0.0
 20
0.0
 30
0.0
  3
D0
  1

  0
WIPEOUT
  5
113
330
111
100
AcDbEntity
  8
0
440
 16777216
160
               140
310
8C00000001000000840000000600000005000000414E81CA5ECD88402054C57825B562400000000000000000414E81CA5ECD8840205405330F7663400000000000000000D1107793C7568940205405330F7663400000000000000000D1107793C75689402054C57825B562400000000000000000414E81CA5ECD88402054C5
310
7825B562400000000000000000
100
AcDbWipeout
 90
        0
 10
793.6712846853262
 20
149.6608241895746
 30
0.0
 11
17.17616455078121
 21
0.0
 31
0.0
 12
0.0
 22
17.17616455078121
 32
0.0
 13
1.0
 23
1.0
340
0
 70
     7
280
     1
281
    50
282
    50
283
     0
290
     0
360
0
 71
     2
 91
        5
 14
-0.5
 24
0.5
 14
-0.5
 24
0.1490176153174421
 14
0.5
 24
0.1490176153174421
 14
0.5
 24
0.5
 14
-0.5
 24
0.5
  0
LINE
  5
114
330
111
100
AcDbEntity
  8
0
  6
K5LT_THIN
 62
     7
440
 16777216
370
    18
100
AcDbLine
 10
-32.38279627780844
 20
148.660824308784
 30
0.0
 11
822.7479166666665
 21
148.660824308784
 31
0.0
  0
LINE
  5
115
330
111
100
AcDbEntity
  8
0
  6
K5LT_THIN
 62
     7
440
 16777216
370
    18
100
AcDbLine
 10
-32.38279627780844
 20
100.2541666666667
 30
0.0
 11
-32.38279627780844
 21
150.660824308784
 31
0.0
  0
LINE
  5
116
330
111
100
AcDbEntity
  8
0
  6
K5LT_THIN
 62
     7
440
 16777216
370
    18
100
AcDbLine
 10
822.7479166666665
 20
100.2541666666667
 30
0.0
 11
822.7479166666665
 21
150.660824308784
 31
0.0
  0
MTEXT
  5
118
330
111
100
AcDbEntity
  8
0
 62
     7
440
 16777216
100
AcDbMText
 10
793.6712846853262
 20
155.9572825531077
 30
0.0
 40
2.5
 41
0.0
 46
0.0
 71
     1
 72
     1
  1
\H3.5;\W0.965;\Q15;\Q15;\W0.856;\H5.00;855,13
  7
KTEXTSTYLE
 73
     1
 44
1.0
  0
MTEXT
  5
119
330
111
100
AcDbEntity
  8
0
 62
     7
440
 16777216
100
AcDbMText
 10
806.2733688451773
 20
154.5561019281459
 30
0.0
 40
2.5
 41
0.0
 46
0.0
 71
     1
 72
     1
  1
\H3.5;\W0.965;\Q15;\Q0;\W0.852;\H1.67;1,15
  7
KTEXTSTYLE
 73
     1
 44
1.0
  0
MTEXT
  5
11A
330
111
100
AcDbEntity
  8
0
 62
     7
440
 16777216
100
AcDbMText
 10
806.2733688451773
 20
152.0465916494441
 30
0.0
 40
2.5
 41
0.0
 46
0.0
 71
     1
 72
     1
  1
\H3.5;\W0.965;\Q15;\Q0;\W0.852;\H1.67;1,15
  7
KTEXTSTYLE
 73
     1
 44
1.0
  0
MTEXT
  5
11B
330
111
100
AcDbEntity
  8
0
 62
     7
440
 16777216
100
AcDbMText
 10
808.6889934637078
 20
152.6272825101924
 30
0.0
 40
2.5
 41
0.0
 46
0.0
 71
     1
 72
     1
  1
\H3.5;\W0.965;\Q15;\Q0;\W0.852;\H1.67; 
  7
KTEXTSTYLE
 73
     1
 44
1.0
  0
MTEXT
  5
11C
330
111
100
AcDbEntity
  8
0
 62
     7
440
 16777216
100
AcDbMText
 10
809.262257585717
 20
154.2072825531077
 30
0.0
 40
2.5
 41
0.0
 46
0.0
 71
     1
 72
     1
  1
\H3.5;\W0.965;\Q15;\Q15;\W0.852;\H3.25; 
  7
KTEXTSTYLE
 73
     1
 44
1.0
  0
ENDBLK
  5
11E
330
111
100
AcDbEntity
  8
0
100
AcDbBlockEnd
  0
BLOCK
  5
159
330
124
100
AcDbEntity
  8
0
100
AcDbBlockBegin
  2
U6
 70
     0
 10
0.0
 20
0.0
 30
0.0
  3
U6
  1

  0
INSERT
  5
127
330
124
100
AcDbEntity
  8
0
100
AcDbBlockReference
  2
U7
 10
0.0
 20
0.0
 30
0.0
  0
INSERT
  5
132
330
124
100
AcDbEntity
  8
0
100
AcDbBlockReference
  2
U8
 10
0.0
 20
0.0
 30
0.0
  0
INSERT
  5
13D
330
124
100
AcDbEntity
  8
0
100
AcDbBlockReference
  2
U9
 10
0.0
 20
0.0
 30
0.0
  0
ENDBLK
  5
15A
330
124
100
AcDbEntity
  8
0
100
AcDbBlockEnd
  0
BLOCK
  5
12F
330
126
100
AcDbEntity
  8
0
100
AcDbBlockBegin
  2
U7
 70
     0
 10
0.0
 20
0.0
 30
0.0
  3
U7
  1

  0
HATCH
  5
128
330
126
100
AcDbEntity
  8
0
 62
     7
100
AcDbHatch
 10
0.0
 20
0.0
 30
0.0
210
0.0
220
0.0
230
1.0
  2
SOLID
 70
     1
 71
     0
 91
        1
 92
        1
 93
        4
 72
     1
 10
762.2479166666667
 20
-78.87165003978026
 11
767.2479166666667
 21
-78.21338754855405
 72
     1
 10
767.2479166666667
 20
-78.21338754855405
 11
762.2479166666667
 21
-77.55512505732787
 72
     1
 10
762.2479166666667
 20
-77.55512505732787
 11
762.7479166666667
 21
-78.21338754855405
 72
     1
 10
762.7479166666667
 20
-78.21338754855405
 11
762.2479166666667
 21
-78.87165003978026
 97
        0
 75
     0
 76
     1
 98
        0
450
        0
451
        0
460
0.0
461
0.0
452
        0
462
0.0
453
        0
470

  0
LINE
  5
129
330
126
100
AcDbEntity
  8
0
  6
K5LT32776
 62
     7
370
    18
100
AcDbLine
 10
767.2479166666667
 20
-78.21338754855405
 30
0.0
 11
762.2479166666667
 21
-78.87165003978026
 31
0.0
  0
LINE
  5
12A
330
126
100
AcDbEntity
  8
0
  6
K5LT32776
 62
     7
370
    18
100
AcDbLine
 10
762.2479166666667
 20
-78.87165003978026
 30
0.0
 11
762.7479166666667
 21
-78.21338754855405
 31
0.0
  0
LINE
  5
12B
330
126
100
AcDbEntity
  8
0
  6
K5LT32776
 62
     7
370
    18
100
AcDbLine
 10
762.7479166666667
 20
-78.21338754855405
 30
0.0
 11
762.2479166666667
 21
-77.55512505732787
 31
0.0
  0
LINE
  5
12C
330
126
100
AcDbEntity
  8
0
  6
K5LT32776
 62
     7
370
    18
100
AcDbLine
 10
762.2479166666667
 20
-77.55512505732787
 30
0.0
 11
767.2479166666667
 21
-78.21338754855405
 31
0.0
  0
LINE
  5
12D
330
126
100
AcDbEntity
  8
0
  6
K5LT32776
 62
     7
370
    18
100
AcDbLine
 10
767.2479166666667
 20
-78.21338754855405
 30
0.0
 11
766.2479166666667
 21
-78.21338754855405
 31
0.0
  0
LINE
  5
12E
330
126
100
AcDbEntity
  8
0
  6
K5LT32777
 62
     7
370
    18
100
AcDbLine
 10
767.2479166666667
 20
-78.21338754855405
 30
0.0
 11
765.2479166666665
 21
-78.21338754855405
 31
0.0
  0
ENDBLK
  5
130
330
126
100
AcDbEntity
  8
0
100
AcDbBlockEnd
  0
BLOCK
  5
13A
330
131
100
AcDbEntity
  8
0
100
AcDbBlockBegin
  2
U8
 70
     0
 10
0.0
 20
0.0
 30
0.0
  3
U8
  1

  0
HATCH
  5
133
330
131
100
AcDbEntity
  8
0
 62
     7
100
AcDbHatch
 10
0.0
 20
0.0
 30
0.0
210
0.0
220
0.0
230
1.0
  2
SOLID
 70
     1
 71
     0
 91
        1
 92
        1
 93
        4
 72
     1
 10
28.11720372219156
 20
-77.55512505732787
 11
23.11720372219156
 21
-78.21338754855405
 72
     1
 10
23.11720372219156
 20
-78.21338754855405
 11
28.11720372219156
 21
-78.87165003978026
 72
     1
 10
28.11720372219156
 20
-78.87165003978026
 11
27.61720372219156
 21
-78.21338754855405
 72
     1
 10
27.61720372219156
 20
-78.21338754855405
 11
28.11720372219156
 21
-77.55512505732787
 97
        0
 75
     0
 76
     1
 98
        0
450
        0
451
        0
460
0.0
461
0.0
452
        0
462
0.0
453
        0
470

  0
LINE
  5
134
330
131
100
AcDbEntity
  8
0
  6
K5LT32776
 62
     7
370
    18
100
AcDbLine
 10
23.11720372219156
 20
-78.21338754855405
 30
0.0
 11
28.11720372219156
 21
-77.55512505732787
 31
0.0
  0
LINE
  5
135
330
131
100
AcDbEntity
  8
0
  6
K5LT32776
 62
     7
370
    18
100
AcDbLine
 10
28.11720372219156
 20
-77.55512505732787
 30
0.0
 11
27.61720372219156
 21
-78.21338754855405
 31
0.0
  0
LINE
  5
136
330
131
100
AcDbEntity
  8
0
  6
K5LT32776
 62
     7
370
    18
100
AcDbLine
 10
27.61720372219156
 20
-78.21338754855405
 30
0.0
 11
28.11720372219156
 21
-78.87165003978026
 31
0.0
  0
LINE
  5
137
330
131
100
AcDbEntity
  8
0
  6
K5LT32776
 62
     7
370
    18
100
AcDbLine
 10
28.11720372219156
 20
-78.87165003978026
 30
0.0
 11
23.11720372219156
 21
-78.21338754855405
 31
0.0
  0
LINE
  5
138
330
131
100
AcDbEntity
  8
0
  6
K5LT32776
 62
     7
370
    18
100
AcDbLine
 10
23.11720372219156
 20
-78.21338754855405
 30
0.0
 11
24.11720372219156
 21
-78.21338754855405
 31
0.0
  0
LINE
  5
139
330
131
100
AcDbEntity
  8
0
  6
K5LT32777
 62
     7
370
    18
100
AcDbLine
 10
23.11720372219156
 20
-78.21338754855405
 30
0.0
 11
25.11720372219156
 21
-78.21338754855405
 31
0.0
  0
ENDBLK
  5
13B
330
131
100
AcDbEntity
  8
0
100
AcDbBlockEnd
  0
BLOCK
  5
157
330
13C
100
AcDbEntity
  8
0
100
AcDbBlockBegin
  2
U9
 70
     0
 10
0.0
 20
0.0
 30
0.0
  3
U9
  1

  0
INSERT
  5
13F
330
13C
100
AcDbEntity
  8
0
100
AcDbBlockReference
  2
U10
 10
0.0
 20
0.0
 30
0.0
  0
INSERT
  5
145
330
13C
100
AcDbEntity
  8
0
100
AcDbBlockReference
  2
U11
 10
0.0
 20
0.0
 30
0.0
  0
DIMENSION
  5
156
330
13C
100
AcDbEntity
  8
0
 62
     7
100
AcDbDimension
280
     0
  2
D1
 10
23.11720372219156
 20
-78.21338754855405
 30
0.0
 11
750.1172037221916
 21
-78.21338754855405
 31
0.0
 70
   160
  1
\H2.5;\W0.925;\Q0;\H2.5;\W0.925;\Q0;\Q15;\W0.820;\H5.00;744,13\A1;{\H2.5;\W0.925;\Q0;\Q0;\W0.887;\H1.67;\S1^ 1;\Q0;\H2.50;\Q0;\W0.817;\H1.67; \Q15;\H3.25; \Q0;\W0.887;\H2.50;}
 71
     5
 42
-1.0
 73
     0
 74
     0
 75
     0
  3
KDIMSTYLE (1.00)
100
AcDbAlignedDimension
 13
767.2479166666667
 23
-40.74583333333333
 33
0.0
 14
23.11720372219156
 24
-40.74583333333333
 34
0.0
100
AcDbRotatedDimension
1001
ACAD
1000
DSTYLE
1002
{
1070
   178
1070
     7
1070
   344
1005
AD
1070
   343
1005
AD
1070
    42
1040
0.0
1070
    76
1070
     0
1070
    75
1070
     0
1070
   283
1070
     1
1002
}
  0
ENDBLK
  5
158
330
13C
100
AcDbEntity
  8
0
100
AcDbBlockEnd
  0
BLOCK
  5
142
330
13E
100
AcDbEntity
  8
0
100
AcDbBlockBegin
  2
U10
 70
     0
 10
0.0
 20
0.0
 30
0.0
  3
U10
  1

  0
LINE
  5
140
330
13E
100
AcDbEntity
  8
0
  6
K5LT32777
 62
     7
370
    18
100
AcDbLine
 10
767.2479166666667
 20
-78.21338754855405
 30
0.0
 11
766.2479166666667
 21
-78.21338754855405
 31
0.0
  0
LINE
  5
141
330
13E
100
AcDbEntity
  8
0
  6
K5LT_THIN
 62
     7
370
    18
100
AcDbLine
 10
767.2479166666667
 20
-78.21338754855405
 30
0.0
 11
765.2479166666666
 21
-78.21338754855405
 31
0.0
  0
ENDBLK
  5
143
330
13E
100
AcDbEntity
  8
0
100
AcDbBlockEnd
  0
BLOCK
  5
148
330
144
100
AcDbEntity
  8
0
100
AcDbBlockBegin
  2
U11
 70
     0
 10
0.0
 20
0.0
 30
0.0
  3
U11
  1

  0
LINE
  5
146
330
144
100
AcDbEntity
  8
0
  6
K5LT32777
 62
     7
370
    18
100
AcDbLine
 10
23.11720372219156
 20
-78.21338754855405
 30
0.0
 11
24.11720372219156
 21
-78.21338754855405
 31
0.0
  0
LINE
  5
147
330
144
100
AcDbEntity
  8
0
  6
K5LT_THIN
 62
     7
370
    18
100
AcDbLine
 10
23.11720372219156
 20
-78.21338754855405
 30
0.0
 11
25.11720372219156
 21
-78.21338754855405
 31
0.0
  0
ENDBLK
  5
149
330
144
100
AcDbEntity
  8
0
100
AcDbBlockEnd
  0
BLOCK
  5
154
330
14A
100
AcDbEntity
  8
0
100
AcDbBlockBegin
  2
D1
 70
     0
 10
0.0
 20
0.0
 30
0.0
  3
D1
  1

  0
WIPEOUT
  5
14B
330
14A
100
AcDbEntity
  8
0
440
 16777216
160
               140
310
8C00000001000000840000000600000005000000414E81D6F42D8740739ABF24A84D53C00000000000000000414E81D6F42D8740749A3FB0D4CB51C0000000000000000019F2F1738FAE8740749A3FB0D4CB51C0000000000000000019F2F1738FAE8740739ABF24A84D53C00000000000000000414E81D6F42D8740739ABF
310
24A84D53C00000000000000000
100
AcDbWipeout
 90
        0
 10
741.7445497610097
 20
-77.21338766776334
 30
0.0
 11
16.07549560546875
 21
0.0
 31
0.0
 12
0.0
 22
16.07549560546875
 32
0.0
 13
1.0
 23
1.0
340
0
 70
     7
280
     1
281
    50
282
    50
283
     0
290
     0
360
0
 71
     2
 91
        5
 14
-0.5
 24
0.5
 14
-0.5
 24
0.1249862933194823
 14
0.5
 24
0.1249862933194823
 14
0.5
 24
0.5
 14
-0.5
 24
0.5
  0
LINE
  5
14C
330
14A
100
AcDbEntity
  8
0
  6
K5LT_THIN
 62
     7
440
 16777216
370
    18
100
AcDbLine
 10
23.11720372219156
 20
-78.21338754855405
 30
0.0
 11
767.2479166666667
 21
-78.21338754855405
 31
0.0
  0
LINE
  5
14D
330
14A
100
AcDbEntity
  8
0
  6
K5LT_THIN
 62
     7
440
 16777216
370
    18
100
AcDbLine
 10
23.11720372219156
 20
-40.74583333333333
 30
0.0
 11
23.11720372219156
 21
-80.21338754855404
 31
0.0
  0
LINE
  5
14E
330
14A
100
AcDbEntity
  8
0
  6
K5LT_THIN
 62
     7
440
 16777216
370
    18
100
AcDbLine
 10
767.2479166666667
 20
-40.74583333333333
 30
0.0
 11
767.2479166666667
 21
-80.21338754855404
 31
0.0
  0
MTEXT
  5
14F
330
14A
100
AcDbEntity
  8
0
 62
     7
440
 16777216
100
AcDbMText
 10
741.7445497610097
 20
-70.91692930423031
 30
0.0
 40
2.5
 41
0.0
 46
0.0
 71
     1
 72
     1
  1
\H3.5;\W0.965;\Q15;\Q15;\W0.856;\H5.00;744,13
  7
KTEXTSTYLE
 73
     1
 44
1.0
  0
MTEXT
  5
150
330
14A
100
AcDbEntity
  8
0
 62
     7
440
 16777216
100
AcDbMText
 10
754.8757991888052
 20
-72.31810992919219
 30
0.0
 40
2.5
 41
0.0
 46
0.0
 71
     1
 72
     1
  1
\H3.5;\W0.965;\Q15;\Q0;\W0.852;\H1.67;1
  7
KTEXTSTYLE
 73
     1
 44
1.0
  0
MTEXT
  5
151
330
14A
100
AcDbEntity
  8
0
 62
     7
440
 16777216
100
AcDbMText
 10
754.8757991888052
 20
-74.82762020789396
 30
0.0
 40
2.5
 41
0.0
 46
0.0
 71
     1
 72
     1
  1
\H3.5;\W0.965;\Q15;\Q0;\W0.852;\H1.67;1
  7
KTEXTSTYLE
 73
     1
 44
1.0
  0
MTEXT
  5
152
330
14A
100
AcDbEntity
  8
0
 62
     7
440
 16777216
100
AcDbMText
 10
755.6157293416982
 20
-74.24692934714567
 30
0.0
 40
2.5
 41
0.0
 46
0.0
 71
     1
 72
     1
  1
\H3.5;\W0.965;\Q15;\Q0;\W0.852;\H1.67; 
  7
KTEXTSTYLE
 73
     1
 44
1.0
  0
MTEXT
  5
153
330
14A
100
AcDbEntity
  8
0
 62
     7
440
 16777216
100
AcDbMText
 10
756.1889934637077
 20
-72.6669293042303
 30
0.0
 40
2.5
 41
0.0
 46
0.0
 71
     1
 72
     1
  1
\H3.5;\W0.965;\Q15;\Q15;\W0.852;\H3.25; 
  7
KTEXTSTYLE
 73
     1
 44
1.0
  0
ENDBLK
  5
155
330
14A
100
AcDbEntity
  8
0
100
AcDbBlockEnd
  0
BLOCK
  5
193
330
15B
100
AcDbEntity
  8
0
100
AcDbBlockBegin
  2
U12
 70
     0
 10
0.0
 20
0.0
 30
0.0
  3
U12
  1

  0
INSERT
  5
15E
330
15B
100
AcDbEntity
  8
0
100
AcDbBlockReference
  2
U13
 10
0.0
 20
0.0
 30
0.0
  0
INSERT
  5
16A
330
15B
100
AcDbEntity
  8
0
100
AcDbBlockReference
  2
U14
 10
0.0
 20
0.0
 30
0.0
  0
INSERT
  5
176
330
15B
100
AcDbEntity
  8
0
100
AcDbBlockReference
  2
U15
 10
0.0
 20
0.0
 30
0.0
  0
ENDBLK
  5
194
330
15B
100
AcDbEntity
  8
0
100
AcDbBlockEnd
  0
BLOCK
  5
167
330
15D
100
AcDbEntity
  8
0
100
AcDbBlockBegin
  2
U13
 70
     0
 10
0.0
 20
0.0
 30
0.0
  3
U13
  1

  0
HATCH
  5
15F
330
15D
100
AcDbEntity
  8
0
 62
     7
100
AcDbHatch
 10
0.0
 20
0.0
 30
0.0
210
0.0
220
0.0
230
1.0
  2
SOLID
 70
     1
 71
     0
 91
        1
 92
        1
 93
        4
 72
     1
 10
775.2529296289321
 20
-45.24583333333333
 11
775.9111921201587
 21
-45.74583333333333
 72
     1
 10
775.9111921201587
 20
-45.74583333333333
 11
775.2529296289321
 21
-40.74583333333333
 72
     1
 10
775.2529296289321
 20
-40.74583333333333
 11
774.5946671377063
 21
-45.74583333333333
 72
     1
 10
774.5946671377063
 20
-45.74583333333333
 11
775.2529296289321
 21
-45.24583333333333
 97
        0
 75
     0
 76
     1
 98
        0
450
        0
451
        0
460
0.0
461
0.0
452
        0
462
0.0
453
        0
470

  0
LINE
  5
160
330
15D
100
AcDbEntity
  8
0
  6
K5LT32776
 62
     7
370
    18
100
AcDbLine
 10
775.2529296289321
 20
-40.74583333333333
 30
0.0
 11
774.5946671377063
 21
-45.74583333333333
 31
0.0
  0
LINE
  5
161
330
15D
100
AcDbEntity
  8
0
  6
K5LT32776
 62
     7
370
    18
100
AcDbLine
 10
774.5946671377063
 20
-45.74583333333333
 30
0.0
 11
775.2529296289321
 21
-45.24583333333333
 31
0.0
  0
LINE
  5
162
330
15D
100
AcDbEntity
  8
0
  6
K5LT32776
 62
     7
370
    18
100
AcDbLine
 10
775.2529296289321
 20
-45.24583333333333
 30
0.0
 11
775.9111921201587
 21
-45.74583333333333
 31
0.0
  0
LINE
  5
163
330
15D
100
AcDbEntity
  8
0
  6
K5LT32776
 62
     7
370
    18
100
AcDbLine
 10
775.9111921201587
 20
-45.74583333333333
 30
0.0
 11
775.2529296289321
 21
-40.74583333333333
 31
0.0
  0
LINE
  5
164
330
15D
100
AcDbEntity
  8
0
  6
K5LT32776
 62
     7
370
    18
100
AcDbLine
 10
775.2529296289321
 20
-40.74583333333333
 30
0.0
 11
775.2529296289321
 21
-47.74583333333333
 31
0.0
  0
LINE
  5
165
330
15D
100
AcDbEntity
  8
0
  6
K5LT32776
 62
     7
370
    18
100
AcDbLine
 10
775.2529296289321
 20
-40.74583333333333
 30
0.0
 11
775.2529296289321
 21
-39.74583333333333
 31
0.0
  0
LINE
  5
166
330
15D
100
AcDbEntity
  8
0
  6
K5LT32777
 62
     7
370
    18
100
AcDbLine
 10
775.2529296289321
 20
-40.74583333333333
 30
0.0
 11
775.2529296289321
 21
-38.74583333333333
 31
0.0
  0
ENDBLK
  5
168
330
15D
100
AcDbEntity
  8
0
100
AcDbBlockEnd
  0
BLOCK
  5
173
330
169
100
AcDbEntity
  8
0
100
AcDbBlockBegin
  2
U14
 70
     0
 10
0.0
 20
0.0
 30
0.0
  3
U14
  1

  0
HATCH
  5
16B
330
169
100
AcDbEntity
  8
0
 62
     7
100
AcDbHatch
 10
0.0
 20
0.0
 30
0.0
210
0.0
220
0.0
230
1.0
  2
SOLID
 70
     1
 71
     0
 91
        1
 92
        1
 93
        4
 72
     1
 10
775.2529296289321
 20
-27.24583333333332
 11
774.5946671377063
 21
-26.74583333333332
 72
     1
 10
774.5946671377063
 20
-26.74583333333332
 11
775.2529296289321
 21
-31.74583333333332
 72
     1
 10
775.2529296289321
 20
-31.74583333333332
 11
775.9111921201587
 21
-26.74583333333332
 72
     1
 10
775.9111921201587
 20
-26.74583333333332
 11
775.2529296289321
 21
-27.24583333333332
 97
        0
 75
     0
 76
     1
 98
        0
450
        0
451
        0
460
0.0
461
0.0
452
        0
462
0.0
453
        0
470

  0
LINE
  5
16C
330
169
100
AcDbEntity
  8
0
  6
K5LT32776
 62
     7
370
    18
100
AcDbLine
 10
775.2529296289321
 20
-31.74583333333332
 30
0.0
 11
775.9111921201587
 21
-26.74583333333332
 31
0.0
  0
LINE
  5
16D
330
169
100
AcDbEntity
  8
0
  6
K5LT32776
 62
     7
370
    18
100
AcDbLine
 10
775.9111921201587
 20
-26.74583333333332
 30
0.0
 11
775.2529296289321
 21
-27.24583333333332
 31
0.0
  0
LINE
  5
16E
330
169
100
AcDbEntity
  8
0
  6
K5LT32776
 62
     7
370
    18
100
AcDbLine
 10
775.2529296289321
 20
-27.24583333333332
 30
0.0
 11
774.5946671377063
 21
-26.74583333333332
 31
0.0
  0
LINE
  5
16F
330
169
100
AcDbEntity
  8
0
  6
K5LT32776
 62
     7
370
    18
100
AcDbLine
 10
774.5946671377063
 20
-26.74583333333332
 30
0.0
 11
775.2529296289321
 21
-31.74583333333332
 31
0.0
  0
LINE
  5
170
330
169
100
AcDbEntity
  8
0
  6
K5LT32776
 62
     7
370
    18
100
AcDbLine
 10
775.2529296289321
 20
-31.74583333333332
 30
0.0
 11
775.2529296289321
 21
-24.74583333333332
 31
0.0
  0
LINE
  5
171
330
169
100
AcDbEntity
  8
0
  6
K5LT32776
 62
     7
370
    18
100
AcDbLine
 10
775.2529296289321
 20
-31.74583333333332
 30
0.0
 11
775.2529296289321
 21
-32.74583333333332
 31
0.0
  0
LINE
  5
172
330
169
100
AcDbEntity
  8
0
  6
K5LT32777
 62
     7
370
    18
100
AcDbLine
 10
775.2529296289321
 20
-31.74583333333332
 30
0.0
 11
775.2529296289321
 21
-33.74583333333332
 31
0.0
  0
ENDBLK
  5
174
330
169
100
AcDbEntity
  8
0
100
AcDbBlockEnd
  0
BLOCK
  5
191
330
175
100
AcDbEntity
  8
0
100
AcDbBlockBegin
  2
U15
 70
     0
 10
0.0
 20
0.0
 30
0.0
  3
U15
  1

  0
INSERT
  5
178
330
175
100
AcDbEntity
  8
0
100
AcDbBlockReference
  2
U16
 10
0.0
 20
0.0
 30
0.0
  0
INSERT
  5
17E
330
175
100
AcDbEntity
  8
0
100
AcDbBlockReference
  2
U17
 10
0.0
 20
0.0
 30
0.0
  0
DIMENSION
  5
190
330
175
100
AcDbEntity
  8
0
 62
     7
100
AcDbDimension
280
     0
  2
D2
 10
775.2529296289321
 20
-31.74583333333332
 30
0.0
 11
775.2529296289321
 21
-16.49626963933308
 31
0.0
 70
   160
  1
\H2.5;\W0.925;\Q0;\H2.5;\W0.925;\Q0;\Q15;\W0.820;\H5.00;9\A1;{\H2.5;\W0.925;\Q0;\Q0;\W0.887;\H1.67;\S0,18^ 0,18;\Q0;\H2.50;\Q0;\W0.817;\H1.67; \Q15;\H3.25; \Q0;\W0.887;\H2.50;}
 71
     5
 42
-1.0
 73
     0
 74
     0
 75
     0
  3
KDIMSTYLE (1.00)
100
AcDbAlignedDimension
 13
767.2479166666667
 23
-40.74583333333333
 33
0.0
 14
767.2479166666667
 24
-31.74583333333332
 34
0.0
 50
90.0
100
AcDbRotatedDimension
1001
ACAD
1000
DSTYLE
1002
{
1070
   178
1070
     7
1070
   344
1005
AD
1070
   343
1005
AD
1070
    42
1040
0.0
1070
    76
1070
     0
1070
    75
1070
     0
1070
   283
1070
     1
1002
}
  0
ENDBLK
  5
192
330
175
100
AcDbEntity
  8
0
100
AcDbBlockEnd
  0
BLOCK
  5
17B
330
177
100
AcDbEntity
  8
0
100
AcDbBlockBegin
  2
U16
 70
     0
 10
0.0
 20
0.0
 30
0.0
  3
U16
  1

  0
LINE
  5
179
330
177
100
AcDbEntity
  8
0
  6
K5LT32777
 62
     7
370
    18
100
AcDbLine
 10
775.2529296289321
 20
-40.74583333333333
 30
0.0
 11
775.2529296289321
 21
-39.74583333333333
 31
0.0
  0
LINE
  5
17A
330
177
100
AcDbEntity
  8
0
  6
K5LT_THIN
 62
     7
370
    18
100
AcDbLine
 10
775.2529296289321
 20
-40.74583333333333
 30
0.0
 11
775.2529296289321
 21
-38.74583333333333
 31
0.0
  0
ENDBLK
  5
17C
330
177
100
AcDbEntity
  8
0
100
AcDbBlockEnd
  0
BLOCK
  5
181
330
17D
100
AcDbEntity
  8
0
100
AcDbBlockBegin
  2
U17
 70
     0
 10
0.0
 20
0.0
 30
0.0
  3
U17
  1

  0
LINE
  5
17F
330
17D
100
AcDbEntity
  8
0
  6
K5LT32777
 62
     7
370
    18
100
AcDbLine
 10
775.2529296289321
 20
-31.74583333333332
 30
0.0
 11
775.2529296289321
 21
-32.74583333333332
 31
0.0
  0
LINE
  5
180
330
17D
100
AcDbEntity
  8
0
  6
K5LT_THIN
 62
     7
370
    18
100
AcDbLine
 10
775.2529296289321
 20
-31.74583333333332
 30
0.0
 11
775.2529296289321
 21
-33.74583333333332
 31
0.0
  0
ENDBLK
  5
182
330
17D
100
AcDbEntity
  8
0
100
AcDbBlockEnd
  0
BLOCK
  5
18E
330
183
100
AcDbEntity
  8
0
100
AcDbBlockBegin
  2
D2
 70
     0
 10
0.0
 20
0.0
 30
0.0
  3
D2
  1

  0
WIPEOUT
  5
184
330
183
100
AcDbEntity
  8
0
440
 16777216
160
               140
310
8C00000001000000840000000600000005000000A023080006328840ECEEEEEEEEBE34C000000000000000009F237891CB018840ECEEEEEEEEBE34C000000000000000009F237891CB01884052F28B25602C29C00000000000000000A02308000632884053F28B25602C29C00000000000000000A023080006328840ECEEEE
310
EEEEBE34C00000000000000000
100
AcDbWipeout
 90
        0
 10
768.2243985544081
 20
-20.74583333333332
 30
0.0
 11
8.15916229248047
 21
0.0
 31
0.0
 12
0.0
 22
8.15916229248047
 32
0.0
 13
1.0
 23
1.0
340
0
 70
     7
280
     1
281
    50
282
    50
283
     0
290
     0
360
0
 71
     2
 91
        5
 14
0.2388664396698204
 24
0.5000000000000005
 14
-0.5
 24
0.5
 14
-0.5
 24
-0.4999999999999999
 14
0.2388664396698204
 24
-0.4999999999999997
 14
0.2388664396698204
 24
0.5000000000000005
  0
LINE
  5
185
330
183
100
AcDbEntity
  8
0
  6
K5LT_THIN
 62
     7
440
 16777216
370
    18
100
AcDbLine
 10
775.2529296289321
 20
-31.74583333333332
 30
0.0
 11
775.2529296289321
 21
-40.74583333333333
 31
0.0
  0
LINE
  5
186
330
183
100
AcDbEntity
  8
0
  6
K5LT_THIN
 62
     7
440
 16777216
370
    18
100
AcDbLine
 10
775.2529296289321
 20
-31.74583333333332
 30
0.0
 11
775.2529296289321
 21
-10.24670594533283
 31
0.0
  0
LINE
  5
187
330
183
100
AcDbEntity
  8
0
  6
K5LT_THIN
 62
     7
440
 16777216
370
    18
100
AcDbLine
 10
767.2479166666667
 20
-31.74583333333332
 30
0.0
 11
777.2529296289321
 21
-31.74583333333332
 31
0.0
  0
LINE
  5
188
330
183
100
AcDbEntity
  8
0
  6
K5LT_THIN
 62
     7
440
 16777216
370
    18
100
AcDbLine
 10
767.2479166666667
 20
-40.74583333333333
 30
0.0
 11
777.2529296289321
 21
-40.74583333333333
 31
0.0
  0
MTEXT
  5
189
330
183
100
AcDbEntity
  8
0
 62
     7
440
 16777216
100
AcDbMText
 10
767.9564713846083
 20
-20.74583333333332
 30
0.0
 40
2.5
 41
0.0
 46
0.0
 71
     1
 72
     1
  1
\H3.5;\W0.965;\Q15;\Q15;\W0.856;\H5.00;9
  7
KTEXTSTYLE
 11
0.0000000000000001
 21
1.0
 31
0.0
 73
     1
 44
1.0
  0
MTEXT
  5
18A
330
183
100
AcDbEntity
  8
0
 62
     7
440
 16777216
100
AcDbMText
 10
769.3576520095703
 20
-17.93333333333332
 30
0.0
 40
2.5
 41
0.0
 46
0.0
 71
     1
 72
     1
  1
\H3.5;\W0.965;\Q15;\Q0;\W0.852;\H1.67;0,18
  7
KTEXTSTYLE
 11
0.0000000000000001
 21
1.0
 31
0.0
 73
     1
 44
1.0
  0
MTEXT
  5
18B
330
183
100
AcDbEntity
  8
0
 62
     7
440
 16777216
100
AcDbMText
 10
771.867162288272
 20
-17.93333333333332
 30
0.0
 40
2.5
 41
0.0
 46
0.0
 71
     1
 72
     1
  1
\H3.5;\W0.965;\Q15;\Q0;\W0.852;\H1.67;0,18
  7
KTEXTSTYLE
 11
0.0000000000000001
 21
1.0
 31
0.0
 73
     1
 44
1.0
  0
MTEXT
  5
18C
330
183
100
AcDbEntity
  8
0
 62
     7
440
 16777216
100
AcDbMText
 10
771.2864714275237
 20
-15.12083381017048
 30
0.0
 40
2.5
 41
0.0
 46
0.0
 71
     1
 72
     1
  1
\H3.5;\W0.965;\Q15;\Q0;\W0.852;\H1.67; 
  7
KTEXTSTYLE
 11
0.0000000000000001
 21
1.0
 31
0.0
 73
     1
 44
1.0
  0
MTEXT
  5
18D
330
183
100
AcDbEntity
  8
0
 62
     7
440
 16777216
100
AcDbMText
 10
769.7064713846083
 20
-14.54757016499836
 30
0.0
 40
2.5
 41
0.0
 46
0.0
 71
     1
 72
     1
  1
\H3.5;\W0.965;\Q15;\Q15;\W0.852;\H3.25; 
  7
KTEXTSTYLE
 11
0.0000000000000001
 21
1.0
 31
0.0
 73
     1
 44
1.0
  0
ENDBLK
  5
18F
330
183
100
AcDbEntity
  8
0
100
AcDbBlockEnd
  0
BLOCK
  5
1CA
330
195
100
AcDbEntity
  8
0
100
AcDbBlockBegin
  2
U18
 70
     0
 10
0.0
 20
0.0
 30
0.0
  3
U18
  1

  0
INSERT
  5
198
330
195
100
AcDbEntity
  8
0
100
AcDbBlockReference
  2
U19
 10
0.0
 20
0.0
 30
0.0
  0
INSERT
  5
1A3
330
195
100
AcDbEntity
  8
0
100
AcDbBlockReference
  2
U20
 10
0.0
 20
0.0
 30
0.0
  0
INSERT
  5
1AE
330
195
100
AcDbEntity
  8
0
100
AcDbBlockReference
  2
U21
 10
0.0
 20
0.0
 30
0.0
  0
ENDBLK
  5
1CB
330
195
100
AcDbEntity
  8
0
100
AcDbBlockEnd
  0
BLOCK
  5
1A0
330
197
100
AcDbEntity
  8
0
100
AcDbBlockBegin
  2
U19
 70
     0
 10
0.0
 20
0.0
 30
0.0
  3
U19
  1

  0
HATCH
  5
199
330
197
100
AcDbEntity
  8
0
 62
     7
100
AcDbHatch
 10
0.0
 20
0.0
 30
0.0
210
0.0
220
0.0
230
1.0
  2
SOLID
 70
     1
 71
     0
 91
        1
 92
        1
 93
        4
 72
     1
 10
883.4484228775748
 20
-26.74583333333332
 11
884.1066853688008
 21
-31.74583333333332
 72
     1
 10
884.1066853688008
 20
-31.74583333333332
 11
884.7649478600272
 21
-26.74583333333332
 72
     1
 10
884.7649478600272
 20
-26.74583333333332
 11
884.1066853688008
 21
-27.24583333333332
 72
     1
 10
884.1066853688008
 20
-27.24583333333332
 11
883.4484228775748
 21
-26.74583333333332
 97
        0
 75
     0
 76
     1
 98
        0
450
        0
451
        0
460
0.0
461
0.0
452
        0
462
0.0
453
        0
470

  0
LINE
  5
19A
330
197
100
AcDbEntity
  8
0
  6
K5LT32776
 62
     7
370
    18
100
AcDbLine
 10
884.1066853688008
 20
-31.74583333333332
 30
0.0
 11
883.4484228775748
 21
-26.74583333333332
 31
0.0
  0
LINE
  5
19B
330
197
100
AcDbEntity
  8
0
  6
K5LT32776
 62
     7
370
    18
100
AcDbLine
 10
883.4484228775748
 20
-26.74583333333332
 30
0.0
 11
884.1066853688008
 21
-27.24583333333332
 31
0.0
  0
LINE
  5
19C
330
197
100
AcDbEntity
  8
0
  6
K5LT32776
 62
     7
370
    18
100
AcDbLine
 10
884.1066853688008
 20
-27.24583333333332
 30
0.0
 11
884.7649478600272
 21
-26.74583333333332
 31
0.0
  0
LINE
  5
19D
330
197
100
AcDbEntity
  8
0
  6
K5LT32776
 62
     7
370
    18
100
AcDbLine
 10
884.7649478600272
 20
-26.74583333333332
 30
0.0
 11
884.1066853688008
 21
-31.74583333333332
 31
0.0
  0
LINE
  5
19E
330
197
100
AcDbEntity
  8
0
  6
K5LT32776
 62
     7
370
    18
100
AcDbLine
 10
884.1066853688008
 20
-31.74583333333332
 30
0.0
 11
884.1066853688008
 21
-30.74583333333332
 31
0.0
  0
LINE
  5
19F
330
197
100
AcDbEntity
  8
0
  6
K5LT32777
 62
     7
370
    18
100
AcDbLine
 10
884.1066853688008
 20
-31.74583333333332
 30
0.0
 11
884.1066853688008
 21
-29.74583333333332
 31
0.0
  0
ENDBLK
  5
1A1
330
197
100
AcDbEntity
  8
0
100
AcDbBlockEnd
  0
BLOCK
  5
1AB
330
1A2
100
AcDbEntity
  8
0
100
AcDbBlockBegin
  2
U20
 70
     0
 10
0.0
 20
0.0
 30
0.0
  3
U20
  1

  0
HATCH
  5
1A4
330
1A2
100
AcDbEntity
  8
0
 62
     7
100
AcDbHatch
 10
0.0
 20
0.0
 30
0.0
210
0.0
220
0.0
230
1.0
  2
SOLID
 70
     1
 71
     0
 91
        1
 92
        1
 93
        4
 72
     1
 10
884.7649478600272
 20
18.75416666666667
 11
884.1066853688008
 21
23.75416666666667
 72
     1
 10
884.1066853688008
 20
23.75416666666667
 11
883.4484228775748
 21
18.75416666666667
 72
     1
 10
883.4484228775748
 20
18.75416666666667
 11
884.1066853688008
 21
19.25416666666667
 72
     1
 10
884.1066853688008
 20
19.25416666666667
 11
884.7649478600272
 21
18.75416666666667
 97
        0
 75
     0
 76
     1
 98
        0
450
        0
451
        0
460
0.0
461
0.0
452
        0
462
0.0
453
        0
470

  0
LINE
  5
1A5
330
1A2
100
AcDbEntity
  8
0
  6
K5LT32776
 62
     7
370
    18
100
AcDbLine
 10
884.1066853688008
 20
23.75416666666667
 30
0.0
 11
884.7649478600272
 21
18.75416666666667
 31
0.0
  0
LINE
  5
1A6
330
1A2
100
AcDbEntity
  8
0
  6
K5LT32776
 62
     7
370
    18
100
AcDbLine
 10
884.7649478600272
 20
18.75416666666667
 30
0.0
 11
884.1066853688008
 21
19.25416666666667
 31
0.0
  0
LINE
  5
1A7
330
1A2
100
AcDbEntity
  8
0
  6
K5LT32776
 62
     7
370
    18
100
AcDbLine
 10
884.1066853688008
 20
19.25416666666667
 30
0.0
 11
883.4484228775748
 21
18.75416666666667
 31
0.0
  0
LINE
  5
1A8
330
1A2
100
AcDbEntity
  8
0
  6
K5LT32776
 62
     7
370
    18
100
AcDbLine
 10
883.4484228775748
 20
18.75416666666667
 30
0.0
 11
884.1066853688008
 21
23.75416666666667
 31
0.0
  0
LINE
  5
1A9
330
1A2
100
AcDbEntity
  8
0
  6
K5LT32776
 62
     7
370
    18
100
AcDbLine
 10
884.1066853688008
 20
23.75416666666667
 30
0.0
 11
884.1066853688008
 21
22.75416666666667
 31
0.0
  0
LINE
  5
1AA
330
1A2
100
AcDbEntity
  8
0
  6
K5LT32777
 62
     7
370
    18
100
AcDbLine
 10
884.1066853688008
 20
23.75416666666667
 30
0.0
 11
884.1066853688008
 21
21.75416666666667
 31
0.0
  0
ENDBLK
  5
1AC
330
1A2
100
AcDbEntity
  8
0
100
AcDbBlockEnd
  0
BLOCK
  5
1C8
330
1AD
100
AcDbEntity
  8
0
100
AcDbBlockBegin
  2
U21
 70
     0
 10
0.0
 20
0.0
 30
0.0
  3
U21
  1

  0
INSERT
  5
1B0
330
1AD
100
AcDbEntity
  8
0
100
AcDbBlockReference
  2
U22
 10
0.0
 20
0.0
 30
0.0
  0
INSERT
  5
1B6
330
1AD
100
AcDbEntity
  8
0
100
AcDbBlockReference
  2
U23
 10
0.0
 20
0.0
 30
0.0
  0
DIMENSION
  5
1C7
330
1AD
100
AcDbEntity
  8
0
 62
     7
100
AcDbDimension
280
     0
  2
D3
 10
884.1066853688008
 20
23.75416666666666
 30
0.0
 11
884.1066853688008
 21
-14.24583333333334
 31
0.0
 70
   160
  1
\H2.5;\W0.925;\Q0;\H2.5;\W0.925;\Q0;\Q15;\W0.820;\H5.00;55,5\A1;{\H2.5;\W0.925;\Q0;\Q0;\W0.887;\H1.67;\S0,37^ 0,37;\Q0;\H2.50;\Q0;\W0.817;\H1.67; \Q15;\H3.25; \Q0;\W0.887;\H2.50;}
 71
     5
 42
-1.0
 73
     0
 74
     0
 75
     0
  3
KDIMSTYLE (1.00)
100
AcDbAlignedDimension
 13
767.2479166666667
 23
-31.74583333333332
 33
0.0
 14
822.7479166666665
 24
23.75416666666667
 34
0.0
 50
90.0
100
AcDbRotatedDimension
1001
ACAD
1000
DSTYLE
1002
{
1070
   178
1070
     7
1070
   344
1005
AD
1070
   343
1005
AD
1070
    42
1040
0.0
1070
    76
1070
     0
1070
    75
1070
     0
1070
   283
1070
     1
1002
}
  0
ENDBLK
  5
1C9
330
1AD
100
AcDbEntity
  8
0
100
AcDbBlockEnd
  0
BLOCK
  5
1B3
330
1AF
100
AcDbEntity
  8
0
100
AcDbBlockBegin
  2
U22
 70
     0
 10
0.0
 20
0.0
 30
0.0
  3
U22
  1

  0
LINE
  5
1B1
330
1AF
100
AcDbEntity
  8
0
  6
K5LT32777
 62
     7
370
    18
100
AcDbLine
 10
884.1066853688008
 20
-31.74583333333332
 30
0.0
 11
884.1066853688008
 21
-30.74583333333332
 31
0.0
  0
LINE
  5
1B2
330
1AF
100
AcDbEntity
  8
0
  6
K5LT_THIN
 62
     7
370
    18
100
AcDbLine
 10
884.1066853688008
 20
-31.74583333333332
 30
0.0
 11
884.1066853688008
 21
-29.74583333333332
 31
0.0
  0
ENDBLK
  5
1B4
330
1AF
100
AcDbEntity
  8
0
100
AcDbBlockEnd
  0
BLOCK
  5
1B9
330
1B5
100
AcDbEntity
  8
0
100
AcDbBlockBegin
  2
U23
 70
     0
 10
0.0
 20
0.0
 30
0.0
  3
U23
  1

  0
LINE
  5
1B7
330
1B5
100
AcDbEntity
  8
0
  6
K5LT32777
 62
     7
370
    18
100
AcDbLine
 10
884.1066853688008
 20
23.75416666666667
 30
0.0
 11
884.1066853688008
 21
22.75416666666667
 31
0.0
  0
LINE
  5
1B8
330
1B5
100
AcDbEntity
  8
0
  6
K5LT_THIN
 62
     7
370
    18
100
AcDbLine
 10
884.1066853688008
 20
23.75416666666667
 30
0.0
 11
884.1066853688008
 21
21.75416666666667
 31
0.0
  0
ENDBLK
  5
1BA
330
1B5
100
AcDbEntity
  8
0
100
AcDbBlockEnd
  0
BLOCK
  5
1C5
330
1BB
100
AcDbEntity
  8
0
100
AcDbBlockBegin
  2
D3
 70
     0
 10
0.0
 20
0.0
 30
0.0
  3
D3
  1

  0
WIPEOUT
  5
1BC
330
1BB
100
AcDbEntity
  8
0
440
 16777216
160
               140
310
8C00000001000000840000000600000005000000AFCFEB7DDA988B40F3EEEE864F5135C00000000000000000AFCF5B0FA0688B40F2EEEE864F5135C00000000000000000AFCF5B0FA0688B4095B1E4778BF51EC00000000000000000AFCFEB7DDA988B4096B1E4778BF51EC00000000000000000AFCFEB7DDA988B40F3EEEE
310
864F5135C00000000000000000
100
AcDbWipeout
 90
        0
 10
877.0781542942767
 20
-21.31761973698935
 30
0.0
 11
13.57782989501953
 21
0.0
 31
0.0
 12
0.0
 22
13.57782989501953
 32
0.0
 13
1.0
 23
1.0
340
0
 70
     7
280
     1
281
    50
282
    50
283
     0
290
     0
360
0
 71
     2
 91
        5
 14
-0.0560018618332663
 24
0.5
 14
-0.5
 24
0.4999999999999999
 14
-0.5
 24
-0.5
 14
-0.0560018618332663
 24
-0.4999999999999999
 14
-0.0560018618332663
 24
0.5
  0
LINE
  5
1BD
330
1BB
100
AcDbEntity
  8
0
  6
K5LT_THIN
 62
     7
440
 16777216
370
    18
100
AcDbLine
 10
884.1066853688008
 20
23.75416666666666
 30
0.0
 11
884.1066853688008
 21
-31.74583333333334
 31
0.0
  0
LINE
  5
1BE
330
1BB
100
AcDbEntity
  8
0
  6
K5LT_THIN
 62
     7
440
 16777216
370
    18
100
AcDbLine
 10
822.7479166666665
 20
23.75416666666667
 30
0.0
 11
886.1066853688008
 21
23.75416666666666
 31
0.0
  0
LINE
  5
1BF
330
1BB
100
AcDbEntity
  8
0
  6
K5LT_THIN
 62
     7
440
 16777216
370
    18
100
AcDbLine
 10
767.2479166666667
 20
-31.74583333333332
 30
0.0
 11
886.1066853688008
 21
-31.74583333333334
 31
0.0
  0
MTEXT
  5
1C0
330
1BB
100
AcDbEntity
  8
0
 62
     7
440
 16777216
100
AcDbMText
 10
876.8102271244769
 20
-21.31761973698935
 30
0.0
 40
2.5
 41
0.0
 46
0.0
 71
     1
 72
     1
  1
\H3.5;\W0.965;\Q15;\Q15;\W0.856;\H5.00;55,5
  7
KTEXTSTYLE
 11
0.0000000000000001
 21
1.0
 31
0.0
 73
     1
 44
1.0
  0
MTEXT
  5
1C1
330
1BB
100
AcDbEntity
  8
0
 62
     7
440
 16777216
100
AcDbMText
 10
878.2114077494389
 20
-13.081160958608
 30
0.0
 40
2.5
 41
0.0
 46
0.0
 71
     1
 72
     1
  1
\H3.5;\W0.965;\Q15;\Q0;\W0.852;\H1.67;0,37
  7
KTEXTSTYLE
 11
0.0000000000000001
 21
1.0
 31
0.0
 73
     1
 44
1.0
  0
MTEXT
  5
1C2
330
1BB
100
AcDbEntity
  8
0
 62
     7
440
 16777216
100
AcDbMText
 10
880.7209180281407
 20
-13.081160958608
 30
0.0
 40
2.5
 41
0.0
 46
0.0
 71
     1
 72
     1
  1
\H3.5;\W0.965;\Q15;\Q0;\W0.852;\H1.67;0,37
  7
KTEXTSTYLE
 11
0.0000000000000001
 21
1.0
 31
0.0
 73
     1
 44
1.0
  0
MTEXT
  5
1C3
330
1BB
100
AcDbEntity
  8
0
 62
     7
440
 16777216
100
AcDbMText
 10
880.1402271673925
 20
-10.04817527135214
 30
0.0
 40
2.5
 41
0.0
 46
0.0
 71
     1
 72
     1
  1
\H3.5;\W0.965;\Q15;\Q0;\W0.852;\H1.67; 
  7
KTEXTSTYLE
 11
0.0000000000000001
 21
1.0
 31
0.0
 73
     1
 44
1.0
  0
MTEXT
  5
1C4
330
1BB
100
AcDbEntity
  8
0
 62
     7
440
 16777216
100
AcDbMText
 10
878.5602271244769
 20
-9.474911149342867
 30
0.0
 40
2.5
 41
0.0
 46
0.0
 71
     1
 72
     1
  1
\H3.5;\W0.965;\Q15;\Q15;\W0.852;\H3.25; 
  7
KTEXTSTYLE
 11
0.0000000000000001
 21
1.0
 31
0.0
 73
     1
 44
1.0
  0
ENDBLK
  5
1C6
330
1BB
100
AcDbEntity
  8
0
100
AcDbBlockEnd
  0
ENDSEC
  0
SECTION
  2
ENTITIES
  0
LINE
  5
73
330
1F
100
AcDbEntity
  8
0
  6
K5LT32768
 62
   250
370
    60
100
AcDbLine
 10
23.11720372219156
 20
-31.74583333333334
 30
0.0
 11
-32.38279627780844
 21
23.75416666666667
 31
0.0
  0
LINE
  5
75
330
1F
100
AcDbEntity
  8
Системный слой
  6
K5LT32770
 62
   250
370
    60
100
AcDbLine
 10
-32.38279627780844
 20
23.75416666666667
 30
0.0
 11
-32.38279627780844
 21
100.2541666666667
 31
0.0
  0
LINE
  5
76
330
1F
100
AcDbEntity
  8
Системный слой
  6
K5LT32770
 62
   250
370
    60
100
AcDbLine
 10
-32.38279627780844
 20
100.2541666666667
 30
0.0
 11
-13.38279627780838
 21
119.2541666666667
 31
0.0
  0
LINE
  5
78
330
1F
100
AcDbEntity
  8
Системный слой
  6
K5LT32770
 62
   250
370
    60
100
AcDbLine
 10
23.11720372219156
 20
-31.74583333333334
 30
0.0
 11
23.11720372219156
 21
-40.74583333333333
 31
0.0
  0
LINE
  5
7A
330
1F
100
AcDbEntity
  8
Системный слой
  6
K5LT32771
 62
     3
370
    60
100
AcDbLine
 10
-13.38279627780838
 20
119.2541666666667
 30
0.0
 11
803.7479166666667
 21
119.2541666666667
 31
0.0
  0
LINE
  5
7C
330
1F
100
AcDbEntity
  8
Системный слой
  6
K5LT32772
 62
     5
370
    60
100
AcDbLine
 10
767.2479166666667
 20
-40.74583333333333
 30
0.0
 11
767.2479166666667
 21
-31.74583333333332
 31
0.0
  0
LINE
  5
7D
330
1F
100
AcDbEntity
  8
Системный слой
  6
K5LT32772
 62
     5
370
    60
100
AcDbLine
 10
767.2479166666667
 20
-31.74583333333332
 30
0.0
 11
822.7479166666665
 21
23.75416666666667
 31
0.0
  0
LINE
  5
7E
330
1F
100
AcDbEntity
  8
Системный слой
  6
K5LT32772
 62
     5
370
    60
100
AcDbLine
 10
822.7479166666665
 20
23.75416666666667
 30
0.0
 11
822.7479166666665
 21
100.2541666666667
 31
0.0
  0
LINE
  5
7F
330
1F
100
AcDbEntity
  8
Системный слой
  6
K5LT32772
 62
     5
370
    60
100
AcDbLine
 10
803.7479166666667
 20
119.2541666666667
 30
0.0
 11
822.7479166666665
 21
100.2541666666667
 31
0.0
  0
LINE
  5
80
330
1F
100
AcDbEntity
  8
Системный слой
  6
K5LT32771
 62
     3
370
    60
100
AcDbLine
 10
23.11720372219156
 20
-40.74583333333333
 30
0.0
 11
767.2479166666667
 21
-40.74583333333333
 31
0.0
  0
CIRCLE
  5
82
330
1F
100
AcDbEntity
  8
Системный слой
  6
K5LT_BASIC
 62
   250
370
    60
100
AcDbCircle
 10
-13.88279627780843
 20
66.25416666666665
 30
0.0
 40
9.5
  0
CIRCLE
  5
83
330
1F
100
AcDbEntity
  8
Системный слой
  6
K5LT_BASIC
 62
     5
370
    60
100
AcDbCircle
 10
804.2479166666666
 20
66.25416666666655
 30
0.0
 40
9.500000000000113
  0
INSERT
  5
85
330
1F
100
AcDbEntity
  8
0
100
AcDbBlockReference
  2
U0
 10
0.0
 20
0.0
 30
0.0
  0
INSERT
  5
125
330
1F
100
AcDbEntity
  8
0
100
AcDbBlockReference
  2
U6
 10
0.0
 20
0.0
 30
0.0
  0
INSERT
  5
15C
330
1F
100
AcDbEntity
  8
0
100
AcDbBlockReference
  2
U12
 10
0.0
 20
0.0
 30
0.0
  0
INSERT
  5
196
330
1F
100
AcDbEntity
  8
0
100
AcDbBlockReference
  2
U18
 10
0.0
 20
0.0
 30
0.0
  0
ENDSEC
  0
SECTION
  2
OBJECTS
  0
DICTIONARY
  5
C
330
0
100
AcDbDictionary
281
     1
  3
ACAD_CIP_PREVIOUS_PRODUCT_INFO
350
1E0
  3
ACAD_COLOR
350
1DA
  3
ACAD_DETAILVIEWSTYLE
350
1D3
  3
ACAD_GROUP
350
D
  3
ACAD_LAYOUT
350
1A
  3
ACAD_MATERIAL
350
43
  3
ACAD_MLEADERSTYLE
350
6B
  3
ACAD_MLINESTYLE
350
17
  3
ACAD_PLOTSETTINGS
350
19
  3
ACAD_PLOTSTYLENAME
350
E
  3
ACAD_SCALELIST
350
47
  3
ACAD_SECTIONVIEWSTYLE
350
1D4
  3
ACAD_TABLESTYLE
350
69
  3
ACAD_VISUALSTYLE
350
2A
  3
ACAD_WIPEOUT_VARS
350
112
  3
ACDB_RECOMPOSE_DATA
350
1F0
  3
AcDbVariableDictionary
350
1CC
  0
SUN
  5
6D
330
29
100
AcDbSun
 90
        1
290
     1
 63
     7
421
 16777215
 40
1.0
291
     1
 91
  2455826
 92
 54000000
292
     0
 70
     0
 71
   256
280
     1
  0
XRECORD
  5
1E0
102
{ACAD_REACTORS
330
C
102
}
330
C
100
AcDbXrecord
280
     1
300
ACD
300
2019
300
ACD_F_S
  0
DICTIONARY
  5
1DA
102
{ACAD_REACTORS
330
C
102
}
330
C
100
AcDbDictionary
281
     1
  0
DICTIONARY
  5
1D3
102
{ACAD_REACTORS
330
C
102
}
330
C
100
AcDbDictionary
281
     1
  3
Metric50
350
1DC
  0
DICTIONARY
  5
D
102
{ACAD_REACTORS
330
C
102
}
330
C
100
AcDbDictionary
281
     1
  0
DICTIONARY
  5
1A
102
{ACAD_REACTORS
330
C
102
}
330
C
100
AcDbDictionary
281
     1
  3
Layout1
350
1E
  3
Layout2
350
26
  3
Model
350
22
  0
DICTIONARY
  5
43
102
{ACAD_REACTORS
330
C
102
}
330
C
100
AcDbDictionary
281
     1
  3
ByBlock
350
45
  3
ByLayer
350
44
  3
Global
350
46
  0
DICTIONARY
  5
6B
102
{ACAD_REACTORS
330
C
102
}
330
C
100
AcDbDictionary
281
     1
  3
Standard
350
6C
  0
DICTIONARY
  5
17
102
{ACAD_REACTORS
330
C
102
}
330
C
100
AcDbDictionary
281
     1
  3
Standard
350
18
  0
DICTIONARY
  5
19
102
{ACAD_REACTORS
330
C
102
}
330
C
100
AcDbDictionary
281
     1
  0
ACDBDICTIONARYWDFLT
  5
E
102
{ACAD_REACTORS
330
C
102
}
330
C
100
AcDbDictionary
281
     1
  3
Normal
350
F
100
AcDbDictionaryWithDefault
340
F
  0
DICTIONARY
  5
47
102
{ACAD_REACTORS
330
C
102
}
330
C
100
AcDbDictionary
281
     1
  3
A0
350
48
  3
A1
350
49
  3
A2
350
4A
  3
A3
350
4B
  3
A4
350
4C
  3
A5
350
4D
  3
A6
350
4E
  3
A7
350
4F
  3
A8
350
50
  3
A9
350
51
  3
B0
350
52
  3
B1
350
53
  3
B2
350
54
  3
B3
350
55
  3
B4
350
56
  3
B5
350
57
  3
B6
350
58
  3
B7
350
59
  3
B8
350
5A
  3
B9
350
5B
  3
C0
350
5C
  3
C1
350
5D
  3
C2
350
5E
  3
C3
350
5F
  3
C4
350
60
  3
C5
350
61
  3
C6
350
62
  3
C7
350
63
  3
C8
350
64
  3
C9
350
65
  3
D0
350
66
  3
D1
350
67
  3
D2
350
68
  0
DICTIONARY
  5
1D4
102
{ACAD_REACTORS
330
C
102
}
330
C
100
AcDbDictionary
281
     1
  3
Metric50
350
1DB
  0
DICTIONARY
  5
69
102
{ACAD_REACTORS
330
C
102
}
330
C
100
AcDbDictionary
281
     1
  3
Standard
350
6A
  0
DICTIONARY
  5
2A
102
{ACAD_REACTORS
330
C
102
}
330
C
100
AcDbDictionary
281
     1
  3
2dWireframe
350
2F
  3
Basic
350
32
  3
Brighten
350
36
  3
ColorChange
350
3A
  3
Conceptual
350
34
  3
Dim
350
35
  3
EdgeColorOff
350
3D
  3
Facepattern
350
39
  3
Flat
350
2B
  3
FlatWithEdges
350
2C
  3
Gouraud
350
2D
  3
GouraudWithEdges
350
2E
  3
Hidden
350
31
  3
JitterOff
350
3B
  3
Linepattern
350
38
  3
OverhangOff
350
3C
  3
Realistic
350
33
  3
Shaded
350
42
  3
Shaded with edges
350
41
  3
Shades of Gray
350
3E
  3
Sketchy
350
3F
  3
Thicken
350
37
  3
Wireframe
350
30
  3
X-Ray
350
40
  0
WIPEOUTVARIABLES
  5
112
102
{ACAD_REACTORS
330
C
102
}
330
C
100
AcDbWipeoutVariables
 70
     0
  0
XRECORD
  5
1F0
102
{ACAD_REACTORS
330
C
102
}
330
C
100
AcDbXrecord
280
     1
 90
        1
330
6A
  0
DICTIONARY
  5
1CC
102
{ACAD_REACTORS
330
C
102
}
330
C
100
AcDbDictionary
281
     1
  3
CANNOSCALE
350
1CD
  3
CENTEREXE
350
1D6
  3
CENTERLTYPEFILE
350
1D7
  3
CMLEADERSTYLE
350
1D2
  3
CTABLESTYLE
350
1D1
  3
CVIEWDETAILSTYLE
350
1ED
  3
CVIEWSECTIONSTYLE
350
1EE
  3
WIPEOUTFRAME
350
1D5
  0
ACDBDETAILVIEWSTYLE
  5
1DC
102
{ACAD_REACTORS
330
1D3
102
}
330
1D3
100
AcDbModelDocViewStyle
 70
     0
  3
Metric50
290
     0
300
Metric50
 90
        0
100
AcDbDetailViewStyle
 70
     0
 71
     0
 90
        3
 71
     1
340
11
 62
   256
 40
5.0
340
0
 62
   256
 40
5.0
300

 40
0.0
280
     1
 71
     2
340
16
 90
       25
 62
   256
 71
     3
340
11
 62
   256
 40
5.0
 90
        0
 40
15.0
 90
        1
300
%<\AcVar ViewDetailId>% (%<\AcVar ViewScale \f "%sn">%)
 71
     4
340
16
 90
       25
 62
   256
340
16
 90
       25
 62
   256
280
     0
  0
LAYOUT
  5
1E
102
{ACAD_REACTORS
330
1A
102
}
330
1A
100
AcDbPlotSettings
  1

  2
none_device
  4

  6

 40
0.0
 41
0.0
 42
0.0
 43
0.0
 44
0.0
 45
0.0
 46
0.0
 47
0.0
 48
0.0
 49
0.0
140
0.0
141
0.0
142
1.0
143
1.0
 70
   688
 72
     1
 73
     0
 74
     5
  7

 75
    16
147
1.0
 76
     0
 77
     2
 78
   300
148
0.0
149
0.0
100
AcDbLayout
  1
Layout1
 70
     1
 71
     1
 10
0.0
 20
0.0
 11
420.0
 21
297.0
 12
0.0
 22
0.0
 32
0.0
 14
1.000000000000000E+20
 24
1.000000000000000E+20
 34
1.000000000000000E+20
 15
-1.000000000000000E+20
 25
-1.000000000000000E+20
 35
-1.000000000000000E+20
146
0.0
 13
0.0
 23
0.0
 33
0.0
 16
1.0
 26
0.0
 36
0.0
 17
0.0
 27
1.0
 37
0.0
 76
     0
330
1B
  0
LAYOUT
  5
26
102
{ACAD_REACTORS
330
1A
102
}
330
1A
100
AcDbPlotSettings
  1

  2
none_device
  4

  6

 40
0.0
 41
0.0
 42
0.0
 43
0.0
 44
0.0
 45
0.0
 46
0.0
 47
0.0
 48
0.0
 49
0.0
140
0.0
141
0.0
142
1.0
143
1.0
 70
   688
 72
     1
 73
     0
 74
     5
  7

 75
    16
147
1.0
 76
     0
 77
     2
 78
   300
148
0.0
149
0.0
100
AcDbLayout
  1
Layout2
 70
     1
 71
     2
 10
0.0
 20
0.0
 11
0.0
 21
0.0
 12
0.0
 22
0.0
 32
0.0
 14
0.0
 24
0.0
 34
0.0
 15
0.0
 25
0.0
 35
0.0
146
0.0
 13
0.0
 23
0.0
 33
0.0
 16
1.0
 26
0.0
 36
0.0
 17
0.0
 27
1.0
 37
0.0
 76
     0
330
23
  0
LAYOUT
  5
22
102
{ACAD_REACTORS
330
1A
102
}
330
1A
100
AcDbPlotSettings
  1

  2
none_device
  4
Letter_(8.50_x_11.00_Inches)
  6

 40
6.349999999999999
 41
6.349999999999999
 42
6.350005079999999
 43
6.350005079999999
 44
215.9
 45
279.4
 46
0.0
 47
0.0
 48
0.0
 49
0.0
140
0.0
141
0.0
142
1.0
143
1.0
 70
  1712
 72
     1
 73
     0
 74
     0
  7

 75
     0
147
1.0
 76
     0
 77
     2
 78
   300
148
0.0
149
0.0
100
AcDbLayout
  1
Model
 70
     1
 71
     0
 10
0.0
 20
0.0
 11
420.0
 21
297.0
 12
0.0
 22
0.0
 32
0.0
 14
-32.38279627780844
 24
-80.21338754855404
 34
0.0
 15
886.1066853688008
 25
155.9572825531077
 35
0.0
146
0.0
 13
0.0
 23
0.0
 33
0.0
 16
1.0
 26
0.0
 36
0.0
 17
0.0
 27
1.0
 37
0.0
 76
     0
330
1F
331
29
  0
MATERIAL
  5
45
102
{ACAD_REACTORS
330
43
102
}
330
43
100
AcDbMaterial
  1
ByBlock
  0
MATERIAL
  5
44
102
{ACAD_REACTORS
330
43
102
}
330
43
100
AcDbMaterial
  1
ByLayer
  0
MATERIAL
  5
46
102
{ACAD_REACTORS
330
43
102
}
330
43
100
AcDbMaterial
  1
Global
  0
MLEADERSTYLE
  5
6C
102
{ACAD_REACTORS
330
6B
102
}
330
6B
100
AcDbMLeaderStyle
179
     2
170
     2
171
     1
172
     0
 90
        2
 40
0.0
 41
0.0
173
     1
 91
-1056964608
340
14
 92
       -2
290
     1
 42
2.0
291
     1
 43
8.0
  3
Standard
 44
4.0
300

342
11
174
     1
178
     6
175
     1
176
     0
 93
-1056964608
 45
4.0
292
     0
297
     0
 46
4.0
 94
-1056964608
 47
1.0
 49
1.0
140
1.0
293
     1
141
0.0
294
     1
177
     0
142
1.0
295
     0
296
     0
143
3.75
271
     0
272
     9
273
     9
298
     0
  0
MLINESTYLE
  5
18
102
{ACAD_REACTORS
330
17
102
}
330
17
100
AcDbMlineStyle
  2
STANDARD
 70
     0
  3

 62
   256
 51
90.0
 52
90.0
 71
     2
 49
0.5
 62
   256
  6
BYLAYER
 49
-0.5
 62
   256
  6
BYLAYER
  0
ACDBPLACEHOLDER
  5
F
102
{ACAD_REACTORS
330
E
102
}
330
E
  0
SCALE
  5
48
102
{ACAD_REACTORS
330
47
102
}
330
47
100
AcDbScale
 70
     0
300
1:1
140
1.0
141
1.0
290
     1
  0
SCALE
  5
49
102
{ACAD_REACTORS
330
47
102
}
330
47
100
AcDbScale
 70
     0
300
1:2
140
1.0
141
2.0
290
     0
  0
SCALE
  5
4A
102
{ACAD_REACTORS
330
47
102
}
330
47
100
AcDbScale
 70
     0
300
1:4
140
1.0
141
4.0
290
     0
  0
SCALE
  5
4B
102
{ACAD_REACTORS
330
47
102
}
330
47
100
AcDbScale
 70
     0
300
1:5
140
1.0
141
5.0
290
     0
  0
SCALE
  5
4C
102
{ACAD_REACTORS
330
47
102
}
330
47
100
AcDbScale
 70
     0
300
1:8
140
1.0
141
8.0
290
     0
  0
SCALE
  5
4D
102
{ACAD_REACTORS
330
47
102
}
330
47
100
AcDbScale
 70
     0
300
1:10
140
1.0
141
10.0
290
     0
  0
SCALE
  5
4E
102
{ACAD_REACTORS
330
47
102
}
330
47
100
AcDbScale
 70
     0
300
1:16
140
1.0
141
16.0
290
     0
  0
SCALE
  5
4F
102
{ACAD_REACTORS
330
47
102
}
330
47
100
AcDbScale
 70
     0
300
1:20
140
1.0
141
20.0
290
     0
  0
SCALE
  5
50
102
{ACAD_REACTORS
330
47
102
}
330
47
100
AcDbScale
 70
     0
300
1:30
140
1.0
141
30.0
290
     0
  0
SCALE
  5
51
102
{ACAD_REACTORS
330
47
102
}
330
47
100
AcDbScale
 70
     0
300
1:40
140
1.0
141
40.0
290
     0
  0
SCALE
  5
52
102
{ACAD_REACTORS
330
47
102
}
330
47
100
AcDbScale
 70
     0
300
1:50
140
1.0
141
50.0
290
     0
  0
SCALE
  5
53
102
{ACAD_REACTORS
330
47
102
}
330
47
100
AcDbScale
 70
     0
300
1:100
140
1.0
141
100.0
290
     0
  0
SCALE
  5
54
102
{ACAD_REACTORS
330
47
102
}
330
47
100
AcDbScale
 70
     0
300
2:1
140
2.0
141
1.0
290
     0
  0
SCALE
  5
55
102
{ACAD_REACTORS
330
47
102
}
330
47
100
AcDbScale
 70
     0
300
4:1
140
4.0
141
1.0
290
     0
  0
SCALE
  5
56
102
{ACAD_REACTORS
330
47
102
}
330
47
100
AcDbScale
 70
     0
300
8:1
140
8.0
141
1.0
290
     0
  0
SCALE
  5
57
102
{ACAD_REACTORS
330
47
102
}
330
47
100
AcDbScale
 70
     0
300
10:1
140
10.0
141
1.0
290
     0
  0
SCALE
  5
58
102
{ACAD_REACTORS
330
47
102
}
330
47
100
AcDbScale
 70
     0
300
100:1
140
100.0
141
1.0
290
     0
  0
SCALE
  5
59
102
{ACAD_REACTORS
330
47
102
}
330
47
100
AcDbScale
 70
     0
300
1/128" = 1'-0"
140
0.0078125
141
12.0
290
     0
  0
SCALE
  5
5A
102
{ACAD_REACTORS
330
47
102
}
330
47
100
AcDbScale
 70
     0
300
1/64" = 1'-0"
140
0.015625
141
12.0
290
     0
  0
SCALE
  5
5B
102
{ACAD_REACTORS
330
47
102
}
330
47
100
AcDbScale
 70
     0
300
1/32" = 1'-0"
140
0.03125
141
12.0
290
     0
  0
SCALE
  5
5C
102
{ACAD_REACTORS
330
47
102
}
330
47
100
AcDbScale
 70
     0
300
1/16" = 1'-0"
140
0.0625
141
12.0
290
     0
  0
SCALE
  5
5D
102
{ACAD_REACTORS
330
47
102
}
330
47
100
AcDbScale
 70
     0
300
3/32" = 1'-0"
140
0.09375
141
12.0
290
     0
  0
SCALE
  5
5E
102
{ACAD_REACTORS
330
47
102
}
330
47
100
AcDbScale
 70
     0
300
1/8" = 1'-0"
140
0.125
141
12.0
290
     0
  0
SCALE
  5
5F
102
{ACAD_REACTORS
330
47
102
}
330
47
100
AcDbScale
 70
     0
300
3/16" = 1'-0"
140
0.1875
141
12.0
290
     0
  0
SCALE
  5
60
102
{ACAD_REACTORS
330
47
102
}
330
47
100
AcDbScale
 70
     0
300
1/4" = 1'-0"
140
0.25
141
12.0
290
     0
  0
SCALE
  5
61
102
{ACAD_REACTORS
330
47
102
}
330
47
100
AcDbScale
 70
     0
300
3/8" = 1'-0"
140
0.375
141
12.0
290
     0
  0
SCALE
  5
62
102
{ACAD_REACTORS
330
47
102
}
330
47
100
AcDbScale
 70
     0
300
1/2" = 1'-0"
140
0.5
141
12.0
290
     0
  0
SCALE
  5
63
102
{ACAD_REACTORS
330
47
102
}
330
47
100
AcDbScale
 70
     0
300
3/4" = 1'-0"
140
0.75
141
12.0
290
     0
  0
SCALE
  5
64
102
{ACAD_REACTORS
330
47
102
}
330
47
100
AcDbScale
 70
     0
300
1" = 1'-0"
140
1.0
141
12.0
290
     0
  0
SCALE
  5
65
102
{ACAD_REACTORS
330
47
102
}
330
47
100
AcDbScale
 70
     0
300
1-1/2" = 1'-0"
140
1.5
141
12.0
290
     0
  0
SCALE
  5
66
102
{ACAD_REACTORS
330
47
102
}
330
47
100
AcDbScale
 70
     0
300
3" = 1'-0"
140
3.0
141
12.0
290
     0
  0
SCALE
  5
67
102
{ACAD_REACTORS
330
47
102
}
330
47
100
AcDbScale
 70
     0
300
6" = 1'-0"
140
6.0
141
12.0
290
     0
  0
SCALE
  5
68
102
{ACAD_REACTORS
330
47
102
}
330
47
100
AcDbScale
 70
     0
300
1'-0" = 1'-0"
140
12.0
141
12.0
290
     0
  0
ACDBSECTIONVIEWSTYLE
  5
1DB
102
{ACAD_REACTORS
330
1D4
102
}
330
1D4
100
AcDbModelDocViewStyle
 70
     0
  3
Metric50
290
     0
300
Metric50
 90
        0
100
AcDbSectionViewStyle
 70
     0
 71
     0
 90
      102
 71
     1
340
11
 62
   256
 40
5.0
340
0
340
0
 62
   256
 40
5.0
300
I, O, Q, S, X, Z
 40
10.0
 90
        0
 40
2.5
 90
        0
 71
     2
340
16
 90
       25
 62
   256
340
16
 90
       50
 62
   256
 40
5.0
 40
2.5
 40
5.0
 71
     3
340
11
 62
   256
 40
5.0
 90
        0
 40
15.0
 90
        1
300
%<\AcVar ViewSectionStartId>%-%<\AcVar ViewSectionEndId>% (%<\AcVar ViewScale \f "%sn">%)
 71
     4
 62
   256
 62
   257
300
ANSI31
 40
1.0
 90
        0
290
     0
290
     0
 90
        6
 40
0.0
 40
1.570796326794896
 40
0.2617993877991494
 40
1.308996938995747
 40
-0.2617993877991494
 40
1.832595714594046
  0
TABLESTYLE
  5
6A
102
{ACAD_XDICTIONARY
360
1CE
102
}
102
{ACAD_REACTORS
330
69
102
}
330
69
100
AcDbTableStyle
280
     0
  3
Standard
 70
     0
 71
     0
 40
1.5
 41
1.5
280
     0
281
     0
  7
Standard
140
4.5
170
     2
 62
     0
 63
     7
283
     0
 90
        4
 91
        0
  1

274
    -2
284
     1
 64
     0
275
    -2
285
     1
 65
     0
276
    -2
286
     1
 66
     0
277
    -2
287
     1
 67
     0
278
    -2
288
     1
 68
     0
279
    -2
289
     1
 69
     0
  7
Standard
140
6.0
170
     5
 62
     0
 63
     7
283
     0
 90
        4
 91
        0
  1

274
    -2
284
     1
 64
     0
275
    -2
285
     1
 65
     0
276
    -2
286
     1
 66
     0
277
    -2
287
     1
 67
     0
278
    -2
288
     1
 68
     0
279
    -2
289
     1
 69
     0
  7
Standard
140
4.5
170
     5
 62
     0
 63
     7
283
     0
 90
        4
 91
        0
  1

274
    -2
284
     1
 64
     0
275
    -2
285
     1
 65
     0
276
    -2
286
     1
 66
     0
277
    -2
287
     1
 67
     0
278
    -2
288
     1
 68
     0
279
    -2
289
     1
 69
     0
  0
VISUALSTYLE
  5
2F
102
{ACAD_REACTORS
330
2A
102
}
330
2A
100
AcDbVisualStyle
  2
2dWireframe
 70
     4
177
     3
291
     0
 70
    58
 90
        0
176
     1
 90
        2
176
     1
 90
        0
176
     1
 90
        0
176
     1
 40
0.6
176
     1
 40
30.0
176
     1
 62
     7
420
 16777215
176
     1
 90
        1
176
     1
 90
        4
176
     1
 62
     7
176
     1
 62
   257
176
     1
 90
        1
176
     1
 90
        1
176
     1
 40
1.0
176
     1
 90
        0
176
     1
 62
   257
176
     1
 40
1.0
176
     1
 90
        1
176
     1
 90
        6
176
     1
 90
        2
176
     1
 62
     7
176
     1
 90
        5
176
     1
 90
        0
176
     1
 90
        0
176
     1
290
     0
176
     1
 90
        1
176
     1
 40
0.0
176
     1
 90
        0
176
     1
290
     1
176
     1
290
     1
176
     1
290
     0
176
     1
290
     0
176
     1
290
     0
176
     1
290
     0
176
     1
290
     0
176
     1
290
     0
176
     1
290
     0
176
     1
 90
       50
176
     1
 40
0.0
176
     1
 40
1.0
176
     1
 90
        0
176
     1
 62
    18
176
     1
 90
       50
176
     1
 90
        3
176
     1
 62
     5
420
      255
176
     1
290
     0
176
     1
 90
       50
176
     1
 90
       50
176
     1
 90
       50
176
     1
290
     0
176
     1
 90
       50
176
     1
 62
   256
176
     0
 40
1.0
176
     0
 90
        2
176
     1
  1
strokes_ogs.tif
176
     1
290
     0
176
     1
 40
1.0
176
     1
 40
1.0
176
     1
  0
VISUALSTYLE
  5
32
102
{ACAD_REACTORS
330
2A
102
}
330
2A
100
AcDbVisualStyle
  2
Basic
 70
     7
177
     3
291
     1
 70
    58
 90
        1
176
     1
 90
        0
176
     1
 90
        1
176
     1
 90
        0
176
     1
 40
0.6
176
     1
 40
30.0
176
     1
 62
     7
420
 16777215
176
     1
 90
        0
176
     1
 90
        4
176
     1
 62
     7
176
     1
 62
   257
176
     1
 90
        1
176
     1
 90
        1
176
     1
 40
1.0
176
     1
 90
        8
176
     1
 62
     7
176
     1
 40
1.0
176
     1
 90
        1
176
     1
 90
        6
176
     1
 90
        2
176
     1
 62
     7
176
     1
 90
        5
176
     1
 90
        0
176
     1
 90
        0
176
     1
290
     0
176
     1
 90
        1
176
     1
 40
0.0
176
     1
 90
        0
176
     1
290
     0
176
     1
290
     1
176
     1
290
     1
176
     1
290
     0
176
     1
290
     0
176
     1
290
     0
176
     1
290
     0
176
     1
290
     0
176
     1
290
     0
176
     1
 90
       50
176
     1
 40
0.0
176
     1
 40
1.0
176
     1
 90
        0
176
     1
 62
    18
176
     1
 90
       50
176
     1
 90
        3
176
     1
 62
     5
420
      255
176
     1
290
     0
176
     1
 90
       50
176
     1
 90
       50
176
     1
 90
       50
176
     1
290
     0
176
     1
 90
       50
176
     1
 62
   256
176
     0
 40
1.0
176
     0
 90
        2
176
     1
  1
strokes_ogs.tif
176
     1
290
     0
176
     1
 40
1.0
176
     1
 40
1.0
176
     1
  0
VISUALSTYLE
  5
36
102
{ACAD_REACTORS
330
2A
102
}
330
2A
100
AcDbVisualStyle
  2
Brighten
 70
    12
177
     3
291
     1
 70
    58
 90
        2
176
     1
 90
        2
176
     1
 90
        0
176
     1
 90
        0
176
     1
 40
0.6
176
     1
 40
30.0
176
     1
 62
     7
420
 16777215
176
     1
 90
        1
176
     1
 90
        4
176
     1
 62
     7
176
     1
 62
   257
176
     1
 90
        1
176
     1
 90
        1
176
     1
 40
1.0
176
     1
 90
        8
176
     1
 62
     7
176
     1
 40
1.0
176
     1
 90
        1
176
     1
 90
        6
176
     1
 90
        2
176
     1
 62
     7
176
     1
 90
        5
176
     1
 90
        0
176
     1
 90
        0
176
     1
290
     0
176
     1
 90
        1
176
     1
 40
50.0
176
     1
 90
        0
176
     1
290
     0
176
     1
290
     1
176
     1
290
     1
176
     1
290
     0
176
     1
290
     0
176
     1
290
     0
176
     1
290
     0
176
     1
290
     0
176
     1
290
     0
176
     1
 90
       50
176
     1
 40
0.0
176
     1
 40
1.0
176
     1
 90
        0
176
     1
 62
    18
176
     1
 90
       50
176
     1
 90
        3
176
     1
 62
     5
420
      255
176
     1
290
     0
176
     1
 90
       50
176
     1
 90
       50
176
     1
 90
       50
176
     1
290
     0
176
     1
 90
       50
176
     1
 62
   256
176
     0
 40
1.0
176
     0
 90
        2
176
     1
  1
strokes_ogs.tif
176
     1
290
     0
176
     1
 40
1.0
176
     1
 40
1.0
176
     1
  0
VISUALSTYLE
  5
3A
102
{ACAD_REACTORS
330
2A
102
}
330
2A
100
AcDbVisualStyle
  2
ColorChange
 70
    16
177
     3
291
     1
 70
    58
 90
        2
176
     1
 90
        2
176
     1
 90
        3
176
     1
 90
        0
176
     1
 40
0.6
176
     1
 40
30.0
176
     1
 62
     8
420
  8421504
176
     1
 90
        1
176
     1
 90
        4
176
     1
 62
     7
176
     1
 62
   257
176
     1
 90
        1
176
     1
 90
        1
176
     1
 40
1.0
176
     1
 90
        8
176
     1
 62
     8
420
  8421504
176
     1
 40
1.0
176
     1
 90
        1
176
     1
 90
        6
176
     1
 90
        2
176
     1
 62
     7
176
     1
 90
        5
176
     1
 90
        0
176
     1
 90
        0
176
     1
290
     0
176
     1
 90
        1
176
     1
 40
0.0
176
     1
 90
        0
176
     1
290
     0
176
     1
290
     1
176
     1
290
     1
176
     1
290
     0
176
     1
290
     0
176
     1
290
     0
176
     1
290
     0
176
     1
290
     0
176
     1
290
     0
176
     1
 90
       50
176
     1
 40
0.0
176
     1
 40
1.0
176
     1
 90
        0
176
     1
 62
    18
176
     1
 90
       50
176
     1
 90
        3
176
     1
 62
     5
420
      255
176
     1
290
     0
176
     1
 90
       50
176
     1
 90
       50
176
     1
 90
       50
176
     1
290
     0
176
     1
 90
       50
176
     1
 62
   256
176
     0
 40
1.0
176
     0
 90
        2
176
     1
  1
strokes_ogs.tif
176
     1
290
     0
176
     1
 40
1.0
176
     1
 40
1.0
176
     1
  0
VISUALSTYLE
  5
34
102
{ACAD_REACTORS
330
2A
102
}
330
2A
100
AcDbVisualStyle
  2
Conceptual
 70
     9
177
     3
291
     0
 70
    58
 90
        3
176
     1
 90
        2
176
     1
 90
        0
176
     1
 90
        0
176
     1
 40
0.6
176
     1
 40
30.0
176
     1
 62
     7
420
 16777215
176
     1
 90
        2
176
     1
 90
        2
176
     1
 62
     7
176
     1
 62
   257
176
     1
 90
        1
176
     1
 90
        1
176
     1
 40
179.0
176
     1
 90
        8
176
     1
 62
     7
176
     1
 40
1.0
176
     1
 90
        1
176
     1
 90
        6
176
     1
 90
        2
176
     1
 62
     7
176
     1
 90
        3
176
     1
 90
        0
176
     1
 90
        0
176
     1
290
     0
176
     1
 90
        1
176
     1
 40
0.0
176
     1
 90
        0
176
     1
290
     0
176
     1
290
     1
176
     1
290
     1
176
     1
290
     0
176
     1
290
     0
176
     1
290
     0
176
     1
290
     0
176
     1
290
     0
176
     1
290
     0
176
     1
 90
       50
176
     1
 40
0.0
176
     1
 40
1.0
176
     1
 90
        0
176
     1
 62
    18
176
     1
 90
       50
176
     1
 90
        3
176
     1
 62
     5
420
      255
176
     1
290
     0
176
     1
 90
       50
176
     1
 90
       50
176
     1
 90
       50
176
     1
290
     0
176
     1
 90
       50
176
     1
 62
   256
176
     0
 40
1.0
176
     0
 90
        2
176
     1
  1
strokes_ogs.tif
176
     1
290
     0
176
     1
 40
1.0
176
     1
 40
1.0
176
     1
  0
VISUALSTYLE
  5
35
102
{ACAD_REACTORS
330
2A
102
}
330
2A
100
AcDbVisualStyle
  2
Dim
 70
    11
177
     3
291
     1
 70
    58
 90
        2
176
     1
 90
        2
176
     1
 90
        0
176
     1
 90
        0
176
     1
 40
0.6
176
     1
 40
30.0
176
     1
 62
     7
420
 16777215
176
     1
 90
        1
176
     1
 90
        4
176
     1
 62
     7
176
     1
 62
   257
176
     1
 90
        1
176
     1
 90
        1
176
     1
 40
1.0
176
     1
 90
        8
176
     1
 62
     7
176
     1
 40
1.0
176
     1
 90
        1
176
     1
 90
        6
176
     1
 90
        2
176
     1
 62
     7
176
     1
 90
        5
176
     1
 90
        0
176
     1
 90
        0
176
     1
290
     0
176
     1
 90
        1
176
     1
 40
-50.0
176
     1
 90
        0
176
     1
290
     0
176
     1
290
     1
176
     1
290
     1
176
     1
290
     0
176
     1
290
     0
176
     1
290
     0
176
     1
290
     0
176
     1
290
     0
176
     1
290
     0
176
     1
 90
       50
176
     1
 40
0.0
176
     1
 40
1.0
176
     1
 90
        0
176
     1
 62
    18
176
     1
 90
       50
176
     1
 90
        3
176
     1
 62
     5
420
      255
176
     1
290
     0
176
     1
 90
       50
176
     1
 90
       50
176
     1
 90
       50
176
     1
290
     0
176
     1
 90
       50
176
     1
 62
   256
176
     0
 40
1.0
176
     0
 90
        2
176
     1
  1
strokes_ogs.tif
176
     1
290
     0
176
     1
 40
1.0
176
     1
 40
1.0
176
     1
  0
VISUALSTYLE
  5
3D
102
{ACAD_REACTORS
330
2A
102
}
330
2A
100
AcDbVisualStyle
  2
EdgeColorOff
 70
    22
177
     3
291
     1
 70
    58
 90
        2
176
     0
 90
        2
176
     0
 90
        0
176
     0
 90
        0
176
     0
 40
0.6
176
     0
 40
30.0
176
     0
 62
     7
420
 16777215
176
     0
 90
        1
176
     0
 90
        4
176
     0
 62
     7
176
     0
 62
   257
176
     0
 90
        1
176
     0
 90
        1
176
     0
 40
1.0
176
     0
 90
        8
176
     2
 62
     7
176
     0
 40
1.0
176
     0
 90
        1
176
     0
 90
        6
176
     0
 90
        2
176
     0
 62
     7
176
     0
 90
        5
176
     0
 90
        0
176
     0
 90
        0
176
     0
290
     0
176
     0
 90
        1
176
     0
 40
0.0
176
     0
 90
        0
176
     0
290
     0
176
     0
290
     1
176
     0
290
     1
176
     0
290
     0
176
     0
290
     0
176
     0
290
     0
176
     0
290
     0
176
     0
290
     0
176
     0
290
     0
176
     0
 90
       50
176
     0
 40
0.0
176
     0
 40
1.0
176
     0
 90
        0
176
     0
 62
    18
176
     0
 90
       50
176
     0
 90
        3
176
     0
 62
     5
420
      255
176
     0
290
     0
176
     0
 90
       50
176
     0
 90
       50
176
     0
 90
       50
176
     0
290
     0
176
     0
 90
       50
176
     0
 62
   256
176
     0
 40
1.0
176
     0
 90
        2
176
     0
  1
strokes_ogs.tif
176
     0
290
     0
176
     0
 40
1.0
176
     0
 40
1.0
176
     0
  0
VISUALSTYLE
  5
39
102
{ACAD_REACTORS
330
2A
102
}
330
2A
100
AcDbVisualStyle
  2
Facepattern
 70
    15
177
     3
291
     1
 70
    58
 90
        2
176
     1
 90
        2
176
     1
 90
        0
176
     1
 90
        0
176
     1
 40
0.6
176
     1
 40
30.0
176
     1
 62
     7
420
 16777215
176
     1
 90
        1
176
     1
 90
        4
176
     1
 62
     7
176
     1
 62
   257
176
     1
 90
        1
176
     1
 90
        1
176
     1
 40
1.0
176
     1
 90
        8
176
     1
 62
     7
176
     1
 40
1.0
176
     1
 90
        1
176
     1
 90
        6
176
     1
 90
        2
176
     1
 62
     7
176
     1
 90
        5
176
     1
 90
        0
176
     1
 90
        0
176
     1
290
     0
176
     1
 90
        1
176
     1
 40
0.0
176
     1
 90
        0
176
     1
290
     0
176
     1
290
     1
176
     1
290
     1
176
     1
290
     0
176
     1
290
     0
176
     1
290
     0
176
     1
290
     0
176
     1
290
     0
176
     1
290
     0
176
     1
 90
       50
176
     1
 40
0.0
176
     1
 40
1.0
176
     1
 90
        0
176
     1
 62
    18
176
     1
 90
       50
176
     1
 90
        3
176
     1
 62
     5
420
      255
176
     1
290
     0
176
     1
 90
       50
176
     1
 90
       50
176
     1
 90
       50
176
     1
290
     0
176
     1
 90
       50
176
     1
 62
   256
176
     0
 40
1.0
176
     0
 90
        2
176
     1
  1
strokes_ogs.tif
176
     1
290
     0
176
     1
 40
1.0
176
     1
 40
1.0
176
     1
  0
VISUALSTYLE
  5
2B
102
{ACAD_REACTORS
330
2A
102
}
330
2A
100
AcDbVisualStyle
  2
Flat
 70
     0
177
     3
291
     1
 70
    58
 90
        2
176
     1
 90
        1
176
     1
 90
        1
176
     1
 90
        2
176
     1
 40
0.6
176
     1
 40
30.0
176
     1
 62
     7
420
 16777215
176
     1
 90
        0
176
     1
 90
        0
176
     1
 62
     7
176
     1
 62
   257
176
     1
 90
        1
176
     1
 90
        1
176
     1
 40
1.0
176
     1
 90
        8
176
     1
 62
     7
176
     1
 40
1.0
176
     1
 90
        1
176
     1
 90
        6
176
     1
 90
        2
176
     1
 62
     7
176
     1
 90
        5
176
     1
 90
        0
176
     1
 90
        0
176
     1
290
     0
176
     1
 90
       13
176
     1
 40
0.0
176
     1
 90
        0
176
     1
290
     0
176
     1
290
     1
176
     1
290
     1
176
     1
290
     0
176
     1
290
     0
176
     1
290
     0
176
     1
290
     0
176
     1
290
     0
176
     1
290
     0
176
     1
 90
       50
176
     1
 40
0.0
176
     1
 40
1.0
176
     1
 90
        0
176
     1
 62
    18
176
     1
 90
       50
176
     1
 90
        3
176
     1
 62
     5
420
      255
176
     1
290
     0
176
     1
 90
       50
176
     1
 90
       50
176
     1
 90
       50
176
     1
290
     0
176
     1
 90
       50
176
     1
 62
   256
176
     0
 40
1.0
176
     0
 90
        2
176
     1
  1
strokes_ogs.tif
176
     1
290
     0
176
     1
 40
1.0
176
     1
 40
1.0
176
     1
  0
VISUALSTYLE
  5
2C
102
{ACAD_REACTORS
330
2A
102
}
330
2A
100
AcDbVisualStyle
  2
FlatWithEdges
 70
     1
177
     3
291
     1
 70
    58
 90
        2
176
     1
 90
        1
176
     1
 90
        1
176
     1
 90
        2
176
     1
 40
0.6
176
     1
 40
30.0
176
     1
 62
     7
420
 16777215
176
     1
 90
        1
176
     1
 90
        0
176
     1
 62
     7
176
     1
 62
   257
176
     1
 90
        1
176
     1
 90
        1
176
     1
 40
1.0
176
     1
 90
        0
176
     1
 62
   257
176
     1
 40
1.0
176
     1
 90
        1
176
     1
 90
        6
176
     1
 90
        2
176
     1
 62
     7
176
     1
 90
        5
176
     1
 90
        0
176
     1
 90
        0
176
     1
290
     0
176
     1
 90
       13
176
     1
 40
0.0
176
     1
 90
        0
176
     1
290
     0
176
     1
290
     1
176
     1
290
     1
176
     1
290
     0
176
     1
290
     0
176
     1
290
     0
176
     1
290
     0
176
     1
290
     0
176
     1
290
     0
176
     1
 90
       50
176
     1
 40
0.0
176
     1
 40
1.0
176
     1
 90
        0
176
     1
 62
    18
176
     1
 90
       50
176
     1
 90
        3
176
     1
 62
     5
420
      255
176
     1
290
     0
176
     1
 90
       50
176
     1
 90
       50
176
     1
 90
       50
176
     1
290
     0
176
     1
 90
       50
176
     1
 62
   256
176
     0
 40
1.0
176
     0
 90
        2
176
     1
  1
strokes_ogs.tif
176
     1
290
     0
176
     1
 40
1.0
176
     1
 40
1.0
176
     1
  0
VISUALSTYLE
  5
2D
102
{ACAD_REACTORS
330
2A
102
}
330
2A
100
AcDbVisualStyle
  2
Gouraud
 70
     2
177
     3
291
     1
 70
    58
 90
        2
176
     1
 90
        2
176
     1
 90
        1
176
     1
 90
        2
176
     1
 40
0.6
176
     1
 40
30.0
176
     1
 62
     7
420
 16777215
176
     1
 90
        0
176
     1
 90
        0
176
     1
 62
     7
176
     1
 62
   257
176
     1
 90
        1
176
     1
 90
        1
176
     1
 40
1.0
176
     1
 90
        0
176
     1
 62
     7
176
     1
 40
1.0
176
     1
 90
        1
176
     1
 90
        6
176
     1
 90
        2
176
     1
 62
     7
176
     1
 90
        5
176
     1
 90
        0
176
     1
 90
        0
176
     1
290
     0
176
     1
 90
       13
176
     1
 40
0.0
176
     1
 90
        0
176
     1
290
     0
176
     1
290
     1
176
     1
290
     1
176
     1
290
     0
176
     1
290
     0
176
     1
290
     0
176
     1
290
     0
176
     1
290
     0
176
     1
290
     0
176
     1
 90
       50
176
     1
 40
0.0
176
     1
 40
1.0
176
     1
 90
        0
176
     1
 62
    18
176
     1
 90
       50
176
     1
 90
        3
176
     1
 62
     5
420
      255
176
     1
290
     0
176
     1
 90
       50
176
     1
 90
       50
176
     1
 90
       50
176
     1
290
     0
176
     1
 90
       50
176
     1
 62
   256
176
     0
 40
1.0
176
     0
 90
        2
176
     1
  1
strokes_ogs.tif
176
     1
290
     0
176
     1
 40
1.0
176
     1
 40
1.0
176
     1
  0
VISUALSTYLE
  5
2E
102
{ACAD_REACTORS
330
2A
102
}
330
2A
100
AcDbVisualStyle
  2
GouraudWithEdges
 70
     3
177
     3
291
     1
 70
    58
 90
        2
176
     1
 90
        2
176
     1
 90
        1
176
     1
 90
        2
176
     1
 40
0.6
176
     1
 40
30.0
176
     1
 62
     7
420
 16777215
176
     1
 90
        1
176
     1
 90
        0
176
     1
 62
     7
176
     1
 62
   257
176
     1
 90
        1
176
     1
 90
        1
176
     1
 40
1.0
176
     1
 90
        0
176
     1
 62
   257
176
     1
 40
1.0
176
     1
 90
        1
176
     1
 90
        6
176
     1
 90
        2
176
     1
 62
     7
176
     1
 90
        5
176
     1
 90
        0
176
     1
 90
        0
176
     1
290
     0
176
     1
 90
       13
176
     1
 40
0.0
176
     1
 90
        0
176
     1
290
     0
176
     1
290
     1
176
     1
290
     1
176
     1
290
     0
176
     1
290
     0
176
     1
290
     0
176
     1
290
     0
176
     1
290
     0
176
     1
290
     0
176
     1
 90
       50
176
     1
 40
0.0
176
     1
 40
1.0
176
     1
 90
        0
176
     1
 62
    18
176
     1
 90
       50
176
     1
 90
        3
176
     1
 62
     5
420
      255
176
     1
290
     0
176
     1
 90
       50
176
     1
 90
       50
176
     1
 90
       50
176
     1
290
     0
176
     1
 90
       50
176
     1
 62
   256
176
     0
 40
1.0
176
     0
 90
        2
176
     1
  1
strokes_ogs.tif
176
     1
290
     0
176
     1
 40
1.0
176
     1
 40
1.0
176
     1
  0
VISUALSTYLE
  5
31
102
{ACAD_REACTORS
330
2A
102
}
330
2A
100
AcDbVisualStyle
  2
Hidden
 70
     6
177
     3
291
     0
 70
    58
 90
        1
176
     1
 90
        2
176
     1
 90
        2
176
     1
 90
        0
176
     1
 40
0.6
176
     1
 40
30.0
176
     1
 62
     7
420
 16777215
176
     1
 90
        2
176
     1
 90
        2
176
     1
 62
     7
176
     1
 62
   257
176
     1
 90
        2
176
     1
 90
        1
176
     1
 40
40.0
176
     1
 90
        0
176
     1
 62
   257
176
     1
 40
1.0
176
     1
 90
        1
176
     1
 90
        6
176
     1
 90
        2
176
     1
 62
     7
176
     1
 90
        3
176
     1
 90
        0
176
     1
 90
        0
176
     1
290
     0
176
     1
 90
        1
176
     1
 40
0.0
176
     1
 90
        0
176
     1
290
     0
176
     1
290
     1
176
     1
290
     1
176
     1
290
     0
176
     1
290
     0
176
     1
290
     0
176
     1
290
     0
176
     1
290
     0
176
     1
290
     0
176
     1
 90
       50
176
     1
 40
0.0
176
     1
 40
1.0
176
     1
 90
        0
176
     1
 62
    18
176
     1
 90
       50
176
     1
 90
        3
176
     1
 62
     5
420
      255
176
     1
290
     0
176
     1
 90
       50
176
     1
 90
       50
176
     1
 90
       50
176
     1
290
     0
176
     1
 90
       50
176
     1
 62
   256
176
     0
 40
1.0
176
     0
 90
        2
176
     1
  1
strokes_ogs.tif
176
     1
290
     0
176
     1
 40
1.0
176
     1
 40
1.0
176
     1
  0
VISUALSTYLE
  5
3B
102
{ACAD_REACTORS
330
2A
102
}
330
2A
100
AcDbVisualStyle
  2
JitterOff
 70
    20
177
     3
291
     1
 70
    58
 90
        2
176
     0
 90
        2
176
     0
 90
        0
176
     0
 90
        0
176
     0
 40
0.6
176
     0
 40
30.0
176
     0
 62
     7
420
 16777215
176
     0
 90
        1
176
     0
 90
        4
176
     0
 62
     7
176
     0
 62
   257
176
     0
 90
        1
176
     0
 90
        1
176
     0
 40
1.0
176
     0
 90
       10
176
     2
 62
     7
176
     0
 40
1.0
176
     0
 90
        1
176
     0
 90
        6
176
     0
 90
        2
176
     0
 62
     7
176
     0
 90
        5
176
     0
 90
        0
176
     0
 90
        0
176
     0
290
     0
176
     0
 90
        1
176
     0
 40
0.0
176
     0
 90
        0
176
     0
290
     0
176
     0
290
     1
176
     0
290
     1
176
     0
290
     0
176
     0
290
     0
176
     0
290
     0
176
     0
290
     0
176
     0
290
     0
176
     0
290
     0
176
     0
 90
       50
176
     0
 40
0.0
176
     0
 40
1.0
176
     0
 90
        0
176
     0
 62
    18
176
     0
 90
       50
176
     0
 90
        3
176
     0
 62
     5
420
      255
176
     0
290
     0
176
     0
 90
       50
176
     0
 90
       50
176
     0
 90
       50
176
     0
290
     0
176
     0
 90
       50
176
     0
 62
   256
176
     0
 40
1.0
176
     0
 90
        2
176
     0
  1
strokes_ogs.tif
176
     0
290
     0
176
     0
 40
1.0
176
     0
 40
1.0
176
     0
  0
VISUALSTYLE
  5
38
102
{ACAD_REACTORS
330
2A
102
}
330
2A
100
AcDbVisualStyle
  2
Linepattern
 70
    14
177
     3
291
     1
 70
    58
 90
        2
176
     1
 90
        2
176
     1
 90
        0
176
     1
 90
        0
176
     1
 40
0.6
176
     1
 40
30.0
176
     1
 62
     7
420
 16777215
176
     1
 90
        1
176
     1
 90
        4
176
     1
 62
     7
176
     1
 62
   257
176
     1
 90
        7
176
     1
 90
        7
176
     1
 40
1.0
176
     1
 90
        8
176
     1
 62
     7
176
     1
 40
1.0
176
     1
 90
        1
176
     1
 90
        6
176
     1
 90
        2
176
     1
 62
     7
176
     1
 90
        5
176
     1
 90
        0
176
     1
 90
        0
176
     1
290
     0
176
     1
 90
        1
176
     1
 40
0.0
176
     1
 90
        0
176
     1
290
     0
176
     1
290
     1
176
     1
290
     1
176
     1
290
     0
176
     1
290
     0
176
     1
290
     0
176
     1
290
     0
176
     1
290
     0
176
     1
290
     0
176
     1
 90
       50
176
     1
 40
0.0
176
     1
 40
1.0
176
     1
 90
        0
176
     1
 62
    18
176
     1
 90
       50
176
     1
 90
        3
176
     1
 62
     5
420
      255
176
     1
290
     0
176
     1
 90
       50
176
     1
 90
       50
176
     1
 90
       50
176
     1
290
     0
176
     1
 90
       50
176
     1
 62
   256
176
     0
 40
1.0
176
     0
 90
        2
176
     1
  1
strokes_ogs.tif
176
     1
290
     0
176
     1
 40
1.0
176
     1
 40
1.0
176
     1
  0
VISUALSTYLE
  5
3C
102
{ACAD_REACTORS
330
2A
102
}
330
2A
100
AcDbVisualStyle
  2
OverhangOff
 70
    21
177
     3
291
     1
 70
    58
 90
        2
176
     0
 90
        2
176
     0
 90
        0
176
     0
 90
        0
176
     0
 40
0.6
176
     0
 40
30.0
176
     0
 62
     7
420
 16777215
176
     0
 90
        1
176
     0
 90
        4
176
     0
 62
     7
176
     0
 62
   257
176
     0
 90
        1
176
     0
 90
        1
176
     0
 40
1.0
176
     0
 90
        9
176
     2
 62
     7
176
     0
 40
1.0
176
     0
 90
        1
176
     0
 90
        6
176
     0
 90
        2
176
     0
 62
     7
176
     0
 90
        5
176
     0
 90
        0
176
     0
 90
        0
176
     0
290
     0
176
     0
 90
        1
176
     0
 40
0.0
176
     0
 90
        0
176
     0
290
     0
176
     0
290
     1
176
     0
290
     1
176
     0
290
     0
176
     0
290
     0
176
     0
290
     0
176
     0
290
     0
176
     0
290
     0
176
     0
290
     0
176
     0
 90
       50
176
     0
 40
0.0
176
     0
 40
1.0
176
     0
 90
        0
176
     0
 62
    18
176
     0
 90
       50
176
     0
 90
        3
176
     0
 62
     5
420
      255
176
     0
290
     0
176
     0
 90
       50
176
     0
 90
       50
176
     0
 90
       50
176
     0
290
     0
176
     0
 90
       50
176
     0
 62
   256
176
     0
 40
1.0
176
     0
 90
        2
176
     0
  1
strokes_ogs.tif
176
     0
290
     0
176
     0
 40
1.0
176
     0
 40
1.0
176
     0
  0
VISUALSTYLE
  5
33
102
{ACAD_REACTORS
330
2A
102
}
330
2A
100
AcDbVisualStyle
  2
Realistic
 70
     8
177
     3
291
     0
 70
    58
 90
        2
176
     1
 90
        3
176
     1
 90
        0
176
     1
 90
        2
176
     1
 40
0.6
176
     1
 40
30.0
176
     1
 62
     7
420
 16777215
176
     1
 90
        0
176
     1
 90
        0
176
     1
 62
     7
176
     1
 62
   257
176
     1
 90
        1
176
     1
 90
        1
176
     1
 40
1.0
176
     1
 90
        8
176
     1
 62
   257
176
     1
 40
1.0
176
     1
 90
        1
176
     1
 90
        6
176
     1
 90
        2
176
     1
 62
     7
176
     1
 90
        3
176
     1
 90
        0
176
     1
 90
        0
176
     1
290
     0
176
     1
 90
       13
176
     1
 40
0.0
176
     1
 90
        0
176
     1
290
     0
176
     1
290
     1
176
     1
290
     1
176
     1
290
     0
176
     1
290
     0
176
     1
290
     0
176
     1
290
     0
176
     1
290
     0
176
     1
290
     0
176
     1
 90
       50
176
     1
 40
0.0
176
     1
 40
1.0
176
     1
 90
        0
176
     1
 62
    18
176
     1
 90
       50
176
     1
 90
        3
176
     1
 62
     5
420
      255
176
     1
290
     0
176
     1
 90
       50
176
     1
 90
       50
176
     1
 90
       50
176
     1
290
     0
176
     1
 90
       50
176
     1
 62
   256
176
     0
 40
1.0
176
     0
 90
        2
176
     1
  1
strokes_ogs.tif
176
     1
290
     0
176
     1
 40
1.0
176
     1
 40
1.0
176
     1
  0
VISUALSTYLE
  5
42
102
{ACAD_REACTORS
330
2A
102
}
330
2A
100
AcDbVisualStyle
  2
Shaded
 70
    27
177
     3
291
     0
 70
    58
 90
        2
176
     1
 90
        2
176
     1
 90
        1
176
     1
 90
        2
176
     1
 40
0.6
176
     1
 40
30.0
176
     1
 62
     7
420
 16777215
176
     1
 90
        0
176
     1
 90
        4
176
     1
 62
     7
176
     1
 62
   257
176
     1
 90
        1
176
     1
 90
        1
176
     1
 40
1.0
176
     1
 90
        8
176
     1
 62
   257
176
     1
 40
1.0
176
     1
 90
        1
176
     1
 90
        6
176
     1
 90
        2
176
     1
 62
     8
420
  7895160
176
     1
 90
        3
176
     1
 90
        0
176
     1
 90
        0
176
     1
290
     0
176
     1
 90
        5
176
     1
 40
0.0
176
     1
 90
        0
176
     1
290
     0
176
     1
290
     1
176
     1
290
     1
176
     1
290
     0
176
     1
290
     0
176
     1
290
     0
176
     1
290
     0
176
     1
290
     0
176
     1
290
     0
176
     1
 90
       50
176
     1
 40
0.0
176
     1
 40
1.0
176
     1
 90
        0
176
     1
 62
    18
176
     1
 90
       50
176
     1
 90
        3
176
     1
 62
     5
420
      255
176
     1
290
     0
176
     1
 90
       50
176
     1
 90
       50
176
     1
 90
       50
176
     1
290
     0
176
     1
 90
       50
176
     1
 62
   256
176
     0
 40
1.0
176
     0
 90
        2
176
     1
  1
strokes_ogs.tif
176
     1
290
     0
176
     1
 40
1.0
176
     1
 40
1.0
176
     1
  0
VISUALSTYLE
  5
41
102
{ACAD_REACTORS
330
2A
102
}
330
2A
100
AcDbVisualStyle
  2
Shaded with edges
 70
    26
177
     3
291
     0
 70
    58
 90
        2
176
     1
 90
        2
176
     1
 90
        1
176
     1
 90
        2
176
     1
 40
0.6
176
     1
 40
30.0
176
     1
 62
     7
420
 16777215
176
     1
 90
        1
176
     1
 90
       10
176
     1
 62
     7
176
     1
 62
   257
176
     1
 90
        2
176
     1
 90
        1
176
     1
 40
1.0
176
     1
 90
        8
176
     1
 62
   257
176
     1
 40
1.0
176
     1
 90
        1
176
     1
 90
        6
176
     1
 90
        2
176
     1
 62
     7
176
     1
 90
        3
176
     1
 90
        0
176
     1
 90
        0
176
     1
290
     0
176
     1
 90
        5
176
     1
 40
0.0
176
     1
 90
        0
176
     1
290
     0
176
     1
290
     1
176
     1
290
     1
176
     1
290
     0
176
     1
290
     0
176
     1
290
     0
176
     1
290
     0
176
     1
290
     0
176
     1
290
     0
176
     1
 90
       50
176
     1
 40
0.0
176
     1
 40
1.0
176
     1
 90
        0
176
     1
 62
    18
176
     1
 90
       50
176
     1
 90
        3
176
     1
 62
     5
420
      255
176
     1
290
     0
176
     1
 90
       50
176
     1
 90
       50
176
     1
 90
       50
176
     1
290
     0
176
     1
 90
       50
176
     1
 62
   256
176
     0
 40
1.0
176
     0
 90
        2
176
     1
  1
strokes_ogs.tif
176
     1
290
     0
176
     1
 40
1.0
176
     1
 40
1.0
176
     1
  0
VISUALSTYLE
  5
3E
102
{ACAD_REACTORS
330
2A
102
}
330
2A
100
AcDbVisualStyle
  2
Shades of Gray
 70
    23
177
     3
291
     0
 70
    58
 90
        2
176
     1
 90
        2
176
     1
 90
        3
176
     1
 90
        0
176
     1
 40
0.6
176
     1
 40
30.0
176
     1
 62
     7
420
 16777215
176
     1
 90
        2
176
     1
 90
        2
176
     1
 62
     7
176
     1
 62
     7
176
     1
 90
        1
176
     1
 90
        1
176
     1
 40
40.0
176
     1
 90
        8
176
     1
 62
     7
176
     1
 40
1.0
176
     1
 90
        1
176
     1
 90
        6
176
     1
 90
        2
176
     1
 62
     7
176
     1
 90
        3
176
     1
 90
        0
176
     1
 90
        0
176
     1
290
     0
176
     1
 90
        1
176
     1
 40
0.0
176
     1
 90
        0
176
     1
290
     0
176
     1
290
     1
176
     1
290
     1
176
     1
290
     0
176
     1
290
     0
176
     1
290
     0
176
     1
290
     0
176
     1
290
     0
176
     1
290
     0
176
     1
 90
       50
176
     1
 40
0.0
176
     1
 40
1.0
176
     1
 90
        0
176
     1
 62
    18
176
     1
 90
       50
176
     1
 90
        3
176
     1
 62
     5
420
      255
176
     1
290
     0
176
     1
 90
       50
176
     1
 90
       50
176
     1
 90
       50
176
     1
290
     0
176
     1
 90
       50
176
     1
 62
   256
176
     0
 40
1.0
176
     0
 90
        2
176
     1
  1
strokes_ogs.tif
176
     1
290
     0
176
     1
 40
1.0
176
     1
 40
1.0
176
     1
  0
VISUALSTYLE
  5
3F
102
{ACAD_REACTORS
330
2A
102
}
330
2A
100
AcDbVisualStyle
  2
Sketchy
 70
    24
177
     3
291
     0
 70
    58
 90
        1
176
     1
 90
        2
176
     1
 90
        2
176
     1
 90
        0
176
     1
 40
0.6
176
     1
 40
30.0
176
     1
 62
     7
420
 16777215
176
     1
 90
        2
176
     1
 90
        2
176
     1
 62
     7
176
     1
 62
     7
176
     1
 90
        1
176
     1
 90
        1
176
     1
 40
40.0
176
     1
 90
       11
176
     1
 62
     7
176
     1
 40
1.0
176
     1
 90
        1
176
     1
 90
        6
176
     1
 90
        2
176
     1
 62
     7
176
     1
 90
        6
176
     1
 90
        0
176
     1
 90
        0
176
     1
290
     0
176
     1
 90
        1
176
     1
 40
0.0
176
     1
 90
        0
176
     1
290
     0
176
     1
290
     1
176
     1
290
     1
176
     1
290
     0
176
     1
290
     0
176
     1
290
     0
176
     1
290
     0
176
     1
290
     0
176
     1
290
     0
176
     1
 90
       50
176
     1
 40
0.0
176
     1
 40
1.0
176
     1
 90
        0
176
     1
 62
    18
176
     1
 90
       50
176
     1
 90
        3
176
     1
 62
     5
420
      255
176
     1
290
     0
176
     1
 90
       50
176
     1
 90
       50
176
     1
 90
       50
176
     1
290
     0
176
     1
 90
       50
176
     1
 62
   256
176
     0
 40
1.0
176
     0
 90
        2
176
     1
  1
strokes_ogs.tif
176
     1
290
     0
176
     1
 40
1.0
176
     1
 40
1.0
176
     1
  0
VISUALSTYLE
  5
37
102
{ACAD_REACTORS
330
2A
102
}
330
2A
100
AcDbVisualStyle
  2
Thicken
 70
    13
177
     3
291
     1
 70
    58
 90
        2
176
     1
 90
        2
176
     1
 90
        0
176
     1
 90
        0
176
     1
 40
0.6
176
     1
 40
30.0
176
     1
 62
     7
420
 16777215
176
     1
 90
        1
176
     1
 90
        4
176
     1
 62
     7
176
     1
 62
   257
176
     1
 90
        1
176
     1
 90
        1
176
     1
 40
1.0
176
     1
 90
       12
176
     1
 62
     7
176
     1
 40
1.0
176
     1
 90
        1
176
     1
 90
        6
176
     1
 90
        2
176
     1
 62
     7
176
     1
 90
        5
176
     1
 90
        0
176
     1
 90
        0
176
     1
290
     0
176
     1
 90
        1
176
     1
 40
0.0
176
     1
 90
        0
176
     1
290
     0
176
     1
290
     1
176
     1
290
     1
176
     1
290
     0
176
     1
290
     0
176
     1
290
     0
176
     1
290
     0
176
     1
290
     0
176
     1
290
     0
176
     1
 90
       50
176
     1
 40
0.0
176
     1
 40
1.0
176
     1
 90
        0
176
     1
 62
    18
176
     1
 90
       50
176
     1
 90
        3
176
     1
 62
     5
420
      255
176
     1
290
     0
176
     1
 90
       50
176
     1
 90
       50
176
     1
 90
       50
176
     1
290
     0
176
     1
 90
       50
176
     1
 62
   256
176
     0
 40
1.0
176
     0
 90
        2
176
     1
  1
strokes_ogs.tif
176
     1
290
     0
176
     1
 40
1.0
176
     1
 40
1.0
176
     1
  0
VISUALSTYLE
  5
30
102
{ACAD_REACTORS
330
2A
102
}
330
2A
100
AcDbVisualStyle
  2
Wireframe
 70
     5
177
     3
291
     0
 70
    58
 90
        0
176
     1
 90
        2
176
     1
 90
        0
176
     1
 90
        0
176
     1
 40
0.6
176
     1
 40
30.0
176
     1
 62
     7
420
 16777215
176
     1
 90
        1
176
     1
 90
        4
176
     1
 62
     7
176
     1
 62
   257
176
     1
 90
        1
176
     1
 90
        1
176
     1
 40
1.0
176
     1
 90
        0
176
     1
 62
   257
176
     1
 40
1.0
176
     1
 90
        1
176
     1
 90
        6
176
     1
 90
        2
176
     1
 62
     7
176
     1
 90
        3
176
     1
 90
        0
176
     1
 90
        0
176
     1
290
     0
176
     1
 90
        1
176
     1
 40
0.0
176
     1
 90
        0
176
     1
290
     0
176
     1
290
     1
176
     1
290
     1
176
     1
290
     0
176
     1
290
     0
176
     1
290
     0
176
     1
290
     0
176
     1
290
     0
176
     1
290
     0
176
     1
 90
       50
176
     1
 40
0.0
176
     1
 40
1.0
176
     1
 90
        0
176
     1
 62
    18
176
     1
 90
       50
176
     1
 90
        3
176
     1
 62
     5
420
      255
176
     1
290
     0
176
     1
 90
       50
176
     1
 90
       50
176
     1
 90
       50
176
     1
290
     0
176
     1
 90
       50
176
     1
 62
   256
176
     0
 40
1.0
176
     0
 90
        2
176
     1
  1
strokes_ogs.tif
176
     1
290
     0
176
     1
 40
1.0
176
     1
 40
1.0
176
     1
  0
VISUALSTYLE
  5
40
102
{ACAD_REACTORS
330
2A
102
}
330
2A
100
AcDbVisualStyle
  2
X-Ray
 70
    25
177
     3
291
     0
 70
    58
 90
        2
176
     1
 90
        2
176
     1
 90
        1
176
     1
 90
        1
176
     1
 40
0.5
176
     1
 40
30.0
176
     1
 62
     7
420
 16777215
176
     1
 90
        1
176
     1
 90
        0
176
     1
 62
     7
176
     1
 62
   257
176
     1
 90
        1
176
     1
 90
        1
176
     1
 40
1.0
176
     1
 90
        8
176
     1
 62
     7
176
     1
 40
1.0
176
     1
 90
        1
176
     1
 90
        6
176
     1
 90
        2
176
     1
 62
     7
176
     1
 90
        3
176
     1
 90
        0
176
     1
 90
        0
176
     1
290
     0
176
     1
 90
       13
176
     1
 40
0.0
176
     1
 90
        0
176
     1
290
     0
176
     1
290
     1
176
     1
290
     1
176
     1
290
     0
176
     1
290
     0
176
     1
290
     0
176
     1
290
     0
176
     1
290
     0
176
     1
290
     0
176
     1
 90
       50
176
     1
 40
0.0
176
     1
 40
1.0
176
     1
 90
        0
176
     1
 62
    18
176
     1
 90
       50
176
     1
 90
        3
176
     1
 62
     5
420
      255
176
     1
290
     0
176
     1
 90
       50
176
     1
 90
       50
176
     1
 90
       50
176
     1
290
     0
176
     1
 90
       50
176
     1
 62
   256
176
     0
 40
1.0
176
     0
 90
        2
176
     1
  1
strokes_ogs.tif
176
     1
290
     0
176
     1
 40
1.0
176
     1
 40
1.0
176
     1
  0
DICTIONARYVAR
  5
1CD
102
{ACAD_REACTORS
330
1CC
102
}
330
1CC
100
DictionaryVariables
280
     0
  1
1:1
  0
DICTIONARYVAR
  5
1D6
102
{ACAD_REACTORS
330
1CC
102
}
330
1CC
100
DictionaryVariables
280
     0
  1
3.500000
  0
DICTIONARYVAR
  5
1D7
102
{ACAD_REACTORS
330
1CC
102
}
330
1CC
100
DictionaryVariables
280
     0
  1
acadiso.lin
  0
DICTIONARYVAR
  5
1D2
102
{ACAD_REACTORS
330
1CC
102
}
330
1CC
100
DictionaryVariables
280
     0
  1
STANDARD
  0
DICTIONARYVAR
  5
1D1
102
{ACAD_REACTORS
330
1CC
102
}
330
1CC
100
DictionaryVariables
280
     0
  1
STANDARD
  0
DICTIONARYVAR
  5
1ED
102
{ACAD_REACTORS
330
1CC
102
}
330
1CC
100
DictionaryVariables
280
     0
  1
Metric50
  0
DICTIONARYVAR
  5
1EE
102
{ACAD_REACTORS
330
1CC
102
}
330
1CC
100
DictionaryVariables
280
     0
  1
Metric50
  0
DICTIONARYVAR
  5
1D5
102
{ACAD_REACTORS
330
1CC
102
}
330
1CC
100
DictionaryVariables
280
     0
  1
0
  0
DICTIONARY
  5
1CE
330
6A
100
AcDbDictionary
280
     1
281
     1
  3
ACAD_ROUNDTRIP_2008_TABLESTYLE_CELLSTYLEMAP
360
1EF
  0
CELLSTYLEMAP
  5
1EF
102
{ACAD_REACTORS
330
1CE
102
}
330
1CE
100
AcDbCellStyleMap
 90
        3
300
CELLSTYLE
  1
TABLEFORMAT_BEGIN
 90
        5
170
     1
 91
        0
 92
    32768
 62
   257
 93
        1
300
CONTENTFORMAT
  1
CONTENTFORMAT_BEGIN
 90
        0
 91
        0
 92
        4
 93
        0
300

 40
0.0
140
1.0
 94
        5
 62
     0
340
11
144
6.0
309
CONTENTFORMAT_END
171
     1
301
MARGIN
  1
CELLMARGIN_BEGIN
 40
1.5
 40
1.5
 40
1.5
 40
1.5
 40
0.18
 40
0.18
309
CELLMARGIN_END
 94
        6
 95
        1
302
GRIDFORMAT
  1
GRIDFORMAT_BEGIN
 90
        0
 91
        1
 62
     0
 92
       -2
340
14
 93
        0
 40
0.045
309
GRIDFORMAT_END
 95
        2
302
GRIDFORMAT
  1
GRIDFORMAT_BEGIN
 90
        0
 91
        1
 62
     0
 92
       -2
340
14
 93
        0
 40
0.045
309
GRIDFORMAT_END
 95
        4
302
GRIDFORMAT
  1
GRIDFORMAT_BEGIN
 90
        0
 91
        1
 62
     0
 92
       -2
340
14
 93
        0
 40
0.045
309
GRIDFORMAT_END
 95
        8
302
GRIDFORMAT
  1
GRIDFORMAT_BEGIN
 90
        0
 91
        1
 62
     0
 92
       -2
340
14
 93
        0
 40
0.045
309
GRIDFORMAT_END
 95
       16
302
GRIDFORMAT
  1
GRIDFORMAT_BEGIN
 90
        0
 91
        1
 62
     0
 92
       -2
340
14
 93
        0
 40
0.045
309
GRIDFORMAT_END
 95
       32
302
GRIDFORMAT
  1
GRIDFORMAT_BEGIN
 90
        0
 91
        1
 62
     0
 92
       -2
340
14
 93
        0
 40
0.045
309
GRIDFORMAT_END
309
TABLEFORMAT_END
  1
CELLSTYLE_BEGIN
 90
        1
 91
        1
300
_TITLE
309
CELLSTYLE_END
300
CELLSTYLE
  1
TABLEFORMAT_BEGIN
 90
        5
170
     1
 91
        0
 92
        0
 62
   257
 93
        1
300
CONTENTFORMAT
  1
CONTENTFORMAT_BEGIN
 90
        0
 91
        0
 92
        4
 93
        0
300

 40
0.0
140
1.0
 94
        5
 62
     0
340
11
144
4.5
309
CONTENTFORMAT_END
171
     1
301
MARGIN
  1
CELLMARGIN_BEGIN
 40
1.5
 40
1.5
 40
1.5
 40
1.5
 40
0.18
 40
0.18
309
CELLMARGIN_END
 94
        6
 95
        1
302
GRIDFORMAT
  1
GRIDFORMAT_BEGIN
 90
        0
 91
        1
 62
     0
 92
       -2
340
14
 93
        0
 40
0.045
309
GRIDFORMAT_END
 95
        2
302
GRIDFORMAT
  1
GRIDFORMAT_BEGIN
 90
        0
 91
        1
 62
     0
 92
       -2
340
14
 93
        0
 40
0.045
309
GRIDFORMAT_END
 95
        4
302
GRIDFORMAT
  1
GRIDFORMAT_BEGIN
 90
        0
 91
        1
 62
     0
 92
       -2
340
14
 93
        0
 40
0.045
309
GRIDFORMAT_END
 95
        8
302
GRIDFORMAT
  1
GRIDFORMAT_BEGIN
 90
        0
 91
        1
 62
     0
 92
       -2
340
14
 93
        0
 40
0.045
309
GRIDFORMAT_END
 95
       16
302
GRIDFORMAT
  1
GRIDFORMAT_BEGIN
 90
        0
 91
        1
 62
     0
 92
       -2
340
14
 93
        0
 40
0.045
309
GRIDFORMAT_END
 95
       32
302
GRIDFORMAT
  1
GRIDFORMAT_BEGIN
 90
        0
 91
        1
 62
     0
 92
       -2
340
14
 93
        0
 40
0.045
309
GRIDFORMAT_END
309
TABLEFORMAT_END
  1
CELLSTYLE_BEGIN
 90
        2
 91
        1
300
_HEADER
309
CELLSTYLE_END
300
CELLSTYLE
  1
TABLEFORMAT_BEGIN
 90
        5
170
     1
 91
        0
 92
        0
 62
   257
 93
        1
300
CONTENTFORMAT
  1
CONTENTFORMAT_BEGIN
 90
        0
 91
        0
 92
        4
 93
        0
300

 40
0.0
140
1.0
 94
        2
 62
     0
340
11
144
4.5
309
CONTENTFORMAT_END
171
     1
301
MARGIN
  1
CELLMARGIN_BEGIN
 40
1.5
 40
1.5
 40
1.5
 40
1.5
 40
0.18
 40
0.18
309
CELLMARGIN_END
 94
        6
 95
        1
302
GRIDFORMAT
  1
GRIDFORMAT_BEGIN
 90
        0
 91
        1
 62
     0
 92
       -2
340
14
 93
        0
 40
0.045
309
GRIDFORMAT_END
 95
        2
302
GRIDFORMAT
  1
GRIDFORMAT_BEGIN
 90
        0
 91
        1
 62
     0
 92
       -2
340
14
 93
        0
 40
0.045
309
GRIDFORMAT_END
 95
        4
302
GRIDFORMAT
  1
GRIDFORMAT_BEGIN
 90
        0
 91
        1
 62
     0
 92
       -2
340
14
 93
        0
 40
0.045
309
GRIDFORMAT_END
 95
        8
302
GRIDFORMAT
  1
GRIDFORMAT_BEGIN
 90
        0
 91
        1
 62
     0
 92
       -2
340
14
 93
        0
 40
0.045
309
GRIDFORMAT_END
 95
       16
302
GRIDFORMAT
  1
GRIDFORMAT_BEGIN
 90
        0
 91
        1
 62
     0
 92
       -2
340
14
 93
        0
 40
0.045
309
GRIDFORMAT_END
 95
       32
302
GRIDFORMAT
  1
GRIDFORMAT_BEGIN
 90
        0
 91
        1
 62
     0
 92
       -2
340
14
 93
        0
 40
0.045
309
GRIDFORMAT_END
309
TABLEFORMAT_END
  1
CELLSTYLE_BEGIN
 90
        3
 91
        2
300
_DATA
309
CELLSTYLE_END
  0
ENDSEC
  0
EOF
